<svg height="512pt" viewBox="0 0 512.00027 512" width="512pt" xmlns="http://www.w3.org/2000/svg"><path d="m185.378906 282.484375h141.242188v97.101563h-141.242188zm0 0" fill="#f29c1f"/><path d="m388.414062 203.035156c14.625 0 26.484376-11.855468 26.484376-26.484375l2.550781-82.402343c1.625-24.378907-6.925781-48.339844-23.617188-66.179688-16.691406-17.84375-40.03125-27.96875-64.464843-27.96875h-146.734376c-24.433593 0-47.769531 10.125-64.464843 27.96875-16.691407 17.839844-25.242188 41.800781-23.617188 66.179688l2.554688 82.402343c0 14.628907 11.855469 26.484375 26.480469 26.484375zm0 0" fill="#804537"/><path d="m414.898438 512h97.101562v-7.855469c.015625-11.304687-1.347656-22.570312-4.0625-33.546875l-8.207031-33.277344c-9.523438-34.714843-41.429688-58.511718-77.417969-57.734374h-332.625c-35.988281-.777344-67.894531 23.019531-77.417969 57.734374l-8.207031 33.277344c-2.714844 10.976563-4.078125 22.242188-4.0625 33.546875v7.855469zm0 0" fill="#c03a2b"/><path d="m123.585938 133.0625c-.066407-18.308594 13.921874-33.609375 32.160156-35.183594 5.867187-.480468 12.746094-.773437 20.804687-.773437 44.140625 0 44.140625 8.824219 79.449219 8.824219s35.308594-8.824219 79.449219-8.824219c8.058593 0 14.9375.292969 20.804687.773437 18.238282 1.574219 32.226563 16.875 32.160156 35.183594v114.109375c0 34.128906-27.664062 61.792969-61.792968 61.792969h-141.242188c-34.125 0-61.792968-27.664063-61.792968-61.792969zm0 0" fill="#f0c419"/><path d="m344.277344 353.105469h45.636718c9.605469-.84375 18.539063 4.988281 21.628907 14.121093l29.835937 144.773438h-370.757812l29.925781-144.773438c3.046875-9.125 11.957031-14.964843 21.539063-14.121093zm0 0" fill="#e64c3c"/><path d="m256 70.621094c-12.253906-.25-24.242188-3.609375-34.84375-9.757813-8.15625-4.90625-17.4375-7.625-26.949219-7.898437-13.800781-.21875-27.496093 2.46875-40.1875 7.898437-2.824219 1.410157-6.183593 1.207031-8.816406-.53125-2.628906-1.738281-4.136719-4.746093-3.945313-7.894531.1875-3.148438 2.042969-5.957031 4.863282-7.367188 15.144531-6.652343 31.542968-9.980468 48.085937-9.761718 12.253907.253906 24.242188 3.609375 34.84375 9.761718 8.15625 4.902344 17.4375 7.625 26.949219 7.894532 9.511719-.269532 18.792969-2.992188 26.949219-7.894532 10.601562-6.152343 22.589843-9.507812 34.84375-9.761718 16.542969-.21875 32.941406 3.109375 48.085937 9.761718 4.285156 2.214844 5.996094 7.457032 3.84375 11.773438-2.148437 4.316406-7.363281 6.109375-11.714844 4.027344-12.714843-5.382813-26.40625-8.074219-40.214843-7.90625-9.511719.273437-18.792969 2.992187-26.949219 7.898437-10.601562 6.148438-22.589844 9.507813-34.84375 9.757813zm0 0" fill="#cb8252"/><path d="m344.277344 353.105469v17.652343c-.023438 29.242188-23.722656 52.941407-52.96875 52.964844h-70.617188c-29.242187-.023437-52.945312-23.722656-52.96875-52.964844v-17.652343zm0 0" fill="#f0c419"/><path d="m247.171875 423.722656h17.65625v88.277344h-17.65625zm0 0" fill="#802f34"/><path d="m300.136719 467.863281c0 4.875-3.949219 8.828125-8.828125 8.828125-4.875 0-8.824219-3.953125-8.824219-8.828125s3.949219-8.828125 8.824219-8.828125c4.878906 0 8.828125 3.953125 8.828125 8.828125zm0 0" fill="#802f34"/><g fill="#2c2f38"><path d="m297.734375 247.171875c-7.132813 13.957031-29.398437 15.933594-41.558594 15.933594-12.1875 0-34.421875-1.976563-41.554687-15.933594 13.601562 3.351563 27.546875 5.097656 41.554687 5.207031 14.007813-.105468 27.957031-1.855468 41.558594-5.207031zm0 0"/><path d="m232.878906 155.269531c-8.390625-3.085937-17.199218-4.871093-26.128906-5.296875-12.003906-.910156-24.015625 1.652344-34.605469 7.378906 1.207031-15.449218 37.023438-18.503906 54.53125-14.53125 2.777344.347657 5.191407 2.058594 6.441407 4.558594 1.246093 2.503906 1.15625 5.464844-.238282 7.890625zm0 0"/><path d="m229.515625 182.566406c0-10.453125-7.902344-18.925781-17.652344-18.925781s-17.65625 8.472656-17.65625 18.925781c0 10.449219 7.90625 18.921875 17.65625 18.921875s17.652344-8.472656 17.652344-18.921875zm0 0"/></g><path d="m216.8125 166.144531c-4.558594-1.734375-9.65625.554688-11.390625 5.113281-1.734375 4.558594.554687 9.65625 5.113281 11.390626 4.558594 1.730468 9.65625-.558594 11.390625-5.113282 1.730469-4.558594-.558593-9.65625-5.113281-11.390625zm0 0" fill="#fff"/><path d="m279.121094 155.269531c8.390625-3.085937 17.203125-4.871093 26.128906-5.296875 12.003906-.910156 24.015625 1.652344 34.605469 7.378906-1.207031-15.449218-37.023438-18.503906-54.53125-14.53125-2.773438.347657-5.191407 2.058594-6.441407 4.558594-1.246093 2.503906-1.15625 5.464844.238282 7.890625zm0 0" fill="#2c2f38"/><path d="m317.792969 182.566406c0-10.453125-7.902344-18.925781-17.65625-18.925781-9.75 0-17.652344 8.472656-17.652344 18.925781 0 10.449219 7.902344 18.921875 17.652344 18.921875 9.753906 0 17.65625-8.472656 17.65625-18.921875zm0 0" fill="#2c2f38"/><path d="m306.578125 171.257812c-1.734375-4.554687-6.832031-6.84375-11.390625-5.113281-4.554688 1.734375-6.84375 6.832031-5.113281 11.390625 1.734375 4.554688 6.835937 6.84375 11.390625 5.113282 4.558594-1.734376 6.847656-6.832032 5.113281-11.390626zm0 0" fill="#fff"/></svg>