<svg height="512pt" viewBox="-4 0 512 512.23511" width="512pt" xmlns="http://www.w3.org/2000/svg"><path d="m182.355469 286.371094h138.847656v78.101562h-138.847656zm0 0" fill="#f29c1f"/><path d="m416.660156 156.203125c-6.011718 16.042969-18.667968 28.703125-34.710937 34.710937l-8.679688-43.386718zm0 0" fill="#c03a2b"/><path d="m130.289062 147.527344-8.679687 43.386718c-16.042969-6.007812-28.703125-18.667968-34.710937-34.710937zm0 0" fill="#c03a2b"/><path d="m407.980469 503.320312h95.460937v-7.722656c.015625-11.113281-1.328125-22.1875-3.992187-32.976562l-8.070313-32.714844c-9.363281-34.125-40.730468-57.515625-76.105468-56.753906h-326.988282c-35.378906-.761719-66.746094 22.628906-76.105468 56.753906l-8.070313 32.714844c-2.667969 10.789062-4.007813 21.863281-3.992187 32.976562v7.722656zm0 0" fill="#4482c3"/><path d="m434.015625 503.320312h-364.472656l29.398437-142.292968c3.007813-8.984375 11.785156-14.734375 21.226563-13.910156h263.277343c9.441407-.824219 18.21875 4.925781 21.226563 13.910156zm0 0" fill="#e57e25"/><path d="m381.949219 121.492188v121.492187c.011719 16.113281-6.386719 31.570313-17.78125 42.964844s-26.851563 17.792969-42.964844 17.78125h-138.847656c-16.113281.011719-31.574219-6.386719-42.96875-17.78125s-17.789063-26.851563-17.777344-42.964844v-121.492187zm0 0" fill="#f0c419"/><g fill="#2c2f38"><path d="m165 216.949219c0 4.792969-3.886719 8.679687-8.679688 8.679687-4.792968 0-8.675781-3.886718-8.675781-8.679687s3.882813-8.679688 8.675781-8.679688c4.792969 0 8.679688 3.886719 8.679688 8.679688zm0 0"/><path d="m165 242.984375c0 4.792969-3.886719 8.675781-8.679688 8.675781-4.792968 0-8.675781-3.882812-8.675781-8.675781s3.882813-8.679687 8.675781-8.679687c4.792969 0 8.679688 3.886718 8.679688 8.679687zm0 0"/><path d="m191.03125 242.984375c0 4.792969-3.882812 8.675781-8.675781 8.675781s-8.679688-3.882812-8.679688-8.675781 3.886719-8.679687 8.679688-8.679687 8.675781 3.886718 8.675781 8.679687zm0 0"/><path d="m191.03125 269.015625c0 4.792969-3.882812 8.679687-8.675781 8.679687s-8.679688-3.886718-8.679688-8.679687 3.886719-8.675781 8.679688-8.675781 8.675781 3.882812 8.675781 8.675781zm0 0"/><path d="m217.066406 269.015625c0 4.792969-3.886718 8.679687-8.675781 8.679687-4.792969 0-8.679687-3.886718-8.679687-8.679687s3.886718-8.675781 8.679687-8.675781c4.789063 0 8.675781 3.882812 8.675781 8.675781zm0 0"/><path d="m355.914062 216.949219c0 4.792969-3.886718 8.679687-8.675781 8.679687-4.792969 0-8.679687-3.886718-8.679687-8.679687s3.886718-8.679688 8.679687-8.679688c4.789063 0 8.675781 3.886719 8.675781 8.679688zm0 0"/><path d="m355.914062 242.984375c0 4.792969-3.886718 8.675781-8.675781 8.675781-4.792969 0-8.679687-3.882812-8.679687-8.675781s3.886718-8.679687 8.679687-8.679687c4.789063 0 8.675781 3.886718 8.675781 8.679687zm0 0"/><path d="m329.878906 242.984375c0 4.792969-3.882812 8.675781-8.675781 8.675781s-8.679687-3.882812-8.679687-8.675781 3.886718-8.679687 8.679687-8.679687 8.675781 3.886718 8.675781 8.679687zm0 0"/><path d="m329.878906 269.015625c0 4.792969-3.882812 8.679687-8.675781 8.679687s-8.679687-3.886718-8.679687-8.679687 3.886718-8.675781 8.679687-8.675781 8.675781 3.882812 8.675781 8.675781zm0 0"/><path d="m303.847656 269.015625c0 4.792969-3.886718 8.679687-8.679687 8.679687s-8.675781-3.886718-8.675781-8.679687 3.882812-8.675781 8.675781-8.675781 8.679687 3.882812 8.679687 8.675781zm0 0"/></g><path d="m373.261719 512c-3.980469-.003906-7.445313-2.710938-8.40625-6.570312l-15.722657-62.851563h-194.707031l-15.722656 62.851563c-.679687 3.082031-2.980469 5.550781-6.011719 6.449218-3.027344.894532-6.304687.074219-8.550781-2.140625-2.25-2.21875-3.117187-5.480469-2.265625-8.523437l17.355469-69.421875c.964843-3.859375 4.433593-6.570313 8.414062-6.574219h208.269531c3.980469.003906 7.453126 2.710938 8.417969 6.574219l17.355469 69.421875c.648438 2.59375.066406 5.34375-1.582031 7.449218-1.644531 2.109376-4.171875 3.339844-6.84375 3.335938zm0 0" fill="#e6e7e8"/><path d="m138.964844 347.117188h34.710937v95.460937h-34.710937zm0 0" fill="#e6e7e8"/><path d="m329.878906 347.117188h34.714844v95.460937h-34.714844zm0 0" fill="#e6e7e8"/><path d="m416.660156 156.203125c-11.683594.03125-23.328125-1.28125-34.710937-3.90625-5.988281-1.214844-12.757813-2.777344-20.21875-4.769531-35.824219-10.164063-72.738281-15.992188-109.953125-17.359375-37.210938 1.367187-74.125 7.195312-109.949219 17.359375-7.460937 1.992187-14.230469 3.554687-20.21875 4.769531-11.382813 2.625-23.03125 3.9375-34.710937 3.90625 6.007812-16.042969 18.667968-28.703125 34.710937-34.710937 0-38.355469 17.355469-86.78125 69.421875-86.78125h26.035156v-17.355469c.027344-9.574219 7.78125-17.3281252 17.355469-17.355469h34.710937c9.574219.0273438 17.328126 7.78125 17.359376 17.355469v17.355469h26.03125c52.070312 0 69.425781 48.425781 69.425781 86.78125 16.042969 6.007812 28.699219 18.667968 34.710937 34.710937zm0 0" fill="#e64c3c"/><path d="m217.066406 34.710938v34.710937c0 4.792969-3.886718 8.679687-8.675781 8.679687-4.792969 0-8.679687-3.886718-8.679687-8.679687v-34.710937zm0 0" fill="#c03a2b"/><path d="m303.847656 34.710938v34.710937c0 4.792969-3.886718 8.679687-8.679687 8.679687s-8.675781-3.886718-8.675781-8.679687v-34.710937zm0 0" fill="#c03a2b"/><path d="m292.804688 242.984375c-7.011719 13.71875-28.898438 15.660156-40.851563 15.660156-11.980469 0-33.839844-1.941406-40.851563-15.660156 13.371094 3.292969 27.082032 5.011719 40.851563 5.117187 13.769531-.105468 27.480469-1.824218 40.851563-5.117187zm0 0" fill="#2c2f38"/><path d="m229.050781 152.636719c-8.25-3.03125-16.910156-4.789063-25.6875-5.207031-11.800781-.890626-23.609375 1.625-34.019531 7.253906 1.1875-15.1875 36.398438-18.1875 53.609375-14.285156 2.726563.339843 5.101563 2.023437 6.328125 4.484374 1.226562 2.460938 1.140625 5.371094-.230469 7.753907zm0 0" fill="#2c2f38"/><path d="m225.746094 179.472656c0-10.277344-7.773438-18.605468-17.355469-18.605468-9.585937 0-17.359375 8.328124-17.359375 18.605468 0 10.273438 7.773438 18.601563 17.359375 18.601563 9.582031 0 17.355469-8.328125 17.355469-18.601563zm0 0" fill="#2c2f38"/><path d="m213.253906 163.328125c-4.480468-1.703125-9.492187.546875-11.195312 5.027344s.546875 9.492187 5.027344 11.195312c4.476562 1.703125 9.492187-.546875 11.195312-5.027343 1.703125-4.476563-.546875-9.492188-5.027344-11.195313zm0 0" fill="#fff"/><path d="m274.507812 152.636719c8.246094-3.03125 16.910157-4.789063 25.6875-5.207031 11.800782-.890626 23.605469 1.625 34.015626 7.253906-1.1875-15.1875-36.394532-18.1875-53.605469-14.285156-2.726563.339843-5.105469 2.023437-6.332031 4.484374-1.222657 2.460938-1.136719 5.371094.234374 7.753907zm0 0" fill="#2c2f38"/><path d="m312.523438 179.472656c0-10.277344-7.769532-18.605468-17.355469-18.605468-9.585938 0-17.355469 8.328124-17.355469 18.605468 0 10.273438 7.769531 18.601563 17.355469 18.601563 9.585937 0 17.355469-8.328125 17.355469-18.601563zm0 0" fill="#2c2f38"/><path d="m301.5 168.355469c-1.703125-4.480469-6.71875-6.730469-11.195312-5.027344-4.480469 1.703125-6.730469 6.71875-5.027344 11.199219 1.703125 4.476562 6.714844 6.726562 11.195312 5.023437 4.480469-1.703125 6.730469-6.714843 5.027344-11.195312zm0 0" fill="#fff"/></svg>