<svg height="512pt" viewBox="0 0 512.00027 512" width="512pt" xmlns="http://www.w3.org/2000/svg"><path d="m388.414062 211.863281s11.449219-7.867187 26.484376-52.964843c8.824218-26.484376 8.824218-52.96875 0-70.621094-12.484376-24.96875-35.3125-35.3125-44.140626-61.792969-11.378906.632813-21.519531 7.394531-26.480468 17.652344 0 0 0-26.480469-35.3125-26.480469-19.238282.914062-38.125-5.378906-52.964844-17.65625-20.058594 5.925781-40.875 8.898438-61.792969 8.828125-35.308593 0-44.136719 26.480469-44.136719 26.480469-4.582031-5.035156-10.878906-8.183594-17.65625-8.824219 0 26.480469-22.828124 27.996094-35.308593 52.964844-8.828125 17.65625-17.65625 35.308593 0 79.449219 17.652343 44.136718 26.480469 52.964843 26.480469 52.964843zm0 0" fill="#805333"/><path d="m414.898438 512h97.101562v-7.855469c.015625-11.304687-1.347656-22.570312-4.0625-33.546875l-8.207031-33.277344c-9.523438-34.714843-41.429688-58.511718-77.417969-57.734374h-332.625c-35.988281-.777344-67.894531 23.019531-77.417969 57.734374l-8.207031 33.277344c-2.714844 10.976563-4.078125 22.242188-4.0625 33.546875v7.855469zm0 0" fill="#f0c419"/><path d="m185.378906 300.136719h141.242188v61.792969h-141.242188zm0 0" fill="#f29c1f"/><path d="m388.414062 186.816406v60.355469c0 34.128906-27.664062 61.792969-61.792968 61.792969h-141.242188c-34.125 0-61.792968-27.664063-61.792968-61.792969v-60.355469c-.117188-15.535156 3.300781-30.894531 9.996093-44.917968 8.394531-17.234376 22.363281-37.941407 42.96875-44.792969 26.484375-8.828125 44.140625 8.824219 79.449219 8.824219s52.964844-17.652344 79.449219-8.824219c20.605469 6.851562 34.574219 27.558593 42.96875 44.792969 6.695312 14.023437 10.113281 29.382812 9.996093 44.917968zm0 0" fill="#f0c419"/><path d="m335.449219 353.105469s0 70.617187-79.449219 70.617187-79.449219-70.617187-79.449219-70.617187zm0 0" fill="#f3d55b"/><path d="m441.378906 512h-370.757812l8.03125-38.753906c62.589844-30.542969 62.589844-120.140625 62.589844-120.140625h35.308593s0 70.617187 79.449219 70.617187 79.449219-70.617187 79.449219-70.617187h35.308593s0 89.597656 62.589844 120.054687c0 .046875.039063.085938.085938.085938zm0 0" fill="#e64c3c"/><path d="m141.242188 353.105469s0 89.597656-62.589844 120.140625l21.894531-106.019532c3.046875-9.125 11.957031-14.964843 21.539063-14.121093zm0 0" fill="#f3d55b"/><path d="m433.347656 473.160156c-62.589844-30.457031-62.589844-120.054687-62.589844-120.054687h19.15625c9.605469-.84375 18.539063 4.988281 21.628907 14.121093zm0 0" fill="#f3d55b"/><path d="m358.753906 512c11.042969-9.699219 14.917969-25.226562 9.734375-38.980469-5.179687-13.753906-18.34375-22.855469-33.039062-22.855469-14.699219 0-27.859375 9.101563-33.042969 22.855469-5.183594 13.753907-1.304688 29.28125 9.738281 38.980469zm0 0" fill="#ecf0f1"/><g fill="#2c2f38"><path d="m297.734375 247.171875c-7.132813 13.957031-29.398437 15.933594-41.558594 15.933594-12.1875 0-34.421875-1.976563-41.554687-15.933594 13.601562 3.351563 27.546875 5.097656 41.554687 5.207031 14.007813-.105468 27.957031-1.855468 41.558594-5.207031zm0 0"/><path d="m232.878906 155.269531c-8.390625-3.085937-17.199218-4.871093-26.128906-5.296875-12.003906-.910156-24.015625 1.652344-34.605469 7.378906 1.207031-15.449218 37.023438-18.503906 54.53125-14.53125 2.777344.347657 5.191407 2.058594 6.441407 4.558594 1.246093 2.503906 1.15625 5.464844-.238282 7.890625zm0 0"/><path d="m229.515625 182.566406c0-10.453125-7.902344-18.925781-17.652344-18.925781s-17.65625 8.472656-17.65625 18.925781c0 10.449219 7.90625 18.921875 17.65625 18.921875s17.652344-8.472656 17.652344-18.921875zm0 0"/></g><path d="m216.8125 166.144531c-4.558594-1.734375-9.65625.554688-11.390625 5.113281-1.734375 4.558594.554687 9.65625 5.113281 11.390626 4.558594 1.730468 9.65625-.558594 11.390625-5.113282 1.730469-4.558594-.558593-9.65625-5.113281-11.390625zm0 0" fill="#fff"/><path d="m279.121094 155.269531c8.390625-3.085937 17.203125-4.871093 26.128906-5.296875 12.003906-.910156 24.015625 1.652344 34.605469 7.378906-1.207031-15.449218-37.023438-18.503906-54.53125-14.53125-2.773438.347657-5.191407 2.058594-6.441407 4.558594-1.246093 2.503906-1.15625 5.464844.238282 7.890625zm0 0" fill="#2c2f38"/><path d="m317.792969 182.566406c0-10.453125-7.902344-18.925781-17.65625-18.925781-9.75 0-17.652344 8.472656-17.652344 18.925781 0 10.449219 7.902344 18.921875 17.652344 18.921875 9.753906 0 17.65625-8.472656 17.65625-18.921875zm0 0" fill="#2c2f38"/><path d="m306.578125 171.257812c-1.734375-4.554687-6.832031-6.84375-11.390625-5.113281-4.554688 1.734375-6.84375 6.832031-5.113281 11.390625 1.734375 4.554688 6.835937 6.84375 11.390625 5.113282 4.558594-1.734376 6.847656-6.832032 5.113281-11.390626zm0 0" fill="#fff"/></svg>