<svg height="512pt" viewBox="0 0 512.00027 512" width="512pt" xmlns="http://www.w3.org/2000/svg"><path d="m185.378906 264.828125h141.242188v79.449219h-141.242188zm0 0" fill="#95a5a5"/><path d="m220.691406 0h70.617188c4.878906 0 8.828125 3.953125 8.828125 8.828125v44.136719h-88.273438v-44.136719c0-4.875 3.949219-8.828125 8.828125-8.828125zm0 0" fill="#e6e7e8"/><path d="m512 504.144531v7.855469h-512v-7.855469c-.015625-11.304687 1.347656-22.570312 4.0625-33.546875l.527344-3.617187c27.453125-4.945313 48.375-32.308594 48.375-65.324219.089844-12.242188-2.949219-24.304688-8.828125-35.046875 13.53125-8.871094 29.371093-13.566406 45.550781-13.503906h332.625c16.179688-.0625 32.019531 4.632812 45.550781 13.503906-5.878906 10.742187-8.917969 22.804687-8.828125 35.046875 0 33.015625 20.921875 60.378906 48.375 65.324219l.527344 3.617187c2.714844 10.976563 4.078125 22.242188 4.0625 33.546875zm0 0" fill="#e6e7e8"/><path d="m441.378906 512h-370.757812l29.90625-171.230469c3.0625-9.140625 11.988281-14.988281 21.589844-14.148437h267.820312c9.601562-.839844 18.53125 5.007812 21.589844 14.148437zm0 0" fill="#bdc3c7"/><path d="m406.070312 512-24.101562-135.503906c-1.515625-8.417969-8.835938-14.550782-17.390625-14.566406h-217.15625c-8.539063.015624-15.832031 6.15625-17.304687 14.566406l-24.1875 135.503906h52.96875c-17.65625-17.65625-8.828126-61.792969-8.828126-61.792969s26.480469 17.65625 105.929688 17.65625 105.929688-17.65625 105.929688-17.65625 8.828124 35.308594 0 61.792969zm-150.070312-79.449219c-97.101562 0-97.101562-35.308593-97.101562-35.308593h194.207031s0 35.308593-97.105469 35.308593zm0 0" fill="#e6e7e8"/><path d="m185.378906 35.308594h141.242188c34.128906 0 61.792968 27.667968 61.792968 61.796875v123.585937c0 34.125-27.664062 61.792969-61.792968 61.792969h-141.242188c-34.125 0-61.792968-27.667969-61.792968-61.792969v-123.585937c0-34.128907 27.667968-61.796875 61.792968-61.796875zm0 0" fill="#bdc3c7"/><path d="m185.378906 70.621094h141.242188c14.625 0 26.484375 11.855468 26.484375 26.484375v123.585937c0 14.625-11.859375 26.480469-26.484375 26.480469h-141.242188c-14.625 0-26.480468-11.855469-26.480468-26.480469v-123.585937c0-14.628907 11.855468-26.484375 26.480468-26.484375zm0 0" fill="#e6e7e8"/><g fill="#2c2f38"><path d="m238.34375 123.585938c0 9.75-7.902344 17.65625-17.652344 17.65625-9.753906 0-17.65625-7.90625-17.65625-17.65625s7.902344-17.65625 17.65625-17.65625c9.75 0 17.652344 7.90625 17.652344 17.65625zm0 0"/><path d="m308.964844 123.585938c0 9.75-7.902344 17.65625-17.65625 17.65625-9.75 0-17.652344-7.90625-17.652344-17.65625s7.902344-17.65625 17.652344-17.65625c9.753906 0 17.65625 7.90625 17.65625 17.65625zm0 0"/><path d="m256 167.722656c-4.875 0-8.828125-3.949218-8.828125-8.824218v-8.828126c0-4.875 3.953125-8.828124 8.828125-8.828124s8.828125 3.953124 8.828125 8.828124v8.828126c0 4.875-3.953125 8.824218-8.828125 8.824218zm0 0"/><path d="m287.414062 211.863281h-62.828124c-11.402344.007813-21.523438-7.289062-25.121094-18.109375l-2.792969-8.375h-2.464844c-4.875 0-8.828125-3.953125-8.828125-8.828125s3.953125-8.828125 8.828125-8.828125h2.464844c7.605469-.003906 14.355469 4.863282 16.75 12.078125l2.785156 8.367188c1.203125 3.609375 4.578125 6.039062 8.378907 6.039062h62.828124c3.800782 0 7.179688-2.429687 8.378907-6.039062l2.792969-8.375c2.394531-7.210938 9.140624-12.078125 16.742187-12.070313h2.464844c4.875 0 8.828125 3.953125 8.828125 8.828125s-3.953125 8.828125-8.828125 8.828125h-2.464844l-2.792969 8.375c-3.59375 10.820313-13.71875 18.117188-25.121094 18.109375zm0 0"/><path d="m238.34375 220.691406c-4.875 0-8.828125-3.953125-8.828125-8.828125v-26.484375c0-4.875 3.953125-8.828125 8.828125-8.828125s8.828125 3.953125 8.828125 8.828125v26.484375c0 4.875-3.953125 8.828125-8.828125 8.828125zm0 0"/><path d="m273.65625 220.691406c-4.875 0-8.828125-3.953125-8.828125-8.828125v-26.484375c0-4.875 3.953125-8.828125 8.828125-8.828125s8.828125 3.953125 8.828125 8.828125v26.484375c0 4.875-3.953125 8.828125-8.828125 8.828125zm0 0"/></g><path d="m52.964844 401.65625c0 33.015625-20.921875 60.378906-48.375 65.324219l7.679687-56.144531c4.597657-18.265626 15.996094-34.085938 31.867188-44.226563 5.878906 10.742187 8.917969 22.804687 8.828125 35.046875zm0 0" fill="#bdc3c7"/><path d="m507.410156 466.980469c-27.453125-4.945313-48.375-32.308594-48.375-65.324219-.089844-12.242188 2.949219-24.304688 8.828125-35.046875 15.871094 10.140625 27.269531 25.960937 31.867188 44.226563zm0 0" fill="#bdc3c7"/></svg>