<svg height="512pt" viewBox="0 0 512.00027 512" width="512pt" xmlns="http://www.w3.org/2000/svg"><path d="m185.378906 291.308594h141.242188v105.933594h-141.242188zm0 0" fill="#f29c1f"/><path d="m512 504.144531v7.855469h-512v-7.855469c-.015625-11.304687 1.347656-22.570312 4.0625-33.546875l8.207031-33.277344c9.523438-34.714843 41.429688-58.511718 77.417969-57.734374h332.625c35.988281-.777344 67.894531 23.019531 77.417969 57.734374l8.207031 33.277344c2.714844 10.976563 4.078125 22.242188 4.0625 33.546875zm0 0" fill="#46b29d"/><path d="m441.378906 512h-370.757812l26.746094-132.414062.621093-3.265626 2.558594-12.625c.992187-4.460937 3.808594-8.304687 7.769531-10.589843h295.371094c3.957031 2.304687 6.792969 6.132812 7.855469 10.589843l2.558593 12.625.617188 3.265626zm0 0" fill="#9bc8c2"/><path d="m388.414062 61.792969v185.378906c.015626 2.125-.105468 4.246094-.351562 6.355469v.265625c-3.363281 31.394531-29.867188 55.195312-61.441406 55.171875h-141.242188c-31.574218.023437-58.078125-23.777344-61.441406-55.171875v-.265625c-.246094-2.109375-.367188-4.230469-.351562-6.355469v-185.378906zm0 0" fill="#f0c419"/><path d="m203.035156 353.105469 52.964844 79.445312 52.964844-79.445312" fill="#f0c419"/><path d="m167.722656 353.105469v61.792969c0 4.875-3.949218 8.824218-8.824218 8.824218-4.878907 0-8.828126-3.949218-8.828126-8.824218v-61.792969zm0 0" fill="#67b9cc"/><path d="m176.550781 485.515625c-4.875 0-8.828125-3.949219-8.828125-8.824219 0-4.878906 3.953125-8.828125 8.828125-8.828125 4.875-.003906 8.824219-3.957031 8.828125-8.828125v-17.65625c-.011718-9.746094-7.910156-17.644531-17.65625-17.65625h-17.652344c-9.746093.011719-17.644531 7.910156-17.65625 17.65625v17.65625c.003907 4.871094 3.953126 8.824219 8.828126 8.828125 4.875 0 8.828124 3.949219 8.828124 8.828125 0 4.875-3.953124 8.824219-8.828124 8.824219-14.621094-.015625-26.46875-11.863281-26.484376-26.480469v-17.65625c.019532-19.492187 15.820313-35.289062 35.3125-35.308594h17.652344c19.496094.019532 35.292969 15.816407 35.3125 35.308594v17.65625c-.015625 14.617188-11.863281 26.464844-26.484375 26.480469zm0 0" fill="#e6e7e8"/><path d="m361.929688 353.105469v70.617187c0 4.878906-3.949219 8.828125-8.824219 8.828125-4.878907 0-8.828125-3.949219-8.828125-8.828125v-70.617187zm0 0" fill="#67b9cc"/><path d="m379.585938 450.207031c0 14.625-11.855469 26.484375-26.480469 26.484375-14.628907 0-26.484375-11.859375-26.484375-26.484375s11.855468-26.484375 26.484375-26.484375c14.625 0 26.480469 11.859375 26.480469 26.484375zm0 0" fill="#bdc3c7"/><path d="m353.105469 485.515625c-19.503907 0-35.3125-15.808594-35.3125-35.308594s15.808593-35.308593 35.3125-35.308593c19.5 0 35.308593 15.808593 35.308593 35.308593-.019531 19.492188-15.816406 35.289063-35.308593 35.308594zm0-52.964844c-9.753907 0-17.65625 7.90625-17.65625 17.65625s7.902343 17.65625 17.65625 17.65625c9.75 0 17.652343-7.90625 17.652343-17.65625-.011718-9.746093-7.90625-17.644531-17.652343-17.65625zm0 0" fill="#e6e7e8"/><path d="m313.734375 353.105469-50.40625 75.5625c-1.648437 2.429687-4.394531 3.882812-7.328125 3.882812s-5.679688-1.453125-7.328125-3.882812l-50.402344-75.5625h21.183594l36.546875 54.730469 36.546875-54.730469zm0 0" fill="#e6e7e8"/><path d="m264.828125 423.722656v88.277344h-17.65625v-88.277344c0-4.875 3.953125-8.824218 8.828125-8.824218s8.828125 3.949218 8.828125 8.824218zm0 0" fill="#e6e7e8"/><path d="m273.65625 476.691406h-17.65625c-4.875 0-8.828125-3.953125-8.828125-8.828125s3.953125-8.828125 8.828125-8.828125h17.65625c4.875 0 8.828125 3.953125 8.828125 8.828125s-3.953125 8.828125-8.828125 8.828125zm0 0" fill="#e6e7e8"/><path d="m256 0c123.585938 0 202.671875 68.652344 194.207031 229.515625-5.972656 113.476563-56.390625 142.097656-88.382812 148.742187-3.667969.800782-7.445313-.816406-9.398438-4.027343-1.953125-3.210938-1.652343-7.304688.742188-10.199219 15.398437-18.265625 35.246093-55.433594 35.246093-125.6875 0-52.964844-35.308593-150.066406-132.414062-150.066406-97.101562 0-132.414062 97.101562-132.414062 150.066406 0 70.253906 19.847656 107.421875 35.246093 125.6875 2.394531 2.894531 2.695313 6.988281.742188 10.199219-1.953125 3.210937-5.730469 4.828125-9.398438 4.027343-31.992187-6.644531-82.410156-35.265624-88.382812-148.742187-8.464844-160.863281 70.621093-229.515625 194.207031-229.515625zm0 0" fill="#cc6f56"/><g fill="#2c2f38"><path d="m297.734375 251.585938c-7.132813 13.957031-29.398437 15.933593-41.558594 15.933593-12.1875 0-34.421875-1.976562-41.554687-15.933593 13.601562 3.351562 27.546875 5.097656 41.554687 5.207031 14.007813-.105469 27.957031-1.855469 41.558594-5.207031zm0 0"/><path d="m232.878906 155.269531c-8.390625-3.085937-17.199218-4.871093-26.128906-5.296875-12.003906-.910156-24.015625 1.652344-34.605469 7.378906 1.207031-15.449218 37.023438-18.503906 54.53125-14.53125 2.777344.347657 5.191407 2.058594 6.441407 4.558594 1.246093 2.503906 1.15625 5.464844-.238282 7.890625zm0 0"/><path d="m279.121094 155.269531c8.390625-3.085937 17.203125-4.871093 26.128906-5.296875 12.003906-.910156 24.015625 1.652344 34.605469 7.378906-1.207031-15.449218-37.023438-18.503906-54.53125-14.53125-2.773438.347657-5.191407 2.058594-6.441407 4.558594-1.246093 2.503906-1.15625 5.464844.238282 7.890625zm0 0"/><path d="m184.136719 169.828125s2.515625 11.277344 12.238281 9.078125c9.726562-2.199219 11.582031 2.023438 19.960938 1.347656 2.863281-.195312 5.746093-.019531 8.566406.527344 2.003906.464844 4.082031.496094 6.101562.097656 2.789063-.746094 2.550782-3.988281 1.570313-6.097656-3.875-8.359375-14.785157-8.972656-22.769531-8.042969-3.382813.917969-6.824219 1.613281-10.300782 2.078125-3.640625-1.011718-7.035156-2.757812-9.976562-5.128906.636718 2.265625.792968 4.640625.449218 6.972656-1.007812 1.917969-5.839843-.832031-5.839843-.832031zm0 0"/><path d="m229.515625 186.980469c0-10.453125-7.902344-18.925781-17.652344-18.925781s-17.65625 8.472656-17.65625 18.925781c0 10.449219 7.90625 18.921875 17.65625 18.921875s17.652344-8.472656 17.652344-18.921875zm0 0"/></g><path d="m216.8125 170.558594c-4.558594-1.730469-9.65625.558594-11.390625 5.113281-1.734375 4.558594.554687 9.65625 5.113281 11.390625 4.558594 1.730469 9.65625-.558594 11.390625-5.113281 1.730469-4.558594-.558593-9.65625-5.113281-11.390625zm0 0" fill="#fff"/><path d="m327.855469 169.828125s-2.511719 11.277344-12.238281 9.078125c-9.722657-2.199219-11.578126 2.023438-19.957032 1.347656-2.867187-.195312-5.746094-.019531-8.566406.527344-2.003906.464844-4.082031.496094-6.101562.097656-2.792969-.746094-2.550782-3.988281-1.574219-6.097656 3.878906-8.359375 14.789062-8.972656 22.769531-8.042969 3.386719.917969 6.828125 1.613281 10.304688 2.078125 3.640624-1.011718 7.035156-2.753906 9.972656-5.128906-.636719 2.265625-.789063 4.640625-.445313 6.972656 1.011719 1.917969 5.835938-.832031 5.835938-.832031zm0 0" fill="#2c2f38"/><path d="m317.789062 186.980469c0-10.453125-7.902343-18.925781-17.652343-18.925781-9.753907 0-17.65625 8.472656-17.65625 18.925781 0 10.449219 7.902343 18.921875 17.65625 18.921875 9.75 0 17.652343-8.472656 17.652343-18.921875zm0 0" fill="#2c2f38"/><path d="m306.574219 175.671875c-1.730469-4.558594-6.832031-6.847656-11.386719-5.113281-4.558594 1.734375-6.847656 6.832031-5.113281 11.390625 1.730469 4.554687 6.832031 6.84375 11.386719 5.113281 4.558593-1.734375 6.847656-6.835938 5.113281-11.390625zm0 0" fill="#fff"/></svg>