<svg height="512pt" viewBox="0 0 512 512.00177" width="512pt" xmlns="http://www.w3.org/2000/svg"><path d="m185.378906 291.308594h141.242188v79.449218h-141.242188zm0 0" fill="#f29c1f"/><path d="m414.898438 512h97.101562v-7.855469c.015625-11.304687-1.347656-22.570312-4.058594-33.546875l-8.210937-33.277344c-9.523438-34.714843-41.429688-58.511718-77.417969-57.734374h-332.625c-35.988281-.777344-67.894531 23.019531-77.417969 57.734374l-8.207031 33.277344c-2.714844 10.976563-4.078125 22.242188-4.0625 33.546875v7.855469zm0 0" fill="#35495e"/><path d="m388.414062 211.863281s11.449219-7.867187 26.484376-52.964843c8.828124-26.484376 8.828124-52.96875 0-70.621094-12.484376-24.96875-35.3125-35.3125-44.140626-61.792969-11.378906.632813-21.519531 7.394531-26.480468 17.652344 0 0 0-26.480469-35.3125-26.480469-19.234375.914062-38.125-5.378906-52.964844-17.65625-20.058594 5.925781-40.875 8.898438-61.792969 8.828125-35.308593 0-44.136719 26.480469-44.136719 26.480469-4.582031-5.035156-10.875-8.183594-17.65625-8.824219 0 26.480469-22.824218 27.996094-35.308593 52.964844-8.828125 17.652343-17.65625 35.308593 0 79.449219 17.652343 44.136718 26.480469 52.964843 26.480469 52.964843zm0 0" fill="#2c2f38"/><path d="m194.207031 512h-123.585937l29.925781-144.773438c3.046875-9.125 11.957031-14.964843 21.539063-14.125h36.8125s.96875 2.828126 2.648437 7.769532c.265625.707031.527344 1.5.792969 2.296875 1.148437 3.265625 2.472656 7.238281 3.972656 11.828125.195312.871094.460938 1.730468.792969 2.558594.707031 2.382812 1.589843 5.03125 2.386719 7.769531.441406 1.324219.792968 2.648437 1.234374 3.972656 1.855469 6.179687 3.882813 12.976563 5.828126 20.125.703124 2.648437 1.410156 5.296875 2.117187 8.035156 1.589844 5.914063 3.175781 12.003907 4.589844 18.183594.972656 4.0625 1.855469 8.035156 2.738281 12.09375.085938.441406.175781.972656.261719 1.414063.53125 2.734374 1.148437 5.472656 1.679687 8.121093.527344 2.734375 1.058594 5.472657 1.5 8.210938.441406 2.734375.96875 5.382812 1.324219 8.121093.882813 5.382813 1.589844 10.679688 2.117187 15.976563.265626 2.558594.53125 5.121094.707032 7.679687.175781 2.558594.351562 5.03125.441406 7.503907.089844 1.410156.089844 2.824219.089844 4.148437.085937 1.058594.085937 2.117188.085937 3.089844zm0 0" fill="#2c3e50"/><path d="m441.378906 512h-123.585937c0-1.675781 0-3.441406.089843-5.207031-.011718-.679688.015626-1.355469.085938-2.03125.089844-2.472657.265625-4.945313.441406-7.503907.089844-1.324218.179688-2.648437.355469-3.972656.085937-1.234375.265625-2.472656.351563-3.707031.089843-1.058594.175781-2.117187.355468-3.179687.441406-4.234376 1.058594-8.472657 1.765625-12.796876.351563-2.738281.882813-5.386718 1.324219-8.121093.441406-2.738281.96875-5.476563 1.5-8.210938.527344-2.648437 1.148438-5.386719 1.675781-8.121093.089844-.441407.175781-.882813.265625-1.414063.882813-3.882813 1.765625-7.855469 2.648438-11.652344 0-.175781.089844-.265625.089844-.441406 1.410156-6.265625 3-12.359375 4.589843-18.183594.703125-2.738281 1.410157-5.386719 2.117188-8.035156 1.941406-7.238281 3.972656-13.945313 5.828125-20.125.441406-1.324219.792968-2.648437 1.234375-3.972656 1.851562-6.089844 3.53125-11.476563 5.121093-16.066407.351563-1.234374.792969-2.472656 1.144532-3.621093.355468-.878907.621094-1.675781.882812-2.46875.265625-.796875.53125-1.589844.796875-2.296875.175781-.617188.351563-1.234375.527344-1.765625.179687-.527344.355469-1.058594.53125-1.5.351563-.972657.617187-1.855469.882813-2.472657.132812-.511718.3125-1.015624.53125-1.5 0-.089843.085937-.175781.085937-.265624 0-.085938 0-.085938.089844-.175782v-.089844h36.808593c9.605469-.839843 18.539063 4.992188 21.628907 14.125zm0 0" fill="#2c3e50"/><path d="m388.414062 186.792969v60.378906c.011719 16.394531-6.492187 32.117187-18.085937 43.707031-11.589844 11.59375-27.3125 18.097656-43.707031 18.085938h-141.242188c-16.390625.011718-32.113281-6.492188-43.707031-18.085938-11.589844-11.589844-18.097656-27.3125-18.085937-43.707031v-60.378906c-.113282-15.539063 3.296874-30.902344 9.976562-44.933594 8.386719-17.214844 22.421875-37.871094 42.992188-44.757813 26.480468-8.824218 44.136718 8.828126 79.445312 8.828126 35.3125 0 52.964844-17.652344 79.449219-8.828126 20.566406 6.886719 34.605469 27.542969 42.992187 44.757813 6.679688 14.03125 10.089844 29.394531 9.972656 44.933594zm0 0" fill="#f0c419"/><path d="m291.3125 176.550781h-70.621094c-4.875 0-8.828125-3.953125-8.828125-8.828125s3.953125-8.824218 8.828125-8.824218h70.621094c4.875 0 8.828125 3.949218 8.828125 8.824218s-3.953125 8.828125-8.828125 8.828125zm0 0" fill="#2c2f38"/><path d="m158.90625 176.550781c-.722656 0-1.445312-.085937-2.148438-.265625l-31.867187-7.941406c-3.117187-.710938-5.609375-3.050781-6.515625-6.117188-.902344-3.070312-.074219-6.386718 2.167969-8.671874 2.238281-2.285157 5.539062-3.179688 8.625-2.339844l31.867187 7.945312c4.320313 1.082032 7.15625 5.214844 6.617188 9.636719-.542969 4.421875-4.292969 7.746094-8.746094 7.753906zm0 0" fill="#2c2f38"/><path d="m353.09375 176.550781c-4.453125-.007812-8.203125-3.332031-8.742188-7.753906-.542968-4.421875 2.292969-8.550781 6.613282-9.636719l31.871094-7.945312c3.085937-.839844 6.382812.054687 8.625 2.339844 2.238281 2.285156 3.066406 5.601562 2.164062 8.671874-.902344 3.066407-3.394531 5.40625-6.515625 6.117188l-31.867187 7.941406c-.703126.179688-1.421876.265625-2.148438.265625zm0 0" fill="#2c2f38"/><path d="m361.933594 353.101562s-67.269532 41.402344-92.160156 60.03125c-7.277344 4.074219-12.335938 11.203126-13.773438 19.417969 0-7.414062-6.972656-14.917969-17.035156-21.714843-25.601563-17.566407-88.894532-57.734376-88.894532-57.734376zm0 0" fill="#f0c419"/><path d="m353.105469 401.6875c-2.113281 5.554688-4.421875 11.585938-6.636719 18.09375-.800781 2.386719-1.605469 4.761719-2.410156 7.222656-1.808594 5.238282-3.621094 10.714844-5.226563 16.347656-1.105469 3.574219-2.113281 7.222657-3.117187 10.875-.101563.476563-.203125.871094-.300782 1.269532-.707031 2.460937-1.308593 4.839844-1.910156 7.300781-.601562 2.460937-1.207031 4.921875-1.710937 7.378906-.601563 2.460938-1.105469 4.84375-1.507813 7.304688-1.003906 4.839843-1.808594 9.679687-2.410156 14.363281-.402344 2.300781-.605469 4.679688-.804688 6.902344-.300781 2.304687-.402343 4.605468-.503906 6.746094-.082031.605468-.113281 1.214843-.101562 1.828124-.097656 1.585938-.097656 3.175782-.097656 4.679688h-140.730469c0-33.964844-15.078125-79.835938-26.738281-110.3125 11.121093 7.457031 23.636718 12.585938 36.789062 15.078125 10.054688-15.871094 40.210938-15.871094 40.210938-15.871094l.703124-3.652343c11.453126 6.109374 19.398438 12.855468 19.398438 19.523437 0-5.953125 6.234375-11.90625 15.683594-17.460937l4.421875 1.589843s1.105469 0 2.816406.078125c7.738281.476563 29.25 2.9375 37.390625 15.792969 13.15625-2.496094 25.671875-7.625 36.792969-15.078125zm0 0" fill="#e64c3c"/><path d="m230.136719 393.179688-.617188 4.0625s-26.484375 0-35.3125 17.65625c-11.953125-2.9375-23.03125-8.6875-32.308593-16.773438-6.53125-21.539062-11.828126-36.195312-11.828126-36.195312h8.828126c24.933593 7.472656 48.855468 17.964843 71.238281 31.25zm0 0" fill="#e64c3c"/><path d="m361.933594 361.929688s-1.0625 2.828124-2.648438 7.769531c-.320312.746093-.585937 1.511719-.796875 2.296875-1.941406 5.558594-4.414062 13.152344-7.148437 22.15625-.441406 1.234375-.796875 2.648437-1.238282 3.972656-9.277343 8.085938-20.355468 13.835938-32.308593 16.773438-7.148438-14.300782-26.039063-17.039063-32.835938-17.570313-1.503906-.085937-2.472656-.085937-2.472656-.085937l-3.882813-1.765626c24.890626-18.625 74.503907-33.546874 74.503907-33.546874zm0 0" fill="#e64c3c"/><g fill="#2c2f38"><path d="m255.265625 423.722656c-5.074219.199219-9.351563-3.75-9.5625-8.824218 0-11.722657-46.808594-32.863282-88.8125-44.511719-2.347656-.542969-4.367187-2.03125-5.582031-4.113281-1.214844-2.078126-1.515625-4.570313-.835938-6.882813 1.78125-4.808594 7-7.398437 11.910156-5.914063 24.035157 6.652344 102.445313 30.753907 102.445313 61.421876-.210937 5.074218-4.488281 9.023437-9.5625 8.824218zm0 0"/><path d="m194.207031 423.722656c-.582031 0-1.160156-.058594-1.730469-.175781-13.476562-3.246094-25.972656-9.695313-36.421874-18.800781-2.363282-2.089844-3.433594-5.28125-2.808594-8.371094.628906-3.089844 2.855468-5.613281 5.847656-6.617188 2.988281-1.003906 6.285156-.332031 8.652344 1.753907 6.664062 5.761719 14.363281 10.207031 22.683594 13.101562 13.1875-15.996093 37.925781-16.199219 39.089843-16.199219 4.875-.007812 8.832031 3.9375 8.839844 8.816407.007813 4.875-3.941406 8.832031-8.816406 8.839843-.402344.003907-21.328125.542969-27.4375 12.773438-1.5 2.988281-4.554688 4.878906-7.898438 4.878906zm0 0"/><path d="m317.792969 423.722656c-3.34375 0-6.398438-1.890625-7.894531-4.882812-5.171876-10.34375-20.921876-12.34375-25.628907-12.710938-.941406-.054687-1.699219-.058594-1.804687-.058594-4.875-.007812-8.824219-3.964843-8.820313-8.839843.007813-4.875 3.964844-8.820313 8.839844-8.816407 0 0 1.164063 0 2.980469.097657 13.660156.511719 26.597656 6.277343 36.105468 16.09375 8.324219-2.890625 16.023438-7.335938 22.6875-13.097657 3.65625-3.226562 9.234376-2.882812 12.464844.773438 3.226563 3.65625 2.878906 9.234375-.777344 12.464844-10.449218 9.105468-22.945312 15.558594-36.421874 18.800781-.570313.117187-1.148438.175781-1.730469.175781zm0 0"/><path d="m256.738281 423.722656c-5.078125.199219-9.355469-3.75-9.566406-8.824218 0-30.671876 78.410156-54.769532 102.449219-61.425782 4.90625-1.472656 10.117187 1.113282 11.90625 5.917969.683594 2.308594.378906 4.800781-.832032 6.882813-1.214843 2.078124-3.234374 3.566406-5.582031 4.109374-42.007812 11.652344-88.8125 32.792969-88.8125 44.515626-.210937 5.074218-4.488281 9.023437-9.5625 8.824218zm0 0"/></g><path d="m194.207031 512h-17.652343c-8.828126-26.484375-44.140626-35.308594-44.140626-35.308594 3.394532-12.863281 9.402344-24.882812 17.65625-35.3125l-17.65625-8.828125c0-52.964843 17.65625-79.449219 17.65625-79.449219h8.828126s.96875 2.828126 2.648437 7.769532c.265625.707031.527344 1.5.792969 2.296875 1.148437 3.265625 2.472656 7.238281 3.972656 11.828125.195312.871094.460938 1.730468.792969 2.558594.707031 2.382812 1.589843 5.03125 2.386719 7.769531.441406 1.324219.792968 2.648437 1.234374 3.972656 1.855469 6.179687 3.882813 12.976563 5.828126 20.125.703124 2.648437 1.410156 5.296875 2.117187 8.035156 1.589844 5.914063 3.175781 12.003907 4.589844 18.183594.972656 4.0625 1.855469 8.035156 2.738281 12.09375.085938.441406.175781.972656.261719 1.414063.53125 2.734374 1.148437 5.472656 1.679687 8.121093.527344 2.734375 1.058594 5.472657 1.5 8.210938.441406 2.734375.96875 5.382812 1.324219 8.121093.882813 5.382813 1.589844 10.679688 2.117187 15.976563.265626 2.558594.53125 5.121094.707032 7.679687.175781 2.558594.351562 5.03125.441406 7.503907.089844 1.410156.089844 2.824219.089844 4.148437.085937 1.058594.085937 2.117188.085937 3.089844zm0 0" fill="#35495e"/><path d="m361.933594 441.378906c8.25 10.429688 14.261718 22.449219 17.652344 35.3125 0 0-35.308594 8.824219-44.136719 35.308594h-17.65625c0-1.675781 0-3.441406.089843-5.207031-.011718-.679688.015626-1.355469.085938-2.03125.089844-2.472657.265625-4.945313.441406-7.503907.089844-1.324218.179688-2.648437.355469-3.972656.085937-1.234375.265625-2.472656.351563-3.707031.089843-1.058594.175781-2.117187.355468-3.179687.441406-4.234376 1.058594-8.472657 1.765625-12.796876.351563-2.738281.882813-5.386718 1.324219-8.121093.441406-2.738281.96875-5.476563 1.5-8.210938.527344-2.648437 1.148438-5.386719 1.675781-8.121093.089844-.441407.175781-.882813.265625-1.414063.882813-3.882813 1.765625-7.855469 2.648438-11.652344 0-.175781.089844-.265625.089844-.441406 1.410156-6.265625 3-12.359375 4.589843-18.183594.703125-2.738281 1.410157-5.386719 2.117188-8.035156 1.941406-7.238281 3.972656-13.945313 5.828125-20.125.441406-1.324219.792968-2.648437 1.234375-3.972656 1.851562-6.089844 3.53125-11.476563 5.121093-16.066407.351563-1.234374.792969-2.472656 1.144532-3.621093.355468-.878907.621094-1.675781.882812-2.46875.265625-.796875.53125-1.589844.796875-2.296875.175781-.617188.351563-1.234375.527344-1.765625.179687-.527344.355469-1.058594.53125-1.5.351563-.972657.617187-1.855469.882813-2.472657.132812-.511718.3125-1.015624.53125-1.5 0-.089843.085937-.175781.085937-.265624 0-.085938 0-.085938.089844-.175782v-.089844h8.828125s17.652344 26.484376 17.652344 79.449219zm0 0" fill="#35495e"/><path d="m158.898438 158.898438h70.621093c4.875 0 8.828125 3.949218 8.828125 8.824218v17.65625c0 19.5-15.8125 35.3125-35.3125 35.3125h-8.828125c-19.5 0-35.308593-15.8125-35.308593-35.3125zm0 0" fill="#2c2f38"/><path d="m282.484375 158.898438h70.621094v26.480468c0 19.5-15.808594 35.3125-35.3125 35.3125h-8.828125c-19.5 0-35.308594-15.8125-35.308594-35.3125v-17.65625c0-4.875 3.953125-8.824218 8.828125-8.824218zm0 0" fill="#2c2f38"/><path d="m185.378906 512h-18.359375c-8.738281-19.421875-36.457031-26.660156-36.8125-26.746094-2.34375-.664062-4.339843-2.214844-5.558593-4.328125-1.175782-2.167969-1.398438-4.722656-.621094-7.0625 3.261718-10.164062 7.578125-19.957031 12.890625-29.21875l-8.476563-4.234375c-3-1.460937-4.890625-4.519531-4.855468-7.859375-.859376-27.394531 4.734374-54.613281 16.332031-79.449219h18.980469c-.023438 1.730469-.542969 3.417969-1.5 4.855469-.089844.265625-15.007813 23.570313-16.066407 69.210938l12.710938 6.355469c2.53125 1.257812 4.304687 3.652343 4.765625 6.445312.417968 2.804688-.496094 5.644531-2.472656 7.679688-1.421876 1.644531-2.691407 3.417968-3.792969 5.296874-3.476563 5.804688-6.402344 11.921876-8.742188 18.269532 12.449219 4.855468 33.898438 16.246094 41.136719 37.960937.285156.914063.433594 1.867188.441406 2.824219zm0 0" fill="#bdc3c7"/><path d="m375.085938 444.644531 8.472656-4.234375c3.003906-1.460937 4.894531-4.519531 4.855468-7.859375.863282-27.394531-4.730468-54.613281-16.332031-79.449219h-18.976562v.089844c.019531 1.703125.542969 3.359375 1.5 4.765625.089843.265625 15.007812 23.570313 16.066406 69.210938l-12.710937 6.355469c-2.464844 1.277343-4.191407 3.625-4.679688 6.355468-.46875 2.777344.378906 5.613282 2.296875 7.679688 5.550781 7.089844 9.824219 15.097656 12.621094 23.65625-12.445313 4.855468-33.898438 16.246094-41.136719 37.960937-.28125.914063-.429688 1.867188-.441406 2.824219h18.363281c8.738281-19.421875 36.457031-26.660156 36.722656-26.746094 2.402344-.582031 4.449219-2.148437 5.640625-4.3125 1.191406-2.167968 1.417969-4.734375.625-7.078125-3.257812-10.164062-7.578125-19.957031-12.886718-29.21875zm0 0" fill="#bdc3c7"/><path d="m301.242188 242.207031c-4.867188 15.023438-27.769532 22.402344-40.171876 24.574219-12.425781 2.175781-35.441406 4.203125-45.121093-8.273438 14.464843.871094 28.980469.101563 43.273437-2.289062 14.480469-3.109375 28.570313-7.808594 42.019532-14.011719zm0 0" fill="#2c2f38"/></svg>