<svg height="512pt" viewBox="0 0 512.00027 512" width="512pt" xmlns="http://www.w3.org/2000/svg"><path d="m414.898438 512h97.101562v-7.855469c.015625-11.304687-1.347656-22.570312-4.0625-33.546875l-8.207031-33.277344c-9.523438-34.714843-41.429688-58.511718-77.417969-57.734374h-332.625c-35.988281-.777344-67.894531 23.019531-77.417969 57.734374l-8.207031 33.277344c-2.714844 10.976563-4.078125 22.242188-4.0625 33.546875v7.855469zm0 0" fill="#bdc3c7"/><path d="m185.378906 273.65625h141.242188v114.757812h-141.242188zm0 0" fill="#f29c1f"/><path d="m441.378906 512h-370.757812l29.90625-144.746094c3.0625-9.140625 11.988281-14.992187 21.589844-14.148437h267.820312c9.601562-.84375 18.53125 5.007812 21.589844 14.148437zm0 0" fill="#e6e7e8"/><path d="m388.414062 100.457031v146.714844c.011719 16.394531-6.496093 32.117187-18.085937 43.707031-11.589844 11.59375-27.316406 18.097656-43.707031 18.085938h-141.242188c-16.390625.011718-32.117187-6.492188-43.707031-18.085938-11.589844-11.589844-18.097656-27.3125-18.085937-43.707031v-141.242187zm0 0" fill="#f0c419"/><path d="m418.707031 147.292969c-.753906 2.664062-2.710937 4.820312-5.292969 5.820312-2.578124 1.003907-5.480468.738281-7.832031-.71875-17.207031-10.71875-58.238281-30.925781-123.097656-30.925781-85.1875 0-162.253906 35.398438-223.074219 37.339844-3.941406-.035156-7.386718-2.65625-8.476562-6.445313l-4.324219-13.769531c-.808594-2.355469-.617187-4.941406.53125-7.152344 86.507813-26.480468 121.730469-87.480468 217.6875-104.957031 55.53125-10.933594 113.105469 1.835937 158.808594 35.21875l.351562-.085937c.472657 1.398437.769531 2.851562.882813 4.324218 2.652344 27.269532.566406 54.792969-6.164063 81.351563zm0 0" fill="#2c3e50"/><path d="m423.988281 61.617188-.351562.085937c-2.121094-1.675781-46.523438-34.777344-141.152344-17.566406-95.957031 17.480469-148.835937 60.824219-235.34375 87.304687.707031-1.753906 2.023437-3.195312 3.707031-4.058594 13.859375-7.59375 45.726563-26.925781 63.910156-52.613281 26.484376-37.339843 52.964844-74.769531 141.242188-74.769531 52.4375 0 116.082031 24.980469 160.132812 51.375 3.796876 2.324219 6.597657 5.972656 7.855469 10.242188zm0 0" fill="#35495e"/><path d="m291.308594 512c17.65625-44.136719-8.824219-70.621094-8.824219-70.621094l-4.96875-20.691406 40.277344 3.035156c22.078125 24.175782 34.628906 55.546875 35.3125 88.277344zm0 0" fill="#802f34"/><path d="m203.035156 432.550781c-9.003906 6.445313-35.3125 30.015625-35.3125 79.449219h52.96875c1.007813-27.539062 13.886719-53.289062 35.308594-70.621094l-2.480469-19.585937zm0 0" fill="#802f34"/><path d="m180.964844 253.738281c-7.460938-.300781-14.484375-3.601562-19.480469-9.152343-3.347656-3.464844-3.296875-8.96875.105469-12.375 3.40625-3.40625 8.910156-3.453126 12.375-.105469 5.363281 5.359375 8.636718 5.359375 14 0 11.300781-12.976563 29.664062-17.207031 45.5-10.484375 4.320312 2.179687 6.078125 7.433594 3.941406 11.777344-2.132812 4.339843-7.367188 6.15625-11.734375 4.0625-9.066406-3.28125-19.214844-.414063-25.222656 7.125-4.996094 5.550781-12.023438 8.851562-19.484375 9.152343zm0 0" fill="#2c2f38"/><path d="m331.035156 253.738281c-7.460937-.300781-14.488281-3.601562-19.484375-9.152343-5.960937-7.539063-16.074219-10.425782-25.121093-7.171876-2.820313 1.410157-6.179688 1.207032-8.8125-.527343-2.628907-1.738281-4.136719-4.75-3.945313-7.898438.1875-3.148437 2.042969-5.957031 4.863281-7.367187 15.835938-6.710938 34.195313-2.480469 45.5 10.484375 5.363282 5.359375 8.636719 5.359375 14 0 3.464844-3.347657 8.96875-3.300781 12.375.105469s3.453125 8.910156.105469 12.375c-4.996094 5.550781-12.019531 8.851562-19.480469 9.152343zm0 0" fill="#2c2f38"/><path d="m423.722656 61.792969-.085937-.089844" fill="#2c3e50"/><path d="m379.585938 353.105469c-1.046876 23.125-10.457032 45.082031-26.480469 61.792969-16.449219 15.679687-39.546875 22.277343-61.796875 17.652343v-35.308593c26.484375-8.828126 35.3125-44.136719 35.3125-44.136719zm0 0" fill="#e64c3c"/><path d="m132.414062 353.105469c0 105.929687 114.757813 79.445312 114.757813 79.445312v-35.308593s-70.621094 0-70.621094-44.136719zm0 0" fill="#e64c3c"/><path d="m256 388.414062h26.484375c9.75 0 17.652344 7.90625 17.652344 17.65625v17.652344c0 9.753906-7.902344 17.65625-17.652344 17.65625h-26.484375c-9.75 0-17.65625-7.902344-17.65625-17.65625v-17.652344c0-9.75 7.90625-17.65625 17.65625-17.65625zm0 0" fill="#c03a2b"/><g fill="#2c2f38"><path d="m297.734375 256c-7.132813 13.957031-29.398437 15.933594-41.558594 15.933594-12.1875 0-34.421875-1.976563-41.554687-15.933594 13.601562 3.351562 27.546875 5.097656 41.554687 5.207031 14.007813-.105469 27.957031-1.855469 41.558594-5.207031zm0 0"/><path d="m232.878906 164.09375c-8.390625-3.082031-17.199218-4.867188-26.128906-5.296875-12.003906-.90625-24.015625 1.65625-34.605469 7.378906 1.207031-15.445312 37.023438-18.5 54.53125-14.527343 2.777344.34375 5.191407 2.058593 6.441407 4.558593 1.246093 2.503907 1.15625 5.464844-.238282 7.886719zm0 0"/><path d="m229.515625 191.394531c0-10.453125-7.902344-18.925781-17.652344-18.925781s-17.65625 8.472656-17.65625 18.925781c0 10.449219 7.90625 18.921875 17.65625 18.921875s17.652344-8.472656 17.652344-18.921875zm0 0"/></g><path d="m216.8125 174.972656c-4.558594-1.734375-9.65625.554688-11.390625 5.113282-1.730469 4.554687.558594 9.65625 5.113281 11.386718 4.558594 1.734375 9.65625-.554687 11.390625-5.109375 1.730469-4.558593-.558593-9.65625-5.113281-11.390625zm0 0" fill="#fff"/><path d="m279.121094 164.09375c8.390625-3.082031 17.203125-4.867188 26.128906-5.296875 12.003906-.90625 24.015625 1.65625 34.605469 7.378906-1.207031-15.445312-37.023438-18.5-54.53125-14.527343-2.773438.34375-5.191407 2.058593-6.441407 4.558593-1.246093 2.503907-1.15625 5.464844.238282 7.886719zm0 0" fill="#2c2f38"/><path d="m317.792969 191.394531c0-10.453125-7.902344-18.925781-17.65625-18.925781-9.75 0-17.652344 8.472656-17.652344 18.925781 0 10.449219 7.902344 18.921875 17.652344 18.921875 9.753906 0 17.65625-8.472656 17.65625-18.921875zm0 0" fill="#2c2f38"/><path d="m306.578125 180.085938c-1.734375-4.558594-6.832031-6.847657-11.390625-5.113282-4.554688 1.734375-6.84375 6.832032-5.113281 11.390625 1.734375 4.554688 6.835937 6.84375 11.390625 5.113281 4.558594-1.734374 6.847656-6.835937 5.113281-11.390624zm0 0" fill="#fff"/></svg>