<svg height="512pt" viewBox="0 0 512.00027 512" width="512pt" xmlns="http://www.w3.org/2000/svg"><path d="m414.898438 512h97.101562v-7.855469c.015625-11.304687-1.347656-22.570312-4.0625-33.546875l-8.207031-33.277344c-9.523438-34.714843-41.429688-58.511718-77.417969-57.734374h-332.625c-35.988281-.777344-67.894531 23.019531-77.417969 57.734374l-8.207031 33.277344c-2.714844 10.976563-4.078125 22.242188-4.0625 33.546875v7.855469zm0 0" fill="#bdc3c7"/><path d="m185.378906 291.308594h141.242188v79.449218h-141.242188zm0 0" fill="#f29c1f"/><path d="m317.792969 353.105469-59.585938 86.507812c-.882812.617188-1.765625 1.148438-2.648437 1.765625l-61.351563-88.273437zm0 0" fill="#f0c419"/><path d="m441.378906 512h-370.757812l5.472656-26.660156h.089844l3.53125-17.476563 3.707031-17.832031 3.617187-17.480469 13.507813-65.324219c3.046875-9.125 11.957031-14.964843 21.539063-14.121093h63.292968c-20.128906 9.289062-31.128906 31.289062-26.480468 52.964843 0 0 53.757812-15.359374 89.6875 4.058594 2.425781 1.304688 4.757812 2.78125 6.972656 4.414063.125.144531.273437.265625.441406.355469l2.207031-2.207032c1.625-1.058594 3.304688-2.03125 5.03125-2.914062 35.839844-18.890625 88.894531-3.707032 88.894531-3.707032 4.644532-21.675781-6.355468-43.675781-26.484374-52.964843h64.265624c9.605469-.84375 18.539063 4.988281 21.628907 14.121093l13.503906 65.324219 3.53125 17.480469 3.707031 17.832031 3.621094 17.476563zm0 0" fill="#e6e7e8"/><path d="m300.136719 459.035156c0 4.875-3.949219 8.828125-8.828125 8.828125-4.875 0-8.824219-3.953125-8.824219-8.828125s3.949219-8.828125 8.824219-8.828125c4.878906 0 8.828125 3.953125 8.828125 8.828125zm0 0" fill="#7f8c8d"/><path d="m211.863281 441.378906c-.015625 4.871094-3.960937 8.8125-8.828125 8.828125h-117.847656c-.59375-.011719-1.183594-.070312-1.765625-.175781l3.617187-17.480469h115.996094c4.867188.015625 8.8125 3.960938 8.828125 8.828125zm0 0" fill="#7f8c8d"/><path d="m203.035156 476.691406c-.015625 4.867188-3.957031 8.8125-8.828125 8.824219h-116.257812c-.59375-.007813-1.183594-.066406-1.765625-.175781l3.53125-17.476563h114.492187c4.871094.011719 8.8125 3.957031 8.828125 8.828125zm0 0" fill="#7f8c8d"/><path d="m428.578125 450.03125c-.582031.105469-1.171875.164062-1.765625.175781h-109.019531c-4.875 0-8.828125-3.953125-8.828125-8.828125s3.953125-8.828125 8.828125-8.828125h107.253906zm0 0" fill="#7f8c8d"/><path d="m435.90625 485.339844c-.582031.109375-1.171875.167968-1.765625.175781h-107.519531c-4.875 0-8.828125-3.949219-8.828125-8.824219 0-4.878906 3.953125-8.828125 8.828125-8.828125h105.664062zm0 0" fill="#7f8c8d"/><path d="m255.558594 414.457031v.085938c-35.398438-25.953125-96.660156-8.472657-96.660156-8.472657-4.648438-21.675781 6.351562-43.675781 26.480468-52.964843h8.828125zm0 0" fill="#bdc3c7"/><path d="m352.132812 406.070312s-58.261718-16.683593-93.925781 6.621094l59.585938-59.585937h7.855469c20.128906 9.289062 31.128906 31.289062 26.484374 52.964843zm0 0" fill="#bdc3c7"/><path d="m388.414062 105.929688v141.242187c0 34.128906-27.664062 61.792969-61.792968 61.792969h-141.242188c-34.125 0-61.792968-27.664063-61.792968-61.792969v-141.242187" fill="#f0c419"/><path d="m167.722656 220.691406c0 4.875-3.949218 8.824219-8.824218 8.824219-4.878907 0-8.828126-3.949219-8.828126-8.824219 0-4.878906 3.949219-8.828125 8.828126-8.828125 4.875 0 8.824218 3.949219 8.824218 8.828125zm0 0" fill="#805333"/><path d="m167.722656 247.171875c0 4.875-3.949218 8.828125-8.824218 8.828125-4.878907 0-8.828126-3.953125-8.828126-8.828125s3.949219-8.828125 8.828126-8.828125c4.875 0 8.824218 3.953125 8.824218 8.828125zm0 0" fill="#805333"/><path d="m194.207031 247.171875c0 4.875-3.953125 8.828125-8.828125 8.828125s-8.828125-3.953125-8.828125-8.828125 3.953125-8.828125 8.828125-8.828125 8.828125 3.953125 8.828125 8.828125zm0 0" fill="#805333"/><path d="m194.207031 273.65625c0 4.875-3.953125 8.828125-8.828125 8.828125s-8.828125-3.953125-8.828125-8.828125 3.953125-8.828125 8.828125-8.828125 8.828125 3.953125 8.828125 8.828125zm0 0" fill="#805333"/><path d="m220.691406 273.65625c0 4.875-3.953125 8.828125-8.828125 8.828125s-8.828125-3.953125-8.828125-8.828125 3.953125-8.828125 8.828125-8.828125 8.828125 3.953125 8.828125 8.828125zm0 0" fill="#805333"/><path d="m361.929688 220.691406c0 4.875-3.949219 8.824219-8.824219 8.824219-4.878907 0-8.828125-3.949219-8.828125-8.824219 0-4.878906 3.949218-8.828125 8.828125-8.828125 4.875 0 8.824219 3.949219 8.824219 8.828125zm0 0" fill="#805333"/><path d="m361.929688 247.171875c0 4.875-3.949219 8.828125-8.824219 8.828125-4.878907 0-8.828125-3.953125-8.828125-8.828125s3.949218-8.828125 8.828125-8.828125c4.875 0 8.824219 3.953125 8.824219 8.828125zm0 0" fill="#805333"/><path d="m335.449219 247.171875c0 4.875-3.953125 8.828125-8.828125 8.828125s-8.828125-3.953125-8.828125-8.828125 3.953125-8.828125 8.828125-8.828125 8.828125 3.953125 8.828125 8.828125zm0 0" fill="#805333"/><path d="m335.449219 273.65625c0 4.875-3.953125 8.828125-8.828125 8.828125s-8.828125-3.953125-8.828125-8.828125 3.953125-8.828125 8.828125-8.828125 8.828125 3.953125 8.828125 8.828125zm0 0" fill="#805333"/><path d="m308.964844 273.65625c0 4.875-3.953125 8.828125-8.828125 8.828125s-8.828125-3.953125-8.828125-8.828125 3.953125-8.828125 8.828125-8.828125 8.828125 3.953125 8.828125 8.828125zm0 0" fill="#805333"/><path d="m114.757812 70.621094h282.484376c9.75 0 17.65625 7.902344 17.65625 17.65625v17.652344c0 9.753906-7.90625 17.65625-17.65625 17.65625h-282.484376c-9.75 0-17.652343-7.902344-17.652343-17.65625v-17.652344c0-9.753906 7.902343-17.65625 17.652343-17.65625zm0 0" fill="#95a5a5"/><g fill="#7f8c8d"><path d="m194.207031 0h123.585938c39.003906 0 70.621093 31.617188 70.621093 70.621094h-264.828124c0-39.003906 31.617187-70.621094 70.621093-70.621094zm0 0"/><path d="m141.242188 105.929688v17.65625h-17.65625v-17.65625c0-4.875 3.953124-8.824219 8.828124-8.824219s8.828126 3.949219 8.828126 8.824219zm0 0"/><path d="m176.550781 105.929688v17.65625h-17.652343v-17.65625c0-4.875 3.949218-8.824219 8.824218-8.824219 4.878906 0 8.828125 3.949219 8.828125 8.824219zm0 0"/><path d="m211.863281 105.929688v17.65625h-17.65625v-17.65625c0-4.875 3.953125-8.824219 8.828125-8.824219s8.828125 3.949219 8.828125 8.824219zm0 0"/><path d="m247.171875 105.929688v17.65625h-17.65625v-17.65625c0-4.875 3.953125-8.824219 8.828125-8.824219s8.828125 3.949219 8.828125 8.824219zm0 0"/><path d="m282.484375 105.929688v17.65625h-17.65625v-17.65625c0-4.875 3.953125-8.824219 8.828125-8.824219s8.828125 3.949219 8.828125 8.824219zm0 0"/><path d="m317.792969 105.929688v17.65625h-17.65625v-17.65625c0-4.875 3.953125-8.824219 8.828125-8.824219s8.828125 3.949219 8.828125 8.824219zm0 0"/><path d="m353.105469 105.929688v17.65625h-17.65625v-17.65625c0-4.875 3.953125-8.824219 8.828125-8.824219s8.828125 3.949219 8.828125 8.824219zm0 0"/><path d="m388.414062 105.929688v17.65625h-17.65625v-17.65625c0-4.875 3.953126-8.824219 8.828126-8.824219s8.828124 3.949219 8.828124 8.824219zm0 0"/><path d="m264.828125 414.898438v97.101562h-17.65625v-97.101562c.007813-1.691407.496094-3.347657 1.414063-4.769532 1.613281-2.53125 4.410156-4.0625 7.414062-4.058594 2.859375.042969 5.535156 1.414063 7.238281 3.707032 1.035157 1.503906 1.589844 3.292968 1.589844 5.121094zm0 0"/></g><path d="m301.242188 237.792969c-4.867188 15.023437-27.769532 22.40625-40.171876 24.578125-12.425781 2.175781-35.441406 4.199218-45.121093-8.277344 14.464843.871094 28.980469.101562 43.273437-2.289062 14.480469-3.109376 28.570313-7.808594 42.019532-14.011719zm0 0" fill="#2c2f38"/><path d="m231.214844 165.207031c-7.65625-4.613281-15.972656-8.03125-24.664063-10.132812-11.617187-3.160157-23.898437-2.910157-35.378906.710937 4.105469-14.941406 39.851563-11.179687 56.292969-3.972656 2.664062.863281 4.714844 3 5.46875 5.691406.753906 2.695313.109375 5.585938-1.71875 7.703125zm0 0" fill="#2c2f38"/><path d="m229.515625 182.566406c0-10.453125-7.902344-18.925781-17.652344-18.925781s-17.65625 8.472656-17.65625 18.925781c0 10.449219 7.90625 18.921875 17.65625 18.921875s17.652344-8.472656 17.652344-18.921875zm0 0" fill="#2c2f38"/><path d="m216.8125 166.144531c-4.558594-1.734375-9.65625.554688-11.390625 5.113281-1.734375 4.558594.554687 9.65625 5.113281 11.390626 4.558594 1.730468 9.65625-.558594 11.390625-5.113282 1.730469-4.558594-.558593-9.65625-5.113281-11.390625zm0 0" fill="#fff"/><path d="m279.839844 167.058594c6.261718-8.242188 14.957031-14.304688 24.859375-17.320313 13.3125-3.550781 27.476562.945313 36.304687 11.527344-.136718-.132813.136719-2.945313.085938-3.386719-.144532-1.144531-.453125-2.261718-.917969-3.316406-1.039063-2.253906-2.566406-4.25-4.46875-5.839844-4.738281-3.847656-10.378906-6.429687-16.390625-7.496094-7.988281-1.804687-16.316406-1.394531-24.082031 1.195313-4.679688 1.613281-8.984375 4.152344-12.664063 7.460937-3.242187 2.96875-8.042968 8.429688-5.957031 13.40625.964844 1.347657 2.046875 2.609376 3.230469 3.769532zm0 0" fill="#2c2f38"/><path d="m317.792969 182.566406c0-10.453125-7.902344-18.925781-17.65625-18.925781-9.75 0-17.652344 8.472656-17.652344 18.925781 0 10.449219 7.902344 18.921875 17.652344 18.921875 9.753906 0 17.65625-8.472656 17.65625-18.921875zm0 0" fill="#2c2f38"/><path d="m306.578125 171.257812c-1.734375-4.554687-6.832031-6.84375-11.390625-5.113281-4.554688 1.734375-6.84375 6.832031-5.113281 11.390625 1.734375 4.554688 6.835937 6.84375 11.390625 5.113282 4.558594-1.734376 6.847656-6.832032 5.113281-11.390626zm0 0" fill="#fff"/></svg>