<svg height="512pt" viewBox="0 0 512.00027 512" width="512pt" xmlns="http://www.w3.org/2000/svg"><path d="m512 504.144531v7.855469h-512v-7.855469c-.015625-11.304687 1.347656-22.570312 4.0625-33.546875l8.207031-33.277344c9.523438-34.714843 41.429688-58.511718 77.417969-57.734374h332.625c35.988281-.777344 67.894531 23.019531 77.417969 57.734374l8.207031 33.277344c2.714844 10.976563 4.078125 22.242188 4.0625 33.546875zm0 0" fill="#c03a2b"/><path d="m441.378906 512h-370.757812l27.367187-132.414062 2.558594-12.359376c3.046875-9.125 11.957031-14.964843 21.539063-14.121093h267.828124c9.605469-.84375 18.539063 4.988281 21.628907 14.121093l2.558593 12.359376zm0 0" fill="#e64c3c"/><path d="m388.414062 132.414062v114.757813c.003907 27.390625-18.039062 51.507813-44.316406 59.234375h-176.195312c-26.277344-7.726562-44.320313-31.84375-44.316406-59.234375v-114.757813zm0 0" fill="#f0c419"/><path d="m476.8125 132.414062h-441.625c-4.050781 0-7.578125-2.753906-8.566406-6.679687-.984375-3.925781.828125-8.019531 4.398437-9.929687l34.921875-18.699219 32.925782-17.65625 32.929687-17.65625 33.015625-17.65625 74.945312-40.164063c10.179688-5.296875 22.304688-5.296875 32.484376 0l74.945312 40.164063 33.015625 17.65625 32.929687 17.65625 32.925782 17.65625 34.921875 18.699219c3.570312 1.910156 5.382812 6.003906 4.398437 9.929687-.988281 3.925781-4.515625 6.679687-8.566406 6.679687zm0 0" fill="#b19046"/><g fill="#e4c05c"><path d="m220.691406 88.277344c-.015625 4.867187-3.960937 8.8125-8.828125 8.828125h-145.921875l32.925782-17.65625h112.996093c4.867188.011719 8.8125 3.957031 8.828125 8.828125zm0 0"/><path d="m446.058594 97.105469h-190.058594c-4.875 0-8.828125-3.953125-8.828125-8.828125s3.953125-8.828125 8.828125-8.828125h157.132812zm0 0"/><path d="m380.203125 61.792969h-248.40625l33.015625-17.65625h182.375zm0 0"/></g><path d="m344.277344 512v-87.394531c-.015625-4.867188-3.960938-8.8125-8.828125-8.824219-2.761719-.023438-5.359375 1.292969-6.972657 3.527344-1.183593 1.515625-1.835937 3.378906-1.855468 5.296875v87.394531zm0 0" fill="#802f34"/><path d="m185.378906 446.851562v65.148438h-17.65625v-65.148438c.015625-4.867187 3.960938-8.8125 8.828125-8.828124.503907.011718 1.007813.070312 1.5.179687 2.28125.371094 4.316407 1.640625 5.652344 3.53125 1.101563 1.476563 1.6875 3.273437 1.675781 5.117187zm0 0" fill="#802f34"/><path d="m361.929688 434.960938c-52.964844-8.566407-61.792969-68.480469-61.792969-68.480469s-8.828125 8.5625 0 59.917969c5.535156 29.746093-.800781 60.476562-17.652344 85.601562 0-17.121094 0-17.121094-26.484375-51.359375-26.484375-34.242187-26.484375-94.160156-26.484375-94.160156-6.351563 36.507812-29.136719 68.074219-61.792969 85.597656 35.3125-34.238281 0-85.597656 0-136.960937 0-51.359376 17.65625-85.601563 44.140625-85.601563 26.480469 0 26.480469 8.566406 44.136719 8.566406s17.65625-8.566406 44.136719-8.566406c26.484375 0 44.140625 34.242187 44.140625 85.601563 0 51.363281-8.828125 85.601562 17.652344 119.84375zm0 0" fill="#ecf0f1"/><path d="m232.878906 164.09375c-8.390625-3.082031-17.199218-4.867188-26.128906-5.296875-12.003906-.90625-24.015625 1.65625-34.605469 7.378906 1.207031-15.445312 37.023438-18.5 54.53125-14.527343 2.777344.34375 5.191407 2.058593 6.441407 4.558593 1.246093 2.503907 1.15625 5.464844-.238282 7.886719zm0 0" fill="#ecf0f1"/><path d="m229.515625 191.394531c0-10.453125-7.902344-18.925781-17.652344-18.925781s-17.65625 8.472656-17.65625 18.925781c0 10.449219 7.90625 18.921875 17.65625 18.921875s17.652344-8.472656 17.652344-18.921875zm0 0" fill="#2c2f38"/><path d="m216.8125 174.972656c-4.558594-1.734375-9.65625.554688-11.390625 5.113282-1.730469 4.554687.558594 9.65625 5.113281 11.386718 4.558594 1.734375 9.65625-.554687 11.390625-5.109375 1.730469-4.558593-.558593-9.65625-5.113281-11.390625zm0 0" fill="#fff"/><path d="m279.121094 164.09375c8.390625-3.082031 17.203125-4.867188 26.128906-5.296875 12.003906-.90625 24.015625 1.65625 34.605469 7.378906-1.207031-15.445312-37.023438-18.5-54.53125-14.527343-2.773438.34375-5.191407 2.058593-6.441407 4.558593-1.246093 2.503907-1.15625 5.464844.238282 7.886719zm0 0" fill="#ecf0f1"/><path d="m317.792969 191.394531c0-10.453125-7.902344-18.925781-17.65625-18.925781-9.75 0-17.652344 8.472656-17.652344 18.925781 0 10.449219 7.902344 18.921875 17.652344 18.921875 9.753906 0 17.65625-8.472656 17.65625-18.921875zm0 0" fill="#2c2f38"/><path d="m306.578125 180.085938c-1.734375-4.558594-6.832031-6.847657-11.390625-5.113282-4.554688 1.734375-6.84375 6.832032-5.113281 11.390625 1.734375 4.554688 6.835937 6.84375 11.390625 5.113281 4.558594-1.734374 6.847656-6.835937 5.113281-11.390624zm0 0" fill="#fff"/></svg>