<svg height="512pt" viewBox="0 0 512.00037 512" width="512pt" xmlns="http://www.w3.org/2000/svg"><path d="m414.898438 512h97.101562v-7.855469c.019531-15.128906-1.339844-30.226562-4.058594-45.109375l-8.210937-30.542968c-9.523438-34.714844-41.429688-58.507813-77.417969-57.734376h-332.625c-35.988281-.773437-67.894531 23.019532-77.417969 57.734376l-8.207031 30.542968c-2.722656 14.882813-4.0820312 29.980469-4.0625 45.109375v7.855469zm0 0" fill="#e64c3c"/><path d="m158.898438 344.277344h-36.8125c-5.488282-.113282-10.855469 1.59375-15.273438 4.855468-3.195312 2.171876-5.441406 5.488282-6.265625 9.265626l-2.558594 12.359374-5.386719 31.164063-21.980468 110.078125h370.757812l-27.277344-141.242188-2.558593-12.359374c-3.089844-9.128907-12.023438-14.964844-21.628907-14.121094h-36.808593" fill="#c03a2b"/><path d="m429.816406 512h-108.667968l-228.546876-110.078125 5.386719-31.164063 2.558594-12.359374c.824219-3.777344 3.070313-7.09375 6.265625-9.265626zm0 0" fill="#cb8252"/><path d="m397.242188 282.484375c0 32.132813-26.484376 64.175781-79.449219 72.207031-44.402344 6.710938-61.792969 16.066406-61.792969 16.066406s-17.390625-9.355468-61.792969-16.066406c-52.964843-8.03125-79.449219-40.074218-79.449219-72.207031 1.023438-26.925781 3.976563-53.742187 8.828126-80.246094v-131.617187c-.003907-18.730469 7.433593-36.695313 20.679687-49.941406 13.246094-13.246094 31.210937-20.68359425 49.941406-20.679688h123.585938c18.730469-.00390625 36.699219 7.433594 49.941406 20.679688 13.246094 13.246093 20.683594 31.210937 20.679687 49.941406v131.617187c4.851563 26.503907 7.804688 53.320313 8.828126 80.246094zm0 0" fill="#e64c3c"/><path d="m388.414062 150.070312v52.167969s-17.65625 16.066407-61.792968 16.066407c-44.136719 0-61.792969-16.066407-70.621094-24.097657-8.828125 8.03125-26.484375 24.097657-70.621094 24.097657-44.136718 0-61.792968-16.066407-61.792968-16.066407v-52.167969c.023437-29.242187 23.722656-52.941406 52.964843-52.964843h158.898438c29.242187.023437 52.941406 23.722656 52.964843 52.964843zm0 0" fill="#f0c419"/><g fill="#c03a2b"><path d="m256 335.449219c-4.875 0-8.828125-3.953125-8.828125-8.828125v-88.277344c0-4.875 3.953125-8.828125 8.828125-8.828125s8.828125 3.953125 8.828125 8.828125v88.277344c0 4.875-3.953125 8.828125-8.828125 8.828125zm0 0"/><path d="m195.84375 283.277344c-17.136719.082031-34.09375-3.519532-49.722656-10.554688-4.363282-2.179687-6.136719-7.484375-3.957032-11.847656 2.179688-4.363281 7.480469-6.132812 11.84375-3.953125 31.65625 13.992187 68.265626 10.875 97.097657-8.273437 4.050781-2.648438 9.484375-1.539063 12.171875 2.492187s1.625 9.472656-2.378906 12.195313c-19.195313 13.023437-41.859376 19.96875-65.054688 19.941406zm0 0"/><path d="m316.15625 283.277344c-23.195312.03125-45.859375-6.914063-65.050781-19.933594-2.65625-1.738281-4.179688-4.765625-3.984375-7.933594.195312-3.167968 2.074218-5.984375 4.921875-7.382812 2.851562-1.398438 6.230469-1.160156 8.855469.625 28.898437 18.945312 65.394531 22.058594 97.085937 8.277344 2.820313-1.410157 6.179687-1.210938 8.8125.527343 2.628906 1.738281 4.136719 4.75 3.945313 7.898438-.1875 3.148437-2.042969 5.957031-4.863282 7.367187-15.628906 7.035156-32.582031 10.636719-49.722656 10.554688zm0 0"/><path d="m195.84375 317.882812c-17.136719.082032-34.09375-3.519531-49.722656-10.558593-4.363282-2.175781-6.136719-7.480469-3.957032-11.84375 2.179688-4.363281 7.480469-6.132813 11.84375-3.957031 31.65625 13.996093 68.265626 10.878906 97.097657-8.269532 4.054687-2.699218 9.53125-1.601562 12.234375 2.453125 2.703125 4.050781 1.609375 9.53125-2.441406 12.234375-19.195313 13.019532-41.859376 19.96875-65.054688 19.941406zm0 0"/><path d="m316.15625 317.882812c-23.195312.03125-45.859375-6.917968-65.050781-19.9375-4.054688-2.707031-5.148438-8.183593-2.445313-12.238281 2.703125-4.050781 8.179688-5.148437 12.238282-2.449219 28.898437 18.9375 65.394531 22.050782 97.085937 8.273438 4.359375-2.179688 9.664063-.414062 11.84375 3.949219 2.179687 4.359375.414063 9.664062-3.949219 11.84375-15.628906 7.039062-32.582031 10.640625-49.722656 10.558593zm0 0"/><path d="m388.414062 70.621094v44.136718c.011719-16.390624-6.496093-32.117187-18.085937-43.707031-11.589844-11.589843-27.316406-18.097656-43.707031-18.085937h-141.242188c-16.390625-.011719-32.117187 6.496094-43.707031 18.085937-11.589844 11.589844-18.097656 27.316407-18.085937 43.707031v-44.136718c-.003907-18.730469 7.433593-36.695313 20.679687-49.941406 13.246094-13.246094 31.210937-20.68359425 49.941406-20.679688h123.585938c18.730469-.00390625 36.699219 7.433594 49.941406 20.679688 13.246094 13.246093 20.683594 31.210937 20.679687 49.941406zm0 0"/></g><path d="m231.214844 147.550781c-7.65625-4.613281-15.972656-8.03125-24.664063-10.132812-11.617187-3.15625-23.898437-2.910157-35.378906.714843 4.105469-14.945312 39.851563-11.179687 56.292969-3.972656 2.664062.859375 4.714844 2.996094 5.46875 5.691406.753906 2.691407.109375 5.582032-1.71875 7.699219zm0 0" fill="#2c2f38"/><path d="m229.515625 164.910156c0-10.449218-7.902344-18.921875-17.652344-18.921875s-17.65625 8.472657-17.65625 18.921875c0 10.449219 7.90625 18.921875 17.65625 18.921875s17.652344-8.472656 17.652344-18.921875zm0 0" fill="#2c2f38"/><path d="m216.8125 148.488281c-4.558594-1.730469-9.65625.558594-11.390625 5.113281-1.730469 4.558594.558594 9.65625 5.113281 11.390626 4.558594 1.734374 9.65625-.554688 11.390625-5.113282 1.730469-4.554687-.558593-9.65625-5.113281-11.390625zm0 0" fill="#fff"/><path d="m279.839844 149.402344c6.261718-8.242188 14.957031-14.304688 24.859375-17.320313 13.3125-3.550781 27.476562.949219 36.304687 11.527344-.136718-.132813.136719-2.945313.085938-3.382813-.144532-1.144531-.453125-2.261718-.917969-3.320312-1.039063-2.253906-2.566406-4.246094-4.46875-5.839844-4.738281-3.847656-10.378906-6.425781-16.390625-7.492187-7.988281-1.808594-16.316406-1.394531-24.082031 1.191406-4.679688 1.613281-8.984375 4.152344-12.664063 7.460937-3.238281 2.96875-8.042968 8.429688-5.957031 13.40625.964844 1.351563 2.046875 2.613282 3.230469 3.769532zm0 0" fill="#2c2f38"/><path d="m317.792969 164.910156c0-10.449218-7.902344-18.921875-17.65625-18.921875-9.75 0-17.652344 8.472657-17.652344 18.921875 0 10.449219 7.902344 18.921875 17.652344 18.921875 9.753906 0 17.65625-8.472656 17.65625-18.921875zm0 0" fill="#2c2f38"/><path d="m306.578125 153.601562c-1.734375-4.554687-6.832031-6.84375-11.390625-5.113281-4.554688 1.734375-6.84375 6.832031-5.113281 11.390625 1.734375 4.558594 6.832031 6.847656 11.390625 5.113282 4.554687-1.734376 6.84375-6.832032 5.113281-11.390626zm0 0" fill="#fff"/></svg>