<svg height="512pt" viewBox="0 0 512.00027 512" width="512pt" xmlns="http://www.w3.org/2000/svg"><path d="m113.875 106.109375 11.125-61.882813c4.304688-25.511718 26.382812-44.1992182 52.257812-44.226562h157.484376c25.875.0273438 47.953124 18.714844 52.257812 44.226562l11.125 61.882813zm0 0" fill="#7f6e5d"/><path d="m512 504.144531v7.855469h-512v-7.855469c-.015625-11.304687 1.347656-22.570312 4.0625-33.546875l8.207031-33.277344c9.523438-34.714843 41.429688-58.511718 77.417969-57.734374h332.625c35.988281-.777344 67.894531 23.019531 77.417969 57.734374l8.207031 33.277344c2.714844 10.976563 4.078125 22.242188 4.0625 33.546875zm0 0" fill="#cbb292"/><path d="m185.378906 283.835938h141.242188v94.398437h-141.242188zm0 0" fill="#f29c1f"/><path d="m441.378906 172.316406c-17.027344 6.582032-34.828125 10.972656-52.964844 13.0625h-264.828124c-18.136719-2.089844-35.933594-6.480468-52.964844-13.0625-35.3125-17.65625-26.484375-44.140625 0-52.96875 88.277344-8.824218 123.585937 26.484375 185.378906 26.484375 70.621094 0 97.105469-35.308593 185.378906-26.484375 26.484375 8.828125 35.3125 35.3125 0 52.96875zm0 0" fill="#7f6e5d"/><path d="m385.941406 106.285156c1.636719 5.621094 2.46875 11.445313 2.472656 17.300782v123.585937c.011719 16.394531-6.496093 32.117187-18.085937 43.707031-11.589844 11.59375-27.316406 18.097656-43.707031 18.085938h-141.242188c-16.390625.011718-32.117187-6.492188-43.707031-18.085938-11.589844-11.589844-18.097656-27.3125-18.085937-43.707031v-123.585937c.003906-5.914063.835937-11.796876 2.472656-17.476563zm0 0" fill="#f0c419"/><path d="m441.378906 119.347656c-88.273437-8.824218-114.757812 26.484375-185.378906 26.484375-61.792969 0-97.101562-35.308593-185.378906-26.484375 13.898437-5.960937 28.402344-10.398437 43.253906-13.238281 46.757812-9.542969 94.410156-13.984375 142.125-13.242187 47.714844-.742188 95.367188 3.699218 142.125 13.242187 14.851562 2.839844 29.355469 7.277344 43.253906 13.238281zm0 0" fill="#cbb292"/><path d="m335.449219 353.105469c-37.519531 7.5-40.695313 36.542969-43.433594 42.457031-2.84375-1.8125-6.15625-2.761719-9.53125-2.734375h-52.96875c-3.375-.027344-6.683594.921875-9.53125 2.734375-2.738281-5.914062-5.914063-34.957031-43.433594-42.457031zm0 0" fill="#f0c419"/><path d="m441.378906 512h-370.757812l27.367187-132.414062 2.558594-12.359376c3.046875-9.125 11.957031-14.964843 21.539063-14.121093h54.464843c18.6875 2.566406 35.75 12.007812 47.847657 26.480469 1.695312 2.238281 3.171874 4.632812 4.414062 7.152343 2.84375-1.816406 6.15625-2.765625 9.53125-2.738281h35.3125c3.375-.027344 6.6875.921875 9.53125 2.738281 1.242188-2.519531 2.71875-4.914062 4.414062-7.152343 12.097657-14.472657 29.160157-23.914063 47.847657-26.480469h54.464843c9.605469-.84375 18.539063 4.988281 21.628907 14.121093l2.558593 12.359376zm0 0" fill="#7f6e5d"/><g fill="#805333"><path d="m167.722656 220.691406c0 4.875-3.949218 8.824219-8.824218 8.824219-4.878907 0-8.828126-3.949219-8.828126-8.824219 0-4.878906 3.949219-8.828125 8.828126-8.828125 4.875 0 8.824218 3.949219 8.824218 8.828125zm0 0"/><path d="m167.722656 247.171875c0 4.875-3.949218 8.828125-8.824218 8.828125-4.878907 0-8.828126-3.953125-8.828126-8.828125s3.949219-8.828125 8.828126-8.828125c4.875 0 8.824218 3.953125 8.824218 8.828125zm0 0"/><path d="m194.207031 247.171875c0 4.875-3.953125 8.828125-8.828125 8.828125s-8.828125-3.953125-8.828125-8.828125 3.953125-8.828125 8.828125-8.828125 8.828125 3.953125 8.828125 8.828125zm0 0"/><path d="m194.207031 273.65625c0 4.875-3.953125 8.828125-8.828125 8.828125s-8.828125-3.953125-8.828125-8.828125 3.953125-8.828125 8.828125-8.828125 8.828125 3.953125 8.828125 8.828125zm0 0"/><path d="m220.691406 273.65625c0 4.875-3.953125 8.828125-8.828125 8.828125s-8.828125-3.953125-8.828125-8.828125 3.953125-8.828125 8.828125-8.828125 8.828125 3.953125 8.828125 8.828125zm0 0"/><path d="m361.929688 220.691406c0 4.875-3.949219 8.824219-8.824219 8.824219-4.878907 0-8.828125-3.949219-8.828125-8.824219 0-4.878906 3.949218-8.828125 8.828125-8.828125 4.875 0 8.824219 3.949219 8.824219 8.828125zm0 0"/><path d="m361.929688 247.171875c0 4.875-3.949219 8.828125-8.824219 8.828125-4.878907 0-8.828125-3.953125-8.828125-8.828125s3.949218-8.828125 8.828125-8.828125c4.875 0 8.824219 3.953125 8.824219 8.828125zm0 0"/><path d="m335.449219 247.171875c0 4.875-3.953125 8.828125-8.828125 8.828125s-8.828125-3.953125-8.828125-8.828125 3.953125-8.828125 8.828125-8.828125 8.828125 3.953125 8.828125 8.828125zm0 0"/><path d="m335.449219 273.65625c0 4.875-3.953125 8.828125-8.828125 8.828125s-8.828125-3.953125-8.828125-8.828125 3.953125-8.828125 8.828125-8.828125 8.828125 3.953125 8.828125 8.828125zm0 0"/><path d="m308.964844 273.65625c0 4.875-3.953125 8.828125-8.828125 8.828125s-8.828125-3.953125-8.828125-8.828125 3.953125-8.828125 8.828125-8.828125 8.828125 3.953125 8.828125 8.828125zm0 0"/></g><path d="m229.515625 388.414062-8.5625 34.074219-.261719 1.234375s-70.621094 17.65625-88.277344-70.617187h44.136719c37.519531 7.5 49.523438 27.714843 52.261719 33.632812.28125.535157.515625 1.097657.703125 1.675781zm0 0" fill="#e64c3c"/><path d="m379.585938 353.105469c-17.65625 88.273437-88.277344 70.617187-88.277344 70.617187l-.261719-1.234375-8.5625-34.074219c.1875-.578124.421875-1.140624.703125-1.675781 2.738281-5.917969 14.742188-26.132812 52.261719-33.632812zm0 0" fill="#e64c3c"/><path d="m247.171875 428.136719v83.863281h-17.65625v-83.863281c0-4.875 3.953125-8.828125 8.828125-8.828125s8.828125 3.953125 8.828125 8.828125zm0 0" fill="#5e5f62"/><path d="m282.484375 476.691406c0 4.875-3.953125 8.824219-8.828125 8.824219s-8.828125-3.949219-8.828125-8.824219c0-4.878906 3.953125-8.828125 8.828125-8.828125s8.828125 3.949219 8.828125 8.828125zm0 0" fill="#e6e7e8"/><path d="m185.378906 485.515625h-52.964844c-4.875 0-8.828124-3.949219-8.828124-8.824219 0-4.878906 3.953124-8.828125 8.828124-8.828125h52.964844c4.875 0 8.828125 3.949219 8.828125 8.828125 0 4.875-3.953125 8.824219-8.828125 8.824219zm0 0" fill="#5e5f62"/><path d="m291.308594 401.65625v17.652344c0 1.066406-.085938 2.128906-.261719 3.179687-1.585937 8.367188-8.878906 14.433594-17.390625 14.476563h-35.3125c-8.511719-.042969-15.804688-6.109375-17.390625-14.476563-.175781-1.050781-.261719-2.113281-.261719-3.179687v-17.652344c.03125-6.023438 3.082032-11.625 8.121094-14.917969 2.84375-1.816406 6.15625-2.765625 9.53125-2.738281h35.3125c3.375-.027344 6.6875.921875 9.53125 2.738281 5.039062 3.292969 8.089844 8.894531 8.121094 14.917969zm0 0" fill="#c03a2b"/><path d="m301.242188 242.207031c-4.867188 15.023438-27.769532 22.40625-40.171876 24.574219-12.425781 2.179688-35.441406 4.203125-45.121093-8.273438 14.464843.871094 28.980469.101563 43.273437-2.289062 14.480469-3.109375 28.570313-7.808594 42.019532-14.011719zm0 0" fill="#2c2f38"/><path d="m231.214844 169.621094c-7.65625-4.613282-15.972656-8.03125-24.664063-10.132813-11.617187-3.160156-23.898437-2.910156-35.378906.710938 4.105469-14.941407 39.851563-11.179688 56.292969-3.972657 2.664062.863282 4.714844 3 5.46875 5.691407.753906 2.695312.109375 5.585937-1.71875 7.703125zm0 0" fill="#2c2f38"/><path d="m229.515625 186.980469c0-10.453125-7.902344-18.925781-17.652344-18.925781s-17.65625 8.472656-17.65625 18.925781c0 10.449219 7.90625 18.921875 17.65625 18.921875s17.652344-8.472656 17.652344-18.921875zm0 0" fill="#2c2f38"/><path d="m216.8125 170.558594c-4.558594-1.730469-9.65625.558594-11.390625 5.113281-1.734375 4.558594.554687 9.65625 5.113281 11.390625 4.558594 1.730469 9.65625-.558594 11.390625-5.113281 1.730469-4.558594-.558593-9.65625-5.113281-11.390625zm0 0" fill="#fff"/><path d="m279.839844 171.472656c6.261718-8.242187 14.957031-14.304687 24.859375-17.320312 13.3125-3.550782 27.476562.945312 36.304687 11.527344-.136718-.132813.136719-2.949219.085938-3.386719-.144532-1.144531-.453125-2.261719-.917969-3.316407-1.039063-2.253906-2.566406-4.25-4.46875-5.839843-4.738281-3.851563-10.378906-6.429688-16.390625-7.496094-7.988281-1.804687-16.316406-1.394531-24.082031 1.191406-4.679688 1.617188-8.984375 4.15625-12.664063 7.464844-3.242187 2.964844-8.042968 8.429687-5.957031 13.40625.964844 1.347656 2.046875 2.609375 3.230469 3.769531zm0 0" fill="#2c2f38"/><path d="m317.792969 186.980469c0-10.453125-7.902344-18.925781-17.65625-18.925781-9.75 0-17.652344 8.472656-17.652344 18.925781 0 10.449219 7.902344 18.921875 17.652344 18.921875 9.753906 0 17.65625-8.472656 17.65625-18.921875zm0 0" fill="#2c2f38"/><path d="m306.578125 175.671875c-1.734375-4.558594-6.832031-6.847656-11.390625-5.113281-4.554688 1.734375-6.84375 6.832031-5.113281 11.390625 1.734375 4.554687 6.832031 6.84375 11.390625 5.113281 4.558594-1.734375 6.847656-6.835938 5.113281-11.390625zm0 0" fill="#fff"/></svg>