<svg height="512pt" viewBox="0 0 512 512.00456" width="512pt" xmlns="http://www.w3.org/2000/svg"><path d="m389.890625 304.554688-259.125-.570313-26.484375-120.570313 46.347656-126.332031 35.300782-5.789062h162.214843l34.207031 34.628906 18.757813 103.839844zm0 0" fill="#f0c419"/><path d="m512.003906 504.148438v7.855468h-511.99999975v-7.855468c-.01562505-11.304688 1.34765575-22.570313 4.05859375-33.546876l8.210938-33.277343c9.523437-34.714844 41.429687-58.507813 77.417968-57.734375h332.621094c35.988281-.773438 67.898438 23.019531 77.417969 57.734375l8.210937 33.277343c2.714844 10.976563 4.078125 22.242188 4.0625 33.546876zm0 0" fill="#c03a2b"/><path d="m441.382812 512.003906h-370.757812l27.363281-132.414062 2.558594-12.359375c3.050781-9.121094 11.957031-14.964844 21.542969-14.121094h267.828125c9.601562-.84375 18.535156 4.992187 21.625 14.121094l2.5625 12.359375zm0 0" fill="#e64c3c"/><path d="m238.347656 356.640625v155.363281h-17.65625v-155.363281c-.007812-1.222656.261719-2.433594.796875-3.53125 1.375-3.214844 4.535157-5.300781 8.03125-5.300781 3.496094 0 6.65625 2.085937 8.035157 5.300781.53125 1.097656.800781 2.308594.792968 3.53125zm0 0" fill="#802f34"/><g fill="#e6e7e8"><path d="m291.3125 494.347656v17.65625h-17.65625v-17.65625c0-4.875 3.953125-8.824218 8.828125-8.824218s8.828125 3.949218 8.828125 8.824218zm0 0"/><path d="m282.484375 467.867188c-4.875 0-8.828125-3.953126-8.828125-8.828126v-8.828124c0-4.875 3.953125-8.828126 8.828125-8.828126s8.828125 3.953126 8.828125 8.828126v8.828124c0 4.875-3.953125 8.828126-8.828125 8.828126zm0 0"/><path d="m282.484375 423.730469c-4.875 0-8.828125-3.953125-8.828125-8.828125v-8.828125c0-4.875 3.953125-8.828125 8.828125-8.828125s8.828125 3.953125 8.828125 8.828125v8.828125c0 4.875-3.953125 8.828125-8.828125 8.828125zm0 0"/></g><path d="m185.382812 485.523438c-4.875 0-8.828124-3.953126-8.828124-8.828126v-8.828124h-44.136719v8.828124c0 4.875-3.953125 8.828126-8.828125 8.828126s-8.828125-3.953126-8.828125-8.828126v-8.828124c.011719-9.746094 7.910156-17.644532 17.65625-17.65625h44.136719c9.746093.011718 17.644531 7.910156 17.65625 17.65625v8.828124c0 4.875-3.953126 8.828126-8.828126 8.828126zm0 0" fill="#802f34"/><path d="m388.417969 485.523438c-4.878907 0-8.828125-3.953126-8.828125-8.828126v-8.828124h-44.140625v8.828124c0 4.875-3.949219 8.828126-8.824219 8.828126-4.878906 0-8.828125-3.953126-8.828125-8.828126v-8.828124c.011719-9.746094 7.90625-17.644532 17.652344-17.65625h44.140625c9.746094.011718 17.644531 7.910156 17.652344 17.65625v8.828124c0 4.875-3.949219 8.828126-8.824219 8.828126zm0 0" fill="#802f34"/><path d="m131.976562 332.804688c-.339843 6.808593.195313 13.632812 1.585938 20.304687 2.714844 21.296875 21.570312 36.785156 42.992188 35.308594 42.636718 0 28.070312-22.863281 52.964843-31.777344 8.386719-2.640625 17.164063-3.835937 25.953125-3.53125h.53125c61.085938.175781 26.128906 35.308594 78.917969 35.308594 21.421875 1.476562 40.273437-14.011719 42.988281-35.308594 1.398438-6.554687 1.933594-13.261719 1.589844-19.953125l-44.050781-33.015625c-25.914063-6.765625-52.675781-9.738281-79.445313-8.824219-26.773437-.914062-53.53125 2.058594-79.449218 8.824219zm0 0" fill="#e6e7e8"/><path d="m141.066406 187.855469c9.753906 14.988281 26.429688 24.027343 44.316406 24.011719h35.308594c9.738282-.027344 17.628906-7.917969 17.65625-17.65625 0-9.75 7.902344-17.65625 17.65625-17.65625 9.75 0 17.652344 7.90625 17.652344 17.65625.070312 9.722656 7.933594 17.585937 17.65625 17.65625h35.3125c17.882812.015624 34.558594-9.023438 44.3125-24.011719v-31.425781c-1.972656-3.074219-4.28125-5.914063-6.886719-8.476563-9.890625-9.980469-23.375-15.578125-37.425781-15.535156h-141.242188c-17.886718-.015625-34.5625 9.023437-44.316406 24.011719zm0 0" fill="#67b9cc"/><path d="m326.625 220.695312h-35.3125c-14.597656-.070312-26.414062-11.886718-26.484375-26.484374.023437-2.300782-.890625-4.511719-2.53125-6.125-1.625-1.671876-3.847656-2.632813-6.179687-2.660157-2.332032-.03125-4.578126.871094-6.242188 2.5-1.730469 1.632813-2.707031 3.910157-2.699219 6.285157-.015625 14.621093-11.863281 26.46875-26.484375 26.484374h-35.308594c-20.875.035157-40.339843-10.511718-51.707031-28.019531-.933593-1.433593-1.429687-3.109375-1.433593-4.820312v-31.425781c.003906-1.710938.5-3.386719 1.433593-4.824219 11.367188-17.503907 30.835938-28.050781 51.707031-28.015625h141.242188c16.410156-.070313 32.160156 6.46875 43.695312 18.148437 3.058594 3.019531 5.773438 6.375 8.085938 10 .886719 1.40625 1.355469 3.03125 1.351562 4.691407v31.425781c0 1.714843-.496093 3.390625-1.429687 4.824219-11.367187 17.503906-30.835937 28.050781-51.703125 28.015624zm-70.621094-52.964843c14.597656.066406 26.414063 11.882812 26.480469 26.480469-.019531 2.300781.894531 4.511718 2.535156 6.125 1.636719 1.730468 3.914063 2.707031 6.292969 2.703124h35.3125c14.011719.027344 27.195312-6.640624 35.484375-17.9375v-25.953124c-1.300781-1.757813-2.738281-3.410157-4.292969-4.949219-8.230468-8.335938-19.476562-13.007813-31.191406-12.953125h-141.242188c-14.015624-.027344-27.199218 6.640625-35.488281 17.9375v25.917968c8.289063 11.296876 21.472657 17.964844 35.488281 17.9375h35.308594c4.875-.003906 8.824219-3.953124 8.828125-8.828124.074219-14.59375 11.886719-26.410157 26.484375-26.480469zm0 0" fill="#41767f"/><path d="m414.898438 194.210938c9.75 0 17.65625 7.90625 17.65625 17.65625s-7.90625 17.65625-17.65625 17.65625c8.605468-.023438 15.964843 6.175781 17.410156 14.660156 1.441406 8.480468-3.457032 16.765625-11.582032 19.589844 1.9375 2.933593 2.980469 6.371093 3 9.886718-.027343 9.738282-7.917968 17.625-17.65625 17.65625-3.167968.007813-6.28125-.847656-9.003906-2.472656.105469.820312.164063 1.644531.175782 2.472656-.003907 7.484375-4.753907 14.148438-11.828126 16.59375 1.941407 2.933594 2.984376 6.371094 3.003907 9.886719 0 9.75-7.90625 17.65625-17.65625 17.65625s-17.65625-7.90625-17.65625-17.65625c-8.605469.023437-15.964844-6.175781-17.40625-14.660156-1.445313-8.480469 3.453125-16.765625 11.582031-19.589844-1.941406-2.933594-2.984375-6.371094-3.003906-9.886719.03125-9.738281 7.917968-17.628906 17.65625-17.65625.828125.011719 1.652344.070313 2.472656.175782-2.703125-4.539063-3.21875-10.058594-1.40625-15.023438 1.816406-4.960938 5.769531-8.847656 10.761719-10.574219-1.9375-2.933593-2.980469-6.371093-3-9.886719.027343-9.738281 7.914062-17.628906 17.65625-17.65625-9.742188-.027343-17.628907-7.917968-17.65625-17.65625 0-5.089843 2.226562-9.925781 6.089843-13.242187-3.863281-3.3125-6.089843-8.148437-6.089843-13.238281.019531-3.519532 1.0625-6.953125 3-9.886719-4.992188-1.730469-8.945313-5.613281-10.761719-10.578125-1.8125-4.964844-1.296875-10.480469 1.40625-15.023438-.820312.105469-1.644531.164063-2.472656.175782-9.738282-.027344-17.625-7.914063-17.65625-17.652344-9.738282-.03125-17.625-7.917969-17.652344-17.65625.011719-.828125.070312-1.652344.175781-2.472656-2.722656 1.625-5.835937 2.480468-9.003906 2.472656-6.371094-.007812-12.242187-3.449219-15.363281-9.003906-.757813.105468-1.523438.164062-2.292969.175781-7.488281-.003906-14.148437-4.753906-16.597656-11.828125-2.933594 1.9375-6.367188 2.980469-9.886719 3-9.738281-.027344-17.625-7.917969-17.652344-17.65625-.03125 9.738281-7.917968 17.628906-17.65625 17.65625-3.515625-.019531-6.953125-1.0625-9.886718-3-2.449219 7.074219-9.109376 11.824219-16.597657 11.828125-.765625-.011719-1.535156-.070313-2.292969-.175781-3.117187 5.554687-8.992187 8.996094-15.359374 9.003906-3.171876.007812-6.285157-.847656-9.003907-2.472656.105469.820312.164063 1.644531.175781 2.472656-.03125 9.738281-7.917968 17.625-17.65625 17.65625-.027343 9.738281-7.917968 17.625-17.65625 17.652344-.824218-.011719-1.652343-.070313-2.46875-.175782 2.699219 4.542969 3.214844 10.058594 1.402344 15.023438-1.816406 4.964844-5.765625 8.847656-10.761718 10.578125 1.9375 2.933594 2.980468 6.367187 3 9.886719 0 5.089844-2.222657 9.925781-6.089844 13.238281 3.867187 3.316406 6.089844 8.152344 6.089844 13.242187-.027344 9.738282-7.914063 17.628907-17.652344 17.65625 9.738281.027344 17.625 7.917969 17.652344 17.65625-.019532 3.515626-1.0625 6.953126-3 9.886719 4.996093 1.726563 8.945312 5.613281 10.761718 10.574219 1.8125 4.964844 1.296875 10.484375-1.402344 15.023438.816407-.105469 1.644532-.164063 2.46875-.175782 9.738282.027344 17.628907 7.917969 17.65625 17.65625-.019531 3.515625-1.0625 6.953125-3 9.886719 8.125 2.824219 13.023438 11.109375 11.582032 19.589844-1.445313 8.484375-8.804688 14.683593-17.410156 14.660156 0 9.75-7.902344 17.65625-17.65625 17.65625-9.75 0-17.652344-7.90625-17.652344-17.65625.019531-3.515625 1.0625-6.953125 3-9.886719-7.074219-2.445312-11.824219-9.109375-11.828125-16.59375.011719-.828125.070312-1.652344.175781-2.472656-2.722656 1.625-5.832031 2.480469-9.003906 2.472656-9.738282-.03125-17.625-7.917968-17.65625-17.65625.019531-3.515625 1.0625-6.953125 3.003906-9.886718-8.128906-2.824219-13.027344-11.109376-11.582031-19.589844 1.441406-8.484375 8.800781-14.683594 17.40625-14.660156-9.75 0-17.65625-7.90625-17.65625-17.65625s7.90625-17.65625 17.65625-17.65625c-9.75 0-17.65625-7.902344-17.65625-17.65625 0-9.75 7.90625-17.652344 17.65625-17.652344-9.070313.007812-16.671875-6.859375-17.582031-15.882813-.914063-9.023437 5.164062-17.269531 14.050781-19.074219.363281-1.449218.835937-2.863281 1.414062-4.238281-5.898437-4.648437-8.199219-12.523437-5.730469-19.617187 2.46875-7.089844 9.167969-11.832032 16.675782-11.808594.828125.011719 1.652344.070312 2.472656.175781-1.628906-2.722656-2.480469-5.835937-2.472656-9.003906.027344-9.738281 7.917968-17.625 17.65625-17.65625.824218.011719 1.652344.070313 2.46875.175781-1.625-2.71875-2.480469-5.832031-2.46875-9.003906.027344-9.738281 7.914062-17.625 17.652344-17.652344-.007813-7.027344 2.78125-13.769531 7.746093-18.738281 4.96875-4.96875 11.710938-7.753906 18.738281-7.746094 6.574219-.039062 12.917969 2.421875 17.742188 6.886719 1.035156-9.320312 9.167969-16.207031 18.53125-15.6914062 9.363281.5156252 16.6875 8.2578122 16.691406 17.6328122 0-9.75 7.90625-17.65624975 17.65625-17.65624975s17.65625 7.90624975 17.65625 17.65624975c0-9.75 7.902344-17.65624975 17.652344-17.65624975 9.753906 0 17.65625 7.90624975 17.65625 17.65624975.003906-9.375 7.332031-17.117187 16.691406-17.6328122 9.363282-.5156248 17.496094 6.3710942 18.53125 15.6914062 4.824219-4.464844 11.167969-6.925781 17.742188-6.886719 7.027344-.007812 13.769531 2.777344 18.738281 7.746094s7.753906 11.710937 7.746094 18.738281c9.738281.027344 17.625 7.914063 17.65625 17.652344.007812 3.171875-.847657 6.285156-2.472657 9.003906.820313-.105468 1.644532-.164062 2.472657-.175781 9.738281.03125 17.625 7.917969 17.652343 17.65625.011719 3.167969-.84375 6.28125-2.46875 9.003906.816407-.105469 1.644532-.164062 2.46875-.175781 8.308594-.003906 15.496094 5.785156 17.261719 13.90625 1.761719 8.117188-2.371093 16.371094-9.933593 19.8125.214843.519531.390624 1.046875.53125 1.589844h.96875c9.75 0 17.65625 7.90625 17.65625 17.65625s-7.90625 17.65625-17.65625 17.65625c9.75 0 17.65625 7.902344 17.65625 17.652344 0 9.753906-7.90625 17.65625-17.65625 17.65625zm0 0" fill="#b19046"/><path d="m297.734375 242.761719c-7.132813 13.960937-29.394531 15.933593-41.554687 15.933593-12.1875 0-34.421876-1.972656-41.554688-15.933593 13.597656 3.351562 27.546875 5.101562 41.554688 5.210937 14.007812-.109375 27.953124-1.859375 41.554687-5.210937zm0 0" fill="#2c2f38"/><path d="m229.519531 173.742188c0-10.449219-7.90625-18.921876-17.65625-18.921876s-17.652343 8.472657-17.652343 18.921876c0 10.449218 7.902343 18.921874 17.652343 18.921874s17.65625-8.472656 17.65625-18.921874zm0 0" fill="#35495e"/><path d="m216.8125 157.320312c-4.554688-1.730468-9.65625.558594-11.386719 5.113282-1.734375 4.558594.554688 9.65625 5.113281 11.390625 4.554688 1.734375 9.65625-.554688 11.386719-5.113281 1.734375-4.558594-.554687-9.65625-5.113281-11.390626zm0 0" fill="#fff"/><path d="m317.796875 173.742188c0-10.449219-7.90625-18.921876-17.65625-18.921876s-17.65625 8.472657-17.65625 18.921876c0 10.449218 7.90625 18.921874 17.65625 18.921874s17.65625-8.472656 17.65625-18.921874zm0 0" fill="#35495e"/><path d="m306.582031 162.433594c-1.734375-4.554688-6.835937-6.84375-11.390625-5.113282-4.558594 1.734376-6.847656 6.832032-5.113281 11.390626 1.734375 4.558593 6.832031 6.847656 11.390625 5.113281 4.554688-1.734375 6.84375-6.832031 5.113281-11.390625zm0 0" fill="#fff"/></svg>