<svg height="512pt" viewBox="0 0 512 512.00305" width="512pt" xmlns="http://www.w3.org/2000/svg"><path d="m409.417969 512.003906h93.757812v-8.054687c.015625-11.574219-1.300781-23.109375-3.921875-34.382813l-7.925781-34.113281c-8.113281-34.714844-39.101563-59.246094-74.753906-59.175781h-321.148438c-35.648437-.066406-66.632812 24.460937-74.746093 59.175781l-7.925782 34.113281c-2.625 11.273438-3.941406 22.808594-3.925781 34.382813v8.054687zm0 0" fill="#f0c419"/><path d="m185.378906 300.140625h141.242188v61.792969h-141.242188zm0 0" fill="#f29c1f"/><path d="m417.722656 185.734375c46.433594 26.660156 94.277344-9.179687 94.277344-9.179687-35.308594-8.828126-35.308594-61.792969-35.308594-105.929688 0-29.546875-18.386718-55.96875-46.09375-66.226562-27.707031-10.261719-58.871094-2.1875-78.109375 20.234374h-192.972656c-19.238281-22.421874-50.402344-30.496093-78.109375-20.234374-27.707031 10.257812-46.097656 36.679687-46.09375 66.226562 0 44.136719 0 97.101562-35.3125 105.929688 0 0 47.847656 35.839843 94.28125 9.179687zm0 0" fill="#804537"/><path d="m388.414062 220.691406c14.953126 0 27.398438-11.488281 28.59375-26.394531l2.582032-32.253906c3.339844-41.746094-10.914063-82.992188-39.324219-113.765625-28.410156-30.773438-68.386719-48.27343775-110.265625-48.27343775h-27.996094c-41.882812 0-81.855468 17.49999975-110.265625 48.27343775-28.40625 30.769531-42.664062 72.015625-39.324219 113.761718l2.578126 32.253907c1.195312 14.910156 13.640624 26.398437 28.59375 26.398437" fill="#cc6f56"/><path d="m430.433594 458.949219c-11.035156-.351563-35.132813-3.796875-50.847656-35.222657h-247.171876c-15.710937 31.425782-39.8125 34.871094-50.84375 35.222657l18.976563-91.71875c3.046875-9.125 11.957031-14.96875 21.539063-14.125h267.828124c9.605469-.84375 18.539063 4.992187 21.628907 14.125zm0 0" fill="#f3d55b"/><path d="m441.378906 512.003906h-370.757812l10.949218-53.054687c11.03125-.351563 35.132813-3.796875 50.84375-35.222657h247.171876c15.714843 31.425782 39.8125 34.871094 50.847656 35.222657zm0 0" fill="#cc66a1"/><path d="m388.554688 176.949219v70.433593c0 34.128907-27.667969 61.792969-61.792969 61.792969h-141.242188c-34.128906 0-61.792969-27.664062-61.792969-61.792969v-45.726562c0-5.136719 8.828126-77.859375 61.792969-77.859375 41.230469 0 88.277344-8.828125 105.929688-52.964844 0 0 26.953125 53.90625 74.972656 73.410157 13.351563 5.378906 22.105469 18.316406 22.132813 32.707031zm0 0" fill="#f0c419"/><path d="m132.414062 353.105469h35.3125v70.621093h-35.3125zm0 0" fill="#955ba5"/><path d="m344.277344 353.105469h35.308594v70.621093h-35.308594zm0 0" fill="#955ba5"/><path d="m158.898438 485.519531c-4.875 0-8.828126-3.953125-8.828126-8.828125v-17.652344c0-4.875 3.953126-8.828124 8.828126-8.828124s8.828124 3.953124 8.828124 8.828124v17.652344c0 4.875-3.953124 8.828125-8.828124 8.828125zm0 0" fill="#fff"/><path d="m167.726562 476.691406h-17.65625c-4.875 0-8.828124-3.949218-8.828124-8.828125 0-4.875 3.953124-8.824219 8.828124-8.824219h17.65625c4.875 0 8.828126 3.949219 8.828126 8.824219 0 4.878907-3.953126 8.828125-8.828126 8.828125zm0 0" fill="#fff"/><path d="m353.105469 485.519531c-4.875 0-8.828125-3.953125-8.828125-8.828125v-17.652344c0-4.875 3.953125-8.828124 8.828125-8.828124s8.828125 3.953124 8.828125 8.828124v17.652344c0 4.875-3.953125 8.828125-8.828125 8.828125zm0 0" fill="#fff"/><path d="m361.933594 476.691406h-17.65625c-4.875 0-8.828125-3.949218-8.828125-8.828125 0-4.875 3.953125-8.824219 8.828125-8.824219h17.65625c4.875 0 8.828125 3.949219 8.828125 8.824219 0 4.878907-3.953125 8.828125-8.828125 8.828125zm0 0" fill="#fff"/><g fill="#2c2f38"><path d="m297.734375 256.003906c-7.132813 13.957032-29.394531 15.929688-41.554687 15.929688-12.1875 0-34.425782-1.972656-41.558594-15.929688 13.601562 3.351563 27.550781 5.097656 41.558594 5.207032 14.007812-.109376 27.953124-1.855469 41.554687-5.207032zm0 0"/><path d="m232.878906 159.683594c-8.386718-3.082032-17.199218-4.871094-26.128906-5.296875-12.003906-.90625-24.015625 1.65625-34.601562 7.378906 1.207031-15.445313 37.019531-18.5 54.53125-14.527344 2.773437.34375 5.191406 2.054688 6.4375 4.558594 1.246093 2.503906 1.160156 5.464844-.238282 7.886719zm0 0"/><path d="m279.121094 159.683594c8.390625-3.082032 17.203125-4.871094 26.132812-5.296875 12.003906-.90625 24.011719 1.65625 34.601563 7.378906-1.207031-15.445313-37.023438-18.5-54.53125-14.527344-2.773438.34375-5.191407 2.054688-6.4375 4.558594-1.25 2.503906-1.160157 5.464844.234375 7.886719zm0 0"/><path d="m184.140625 174.242188s2.511719 11.28125 12.238281 9.082031c9.726563-2.199219 11.578125 2.023437 19.957032 1.347656 2.867187-.195313 5.746093-.019531 8.566406.523437 2.003906.464844 4.082031.5 6.101562.097657 2.792969-.746094 2.550782-3.988281 1.574219-6.097657-3.878906-8.359374-14.789063-8.96875-22.769531-8.042968-3.386719.921875-6.828125 1.613281-10.304688 2.078125-3.640625-1.007813-7.035156-2.753907-9.972656-5.128907.636719 2.269532.789062 4.644532.449219 6.976563-1.011719 1.917969-5.839844-.835937-5.839844-.835937zm0 0"/><path d="m229.519531 191.394531c0-10.449219-7.90625-18.921875-17.65625-18.921875s-17.65625 8.472656-17.65625 18.921875c0 10.453125 7.90625 18.925781 17.65625 18.925781s17.65625-8.472656 17.65625-18.925781zm0 0"/></g><path d="m216.8125 174.976562c-4.554688-1.734374-9.65625.554688-11.386719 5.113282-1.734375 4.554687.554688 9.65625 5.109375 11.386718 4.558594 1.734376 9.65625-.554687 11.390625-5.113281 1.734375-4.554687-.554687-9.65625-5.113281-11.386719zm0 0" fill="#fff"/><path d="m327.859375 174.242188s-2.515625 11.28125-12.238281 9.082031c-9.726563-2.199219-11.578125 2.023437-19.960938 1.347656-2.863281-.195313-5.746094-.019531-8.566406.523437-2.003906.464844-4.082031.5-6.097656.097657-2.796875-.746094-2.554688-3.988281-1.574219-6.097657 3.875-8.359374 14.785156-8.96875 22.769531-8.042968 3.382813.921875 6.824219 1.613281 10.300782 2.078125 3.640624-1.007813 7.035156-2.753907 9.976562-5.128907-.636719 2.269532-.789062 4.644532-.449219 6.976563 1.011719 1.917969 5.839844-.835937 5.839844-.835937zm0 0" fill="#2c2f38"/><path d="m317.792969 191.394531c0-10.449219-7.90625-18.921875-17.65625-18.921875s-17.65625 8.472656-17.65625 18.921875c0 10.453125 7.90625 18.925781 17.65625 18.925781s17.65625-8.472656 17.65625-18.925781zm0 0" fill="#2c2f38"/><path d="m306.582031 180.09375c-1.730469-4.558594-6.832031-6.847656-11.386719-5.113281-4.558593 1.730469-6.847656 6.832031-5.113281 11.386719 1.734375 4.558593 6.832031 6.847656 11.386719 5.113281 4.558594-1.734375 6.847656-6.832031 5.113281-11.386719zm0 0" fill="#fff"/></svg>