<svg height="512pt" viewBox="0 0 512.00027 512" width="512pt" xmlns="http://www.w3.org/2000/svg"><path d="m414.898438 512h97.101562v-7.855469c.015625-11.304687-1.347656-22.570312-4.0625-33.546875l-8.207031-33.277344c-9.523438-34.714843-41.429688-58.511718-77.417969-57.734374h-332.625c-35.988281-.777344-67.894531 23.019531-77.417969 57.734374l-8.207031 33.277344c-2.714844 10.976563-4.078125 22.242188-4.0625 33.546875v7.855469zm0 0" fill="#c03a2b"/><path d="m441.378906 512h-370.757812l27.367187-132.414062 2.558594-12.359376c2.121094-7.152343 8.234375-12.402343 15.625-13.417968l36.105469-.703125h207.359375l36.191406.703125c7.453125.921875 13.636719 6.203125 15.714844 13.417968zm0 0" fill="#2c2f38"/><path d="m308.964844 406.070312c0 29.25-23.710938 52.964844-52.964844 52.964844-29.25 0-52.964844-23.714844-52.964844-52.964844 0-29.253906 23.714844-52.964843 52.964844-52.964843 29.253906 0 52.964844 23.710937 52.964844 52.964843zm0 0" fill="#f0c419"/><path d="m97.105469 220.691406c.015625 48.746094 39.527343 88.257813 88.273437 88.273438h141.242188c48.746094-.015625 88.257812-39.527344 88.277344-88.273438l-3.269532-109.816406c-14.265625-64.761719-71.660156-110.8828125-137.972656-110.875h-35.3125c-66.3125-.0078125-123.707031 46.113281-137.972656 110.875zm0 0" fill="#e64c3c"/><path d="m132.414062 97.105469h247.171876c24.378906 0 44.136718 19.757812 44.136718 44.136719v52.964843c0 24.375-19.757812 44.136719-44.136718 44.136719h-247.171876c-24.375 0-44.136718-19.761719-44.136718-44.136719v-52.964843c0-24.378907 19.761718-44.136719 44.136718-44.136719zm0 0" fill="#67b9cc"/><path d="m185.378906 308.964844h141.242188v44.140625h-141.242188zm0 0" fill="#f29c1f"/><path d="m379.585938 247.171875h-247.171876c-29.238281-.03125-52.933593-23.726563-52.964843-52.964844v-52.964843c.03125-29.238282 23.726562-52.933594 52.964843-52.964844h247.171876c29.238281.03125 52.933593 23.726562 52.964843 52.964844v52.964843c-.03125 29.238281-23.726562 52.933594-52.964843 52.964844zm-247.171876-141.242187c-19.492187.023437-35.289062 15.820312-35.308593 35.3125v52.964843c.019531 19.492188 15.816406 35.289063 35.308593 35.308594h247.171876c19.492187-.019531 35.289062-15.816406 35.3125-35.308594v-52.964843c-.023438-19.492188-15.820313-35.289063-35.3125-35.3125zm0 0" fill="#41767f"/><g fill="#e6e7e8"><path d="m123.585938 211.863281c-4.875 0-8.828126-3.953125-8.828126-8.828125v-70.621094c0-4.875 3.953126-8.828124 8.828126-8.828124s8.828124 3.953124 8.828124 8.828124v70.621094c0 4.875-3.953124 8.828125-8.828124 8.828125zm0 0"/><path d="m388.414062 211.863281c-4.875 0-8.828124-3.953125-8.828124-8.828125v-70.621094c0-4.875 3.953124-8.828124 8.828124-8.828124s8.828126 3.953124 8.828126 8.828124v70.621094c0 4.875-3.953126 8.828125-8.828126 8.828125zm0 0"/><path d="m176.550781 158.898438c-3.570312-.003907-6.785156-2.152344-8.152343-5.453126-1.367188-3.296874-.613282-7.09375 1.914062-9.617187l17.652344-17.65625c3.464844-3.34375 8.96875-3.296875 12.375.109375 3.40625 3.402344 3.453125 8.910156.109375 12.375l-17.65625 17.652344c-1.652344 1.660156-3.898438 2.589844-6.242188 2.589844zm0 0"/><path d="m176.550781 203.035156c-3.570312 0-6.785156-2.152344-8.152343-5.449218-1.367188-3.300782-.613282-7.09375 1.914062-9.621094l61.792969-61.792969c3.460937-3.34375 8.96875-3.296875 12.375.109375 3.402343 3.402344 3.449219 8.910156.105469 12.375l-61.792969 61.792969c-1.652344 1.65625-3.898438 2.589843-6.242188 2.585937zm0 0"/></g><path d="m206.210938 424.164062c-33.542969-1.324218-79.800782-16.949218-90.039063-70.355468-.53125-2.292969-.882813-4.765625-1.238281-7.324219-1.21875-9.65625 5.621094-18.46875 15.273437-19.6875 9.652344-1.21875 18.464844 5.617187 19.683594 15.273437.476563 3.738282 1.273437 7.429688 2.386719 11.035157 9.089844 28.863281 36.984375 34.777343 53.757812 35.484375" fill="#bdc3c7"/><path d="m305.964844 388.589844c16.773437-.707032 44.578125-6.707032 53.671875-35.484375 1.109375-3.605469 1.90625-7.296875 2.382812-11.035157 1.257813-9.644531 10.070313-16.457031 19.71875-15.242187 9.648438 1.214844 16.5 10 15.328125 19.65625-.355468 2.558594-.707031 5.03125-1.238281 7.324219-10.328125 53.40625-56.582031 69.03125-90.039063 70.355468" fill="#bdc3c7"/><path d="m264.828125 459.035156v52.964844h-17.65625v-52.964844c0-4.875 3.953125-8.828125 8.828125-8.828125s8.828125 3.953125 8.828125 8.828125zm0 0" fill="#2c3e50"/><path d="m256 467.863281c-34.128906 0-61.792969-27.667969-61.792969-61.792969 0-34.128906 27.664063-61.792968 61.792969-61.792968s61.792969 27.664062 61.792969 61.792968c-.039063 34.109376-27.683594 61.753907-61.792969 61.792969zm0-105.933593c-24.375 0-44.136719 19.761718-44.136719 44.140624 0 24.375 19.761719 44.136719 44.136719 44.136719s44.136719-19.761719 44.136719-44.136719c-.027344-24.367187-19.773438-44.109374-44.136719-44.140624zm0 0" fill="#d25627"/><path d="m256 423.722656c-4.875 0-8.828125-3.949218-8.828125-8.824218v-17.65625c0-4.875 3.953125-8.828126 8.828125-8.828126s8.828125 3.953126 8.828125 8.828126v17.65625c0 4.875-3.953125 8.824218-8.828125 8.824218zm0 0" fill="#d25627"/></svg>