<svg height="512pt" viewBox="0 0 512.00027 512" width="512pt" xmlns="http://www.w3.org/2000/svg"><path d="m414.898438 512h97.101562v-7.855469c.015625-11.304687-1.347656-22.570312-4.0625-33.546875l-8.207031-33.277344c-9.523438-34.714843-41.429688-58.511718-77.417969-57.734374h-332.625c-35.988281-.777344-67.894531 23.019531-77.417969 57.734374l-8.207031 33.277344c-2.714844 10.976563-4.078125 22.242188-4.0625 33.546875v7.855469zm0 0" fill="#2980ba"/><path d="m185.378906 282.160156h141.242188v97.746094h-141.242188zm0 0" fill="#f29c1f"/><path d="m388.414062 180.964844v66.207031c.011719 16.394531-6.496093 32.117187-18.085937 43.707031-11.589844 11.59375-27.316406 18.097656-43.707031 18.085938h-141.242188c-16.390625.011718-32.117187-6.492188-43.707031-18.085938-11.589844-11.589844-18.097656-27.3125-18.085937-43.707031v-83.863281c2.398437-2.507813 4.636718-5.160156 6.710937-7.941406 8.59375-10.859376 15.277344-23.097657 19.773437-36.195313 8.828126-26.480469 17.652344-35.308594 35.308594-35.308594s35.3125 26.480469 97.105469 26.480469 70.621094-26.480469 70.621094-26.480469c5.546875 24.640625 12.746093 48.882813 21.539062 72.5625.183594.367188.332031.75.441407 1.148438 1.675781 3.972656 3.351562 7.679687 5.03125 10.945312.792968 1.675781 1.675781 3.175781 2.46875 4.589844 1.617187 2.84375 3.574218 5.484375 5.828124 7.855469zm0 0" fill="#f0c419"/><path d="m335.449219 353.105469c-29.949219 7.355469-57.382813 22.59375-79.449219 44.136719-22.066406-21.542969-49.5-36.78125-79.449219-44.136719zm0 0" fill="#f0c419"/><path d="m441.378906 512h-370.757812l29.925781-144.773438c3.046875-9.125 11.957031-14.964843 21.539063-14.121093h54.464843c29.949219 7.355469 57.382813 22.59375 79.449219 44.136719 22.066406-21.542969 49.5-36.78125 79.449219-44.136719h54.464843c9.605469-.84375 18.539063 4.988281 21.628907 14.121093zm0 0" fill="#3b97d3"/><g fill="#2fa8cc"><path d="m273.65625 203.035156c-2.34375.003906-4.589844-.929687-6.242188-2.585937-3.085937-3.1875-7.066406-5.363281-11.414062-6.242188-4.359375.882813-8.351562 3.066407-11.441406 6.269531-3.46875 3.351563-8.984375 3.296876-12.386719-.121093s-3.433594-8.933594-.066406-12.390625c6.378906-6.488282 14.835937-10.527344 23.894531-11.414063 9.058594.886719 17.515625 4.925781 23.894531 11.414063 2.527344 2.527344 3.28125 6.320312 1.914063 9.621094-1.367188 3.296874-4.582032 5.449218-8.152344 5.449218zm0 0"/><path d="m176.640625 191.734375c.011719.414063-.019531.828125-.089844 1.238281-.613281 4.351563-4.339843 7.589844-8.738281 7.589844-.414062.015625-.828125-.015625-1.234375-.085938l-7.328125-1.0625-35.664062-5.117187v-8.917969c2.398437-2.507812 4.636718-5.160156 6.710937-7.945312l30.367187 4.328125 8.382813 1.234375c4.355469.617187 7.59375 4.34375 7.59375 8.738281zm0 0"/><path d="m382.585938 195.179688-9.621094 1.324218-20.214844 2.910156-7.328125 1.0625c-.40625.070313-.820313.101563-1.234375.085938-2.105469 0-4.136719-.75-5.738281-2.117188-.789063-.703124-1.445313-1.539062-1.941407-2.472656-.546874-.914062-.878906-1.941406-.972656-3-.191406-1.363281-.070312-2.753906.355469-4.0625-.003906-.125.027344-.246094.085937-.351562.445313-.90625.980469-1.761719 1.589844-2.5625.335938-.425782.722656-.808594 1.148438-1.144532 1.222656-.984374 2.683594-1.625 4.238281-1.855468l8.386719-1.234375 19.152344-2.738281c.378906-.074219.765624-.101563 1.148437-.089844l3.003906-.441406c.183594.367187.332031.753906.441407 1.148437 1.675781 3.972656 3.351562 7.679687 5.03125 10.945313.792968 1.679687 1.675781 3.179687 2.46875 4.59375zm0 0"/><path d="m380.117188 190.585938c-1.050782 3.183593-3.832032 5.480468-7.152344 5.917968l-20.214844 2.910156-7.328125 1.0625c-.40625.070313-.820313.101563-1.234375.085938-2.105469 0-4.136719-.75-5.738281-2.117188-.789063-.703124-1.445313-1.539062-1.941407-2.472656-.535156-.925781-.894531-1.945312-1.058593-3-.214844-1.371094-.0625-2.769531.441406-4.0625-.003906-.125.027344-.246094.085937-.351562.445313-.90625.980469-1.761719 1.589844-2.5625.335938-.425782.722656-.808594 1.148438-1.144532 1.222656-.984374 2.683594-1.625 4.238281-1.855468l8.386719-1.234375 19.152344-2.738281c.378906-.074219.765624-.101563 1.148437-.089844 1.183594.003906 2.355469.246094 3.445313.707031 1.675781 3.972656 3.351562 7.679687 5.03125 10.945313zm0 0"/></g><path d="m291.308594 512-17.652344-66.207031h-35.3125l-8.828125 66.207031zm0 0" fill="#c03a2b"/><path d="m299.519531 424.34375-18.097656 18.09375c-4.96875 4.957031-11.695313 7.75-18.710937 7.769531h-13.417969c-7.019531-.019531-13.746094-2.8125-18.714844-7.769531l-18.097656-18.09375 17.40625-30.414062 26.113281 3.3125 40.09375-4.046876 4.414062 32.367188zm0 0" fill="#e64c3c"/><path d="m256 397.242188c-16.992188 8.582031-33.066406 18.867187-47.976562 30.703124-3.113282 2.667969-7.667969 2.796876-10.925782.308594-14.082031-10.683594-48.855468-40.140625-55.855468-75.148437h35.308593c29.949219 7.355469 57.382813 22.59375 79.449219 44.136719zm0 0" fill="#e6e7e8"/><path d="m370.757812 353.105469c-7 35.007812-41.773437 64.464843-55.855468 75.148437-3.257813 2.488282-7.8125 2.359375-10.925782-.308594-14.910156-11.835937-30.984374-22.121093-47.976562-30.703124 22.066406-21.542969 49.5-36.78125 79.449219-44.136719zm0 0" fill="#e6e7e8"/><path d="m414.898438 141.242188c-1.273438 30.988281-10.386719 61.148437-26.484376 87.65625v-25.863282c-2.253906-2.375-4.210937-5.011718-5.828124-7.855468-.792969-1.414063-1.675782-2.914063-2.46875-4.59375-1.679688-3.265626-3.355469-6.972657-5.03125-10.945313-.109376-.394531-.257813-.78125-.441407-1.148437-8.792969-23.675782-15.992187-47.917969-21.539062-72.5625 0 0-8.828125 26.484374-70.621094 26.484374s-79.449219-26.484374-97.105469-26.484374-26.480468 8.828124-35.308594 35.3125c-4.496093 13.097656-11.179687 25.335937-19.773437 36.191406-2.074219 2.785156-4.3125 5.4375-6.710937 7.945312v44.136719s-26.480469-44.136719-26.480469-88.273437c0-35.3125-8.828125-141.242188 158.453125-141.242188h.441406c167.722656 0 158.898438 105.929688 158.898438 141.242188zm0 0" fill="#f29c1f"/><path d="m297.734375 260.414062c-7.132813 13.957032-29.398437 15.933594-41.558594 15.933594-12.1875 0-34.421875-1.976562-41.554687-15.933594 13.601562 3.351563 27.546875 5.097657 41.554687 5.207032 14.007813-.105469 27.957031-1.855469 41.558594-5.207032zm0 0" fill="#2c2f38"/><path d="m229.515625 195.804688c0-10.449219-7.902344-18.921876-17.652344-18.921876s-17.65625 8.472657-17.65625 18.921876c0 10.453124 7.90625 18.925781 17.65625 18.925781s17.652344-8.472657 17.652344-18.925781zm0 0" fill="#2c2f38"/><path d="m216.8125 179.386719c-4.558594-1.734375-9.65625.554687-11.390625 5.113281-1.734375 4.554688.554687 9.65625 5.113281 11.390625 4.558594 1.730469 9.65625-.558594 11.390625-5.113281 1.730469-4.558594-.558593-9.65625-5.113281-11.390625zm0 0" fill="#fff"/><path d="m317.792969 195.804688c0-10.449219-7.902344-18.921876-17.65625-18.921876-9.75 0-17.652344 8.472657-17.652344 18.921876 0 10.453124 7.902344 18.925781 17.652344 18.925781 9.753906 0 17.65625-8.472657 17.65625-18.925781zm0 0" fill="#2c2f38"/><path d="m306.578125 184.5c-1.734375-4.558594-6.832031-6.847656-11.390625-5.113281-4.554688 1.734375-6.84375 6.832031-5.113281 11.390625 1.734375 4.554687 6.832031 6.84375 11.390625 5.113281 4.558594-1.734375 6.847656-6.832031 5.113281-11.390625zm0 0" fill="#fff"/><path d="m203.035156 238.34375c-24.378906 0-44.136718-19.761719-44.136718-44.136719s19.757812-44.136719 44.136718-44.136719c24.375 0 44.136719 19.761719 44.136719 44.136719-.027344 24.363281-19.773437 44.109375-44.136719 44.136719zm0-70.621094c-14.625 0-26.484375 11.859375-26.484375 26.484375s11.859375 26.484375 26.484375 26.484375 26.480469-11.859375 26.480469-26.484375c-.015625-14.621093-11.863281-26.464843-26.480469-26.484375zm0 0" fill="#2fa8cc"/><path d="m308.964844 238.34375c-24.375 0-44.136719-19.761719-44.136719-44.136719s19.761719-44.136719 44.136719-44.136719c24.378906 0 44.140625 19.761719 44.140625 44.136719-.03125 24.363281-19.773438 44.109375-44.140625 44.136719zm0-70.621094c-14.625 0-26.480469 11.859375-26.480469 26.484375s11.855469 26.484375 26.480469 26.484375 26.484375-11.859375 26.484375-26.484375c-.015625-14.621093-11.863281-26.464843-26.484375-26.484375zm0 0" fill="#2fa8cc"/></svg>