<svg height="512pt" viewBox="0 0 512.00027 512" width="512pt" xmlns="http://www.w3.org/2000/svg"><path d="m185.378906 292.050781h141.242188v77.964844h-141.242188zm0 0" fill="#f29c1f"/><path d="m361.929688 297.753906v.089844c-10.328126 7.285156-22.667969 11.171875-35.308594 11.121094h-141.242188c-12.640625.050781-24.980468-3.835938-35.308594-11.121094v-.089844c-8.828124-82.359375-17.65625-132.414062 17.652344-165.339844h172.140625c35.308594 32.925782 30.894531 82.980469 22.066407 165.339844zm0 0" fill="#f0c419"/><path d="m414.898438 512h97.101562v-7.855469c.015625-11.304687-1.347656-22.570312-4.0625-33.546875l-8.207031-33.277344c-6.105469-23.683593-23.316407-42.933593-46.167969-51.644531l-92.160156-32.570312h-210.804688l-92.160156 32.570312c-22.851562 8.710938-40.058594 27.960938-46.167969 51.644531l-8.207031 33.277344c-2.714844 10.976563-4.078125 22.242188-4.0625 33.546875v7.855469zm0 0" fill="#f0c419"/><path d="m256 414.898438c-66.53125 0-114.554688-49.804688-119.8125-55.484376-1.632812-1.730468-2.457031-4.066406-2.277344-6.4375.183594-2.371093 1.355469-4.554687 3.230469-6.015624 3.996094-3.1875 9.765625-2.796876 13.300781.894531 4.679688 5.054687 47.398438 49.386719 105.558594 49.386719s100.882812-44.332032 105.558594-49.386719c3.535156-3.699219 9.304687-4.085938 13.300781-.894531 1.875 1.460937 3.046875 3.644531 3.230469 6.015624.179687 2.371094-.644532 4.707032-2.277344 6.4375-5.257812 5.679688-53.28125 55.484376-119.8125 55.484376zm0 0" fill="#805333"/><g fill="#f29c1f"><path d="m220.691406 485.515625h-79.449218c-4.632813.027344-9.191407-1.183594-13.203126-3.503906-4.128906-2.496094-5.488281-7.847657-3.050781-12.015625 2.441407-4.164063 7.773438-5.597656 11.972657-3.214844 1.304687.730469 2.785156 1.105469 4.28125 1.082031h79.449218c4.871094-.007812 8.820313-3.957031 8.824219-8.828125 0-4.875 3.953125-8.828125 8.828125-8.828125s8.828125 3.953125 8.828125 8.828125c-.015625 14.617188-11.863281 26.464844-26.480469 26.480469zm0 0"/><path d="m370.757812 485.515625h-79.449218c-14.617188-.015625-26.464844-11.863281-26.480469-26.480469 0-4.875 3.953125-8.828125 8.828125-8.828125s8.828125 3.953125 8.828125 8.828125c.003906 4.871094 3.953125 8.820313 8.824219 8.828125h79.449218c1.5.023438 2.976563-.351562 4.28125-1.082031 4.199219-2.382812 9.53125-.949219 11.972657 3.214844 2.4375 4.167968 1.078125 9.519531-3.050781 12.015625-4.011719 2.320312-8.566407 3.53125-13.203126 3.503906zm0 0"/><path d="m185.378906 485.515625c-4.875 0-8.828125-3.949219-8.828125-8.824219v-8.828125c0-4.875 3.953125-8.828125 8.828125-8.828125s8.828125 3.953125 8.828125 8.828125v8.828125c0 4.875-3.953125 8.824219-8.828125 8.824219zm0 0"/><path d="m326.621094 485.515625c-4.875 0-8.828125-3.949219-8.828125-8.824219v-8.828125c0-4.875 3.953125-8.828125 8.828125-8.828125s8.828125 3.953125 8.828125 8.828125v8.828125c0 4.875-3.953125 8.824219-8.828125 8.824219zm0 0"/></g><path d="m335.449219 141.242188c35.308593 32.925781 35.308593 74.152343 26.480469 156.511718v.089844c-8.824219 82.449219 26.484374 214.15625 26.484374 214.15625h52.964844c.917969-42.351562 4.988282-84.574219 12.183594-126.324219 8.121094-55.4375 15.710938-108.753906 5.472656-164.984375-3.089844-17.039062-10.242187-48.023437-18.890625-79.625l-29.21875-88.101562c-1.390625-3.0625-3.011719-6.015625-4.855469-8.828125-17.65625-26.480469-52.964843-44.136719-97.105468-44.136719-44.136719 0-52.964844 8.828125-52.964844 8.828125s-8.828125-8.828125-52.964844-8.828125c-44.136718 0-79.449218 17.65625-97.105468 44.136719-1.84375 2.8125-3.464844 5.765625-4.855469 8.828125l-29.21875 88.101562c-8.648438 31.601563-15.800781 62.585938-18.890625 79.625-10.238282 56.230469-2.648438 109.546875 5.472656 164.984375 7.195312 41.75 11.265625 83.972657 12.183594 126.324219h52.964844s35.3125-131.707031 26.484374-214.15625v-.089844c-8.828124-82.359375-8.828124-123.585937 26.480469-156.511718zm0 0" fill="#2c2f38"/><path d="m440.144531 141.066406c-.585937.101563-1.175781.160156-1.765625.175782h-364.757812c-.589844-.015626-1.179688-.074219-1.765625-.175782-2.433594-.492187-4.542969-1.992187-5.808594-4.132812-1.261719-2.136719-1.554687-4.710938-.8125-7.078125l21.1875-70.621094c1.089844-3.722656 4.507813-6.277344 8.386719-6.269531h322.382812c3.878906-.007813 7.296875 2.546875 8.386719 6.269531l21.1875 70.621094c.746094 2.367187.449219 4.941406-.8125 7.078125-1.265625 2.140625-3.375 3.640625-5.808594 4.132812zm0 0" fill="#c03a2b"/><path d="m301.109375 255.449219c-4.867187 15.023437-27.769531 22.402343-40.171875 24.574219-12.425781 2.175781-35.441406 4.203124-45.121094-8.273438 14.464844.871094 28.980469.101562 43.273438-2.289062 14.480468-3.109376 28.570312-7.808594 42.019531-14.011719zm0 0" fill="#2c2f38"/><path d="m231.082031 182.863281c-7.65625-4.613281-15.972656-8.03125-24.664062-10.132812-11.617188-3.160157-23.898438-2.910157-35.378907.710937 4.101563-14.941406 39.851563-11.179687 56.292969-3.972656 2.664063.863281 4.714844 3 5.46875 5.691406.753907 2.695313.109375 5.585938-1.71875 7.703125zm0 0" fill="#2c2f38"/><path d="m229.382812 200.21875c0-10.449219-7.902343-18.921875-17.652343-18.921875-9.753907 0-17.65625 8.472656-17.65625 18.921875 0 10.453125 7.902343 18.925781 17.65625 18.925781 9.75 0 17.652343-8.472656 17.652343-18.925781zm0 0" fill="#2c2f38"/><path d="m216.679688 183.800781c-4.558594-1.734375-9.65625.554688-11.390626 5.113281-1.734374 4.554688.554688 9.65625 5.113282 11.386719 4.558594 1.734375 9.65625-.554687 11.390625-5.109375 1.730469-4.558594-.558594-9.65625-5.113281-11.390625zm0 0" fill="#fff"/><path d="m279.707031 184.714844c6.257813-8.246094 14.957031-14.304688 24.859375-17.320313 13.3125-3.550781 27.476563.945313 36.304688 11.527344-.136719-.132813.136718-2.949219.085937-3.386719-.144531-1.144531-.453125-2.261718-.917969-3.316406-1.039062-2.253906-2.566406-4.25-4.46875-5.839844-4.738281-3.851562-10.378906-6.429687-16.390624-7.496094-7.988282-1.804687-16.316407-1.394531-24.082032 1.191407-4.679687 1.617187-8.984375 4.152343-12.664062 7.464843-3.242188 2.964844-8.042969 8.429688-5.957032 13.402344.964844 1.351563 2.046876 2.613282 3.230469 3.773438zm0 0" fill="#2c2f38"/><path d="m317.660156 200.21875c0-10.449219-7.90625-18.921875-17.65625-18.921875s-17.65625 8.472656-17.65625 18.921875c0 10.453125 7.90625 18.925781 17.65625 18.925781s17.65625-8.472656 17.65625-18.925781zm0 0" fill="#2c2f38"/><path d="m306.445312 188.914062c-1.734374-4.558593-6.832031-6.847656-11.390624-5.113281-4.554688 1.734375-6.84375 6.832031-5.113282 11.390625 1.734375 4.554688 6.832032 6.84375 11.390625 5.113282 4.554688-1.734376 6.84375-6.835938 5.113281-11.390626zm0 0" fill="#fff"/></svg>