<svg height="512pt" viewBox="0 0 512.00016 512" width="512pt" xmlns="http://www.w3.org/2000/svg"><path d="m187.035156 288.34375h141.242188v85.382812h-141.242188zm0 0" fill="#f29c1f"/><path d="m414.898438 512h97.101562v-7.855469c.011719-9.304687-1.355469-18.554687-4.0625-27.453125l-8.207031-39.371094c-9.523438-34.714843-41.429688-58.511718-77.417969-57.734374h-332.625c-35.988281-.777344-67.894531 23.019531-77.417969 57.734374l-8.207031 39.371094c-2.707031 8.898438-4.0742188 18.148438-4.0625 27.453125v7.855469zm0 0" fill="#f0c419"/><path d="m167.722656 467.863281-8.824218 8.828125 8.824218 17.652344v17.65625h-97.101562l29.925781-144.773438c3.046875-9.125 11.957031-14.964843 21.539063-14.121093h27.984374s0 35.308593 17.652344 52.964843c0 0-26.480468 17.652344-17.652344 35.308594 4.558594 9.644532 10.507813 18.566406 17.652344 26.484375zm0 0" fill="#b19046"/><path d="m441.378906 512h-97.101562v-17.65625l8.828125-17.652344-8.828125-8.828125c7.144531-7.917969 13.09375-16.839843 17.652344-26.484375 8.828124-17.65625-17.652344-35.308594-17.652344-35.308594 17.652344-17.65625 17.652344-52.964843 17.652344-52.964843h27.984374c9.605469-.84375 18.539063 4.988281 21.628907 14.121093zm0 0" fill="#b19046"/><path d="m361.929688 441.378906c-4.558594 9.644532-10.507813 18.566406-17.652344 26.484375l8.828125 8.828125-8.828125 17.652344v17.65625h-176.554688v-17.65625l-8.824218-17.652344 8.824218-8.828125c-7.144531-7.917969-13.09375-16.839843-17.652344-26.484375-8.828124-17.65625 17.652344-35.308594 17.652344-35.308594-17.652344-17.65625-17.652344-52.964843-17.652344-52.964843h211.859376s0 35.308593-17.652344 52.964843c0 0 26.480468 17.652344 17.652344 35.308594zm0 0" fill="#f0c419"/><path d="m406.070312 105.929688s8.828126 44.140624 35.308594 52.96875c21.851563 8.332031 36.023438 29.589843 35.3125 52.964843 0 0-44.140625-17.65625-35.3125 26.480469 0 0-44.136718-17.652344-52.964844-52.964844l-17.929687-60.414062zm0 0" fill="#c03a2b"/><path d="m220.691406 0h70.617188c4.878906 0 8.828125 3.953125 8.828125 8.828125v35.308594h-88.273438v-35.308594c0-4.875 3.949219-8.828125 8.828125-8.828125zm0 0" fill="#f29c1f"/><path d="m129.589844 70.621094c10.171875-21.597656 31.917968-35.359375 55.789062-35.3125h141.242188c23.871094-.046875 45.617187 13.714844 55.789062 35.3125l6.003906 52.964844v123.585937c.011719 16.394531-6.496093 32.117187-18.085937 43.707031-11.589844 11.59375-27.316406 18.097656-43.707031 18.085938h-141.242188c-16.390625.011718-32.117187-6.492188-43.707031-18.085938-11.589844-11.589844-18.097656-27.3125-18.085937-43.707031v-123.585937zm0 0" fill="#f0c419"/><path d="m282.492188 171.035156c-2.65625-.011718-5.160157-1.246094-6.785157-3.347656l-35.3125-44.632812c-3.121093-3.992188-2.632812-9.714844 1.121094-13.117188 1.769531-1.582031 4.117187-2.351562 6.476563-2.128906 2.359374.226562 4.519531 1.425781 5.957031 3.308594l35.308593 44.636718c3.125 3.988282 2.632813 9.710938-1.121093 13.117188-1.550781 1.386718-3.5625 2.160156-5.644531 2.164062zm0 0" fill="#35495e"/><path d="m335.441406 171.035156c-2.085937-.003906-4.097656-.773437-5.652344-2.164062-3.753906-3.40625-4.242187-9.128906-1.121093-13.117188l35.3125-44.636718c1.4375-1.882813 3.59375-3.082032 5.957031-3.308594 2.359375-.222656 4.707031.546875 6.472656 2.128906 3.753906 3.402344 4.242188 9.125 1.121094 13.117188l-35.308594 44.632812c-1.625 2.101562-4.128906 3.335938-6.78125 3.347656zm0 0" fill="#35495e"/><g fill="#805333"><path d="m238.34375 423.722656c-4.875 0-8.828125-3.949218-8.828125-8.824218v-8.828126c0-4.875 3.953125-8.828124 8.828125-8.828124s8.828125 3.953124 8.828125 8.828124v8.828126c0 4.875-3.953125 8.824218-8.828125 8.824218zm0 0"/><path d="m273.65625 423.722656c-4.875 0-8.828125-3.949218-8.828125-8.824218v-8.828126c0-4.875 3.953125-8.828124 8.828125-8.828124s8.828125 3.953124 8.828125 8.828124v8.828126c0 4.875-3.953125 8.824218-8.828125 8.824218zm0 0"/><path d="m211.863281 450.207031c-4.875 0-8.828125-3.953125-8.828125-8.828125v-8.828125c0-4.875 3.953125-8.828125 8.828125-8.828125s8.828125 3.953125 8.828125 8.828125v8.828125c0 4.875-3.953125 8.828125-8.828125 8.828125zm0 0"/><path d="m256 459.035156c-4.875 0-8.828125-3.953125-8.828125-8.828125v-8.828125c0-4.875 3.953125-8.828125 8.828125-8.828125s8.828125 3.953125 8.828125 8.828125v8.828125c0 4.875-3.953125 8.828125-8.828125 8.828125zm0 0"/><path d="m300.136719 450.207031c-4.875 0-8.828125-3.953125-8.828125-8.828125v-8.828125c0-4.875 3.953125-8.828125 8.828125-8.828125s8.828125 3.953125 8.828125 8.828125v8.828125c0 4.875-3.953125 8.828125-8.828125 8.828125zm0 0"/><path d="m229.515625 485.515625c-4.875 0-8.824219-3.949219-8.824219-8.824219v-8.828125c0-4.875 3.949219-8.828125 8.824219-8.828125 4.878906 0 8.828125 3.953125 8.828125 8.828125v8.828125c0 4.875-3.949219 8.824219-8.828125 8.824219zm0 0"/><path d="m282.484375 485.515625c-4.875 0-8.828125-3.949219-8.828125-8.824219v-8.828125c0-4.875 3.953125-8.828125 8.828125-8.828125s8.824219 3.953125 8.824219 8.828125v8.828125c0 4.875-3.949219 8.824219-8.824219 8.824219zm0 0"/></g><path d="m123.585938 70.621094h264.828124c9.75 0 17.65625 7.902344 17.65625 17.65625v17.652344c0 9.753906-7.90625 17.65625-17.65625 17.65625h-264.828124c-9.75 0-17.65625-7.902344-17.65625-17.65625v-17.652344c0-9.753906 7.90625-17.65625 17.65625-17.65625zm0 0" fill="#e64c3c"/><path d="m282.484375 158.898438h52.964844c4.875 0 8.828125 3.949218 8.828125 8.824218v26.484375c0 9.75-7.90625 17.65625-17.65625 17.65625h-35.3125c-9.75 0-17.652344-7.90625-17.652344-17.65625v-26.484375c0-4.875 3.953125-8.824218 8.828125-8.824218zm0 0" fill="#2c3e50"/><path d="m301.242188 242.207031c-4.867188 15.023438-27.769532 22.40625-40.171876 24.574219-12.425781 2.175781-35.441406 4.203125-45.121093-8.273438 14.464843.871094 28.980469.101563 43.273437-2.289062 14.480469-3.109375 28.570313-7.808594 42.019532-14.011719zm0 0" fill="#2c2f38"/><path d="m231.214844 169.621094c-7.65625-4.613282-15.972656-8.03125-24.664063-10.132813-11.617187-3.160156-23.898437-2.910156-35.378906.710938 4.101563-14.941407 39.851563-11.179688 56.292969-3.972657 2.664062.863282 4.714844 3 5.46875 5.691407.753906 2.695312.109375 5.585937-1.71875 7.703125zm0 0" fill="#805333"/><path d="m229.515625 186.980469c0-10.453125-7.902344-18.925781-17.652344-18.925781s-17.65625 8.472656-17.65625 18.925781c0 10.449219 7.90625 18.921875 17.65625 18.921875s17.652344-8.472656 17.652344-18.921875zm0 0" fill="#2c2f38"/><path d="m216.8125 170.558594c-4.558594-1.734375-9.65625.554687-11.390625 5.113281s.554687 9.65625 5.113281 11.390625c4.558594 1.730469 9.65625-.558594 11.390625-5.113281 1.730469-4.558594-.558593-9.65625-5.113281-11.390625zm0 0" fill="#fff"/></svg>