<svg height="512pt" viewBox="0 0 512.00027 512" width="512pt" xmlns="http://www.w3.org/2000/svg"><path d="m123.585938 132.414062h-35.308594v-44.136718c.015625-48.746094 39.527344-88.2578128 88.273437-88.277344h158.898438c48.746093.0195312 88.257812 39.53125 88.273437 88.277344v44.136718zm0 0" fill="#bdc3c7"/><path d="m441.378906 141.242188h17.65625c9.75 0 17.65625 7.902343 17.65625 17.65625v35.308593c0 9.75-7.90625 17.65625-17.65625 17.65625h-406.070312c-9.75 0-17.65625-7.90625-17.65625-17.65625v-35.308593c0-9.753907 7.90625-17.65625 17.65625-17.65625zm0 0" fill="#bdc3c7"/><path d="m388.414062 229.515625h35.308594c9.742188-.027344 17.628906-7.914063 17.65625-17.652344v-70.621093c-.027344-9.738282-7.914062-17.628907-17.65625-17.65625h-335.445312c-9.738282.027343-17.628906 7.917968-17.65625 17.65625v70.621093c.027344 9.738281 7.917968 17.625 17.65625 17.652344zm0 0" fill="#e6e7e8"/><path d="m185.378906 295.820312h141.242188v70.425782h-141.242188zm0 0" fill="#f29c1f"/><path d="m414.898438 512h97.101562v-7.855469c.015625-11.304687-1.347656-22.570312-4.0625-33.546875l-8.207031-33.277344c-9.523438-34.714843-41.429688-58.511718-77.417969-57.734374h-332.625c-35.988281-.777344-67.894531 23.019531-77.417969 57.734374l-8.207031 33.277344c-2.714844 10.976563-4.078125 22.242188-4.0625 33.546875v7.855469zm0 0" fill="#527f72"/><path d="m441.378906 512h-370.757812l27.628906-133.738281 2.296875-11.035157c1.238281-5.078124 4.804687-9.269531 9.621094-11.296874 3.675781-1.914063 7.773437-2.886719 11.917969-2.824219h267.828124c4.121094-.035157 8.199219.871093 11.917969 2.644531v.089844c4.847657 2.054687 8.445313 6.273437 9.710938 11.386718l2.207031 10.949219zm0 0" fill="#95a5a5"/><path d="m388.414062 97.105469v150.066406c.011719 16.394531-6.496093 32.117187-18.085937 43.707031-11.589844 11.59375-27.316406 18.097656-43.707031 18.085938h-141.242188c-16.390625.011718-32.117187-6.492188-43.707031-18.085938-11.589844-11.589844-18.097656-27.3125-18.085937-43.707031v-150.066406zm0 0" fill="#f0c419"/><path d="m388.414062 97.105469v88.273437c-35.308593-8.828125-35.308593-35.308594-35.308593-35.308594-26.609375 4.703126-53.667969-5.445312-70.621094-26.484374-52.96875 8.828124-70.621094-26.480469-105.933594-17.65625-35.308593 8.828124-26.480469 79.449218-26.480469 79.449218-26.484374-17.65625-26.484374-52.964844-26.484374-52.964844v-35.308593c.707031-34.253907 31.601562-61.796875 69.648437-61.796875h125.53125c38.046875 0 68.941406 27.542968 69.648437 61.796875zm0 0" fill="#2c2f38"/><path d="m264.828125 61.792969c0 4.875-3.953125 8.828125-8.828125 8.828125s-8.828125-3.953125-8.828125-8.828125c-.570313-11.925781-8.21875-22.351563-19.421875-26.484375h28.339844c5.800781 7.597656 8.878906 16.925781 8.738281 26.484375zm0 0" fill="#7f8c8d"/><path d="m353.105469 353.105469c.007812 1.117187-.203125 2.226562-.621094 3.265625-.792969 2.027344-20.742187 49.699218-96.484375 49.699218s-95.691406-47.671874-96.484375-49.699218c-.417969-1.039063-.628906-2.148438-.621094-3.265625h18.804688c5.472656 9.445312 25.511719 35.308593 78.300781 35.308593 52.878906 0 72.828125-25.863281 78.390625-35.308593zm0 0" fill="#2c2f38"/><g fill="#7f8c8d"><path d="m187.234375 416.75c-3.480469 3.414062-9.054687 3.414062-12.535156 0-7.765625-8.078125-17.972657-13.378906-29.042969-15.09375-18.785156.921875-36.710938-7.921875-47.40625-23.394531l2.296875-11.035157c1.238281-5.078124 4.804687-9.269531 9.621094-11.296874.101562.523437.160156 1.054687.175781 1.585937 0 20.921875 23.128906 26.484375 35.3125 26.484375 20.742188 0 39.457031 18.183594 41.578125 20.214844 3.441406 3.46875 3.441406 9.066406 0 12.535156zm0 0"/><path d="m413.75 378.175781c-10.667969 15.507813-28.601562 24.390625-47.40625 23.480469-11.070312 1.714844-21.277344 7.015625-29.042969 15.09375-3.480469 3.414062-9.050781 3.414062-12.535156 0-3.441406-3.46875-3.441406-9.066406 0-12.535156 2.121094-2.03125 20.835937-20.214844 41.578125-20.214844 12.183594 0 35.3125-5.5625 35.3125-26.484375.007812-.5625.070312-1.121094.175781-1.675781 4.847657 2.054687 8.445313 6.273437 9.710938 11.386718zm0 0"/><path d="m203.035156 485.515625c-3.570312 0-6.789062-2.148437-8.15625-5.449219-1.363281-3.296875-.609375-7.09375 1.914063-9.617187 9.316406-10.472657 14.652343-23.886719 15.070312-37.898438 0-4.875 3.949219-8.828125 8.828125-8.828125 4.875 0 8.824219 3.953125 8.824219 8.828125-.460937 18.683594-7.648437 36.570313-20.238281 50.378907-1.65625 1.660156-3.902344 2.589843-6.242188 2.585937zm0 0"/><path d="m308.964844 485.515625c-2.339844.003906-4.585938-.925781-6.242188-2.585937-12.589844-13.808594-19.777344-31.695313-20.238281-50.378907-.007813-4.875 3.9375-8.832031 8.8125-8.839843 4.875-.007813 8.835937 3.941406 8.839844 8.816406.472656 14.003906 5.800781 27.410156 15.070312 37.921875 2.523438 2.523437 3.277344 6.320312 1.914063 9.617187-1.367188 3.300782-4.585938 5.449219-8.15625 5.449219zm0 0"/></g><path d="m297.734375 247.171875c-7.132813 13.957031-29.398437 15.933594-41.558594 15.933594-12.1875 0-34.421875-1.976563-41.554687-15.933594 13.601562 3.351563 27.546875 5.097656 41.554687 5.207031 14.007813-.105468 27.957031-1.855468 41.558594-5.207031zm0 0" fill="#2c2f38"/><path d="m232.878906 155.269531c-8.390625-3.085937-17.199218-4.871093-26.128906-5.296875-12.003906-.910156-24.015625 1.652344-34.605469 7.378906 1.207031-15.449218 37.023438-18.503906 54.53125-14.53125 2.777344.347657 5.191407 2.058594 6.441407 4.558594 1.246093 2.503906 1.15625 5.464844-.238282 7.890625zm0 0" fill="#2c2f38"/><path d="m229.515625 182.566406c0-10.453125-7.902344-18.925781-17.652344-18.925781s-17.65625 8.472656-17.65625 18.925781c0 10.449219 7.90625 18.921875 17.65625 18.921875s17.652344-8.472656 17.652344-18.921875zm0 0" fill="#2c2f38"/><path d="m216.8125 166.144531c-4.558594-1.734375-9.65625.554688-11.390625 5.113281-1.734375 4.558594.554687 9.65625 5.113281 11.390626 4.558594 1.730468 9.65625-.558594 11.390625-5.113282 1.730469-4.558594-.558593-9.65625-5.113281-11.390625zm0 0" fill="#fff"/><path d="m279.121094 155.269531c8.390625-3.085937 17.203125-4.871093 26.128906-5.296875 12.003906-.910156 24.015625 1.652344 34.605469 7.378906-1.207031-15.449218-37.023438-18.503906-54.53125-14.53125-2.773438.347657-5.191407 2.058594-6.441407 4.558594-1.246093 2.503906-1.15625 5.464844.238282 7.890625zm0 0" fill="#2c2f38"/><path d="m317.792969 182.566406c0-10.453125-7.902344-18.925781-17.65625-18.925781-9.75 0-17.652344 8.472656-17.652344 18.925781 0 10.449219 7.902344 18.921875 17.652344 18.921875 9.753906 0 17.65625-8.472656 17.65625-18.921875zm0 0" fill="#2c2f38"/><path d="m306.578125 171.257812c-1.734375-4.554687-6.832031-6.84375-11.390625-5.113281-4.554688 1.734375-6.84375 6.832031-5.113281 11.390625 1.734375 4.554688 6.835937 6.84375 11.390625 5.113282 4.558594-1.734376 6.847656-6.832032 5.113281-11.390626zm0 0" fill="#fff"/></svg>