<svg height="512pt" viewBox="0 0 512.00027 512" width="512pt" xmlns="http://www.w3.org/2000/svg"><path d="m185.378906 291.121094h141.242188v79.828125h-141.242188zm0 0" fill="#f29c1f"/><path d="m414.898438 512h97.101562v-7.855469c.015625-11.304687-1.347656-22.570312-4.0625-33.546875l-8.207031-33.277344c-9.523438-34.714843-41.429688-58.511718-77.417969-57.734374h-332.625c-35.988281-.777344-67.894531 23.019531-77.417969 57.734374l-8.207031 33.277344c-2.714844 10.976563-4.078125 22.242188-4.0625 33.546875v7.855469zm0 0" fill="#d1d4d1"/><path d="m335.449219 353.105469s-13.242188 57.378906-66.207031 66.203125c-5.828126-.96875-28.957032 1.945312-34.074219 0-42.019531-15.359375-58.617188-66.203125-58.617188-66.203125zm0 0" fill="#f0c419"/><path d="m441.378906 512h-370.757812l29.925781-144.773438c1.890625-6.703124 7.378906-11.785156 14.210937-13.152343 2.390626-.644531 4.855469-.96875 7.328126-.96875h54.464843s21.011719 42.015625 63.03125 57.378906c5.3125 2.007813 10.8125 3.484375 16.417969 4.414063 52.964844-8.828126 79.449219-61.792969 79.449219-61.792969h54.464843c2.476563 0 4.9375.324219 7.328126.96875 6.851562 1.363281 12.367187 6.4375 14.300781 13.152343zm0 0" fill="#e6e7e8"/><path d="m397.242188 354.074219v157.925781h-35.3125v-158.894531h27.984374c2.476563 0 4.9375.324219 7.328126.96875zm0 0" fill="#4fba6f"/><path d="m150.070312 353.105469v158.894531h-35.3125v-157.925781c2.390626-.644531 4.855469-.96875 7.328126-.96875zm0 0" fill="#4fba6f"/><path d="m256 414.898438v97.101562h-17.65625v-97.101562c.003906-1.558594.429688-3.085938 1.238281-4.414063 5.3125 2.007813 10.8125 3.484375 16.417969 4.414063zm0 0" fill="#d1d4d1"/><path d="m291.308594 476.691406h-8.824219c-4.875 0-8.828125-3.953125-8.828125-8.828125s3.953125-8.828125 8.828125-8.828125h8.824219c4.878906 0 8.828125 3.953125 8.828125 8.828125s-3.949219 8.828125-8.828125 8.828125zm0 0" fill="#95a5a5"/><path d="m388.414062 120.054688v127.117187c.011719 16.394531-6.496093 32.117187-18.085937 43.707031-11.589844 11.59375-27.316406 18.097656-43.707031 18.085938h-141.242188c-16.390625.011718-32.117187-6.492188-43.707031-18.085938-11.589844-11.589844-18.097656-27.3125-18.085937-43.707031v-127.117187zm0 0" fill="#f0c419"/><path d="m363.519531 76.183594-35.398437-59.058594c-6.414063-10.597656-17.890625-17.0859375-30.277344-17.125h-83.6875c-12.386719.0390625-23.863281 6.527344-30.277344 17.125l-35.398437 59.058594zm0 0" fill="#4c8056"/><path d="m280.988281 49.320312c38.960938 15.101563 79.015625 27.214844 119.8125 36.242188 8.488281 2.027344 14.234375 9.9375 13.542969 18.636719-.6875 9.710937-1.992188 19.367187-3.90625 28.910156-.953125 4.59375-3.703125 8.613281-7.636719 11.171875-3.933593 2.554688-8.726562 3.429688-13.3125 2.433594-43.984375-8.640625-88.664062-13.269532-133.488281-13.828125-44.824219.558593-89.503906 5.183593-133.488281 13.828125-4.585938.996094-9.378907.117187-13.3125-2.4375-3.933594-2.554688-6.683594-6.574219-7.636719-11.167969-1.914062-9.542969-3.21875-19.199219-3.90625-28.910156-.691406-8.699219 5.054688-16.609375 13.542969-18.640625 40.796875-9.023438 80.851562-21.136719 119.8125-36.238282 15.941406-6.917968 34.035156-6.917968 49.976562 0zm0 0" fill="#4fba6f"/><path d="m379.585938 406.070312c-28.484376.960938-56.082032 10.15625-79.449219 26.480469h-88.273438c-23.367187-16.324219-50.964843-25.519531-79.449219-26.480469 0-20.839843 9.8125-40.464843 26.484376-52.964843h17.652343s21.011719 42.015625 63.03125 57.378906c5.3125 2.007813 10.8125 3.484375 16.417969 4.414063 52.964844-8.828126 79.449219-61.792969 79.449219-61.792969h17.65625c16.667969 12.5 26.480469 32.125 26.480469 52.964843zm0 0" fill="#ecf0f1"/><g fill="#2c2f38"><path d="m297.734375 251.585938c-7.132813 13.957031-29.398437 15.933593-41.558594 15.933593-12.1875 0-34.421875-1.976562-41.554687-15.933593 13.601562 3.351562 27.546875 5.097656 41.554687 5.207031 14.007813-.105469 27.957031-1.855469 41.558594-5.207031zm0 0"/><path d="m232.878906 159.679688c-8.390625-3.082032-17.199218-4.867188-26.128906-5.292969-12.003906-.910157-24.015625 1.652343-34.605469 7.378906 1.207031-15.449219 37.023438-18.503906 54.53125-14.53125 2.777344.34375 5.191407 2.058594 6.441407 4.558594 1.246093 2.503906 1.15625 5.464843-.238282 7.886719zm0 0"/><path d="m229.515625 186.980469c0-10.453125-7.902344-18.925781-17.652344-18.925781s-17.65625 8.472656-17.65625 18.925781c0 10.449219 7.90625 18.921875 17.65625 18.921875s17.652344-8.472656 17.652344-18.921875zm0 0"/></g><path d="m216.8125 170.558594c-4.558594-1.730469-9.65625.558594-11.390625 5.113281-1.734375 4.558594.554687 9.65625 5.113281 11.390625 4.558594 1.730469 9.65625-.558594 11.390625-5.113281 1.730469-4.558594-.558593-9.65625-5.113281-11.390625zm0 0" fill="#fff"/><path d="m279.121094 159.679688c8.390625-3.082032 17.203125-4.867188 26.128906-5.292969 12.003906-.910157 24.015625 1.652343 34.605469 7.378906-1.207031-15.449219-37.023438-18.503906-54.53125-14.53125-2.773438.34375-5.191407 2.058594-6.441407 4.558594-1.246093 2.503906-1.15625 5.464843.238282 7.886719zm0 0" fill="#2c2f38"/><path d="m317.792969 186.980469c0-10.453125-7.902344-18.925781-17.65625-18.925781-9.75 0-17.652344 8.472656-17.652344 18.925781 0 10.449219 7.902344 18.921875 17.652344 18.921875 9.753906 0 17.65625-8.472656 17.65625-18.921875zm0 0" fill="#2c2f38"/><path d="m306.578125 175.671875c-1.734375-4.558594-6.832031-6.847656-11.390625-5.113281-4.554688 1.734375-6.84375 6.832031-5.113281 11.390625 1.734375 4.554687 6.832031 6.84375 11.390625 5.113281 4.558594-1.734375 6.847656-6.835938 5.113281-11.390625zm0 0" fill="#fff"/></svg>