<svg height="512pt" viewBox="0 0 512.00027 512" width="512pt" xmlns="http://www.w3.org/2000/svg"><path d="m185.378906 291.308594h141.242188v79.449218h-141.242188zm0 0" fill="#c03a2b"/><path d="m238.34375 0h35.3125c78.003906 0 141.242188 63.234375 141.242188 141.242188v79.449218c0 23.410156-9.300782 45.863282-25.855469 62.417969-16.554688 16.554687-39.011719 25.855469-62.421875 25.855469h-141.242188c-48.753906 0-88.273437-39.523438-88.273437-88.273438v-79.449218c0-78.007813 63.234375-141.242188 141.238281-141.242188zm0 0" fill="#e64c3c"/><path d="m185.378906 105.929688h141.242188c24.375 0 44.136718 19.761718 44.136718 44.140624v70.621094c0 24.375-19.761718 44.136719-44.136718 44.136719h-141.242188c-24.375 0-44.136718-19.761719-44.136718-44.136719v-70.621094c0-24.378906 19.761718-44.140624 44.136718-44.140624zm0 0" fill="#f0c419"/><path d="m414.898438 512h97.101562v-7.855469c.015625-11.304687-1.347656-22.570312-4.0625-33.546875l-8.207031-33.277344c-9.523438-34.714843-41.429688-58.511718-77.417969-57.734374h-332.625c-35.988281-.777344-67.894531 23.019531-77.417969 57.734374l-8.207031 33.277344c-2.714844 10.976563-4.078125 22.242188-4.0625 33.546875v7.855469zm0 0" fill="#c03a2b"/><path d="m441.378906 512h-370.757812l29.90625-144.746094c3.0625-9.140625 11.988281-14.992187 21.589844-14.148437h267.820312c9.601562-.84375 18.53125 5.007812 21.589844 14.148437zm0 0" fill="#e64c3c"/><path d="m159.453125 79.449219c-3.484375-.003907-6.636719-2.050781-8.058594-5.230469-1.417969-3.179688-.835937-6.898438 1.488281-9.492188 21.769532-24.296874 52.839844-38.203124 85.460938-38.242187h35.3125c4.875 0 8.828125 3.949219 8.828125 8.824219 0 4.878906-3.953125 8.828125-8.828125 8.828125h-35.3125c-27.605469.042969-53.894531 11.8125-72.3125 32.375-1.675781 1.871093-4.066406 2.941406-6.578125 2.9375zm0 0" fill="#fb7b76"/><path d="m379.585938 450.207031c0 34.128907-27.664063 61.792969-61.792969 61.792969-34.128907 0-61.792969-27.664062-61.792969-61.792969 0-34.128906 27.664062-61.792969 61.792969-61.792969 34.128906 0 61.792969 27.664063 61.792969 61.792969zm0 0" fill="#e4c05c"/><g fill="#b19046"><path d="m308.964844 432.550781c0 4.875-3.953125 8.828125-8.828125 8.828125s-8.828125-3.953125-8.828125-8.828125 3.953125-8.828125 8.828125-8.828125 8.828125 3.953125 8.828125 8.828125zm0 0"/><path d="m317.792969 476.691406c0 4.875-3.953125 8.824219-8.828125 8.824219s-8.828125-3.949219-8.828125-8.824219c0-4.878906 3.953125-8.828125 8.828125-8.828125s8.828125 3.949219 8.828125 8.828125zm0 0"/><path d="m353.105469 450.207031c0 4.875-3.953125 8.828125-8.828125 8.828125s-8.828125-3.953125-8.828125-8.828125 3.953125-8.828125 8.828125-8.828125 8.828125 3.953125 8.828125 8.828125zm0 0"/></g><path d="m297.734375 225.105469c-7.132813 13.957031-29.398437 15.929687-41.558594 15.929687-12.1875 0-34.421875-1.972656-41.554687-15.929687 13.601562 3.347656 27.546875 5.097656 41.554687 5.207031 14.007813-.109375 27.957031-1.855469 41.558594-5.207031zm0 0" fill="#2c2f38"/><path d="m232.878906 133.199219c-8.390625-3.085938-17.199218-4.871094-26.128906-5.296875-12.003906-.90625-24.015625 1.652344-34.605469 7.378906 1.207031-15.449219 37.023438-18.5 54.53125-14.53125 2.777344.347656 5.191407 2.058594 6.441407 4.5625 1.246093 2.503906 1.15625 5.464844-.238282 7.886719zm0 0" fill="#2c2f38"/><path d="m229.515625 160.496094c0-10.449219-7.902344-18.921875-17.652344-18.921875s-17.65625 8.472656-17.65625 18.921875c0 10.449218 7.90625 18.921875 17.65625 18.921875s17.652344-8.472657 17.652344-18.921875zm0 0" fill="#2c2f38"/><path d="m216.8125 144.078125c-4.558594-1.734375-9.65625.554687-11.390625 5.109375-1.734375 4.558594.554687 9.65625 5.113281 11.390625s9.65625-.554687 11.390625-5.113281c1.730469-4.554688-.558593-9.65625-5.113281-11.386719zm0 0" fill="#fff"/><path d="m279.121094 133.199219c8.390625-3.085938 17.203125-4.871094 26.128906-5.296875 12.003906-.90625 24.015625 1.652344 34.605469 7.378906-1.207031-15.449219-37.023438-18.5-54.53125-14.53125-2.773438.347656-5.191407 2.058594-6.441407 4.5625-1.246093 2.503906-1.15625 5.464844.238282 7.886719zm0 0" fill="#2c2f38"/><path d="m317.792969 160.496094c0-10.449219-7.902344-18.921875-17.65625-18.921875-9.75 0-17.652344 8.472656-17.652344 18.921875 0 10.449218 7.902344 18.921875 17.652344 18.921875 9.753906 0 17.65625-8.472657 17.65625-18.921875zm0 0" fill="#2c2f38"/><path d="m306.578125 149.1875c-1.734375-4.554688-6.832031-6.84375-11.390625-5.109375-4.554688 1.730469-6.84375 6.832031-5.113281 11.386719 1.734375 4.558594 6.832031 6.847656 11.390625 5.113281s6.847656-6.832031 5.113281-11.390625zm0 0" fill="#fff"/></svg>