<svg height="512pt" viewBox="0 0 512.00027 512" width="512pt" xmlns="http://www.w3.org/2000/svg"><path d="m414.898438 512h97.101562v-7.855469c.015625-11.304687-1.347656-22.570312-4.0625-33.546875l-8.207031-33.277344c-9.523438-34.714843-41.429688-58.511718-77.417969-57.734374h-332.625c-35.988281-.777344-67.894531 23.019531-77.417969 57.734374l-8.207031 33.277344c-2.714844 10.976563-4.078125 22.242188-4.0625 33.546875v7.855469zm0 0" fill="#3b97d3"/><path d="m185.378906 294.160156h141.242188v73.75h-141.242188zm0 0" fill="#f29c1f"/><path d="m123.585938 238.34375s-44.136719-17.652344-44.136719-97.101562c0-79.449219 55.332031-141.242188 150.066406-141.242188 49.09375 0 84.167969 8.265625 123.589844 35.308594 36.648437 25.148437 79.445312 44.140625 79.445312 105.933594 0 79.449218-43.058593 97.101562-43.058593 97.101562" fill="#804537"/><path d="m388.414062 193.15625v54.015625c0 34.128906-27.664062 61.792969-61.792968 61.792969h-141.242188c-34.125 0-61.792968-27.664063-61.792968-61.792969v-61.792969c0-17.65625 17.65625-44.136718 88.277343-52.964844 70.621094-8.828124 88.273438-44.136718 88.273438-44.136718 10.691406 32.382812 34.738281 58.636718 66.054687 72.128906 13.347656 5.417969 22.117188 18.34375 22.222656 32.75zm0 0" fill="#f0c419"/><path d="m165.074219 143.09375c-4.070313 5.386719-6.242188 11.964844-6.175781 18.714844v29.484375c-.777344 15.421875 11.0625 28.5625 26.480468 29.398437h33.898438c5.636718-.027344 11.089844-1.992187 15.449218-5.5625 4.621094-3.757812 7.980469-8.839844 9.621094-14.566406 1.253906-5.425781 6.082032-9.269531 11.652344-9.269531s10.398438 3.84375 11.652344 9.269531c2.953125 11.535156 13.167968 19.738281 25.070312 20.128906h33.898438c15.417968-.835937 27.257812-13.976562 26.484375-29.398437v-29.484375c.027343-2.804688-.359375-5.601563-1.148438-8.296875l-28.074219-21.097657h-112.019531zm0 0" fill="#9fc9d3"/><path d="m256 459.035156v52.964844h-185.378906l29.925781-144.773438c3.046875-9.125 11.957031-14.964843 21.539063-14.121093h1.5c8.828124 61.792969 44.136718 52.964843 79.449218 52.964843 1.148438 0 2.207032.085938 3.265625.175782 1.058594.085937 2.117188.265625 3.179688.441406.96875.175781 2.027343.441406 3 .707031 1.015625.269531 2.019531.59375 3 .96875 1.832031.679688 3.601562 1.507813 5.296875 2.472657.824218.417968 1.621094.890624 2.382812 1.414062 1.0625.703125 2.121094 1.410156 3.003906 2.117188.859376.597656 1.6875 1.246093 2.46875 1.941406 2.40625 1.996094 4.652344 4.179687 6.710938 6.53125 1.324219 1.503906 2.648438 3.179687 3.882812 4.769531 2.914063 3.851563 5.570313 7.890625 7.945313 12.09375.53125.882813.972656 1.765625 1.414063 2.558594 1.148437 2.207031 2.207031 4.324219 3.089843 6.179687.351563.792969.703125 1.589844.96875 2.296875.320313.558594.585938 1.152344.796875 1.765625.964844 2.128906 1.820313 4.308594 2.558594 6.53125zm0 0" fill="#4482c3"/><path d="m388.414062 353.105469c-8.828124 61.792969-44.136718 52.964843-79.449218 52.964843-20.921875 0-35.574219 18.535157-44.136719 33.632813-3.5 6.171875-6.453125 12.640625-8.828125 19.332031-2.375-6.691406-5.328125-13.160156-8.828125-19.332031-8.5625-15.097656-23.214844-33.632813-44.136719-33.632813-35.3125 0-70.621094 8.828126-79.449218-52.964843h79.449218c15.859375 7.917969 30.683594 17.761719 44.136719 29.304687 4.710937 3.652344 7.863281 8.949219 8.828125 14.832032.964844-5.882813 4.117188-11.179688 8.828125-14.832032 13.453125-11.542968 28.277344-21.386718 44.136719-29.304687zm0 0" fill="#3b97d3"/><path d="m308.964844 353.105469s-52.964844 26.480469-52.964844 44.136719c0-17.65625-52.964844-44.136719-52.964844-44.136719zm0 0" fill="#f0c419"/><path d="m441.378906 512h-185.378906v-52.964844c1.25-3.605468 2.695312-7.144531 4.324219-10.59375.882812-1.855468 1.945312-3.972656 3.089843-6.179687.441407-.792969.972657-1.675781 1.414063-2.558594 2.375-4.203125 5.03125-8.242187 7.945313-12.09375 1.234374-1.589844 2.558593-3.265625 3.882812-4.769531 2.058594-2.351563 4.300781-4.535156 6.710938-6.53125.78125-.695313 1.609374-1.34375 2.46875-1.941406.945312-.785157 1.949218-1.492188 3.003906-2.117188.761718-.523438 1.558594-.996094 2.382812-1.414062 1.703125-.949219 3.472656-1.773438 5.296875-2.472657.980469-.375 1.984375-.699219 3-.96875.972657-.265625 2.03125-.53125 3.003907-.707031 1.058593-.175781 2.117187-.355469 3.175781-.441406 1.058593-.089844 2.207031-.175782 3.265625-.175782 35.3125 0 70.621094 8.828126 79.449218-52.964843h1.5c9.605469-.84375 18.539063 4.988281 21.628907 14.121093zm0 0" fill="#4482c3"/><path d="m194.207031 176.550781c-3.570312 0-6.789062-2.152343-8.152343-5.449219-1.367188-3.296874-.613282-7.09375 1.910156-9.617187l35.3125-35.3125c3.460937-3.34375 8.96875-3.296875 12.375.109375 3.402344 3.402344 3.453125 8.910156.105468 12.375l-35.308593 35.308594c-1.65625 1.660156-3.902344 2.589844-6.242188 2.585937zm0 0" fill="#e6e7e8"/><path d="m247.171875 167.722656c-3.570313 0-6.789063-2.148437-8.152344-5.449218-1.367187-3.296876-.613281-7.09375 1.910157-9.617188l26.484374-26.484375c3.464844-3.34375 8.96875-3.296875 12.375.109375 3.40625 3.402344 3.453126 8.910156.105469 12.375l-26.480469 26.480469c-1.652343 1.660156-3.898437 2.589843-6.242187 2.585937zm0 0" fill="#e6e7e8"/><path d="m114.769531 132.394531c-3.566406.003907-6.785156-2.144531-8.152343-5.4375-1.367188-3.292969-.617188-7.085937 1.902343-9.613281 1.160157-1.164062 29.109375-28.585938 84.238281-37.773438 47.921876-7.992187 64.605469-31.328124 64.769532-31.570312 2.765625-3.984375 8.21875-5.007812 12.242187-2.300781 4.011719 2.703125 5.089844 8.136719 2.40625 12.164062-.808593 1.214844-20.421875 29.773438-76.515625 39.121094-27.496094 3.6875-53.382812 15.085937-74.671875 32.871094-1.660156 1.632812-3.894531 2.546875-6.21875 2.539062zm0 0" fill="#cc6f56"/><path d="m326.621094 229.515625h-33.898438c-15.84375-.332031-29.539062-11.140625-33.542968-26.472656-.320313-1.519531-1.667969-2.605469-3.222657-2.589844-1.554687.019531-2.882812 1.132813-3.167969 2.660156-2.136718 7.441407-6.519531 14.042969-12.546874 18.902344-5.921876 4.828125-13.324219 7.476563-20.964844 7.5h-33.898438c-20.28125-.855469-36.058594-17.9375-35.308594-38.222656v-29.484375c-.054687-8.699219 2.765626-17.175782 8.023438-24.113282 1.25-1.617187 3.023438-2.75 5.019531-3.203124l29.128907-10.683594c.644531-.144532 1.304687-.222656 1.964843-.222656h129.675781c1.914063 0 3.773438.617187 5.304688 1.765624l28.070312 21.097657c1.511719 1.136719 2.617188 2.726562 3.15625 4.535156 1.03125 3.515625 1.542969 7.160156 1.515626 10.824219v29.484375c.75 20.285156-15.027344 37.367187-35.308594 38.222656zm-70.621094-47.050781c9.410156.148437 17.59375 6.476562 20.101562 15.546875 1.832032 7.804687 8.613282 13.457031 16.621094 13.851562h33.898438c10.519531-.875 18.382812-10.039062 17.65625-20.570312v-29.484375c.003906-1.066406-.066406-2.132813-.214844-3.1875l-23.125-17.378906h-125.738281l-24.734375 9.679687c-1.824219 3.339844-2.765625 7.085937-2.742188 10.886719v29.484375c-.726562 10.53125 7.136719 19.695312 17.65625 20.570312h33.898438c3.605468-.023437 7.089844-1.289062 9.871094-3.578125 3.246093-2.625 5.59375-6.191406 6.722656-10.207031 2.496094-9.097656 10.695312-15.457031 20.128906-15.613281zm0 0" fill="#35495e"/><path d="m264.828125 382.410156v129.589844h-17.65625v-129.589844c4.710937 3.652344 7.863281 8.949219 8.828125 14.832032.964844-5.882813 4.117188-11.179688 8.828125-14.832032zm0 0" fill="#285680"/><g fill="#2c2f38"><path d="m297.734375 251.585938c-7.132813 13.957031-29.398437 15.933593-41.558594 15.933593-12.1875 0-34.421875-1.976562-41.554687-15.933593 13.601562 3.351562 27.546875 5.097656 41.554687 5.207031 14.007813-.105469 27.957031-1.855469 41.558594-5.207031zm0 0"/><path d="m232.878906 159.679688c-8.390625-3.082032-17.199218-4.867188-26.128906-5.292969-12.003906-.910157-24.015625 1.652343-34.605469 7.378906 1.207031-15.449219 37.023438-18.503906 54.53125-14.53125 2.777344.34375 5.191407 2.058594 6.441407 4.558594 1.246093 2.503906 1.15625 5.464843-.238282 7.886719zm0 0"/><path d="m229.515625 186.980469c0-10.453125-7.902344-18.925781-17.652344-18.925781s-17.65625 8.472656-17.65625 18.925781c0 10.449219 7.90625 18.921875 17.65625 18.921875s17.652344-8.472656 17.652344-18.921875zm0 0"/></g><path d="m216.8125 170.558594c-4.558594-1.730469-9.65625.558594-11.390625 5.113281-1.734375 4.558594.554687 9.65625 5.113281 11.390625 4.558594 1.730469 9.65625-.558594 11.390625-5.113281 1.730469-4.558594-.558593-9.65625-5.113281-11.390625zm0 0" fill="#fff"/><path d="m279.121094 159.679688c8.390625-3.082032 17.203125-4.867188 26.128906-5.292969 12.003906-.910157 24.015625 1.652343 34.605469 7.378906-1.207031-15.449219-37.023438-18.503906-54.53125-14.53125-2.773438.34375-5.191407 2.058594-6.441407 4.558594-1.246093 2.503906-1.15625 5.464843.238282 7.886719zm0 0" fill="#2c2f38"/><path d="m317.792969 186.980469c0-10.453125-7.902344-18.925781-17.65625-18.925781-9.75 0-17.652344 8.472656-17.652344 18.925781 0 10.449219 7.902344 18.921875 17.652344 18.921875 9.753906 0 17.65625-8.472656 17.65625-18.921875zm0 0" fill="#2c2f38"/><path d="m306.578125 175.671875c-1.734375-4.558594-6.832031-6.847656-11.390625-5.113281-4.554688 1.734375-6.84375 6.832031-5.113281 11.390625 1.734375 4.554687 6.832031 6.84375 11.390625 5.113281 4.558594-1.734375 6.847656-6.835938 5.113281-11.390625zm0 0" fill="#fff"/></svg>