<svg height="512pt" viewBox="0 0 512.00027 512" width="512pt" xmlns="http://www.w3.org/2000/svg"><path d="m414.898438 512h97.101562v-7.855469c.015625-11.304687-1.347656-22.570312-4.0625-33.546875l-8.207031-33.277344c-9.523438-34.714843-41.429688-58.511718-77.417969-57.734374h-332.625c-35.988281-.777344-67.894531 23.019531-77.417969 57.734374l-8.207031 33.277344c-2.714844 10.976563-4.078125 22.242188-4.0625 33.546875v7.855469zm0 0" fill="#c03a2b"/><path d="m185.378906 292.261719h141.242188v77.542969h-141.242188zm0 0" fill="#f29c1f"/><path d="m388.414062 107.433594v139.738281c.011719 16.394531-6.496093 32.117187-18.085937 43.707031-11.589844 11.59375-27.316406 18.097656-43.707031 18.085938h-141.242188c-16.390625.011718-32.117187-6.492188-43.707031-18.085938-11.589844-11.589844-18.097656-27.3125-18.085937-43.707031v-139.828125" fill="#f0c419"/><path d="m450.117188 176.550781-2.117188-.265625c-68.679688-9.265625-77.507812-44.136718-94.984375-70.355468-17.65625-26.480469-52.878906-35.308594-97.015625-35.308594s-79.449219 8.828125-97.101562 35.308594c-17.480469 26.21875-26.308594 61.089843-94.988282 70.355468l-2.117187.265625c-70.089844 8.742188-27.101563-51.992187 51.199219-61.527343h.089843l32.925781-80.683594c7.773438-20.660156 27.539063-34.339844 49.613282-34.339844h120.757812c22.074219 0 41.839844 13.679688 49.613282 34.339844l32.925781 80.683594h.089843c78.210938 9.535156 121.203126 70.269531 51.109376 61.527343zm0 0" fill="#805333"/><path d="m448 176.285156c-32.359375-.960937-64.382812-6.824218-94.984375-17.386718-31.152344-11.167969-63.925781-17.132813-97.015625-17.65625-33.117188.519531-65.921875 6.484374-97.101562 17.65625-30.601563 10.5625-62.628907 16.425781-94.988282 17.386718 68.679688-9.265625 77.507813-44.136718 94.988282-70.355468 17.652343-26.480469 52.964843-35.308594 97.101562-35.308594s79.359375 8.828125 97.015625 35.308594c17.476563 26.21875 26.304687 61.089843 94.984375 70.355468zm0 0" fill="#cb8252"/><path d="m441.378906 512h-370.757812l29.925781-144.773438c3.046875-9.125 11.957031-14.964843 21.539063-14.121093h267.828124c9.605469-.84375 18.539063 4.988281 21.628907 14.121093zm0 0" fill="#d25627"/><path d="m238.34375 353.105469h35.3125v158.894531h-35.3125zm0 0" fill="#c03a2b"/><path d="m229.515625 357.515625h17.65625v154.484375h-17.65625zm0 0" fill="#e57e25"/><path d="m264.828125 357.515625h17.65625v154.484375h-17.65625zm0 0" fill="#e57e25"/><path d="m256 353.105469-52.964844 52.964843-52.964844-52.964843zm0 0" fill="#805333"/><path d="m361.929688 353.105469-52.964844 52.964843-52.964844-52.964843zm0 0" fill="#805333"/><g fill="#2c2f38"><path d="m297.734375 260.414062c-7.132813 13.957032-29.398437 15.933594-41.558594 15.933594-12.1875 0-34.421875-1.976562-41.554687-15.933594 13.601562 3.351563 27.546875 5.097657 41.554687 5.207032 14.007813-.105469 27.957031-1.855469 41.558594-5.207032zm0 0"/><path d="m232.878906 168.507812c-8.390625-3.082031-17.199218-4.871093-26.128906-5.296874-12.003906-.90625-24.015625 1.65625-34.605469 7.378906 1.207031-15.445313 37.023438-18.5 54.53125-14.527344 2.777344.34375 5.191407 2.058594 6.441407 4.558594 1.246093 2.503906 1.15625 5.464844-.238282 7.886718zm0 0"/><path d="m279.121094 168.507812c8.390625-3.082031 17.203125-4.871093 26.128906-5.296874 12.003906-.90625 24.015625 1.65625 34.605469 7.378906-1.207031-15.445313-37.023438-18.5-54.53125-14.527344-2.773438.34375-5.191407 2.058594-6.441407 4.558594-1.246093 2.503906-1.15625 5.464844.238282 7.886718zm0 0"/><path d="m184.136719 183.070312s2.515625 11.277344 12.238281 9.078126c9.726562-2.199219 11.582031 2.023437 19.960938 1.347656 2.863281-.195313 5.746093-.019532 8.566406.523437 2.003906.464844 4.082031.5 6.101562.097657 2.789063-.746094 2.550782-3.988282 1.570313-6.09375-3.875-8.363282-14.785157-8.972657-22.769531-8.042969-3.382813.917969-6.824219 1.609375-10.300782 2.074219-3.640625-1.007813-7.035156-2.753907-9.976562-5.125.636718 2.265624.792968 4.640624.449218 6.972656-1.007812 1.917968-5.839843-.832032-5.839843-.832032zm0 0"/><path d="m229.515625 200.21875c0-10.449219-7.902344-18.921875-17.652344-18.921875s-17.65625 8.472656-17.65625 18.921875c0 10.453125 7.90625 18.925781 17.65625 18.925781s17.652344-8.472656 17.652344-18.925781zm0 0"/></g><path d="m216.8125 183.800781c-4.558594-1.734375-9.65625.554688-11.390625 5.113281-1.730469 4.554688.558594 9.65625 5.113281 11.386719 4.558594 1.734375 9.65625-.554687 11.390625-5.113281 1.730469-4.554688-.558593-9.652344-5.113281-11.386719zm0 0" fill="#fff"/><path d="m327.855469 183.070312s-2.511719 11.277344-12.238281 9.078126c-9.722657-2.199219-11.578126 2.023437-19.957032 1.347656-2.867187-.195313-5.746094-.019532-8.566406.523437-2.003906.464844-4.082031.5-6.101562.097657-2.792969-.746094-2.550782-3.988282-1.574219-6.09375 3.878906-8.363282 14.789062-8.972657 22.769531-8.042969 3.386719.917969 6.828125 1.609375 10.304688 2.074219 3.640624-1.007813 7.035156-2.753907 9.972656-5.125-.636719 2.265624-.789063 4.640624-.445313 6.972656 1.011719 1.917968 5.835938-.832032 5.835938-.832032zm0 0" fill="#2c2f38"/><path d="m317.789062 200.21875c0-10.449219-7.902343-18.921875-17.652343-18.921875-9.753907 0-17.65625 8.472656-17.65625 18.921875 0 10.453125 7.902343 18.925781 17.65625 18.925781 9.75 0 17.652343-8.472656 17.652343-18.925781zm0 0" fill="#2c2f38"/><path d="m306.574219 188.914062c-1.734375-4.558593-6.832031-6.847656-11.390625-5.113281-4.554688 1.734375-6.84375 6.832031-5.109375 11.390625 1.730469 4.554688 6.832031 6.84375 11.386719 5.109375 4.558593-1.730469 6.847656-6.832031 5.113281-11.386719zm0 0" fill="#fff"/></svg>