<svg height="512pt" viewBox="0 0 512.00027 512" width="512pt" xmlns="http://www.w3.org/2000/svg"><path d="m414.898438 512h97.101562v-7.855469c.015625-11.304687-1.347656-22.570312-4.0625-33.546875l-8.207031-33.277344c-9.523438-34.714843-41.429688-58.511718-77.417969-57.734374h-332.625c-35.988281-.777344-67.894531 23.019531-77.417969 57.734374l-8.207031 33.277344c-2.714844 10.976563-4.078125 22.242188-4.0625 33.546875v7.855469zm0 0" fill="#f0c419"/><path d="m441.378906 512h-35.308594c-6.65625-23.125-18.765624-44.316406-35.3125-61.792969 0 17.65625-26.480468 35.308594-26.480468 35.308594 5.765625 7.621094 8.867187 16.929687 8.828125 26.484375h-185.382813c17.65625 0 17.65625-26.484375 26.484375-35.308594 8.828125-8.828125 52.964844 8.824219 79.449219 0 26.480469-8.828125 8.828125-17.65625 8.828125-17.65625 16.339844-.464844 31.984375-6.722656 44.136719-17.65625 17.65625-17.65625 0-44.136718 0-44.136718l-.882813-1.765626c7.367188-3.726562 13.726563-9.179687 18.539063-15.890624 44.136718 8.828124 45.636718-26.480469 45.636718-26.480469 9.605469-.84375 18.539063 4.988281 21.628907 14.121093zm0 0" fill="#b19046"/><path d="m325.738281 395.476562.882813 1.765626s17.65625 26.480468 0 44.136718c-12.152344 10.933594-27.796875 17.191406-44.136719 17.65625 0 0 17.652344 8.828125-8.828125 17.65625-26.484375 8.824219-70.621094-8.828125-79.449219 0-8.828125 8.824219-8.828125 35.308594-26.484375 35.308594h-97.101562l29.925781-144.773438c3.046875-9.125 11.957031-14.964843 21.539063-14.121093h267.828124s-1.5 35.308593-45.636718 26.480469c-4.8125 6.710937-11.171875 12.164062-18.539063 15.890624zm0 0" fill="#f3d55b"/><path d="m406.070312 512h-52.964843c.039062-9.554688-3.0625-18.863281-8.828125-26.484375 0 0 26.480468-17.652344 26.480468-35.308594 16.546876 17.476563 28.65625 38.667969 35.3125 61.792969zm0 0" fill="#2c2f38"/><path d="m414.898438 300.136719s20.742187 52.96875-24.984376 52.96875c0 0-1.5 35.308593-45.636718 26.480469-4.8125 6.710937-11.171875 12.164062-18.539063 15.890624-7.933593 4.0625-17.183593 4.699219-25.601562 1.765626 0 0-8.828125 26.480468-44.136719 26.480468s-44.136719-26.480468-44.136719-26.480468c-26.484375 8.828124-44.140625-17.65625-44.140625-17.65625-44.136718 8.828124-45.636718-26.480469-45.636718-26.480469-45.726563 0-24.980469-52.96875-24.980469-52.96875-35.3125-8.828125-35.3125-61.792969-8.828125-88.273438 26.480468-26.484375 8.828125-88.277343 26.480468-150.070312 17.65625-61.792969 52.964844-61.792969 79.449219-61.792969s44.136719 8.828125 61.792969 8.828125 35.308594-8.828125 61.792969-8.828125 61.792969 0 79.449219 61.792969 0 123.585937 26.480468 150.070312c26.484375 26.480469 26.484375 79.445313-8.824218 88.273438zm0 0" fill="#2c2f38"/><path d="m146.882812 152.804688c-.046874.480468-.085937.949218-.128906 1.414062-1.570312 18.152344-7.257812 53.683594 12.144532 63.875 17.652343 9.269531 26.480468-9.269531 52.964843-9.269531 26.480469 0 26.480469 9.269531 44.136719 9.269531s17.65625-9.269531 44.136719-9.269531c26.484375 0 35.3125 18.542969 52.96875 9.269531 17.652343-9.277344 8.824219-64.910156 8.824219-64.910156-26.480469-9.269532-70.621094-46.363282-70.621094-46.363282-1.515625 9.667969-4.492188 19.046876-8.824219 27.816407-19.929687-9.476563-35.652344-25.988281-44.140625-46.359375-15.550781 5.824218-26.023438 20.488281-26.480469 37.089844 0 0-17.65625-18.546876-35.3125-18.546876-21.496093 0-27.90625 27.832032-29.667969 45.984376zm0 0" fill="#f0c419"/><path d="m300.136719 273.65625c-8.503907-.179688-16.914063-1.828125-24.859375-4.871094-6.148438-2.429687-12.671875-3.765625-19.277344-3.957031-6.605469.191406-13.128906 1.527344-19.277344 3.957031-7.941406 3.042969-16.355468 4.691406-24.859375 4.871094-37.085937 0-48.476562-9.507812-50.378906-11.414062-2.328125-2.210938-3.273437-5.507813-2.46875-8.613282.804687-3.105468 3.226563-5.53125 6.332031-6.335937 3.105469-.800781 6.402344.140625 8.613282 2.464843v-.007812c.082031 0 8.910156 6.25 37.902343 6.25 6.605469-.191406 13.128907-1.527344 19.273438-3.957031 7.945312-3.042969 16.355469-4.691407 24.863281-4.871094 8.507812.179687 16.917969 1.828125 24.863281 4.871094 6.144531 2.429687 12.667969 3.765625 19.273438 3.957031 29.617187 0 38.191406-6.527344 38.273437-6.59375 1.640625-1.628906 3.871094-2.527344 6.183594-2.496094 2.316406.035156 4.515625.996094 6.113281 2.671875 3.394531 3.566407 3.308594 9.191407-.191406 12.65625-1.902344 1.910157-13.292969 11.417969-50.378906 11.417969zm0 0" fill="#5e5f62"/><path d="m232.878906 142.027344c-8.390625-3.085938-17.199218-4.871094-26.128906-5.296875-12.003906-.90625-24.015625 1.652343-34.605469 7.378906 1.207031-15.449219 37.023438-18.503906 54.53125-14.53125 2.777344.347656 5.191407 2.058594 6.441407 4.5625 1.246093 2.5 1.15625 5.460937-.238282 7.886719zm0 0" fill="#2c2f38"/><path d="m229.515625 169.324219c0-10.449219-7.902344-18.921875-17.652344-18.921875s-17.65625 8.472656-17.65625 18.921875 7.90625 18.921875 17.65625 18.921875 17.652344-8.472656 17.652344-18.921875zm0 0" fill="#2c2f38"/><path d="m216.8125 152.902344c-4.558594-1.730469-9.65625.558594-11.390625 5.113281-1.730469 4.558594.558594 9.65625 5.113281 11.390625 4.558594 1.734375 9.65625-.554688 11.390625-5.113281 1.730469-4.554688-.558593-9.65625-5.113281-11.390625zm0 0" fill="#fff"/><path d="m279.121094 142.027344c8.390625-3.085938 17.203125-4.871094 26.128906-5.296875 12.003906-.90625 24.015625 1.652343 34.605469 7.378906-1.207031-15.449219-37.023438-18.503906-54.53125-14.53125-2.773438.347656-5.191407 2.058594-6.441407 4.5625-1.246093 2.5-1.15625 5.460937.238282 7.886719zm0 0" fill="#2c2f38"/><path d="m317.792969 169.324219c0-10.449219-7.902344-18.921875-17.65625-18.921875-9.75 0-17.652344 8.472656-17.652344 18.921875s7.902344 18.921875 17.652344 18.921875c9.753906 0 17.65625-8.472656 17.65625-18.921875zm0 0" fill="#2c2f38"/><path d="m306.578125 158.015625c-1.734375-4.554687-6.832031-6.84375-11.390625-5.113281-4.554688 1.734375-6.84375 6.832031-5.113281 11.390625 1.734375 4.558593 6.832031 6.847656 11.390625 5.113281s6.847656-6.832031 5.113281-11.390625zm0 0" fill="#fff"/></svg>