<svg height="512pt" viewBox="0 0 512.00027 512" width="512pt" xmlns="http://www.w3.org/2000/svg"><path d="m503.171875 132.414062c0 17.65625-27.453125 44.136719-79.449219 61.792969h-335.445312c-51.996094-17.65625-79.449219-44.136719-79.449219-61.792969 0-11.035156 17.125-18.539062 40.695313-18.449218h.085937c16.289063.265625 32.386719 3.527344 47.496094 9.621094 44.136719 17.65625 114.757812 17.65625 158.894531 17.65625s114.757812 0 158.898438-17.65625c15.105468-6.09375 31.203124-9.355469 47.492187-9.621094h.085937c23.570313-.089844 40.695313 7.414062 40.695313 18.449218zm0 0" fill="#3d324c"/><path d="m414.898438 123.585938s8.824218 114.757812 26.480468 150.070312c17.65625 35.308594 17.65625 79.449219-44.136718 79.449219h-282.484376c-61.792968 0-61.792968-44.140625-44.136718-79.449219 17.65625-35.3125 26.484375-150.070312 26.484375-150.070312zm0 0" fill="#5e5f62"/><path d="m185.378906 282.484375h141.242188v97.101563h-141.242188zm0 0" fill="#24ae5f"/><path d="m414.898438 512h97.101562v-7.855469c.015625-11.304687-1.347656-22.570312-4.0625-33.546875l-8.207031-33.277344c-9.523438-34.714843-41.429688-58.511718-77.417969-57.734374h-332.625c-35.988281-.777344-67.894531 23.019531-77.417969 57.734374l-8.207031 33.277344c-2.714844 10.976563-4.078125 22.242188-4.0625 33.546875v7.855469zm0 0" fill="#b49aca"/><path d="m406.070312 114.757812-49.019531-91.035156c-7.351562-14.34375-22.011719-23.464844-38.125-23.722656h-125.851562c-16.113281.257812-30.773438 9.378906-38.125 23.722656l-49.019531 91.035156" fill="#955ba5"/><path d="m344.539062 138.238281c.929688 24.179688 10.589844 47.199219 27.191407 64.796875 0 0-12.007813 48.023438 8.5625 74.769532-10.96875 19.296874-31.472657 31.203124-53.671875 31.160156h-141.242188c-21.898437.046875-42.171875-11.554688-53.230468-30.453125 21.273437-26.574219 9.09375-75.476563 9.09375-75.476563 16.597656-17.566406 26.257812-40.558594 27.1875-64.707031zm0 0" fill="#4fba6f"/><path d="m49.523438 113.964844c-3.53125.527344-5.386719.792968-5.386719.792968" fill="#7d6599"/><path d="m229.515625 353.101562v158.898438h-158.894531l29.925781-144.773438c1.722656-6.292968 6.722656-11.160156 13.0625-12.710937v-.089844c2.734375-.902343 5.597656-1.347656 8.476563-1.320312 33.898437 17.652343 27.984374 70.617187 63.292968 61.792969 8.429688-2.234376 16.011719-6.902344 21.804688-13.417969 1.414062-1.589844 2.824218-3.179688 4.0625-4.855469 2.75-3.632812 5.171875-7.503906 7.238281-11.566406.792969-1.5 1.5-2.914063 2.207031-4.414063 1.902344-4.132812 3.550782-8.378906 4.941406-12.710937.265626-.792969.53125-1.589844.707032-2.292969.15625-.339844.273437-.695313.351562-1.0625.355469-1.058594.617188-2.117187.882813-3.089844.796875-2.757812 1.445312-5.558593 1.941406-8.386719zm0 0" fill="#7d6599"/><path d="m229.515625 353.105469v.175781c-.175781.792969-.703125 3.882812-1.941406 8.207031-.265625.972657-.527344 2.03125-.882813 3.089844-.078125.367187-.195312.722656-.351562 1.0625-.175782.703125-.441406 1.5-.707032 2.292969-1.390624 4.332031-3.039062 8.578125-4.941406 12.710937-.707031 1.414063-1.414062 2.914063-2.207031 4.414063-2.066406 4.0625-4.488281 7.933594-7.238281 11.566406-1.238282 1.675781-2.648438 3.265625-4.0625 4.855469-5.792969 6.515625-13.375 11.183593-21.804688 13.417969-35.308594 8.824218-29.394531-44.140626-63.292968-61.792969zm0 0" fill="#955ba5"/><path d="m441.378906 512h-211.863281v-158.898438l52.96875.003907s8.824219 52.964843 44.136719 61.792969c35.308594 8.824218 29.394531-44.140626 63.292968-61.792969 2.878907-.019531 5.742188.425781 8.476563 1.320312 6.371094 1.585938 11.394531 6.476563 13.152344 12.800781zm0 0" fill="#7d6599"/><path d="m389.914062 353.105469c-33.898437 17.652343-27.984374 70.617187-63.292968 61.792969-35.3125-8.828126-44.136719-61.792969-44.136719-61.792969zm0 0" fill="#955ba5"/><path d="m467.863281 114.757812s-1.855469-.265624-5.386719-.792968" fill="#7d6599"/><path d="m220.699219 70.621094c-4.097657.003906-7.660157-2.808594-8.601563-6.796875-.945312-3.984375.980469-8.097657 4.644532-9.925781l52.964843-26.484376c4.359375-2.179687 9.664063-.414062 11.84375 3.949219 2.179688 4.359375.414063 9.664063-3.945312 11.84375l-52.96875 26.484375c-1.222657.609375-2.570313.925782-3.9375.929688zm0 0" fill="#b49aca"/><path d="m300.148438 70.621094c-4.097657.003906-7.660157-2.808594-8.601563-6.796875-.945313-3.984375.976563-8.097657 4.644531-9.925781l17.652344-8.828126c4.363281-2.183593 9.664062-.414062 11.847656 3.945313 2.179688 4.363281.410156 9.664063-3.949218 11.847656l-17.65625 8.828125c-1.222657.609375-2.570313.925782-3.9375.929688zm0 0" fill="#b49aca"/><path d="m326.621094 256c-4.875 0-8.828125-3.953125-8.828125-8.828125v-8.828125c0-4.875 3.953125-8.828125 8.828125-8.828125s8.828125 3.953125 8.828125 8.828125v8.828125c0 4.875-3.953125 8.828125-8.828125 8.828125zm0 0" fill="#2c2f38"/><path d="m462.390625 113.964844c-16.289063.265625-32.386719 3.527344-47.492187 9.621094-22.675782 8.074218-46.347657 13.003906-70.359376 14.652343-31.6875 3.003907-64.175781 3.003907-88.539062 3.003907-24.1875 0-56.230469 0-87.570312-2.914063-24.34375-1.578125-48.351563-6.539063-71.324219-14.742187-15.109375-6.09375-31.207031-9.355469-47.496094-9.621094 68.421875-9.546875 137.328125-15.175782 206.390625-16.859375 69.0625 1.683593 137.96875 7.3125 206.390625 16.859375zm0 0" fill="#7d6599"/><g fill="#3d324c"><path d="m220.691406 353.105469h17.652344v158.894531h-17.652344zm0 0"/><path d="m282.484375 423.722656v88.277344h-17.65625v-88.277344c0-4.875 3.953125-8.824218 8.828125-8.824218s8.828125 3.949218 8.828125 8.824218zm0 0"/><path d="m238.257812 353.105469c.085938.175781 0 .261719 0 .441406-1.8125 9.636719-4.746093 19.027344-8.742187 27.980469-7.324219 16.597656-20.214844 35.488281-42.015625 40.871094-3.140625.839843-6.375 1.285156-9.625 1.324218-19.507812 0-28.070312-17.476562-35.042969-31.867187-6.09375-12.535157-12.359375-25.421875-24.808593-31.953125-2.164063-1.089844-3.769532-3.046875-4.414063-5.386719v-.089844c2.734375-.902343 5.597656-1.347656 8.476563-1.320312h16.332031c8.59375 9.007812 15.472656 19.507812 20.300781 30.984375 8.917969 18.449218 12.800781 24.097656 24.542969 21.273437 25.246093-6.355469 34.867187-42.371093 36.988281-52.257812zm0 0"/><path d="m398.390625 354.425781c-.617187 2.378907-2.222656 4.371094-4.414063 5.476563-12.449218 6.53125-18.714843 19.417968-24.808593 31.953125-6.972657 14.390625-15.535157 31.867187-35.042969 31.867187-3.25-.039062-6.484375-.484375-9.621094-1.324218-40.519531-10.0625-50.320312-66.46875-50.761718-68.851563 0-.179687-.085938-.265625 0-.441406h18.007812c2.121094 9.886719 11.742188 45.902343 36.988281 52.257812 11.742188 2.824219 15.625-2.824219 24.542969-21.273437 4.828125-11.476563 11.707031-21.976563 20.300781-30.984375h16.332031c2.878907-.019531 5.742188.425781 8.476563 1.320312zm0 0"/></g><path d="m301.242188 246.621094c-4.867188 15.023437-27.769532 22.402344-40.171876 24.574218-12.425781 2.175782-35.441406 4.203126-45.121093-8.273437 14.464843.871094 28.980469.101563 43.273437-2.289063 14.480469-3.109374 28.570313-7.808593 42.019532-14.011718zm0 0" fill="#2c2f38"/><path d="m231.214844 174.035156c-7.65625-4.613281-15.972656-8.03125-24.664063-10.132812-11.617187-3.160156-23.898437-2.910156-35.378906.710937 4.105469-14.941406 39.851563-11.179687 56.292969-3.972656 2.664062.863281 4.714844 3 5.46875 5.691406.753906 2.695313.109375 5.585938-1.71875 7.703125zm0 0" fill="#2c2f38"/><path d="m229.515625 191.394531c0-10.453125-7.902344-18.925781-17.652344-18.925781s-17.65625 8.472656-17.65625 18.925781c0 10.449219 7.90625 18.921875 17.65625 18.921875s17.652344-8.472656 17.652344-18.921875zm0 0" fill="#2c2f38"/><path d="m216.8125 174.972656c-4.558594-1.734375-9.65625.554688-11.390625 5.113282-1.730469 4.554687.558594 9.65625 5.113281 11.386718 4.558594 1.734375 9.65625-.554687 11.390625-5.109375 1.730469-4.558593-.558593-9.65625-5.113281-11.390625zm0 0" fill="#fff"/><path d="m279.839844 175.886719c6.261718-8.246094 14.957031-14.304688 24.859375-17.320313 13.3125-3.550781 27.476562.945313 36.304687 11.527344-.136718-.132812.136719-2.949219.085938-3.386719-.144532-1.144531-.453125-2.261719-.917969-3.316406-1.039063-2.253906-2.566406-4.25-4.46875-5.839844-4.738281-3.851562-10.378906-6.429687-16.390625-7.496093-7.988281-1.804688-16.316406-1.394532-24.082031 1.191406-4.679688 1.617187-8.984375 4.15625-12.664063 7.464844-3.242187 2.964843-8.042968 8.429687-5.957031 13.402343.964844 1.351563 2.046875 2.613281 3.230469 3.773438zm0 0" fill="#2c2f38"/><path d="m317.792969 191.394531c0-10.453125-7.902344-18.925781-17.65625-18.925781-9.75 0-17.652344 8.472656-17.652344 18.925781 0 10.449219 7.902344 18.921875 17.652344 18.921875 9.753906 0 17.65625-8.472656 17.65625-18.921875zm0 0" fill="#2c2f38"/><path d="m306.578125 180.085938c-1.734375-4.558594-6.832031-6.847657-11.390625-5.113282-4.554688 1.734375-6.84375 6.832032-5.113281 11.390625 1.734375 4.554688 6.835937 6.84375 11.390625 5.113281 4.558594-1.734374 6.847656-6.835937 5.113281-11.390624zm0 0" fill="#fff"/></svg>