<svg height="512pt" viewBox="0 0 512 512.001" width="512pt" xmlns="http://www.w3.org/2000/svg"><path d="m185.378906 291.3125h141.242188v79.445312h-141.242188zm0 0" fill="#bdc3c7"/><path d="m414.898438 512h97.101562v-7.855469c.015625-11.304687-1.347656-22.570312-4.058594-33.542969l-8.210937-33.28125c-9.523438-34.714843-41.429688-58.507812-77.417969-57.734374h-332.625c-35.988281-.773438-67.894531 23.019531-77.417969 57.734374l-8.207031 33.28125c-2.714844 10.972657-4.078125 22.238282-4.0625 33.542969v7.855469zm0 0" fill="#35495e"/><path d="m441.378906 512h-370.757812l29.925781-144.769531c3.046875-9.125 11.957031-14.96875 21.539063-14.125h267.828124c9.605469-.84375 18.539063 4.992187 21.628907 14.125zm0 0" fill="#2c3e50"/><path d="m158.898438 353.105469h194.207031l-79.449219 61.792969-17.65625 35.308593-17.65625-35.308593zm0 0" fill="#e6e7e8"/><path d="m163.132812 68.589844c12.542969-40.769532 50.210938-68.589844 92.867188-68.589844s80.324219 27.820312 92.867188 68.589844" fill="#2c3e50"/><path d="m388.414062 247.171875s17.65625-35.308594 17.65625-97.101563c0-61.792968-52.964843-97.113281-150.070312-97.113281-97.101562 0-150.066406 35.320313-150.066406 97.113281 0 61.792969 17.652344 97.101563 17.652344 97.101563zm0 0" fill="#35495e"/><path d="m388.414062 238.347656v8.824219c.011719 16.394531-6.496093 32.117187-18.085937 43.710937-11.589844 11.589844-27.316406 18.09375-43.707031 18.082032h-141.242188c-16.390625.011718-32.117187-6.492188-43.707031-18.082032-11.589844-11.59375-18.097656-27.316406-18.085937-43.710937v-35.308594c0-35.3125 35.3125-79.449219 79.449218-70.621093 44.136719 8.828124 105.929688-26.484376 105.929688-26.484376 1.308594 18.089844 11.140625 34.476563 26.484375 44.140626 26.484375 17.652343 52.964843 52.964843 52.964843 79.449218zm0 0" fill="#e6e7e8"/><path d="m238.34375 282.484375c-4.875 0-8.824219-3.953125-8.824219-8.828125v-17.65625c0-4.875 3.949219-8.828125 8.824219-8.828125 4.878906 0 8.828125 3.953125 8.828125 8.828125v17.65625c0 4.875-3.949219 8.828125-8.828125 8.828125zm0 0" fill="#bdc3c7"/><path d="m273.65625 282.484375c-4.875 0-8.828125-3.953125-8.828125-8.828125v-17.65625c0-4.875 3.953125-8.828125 8.828125-8.828125s8.828125 3.953125 8.828125 8.828125v17.65625c0 4.875-3.953125 8.828125-8.828125 8.828125zm0 0" fill="#bdc3c7"/><g fill="#e64c3c"><path d="m361.933594 353.105469c.011718 2.734375-1.261719 5.320312-3.445313 6.972656l-62.941406 48.90625-14.917969 11.652344-1.675781 3.265625-15.097656 30.277344c-1.488281 2.976562-4.527344 4.855468-7.855469 4.855468s-6.367188-1.878906-7.855469-4.855468l-15.09375-30.277344-1.679687-3.265625-14.917969-11.652344-62.941406-48.90625c-2.179688-1.652344-3.457031-4.238281-3.441407-6.972656h23.214844l70.003906 54.464843c.175782.089844.265626.265626.441407.351563.476562.34375.894531.761719 1.234375 1.238281.132812.066406.253906.15625.355468.265625l.792969 1.324219c.152344.214844.273438.453125.355469.703125l9.53125 18.980469 9.535156-18.980469c.109375-.308594.257813-.605469.441406-.882813.265626-.351562.527344-.792968.792969-1.144531 0-.089843.089844-.179687.265625-.265625.179688-.257812.386719-.492187.617188-.707031.332031-.320313.6875-.613281 1.058594-.882813l70.003906-54.464843zm0 0"/><path d="m247.171875 414.898438c-.011719 4.867187-3.957031 8.8125-8.828125 8.828124-1.851562 0-3.617188.085938-5.292969.175782-9.3125-.160156-18.28125 3.507812-24.808593 10.152344-4.75 6.675781-6.710938 14.9375-5.472657 23.039062.046875.082031.078125.171875.089844.265625.101563.523437.160156 1.054687.175781 1.585937.011719.71875-.078125 1.429688-.265625 2.121094-.15625.644532-.394531 1.265625-.707031 1.851563-.238281.550781-.566406 1.058593-.96875 1.503906-.023438.152344-.125.285156-.265625.351563-.316406.417968-.703125.777343-1.148437 1.058593-.441407.429688-.945313.789063-1.5 1.058594-.515626.246094-1.042969.453125-1.589844.621094-.28125.109375-.578125.167969-.882813.175781-.484375.148438-.992187.210938-1.5.175781-1.652343.011719-3.277343-.449219-4.679687-1.324219-16.921875-8.191406-37.136719-5.179687-50.933594 7.589844-1.636719 1.644532-3.859375 2.566406-6.179688 2.5625-1.179687-.023437-2.347656-.261718-3.441406-.707031-3.257812-1.386719-5.375-4.582031-5.386718-8.121094v-114.757812h17.65625v97.984375c11.082031-5.632813 23.585937-7.84375 35.929687-6.355469 2.710937.292969 5.394531.796875 8.03125 1.5.480469-5.53125 2.007813-10.925781 4.503906-15.886719 1.3125-2.613281 2.914063-5.070312 4.765625-7.328125 5.738282-6.792969 13.402344-11.6875 21.980469-14.035156 7.117187-2.039063 14.492187-3.019531 21.890625-2.914063 1.765625-.019531 3.488281.503907 4.945312 1.5.175782.089844.265626.265626.441407.351563.476562.34375.894531.761719 1.234375 1.238281.132812.066406.253906.15625.355468.265625l.792969 1.324219c.152344.214844.273438.453125.355469.703125.460938 1.089844.699219 2.261719.703125 3.445313zm0 0"/><path d="m388.414062 353.105469v114.757812c.011719 3.574219-2.15625 6.792969-5.472656 8.121094-1.046875.496094-2.195312.738281-3.355468.707031-2.34375.007813-4.597657-.914062-6.265626-2.5625-13.753906-12.792968-33.957031-15.808594-50.847656-7.589844-1.421875.832032-3.03125 1.285157-4.679687 1.324219-.773438.003907-1.542969-.085937-2.292969-.265625-.5625-.160156-1.097656-.398437-1.589844-.707031h-.089844c-.066406-.007813-.128906-.039063-.175781-.085937-.429687-.234376-.84375-.5-1.234375-.796876-.164062-.09375-.3125-.210937-.441406-.351562-.371094-.308594-.695312-.664062-.972656-1.058594-.171875-.15625-.320313-.332031-.441406-.53125-.195313-.28125-.371094-.578125-.527344-.882812-.28125-.390625-.464844-.84375-.53125-1.324219-.355469-.898437-.535156-1.855469-.53125-2.824219.019531-.589844.078125-1.179687.179687-1.765625 1.316407-8.144531-.617187-16.484375-5.386719-23.214843-6.527343-6.644532-15.496093-10.3125-24.804687-10.152344-1.679687-.089844-3.445313-.175782-5.296875-.175782-2.960938.003907-5.730469-1.480468-7.363281-3.949218-1.636719-2.472656-1.921875-5.597656-.757813-8.324219l.527344-1.058594c.214844-.335937.453125-.660156.707031-.96875 0-.089843.089844-.179687.265625-.265625.179688-.257812.386719-.492187.617188-.707031.332031-.320313.6875-.613281 1.058594-.882813 1.457031-.996093 3.183593-1.519531 4.945312-1.5 7.398438-.105468 14.777344.875 21.890625 2.914063 8.578125 2.347656 16.242187 7.242187 21.980469 14.035156 1.855468 2.257813 3.453125 4.714844 4.769531 7.328125 2.492187 4.960938 4.019531 10.355469 4.5 15.886719 2.636719-.703125 5.320313-1.207031 8.035156-1.5 12.339844-1.488281 24.847657.722656 35.925781 6.355469v-97.984375zm0 0"/><path d="m194.214844 467.863281c-3.34375.003907-6.40625-1.886719-7.902344-4.878906l-17.65625-35.3125c-2.179688-4.359375-.414062-9.664063 3.949219-11.84375 4.359375-2.179687 9.664062-.414063 11.84375 3.949219l17.65625 35.308594c1.367187 2.734374 1.222656 5.984374-.386719 8.585937-1.605469 2.601563-4.445312 4.1875-7.503906 4.191406zm0 0"/><path d="m317.785156 467.863281c-3.058594-.003906-5.898437-1.589843-7.503906-4.191406s-1.75-5.851563-.382812-8.585937l17.652343-35.308594c1.414063-2.820313 4.222657-4.675782 7.371094-4.863282 3.148437-.191406 6.15625 1.316407 7.894531 3.945313 1.738282 2.632813 1.941406 5.992187.527344 8.8125l-17.652344 35.3125c-1.5 2.992187-4.558594 4.882813-7.90625 4.878906zm0 0"/><path d="m256 264.828125c-36.476562 0-44.136719-9.601563-44.136719-17.65625 0-4.152344 2.898438-7.742187 6.957031-8.621094 4.058594-.878906 8.179688 1.1875 9.902344 4.96875 8.707032 3.230469 18.027344 4.480469 27.277344 3.652344 9.25.828125 18.570312-.421875 27.277344-3.652344 1.722656-3.78125 5.84375-5.847656 9.902344-4.96875 4.058593.878907 6.957031 4.46875 6.957031 8.621094 0 8.054687-7.65625 17.65625-44.136719 17.65625zm0 0"/></g><path d="m232.878906 164.097656c-8.390625-3.085937-17.199218-4.871094-26.128906-5.296875-12.003906-.910156-24.015625 1.652344-34.605469 7.378907 1.207031-15.449219 37.023438-18.503907 54.53125-14.53125 2.777344.347656 5.195313 2.058593 6.441407 4.5625 1.246093 2.5 1.15625 5.460937-.238282 7.886718zm0 0" fill="#2c2f38"/><path d="m279.121094 164.097656c8.390625-3.085937 17.203125-4.871094 26.128906-5.296875 12.003906-.910156 24.015625 1.652344 34.605469 7.378907-1.207031-15.449219-37.023438-18.503907-54.53125-14.53125-2.773438.347656-5.191407 2.058593-6.4375 4.5625-1.25 2.5-1.160157 5.460937.234375 7.886718zm0 0" fill="#2c2f38"/><path d="m184.140625 178.65625s2.511719 11.277344 12.238281 9.078125c9.722656-2.199219 11.578125 2.023437 19.957032 1.347656 2.863281-.195312 5.746093-.015625 8.566406.527344 2.003906.464844 4.082031.496094 6.101562.097656 2.789063-.746093 2.550782-3.988281 1.574219-6.097656-3.878906-8.359375-14.789063-8.972656-22.769531-8.042969-3.386719.917969-6.828125 1.613282-10.304688 2.078125-3.640625-1.011719-7.035156-2.753906-9.976562-5.128906.636718 2.265625.792968 4.644531.449218 6.972656-1.007812 1.917969-5.835937-.832031-5.835937-.832031zm0 0" fill="#2c2f38"/><path d="m229.519531 195.808594c0-10.453125-7.90625-18.925782-17.65625-18.925782s-17.65625 8.472657-17.65625 18.925782c0 10.449218 7.90625 18.921875 17.65625 18.921875s17.65625-8.472657 17.65625-18.921875zm0 0" fill="#2c2f38"/><path d="m216.8125 179.386719c-4.558594-1.730469-9.65625.558593-11.390625 5.113281-1.730469 4.558594.558594 9.65625 5.113281 11.390625 4.558594 1.730469 9.65625-.558594 11.390625-5.113281 1.730469-4.558594-.558593-9.65625-5.113281-11.390625zm0 0" fill="#fff"/><path d="m327.855469 178.65625s-2.511719 11.277344-12.238281 9.078125c-9.722657-2.199219-11.578126 2.023437-19.957032 1.347656-2.867187-.195312-5.746094-.015625-8.566406.527344-2.003906.464844-4.082031.496094-6.101562.097656-2.792969-.746093-2.550782-3.988281-1.574219-6.097656 3.878906-8.359375 14.789062-8.972656 22.769531-8.042969 3.386719.917969 6.828125 1.613282 10.304688 2.078125 3.640624-1.011719 7.035156-2.753906 9.976562-5.128906-.636719 2.265625-.792969 4.644531-.449219 6.972656 1.011719 1.917969 5.835938-.832031 5.835938-.832031zm0 0" fill="#2c2f38"/><path d="m317.792969 195.808594c0-10.453125-7.90625-18.925782-17.65625-18.925782s-17.65625 8.472657-17.65625 18.925782c0 10.449218 7.90625 18.921875 17.65625 18.921875s17.65625-8.472657 17.65625-18.921875zm0 0" fill="#2c2f38"/><path d="m306.574219 184.5c-1.730469-4.558594-6.832031-6.847656-11.386719-5.113281-4.558594 1.734375-6.847656 6.832031-5.113281 11.390625 1.734375 4.554687 6.832031 6.84375 11.386719 5.113281 4.558593-1.734375 6.847656-6.832031 5.113281-11.390625zm0 0" fill="#fff"/></svg>