<svg height="512pt" viewBox="-4 0 511 512" width="512pt" xmlns="http://www.w3.org/2000/svg"><path d="m408.363281 512h95.460938l-.003907-7.722656c.015626-11.113282-1.324218-22.1875-3.988281-32.976563l-8.070312-32.714843c-9.363281-34.128907-40.730469-57.519532-76.109375-56.753907h-326.984375c-35.378907-.765625-66.746094 22.625-76.105469 56.753907l-8.070312 32.714843c-2.667969 10.789063-4.007813 21.863281-3.992188 32.976563v7.722656zm0 0" fill="#c03a2b"/><path d="m182.738281 295.050781h138.847657v78.101563h-138.847657zm0 0" fill="#f29c1f"/><path d="m410.882812 269.015625s7.027344 52.070313-14.058593 52.070313c-13.800781 0-18.570313-25.6875-20.222657-43.652344 3.78125-8.066406 5.738282-16.863282 5.730469-25.773438v-34.710937c-6.949219-12.773438-15.71875-24.464844-26.035156-34.710938-17.355469-17.355469-8.679687-52.070312-43.390625-60.746093-34.710938-8.679688-43.390625 8.675781-60.746094 8.675781-17.355468 0-26.03125-17.355469-60.746094-8.675781-34.710937 8.675781-26.03125 43.390624-43.386718 60.746093-10.316406 10.246094-19.089844 21.9375-26.035156 34.710938v34.710937c-.007813 8.910156 1.949218 17.707032 5.726562 25.773438-1.648438 17.964844-6.421875 43.652344-20.21875 43.652344-21.089844 0-14.058594-52.070313-14.058594-52.070313s-21.175781-17.355469-14.144531-60.746094c0 0-21.089844-43.386719 0-69.421875 0 0-7.03125-69.425781 42.347656-86.78125 0 0 5.902344-17.875 36.1875-30.71875l16.226563 56.753906c25.753906-5.023437 51.875-7.925781 78.101562-8.679687 26.226563.753906 52.351563 3.65625 78.101563 8.679687l16.230469-56.753906c30.285156 12.84375 36.1875 30.71875 36.1875 30.71875 49.375 17.355469 42.347656 86.78125 42.347656 86.78125 21.085937 26.035156 0 69.421875 0 69.421875 7.027344 43.390625-14.144532 60.746094-14.144532 60.746094zm0 0" fill="#cb8252"/><path d="m356.296875 10.847656-1.230469 4.988282-17.703125 70.945312c-28-6.265625-56.523437-9.898438-85.203125-10.847656-28.675781.949218-57.199218 4.582031-85.199218 10.847656l-17.703126-70.945312-1.230468-4.988282s47.332031 21.695313 104.132812-10.847656c56.800782 32.542969 104.136719 10.847656 104.136719 10.847656zm0 0" fill="#f3d55b"/><path d="m373.652344 355.796875-20.246094 52.066406h-202.492188l-20.246093-52.066406zm0 0" fill="#bdc3c7"/><path d="m356.296875 442.578125-32.066406 69.421875h-144.140625l-32.0625-69.421875zm0 0" fill="#f3d55b"/><path d="m382.332031 216.949219v34.710937c.007813 16.113282-6.390625 31.570313-17.785156 42.964844s-26.847656 17.789062-42.960937 17.78125h-138.847657c-16.113281.007812-31.570312-6.386719-42.964843-17.78125-11.394532-11.394531-17.789063-26.851562-17.78125-42.964844v-34.710937c6.945312-12.773438 15.71875-24.464844 26.035156-34.710938 17.355468-17.355469 8.675781-52.070312 43.386718-60.746093 34.714844-8.679688 43.390626 8.675781 60.746094 8.675781 17.355469 0 26.035156-17.355469 60.746094-8.675781 34.710938 8.675781 26.035156 43.390624 43.390625 60.746093 10.316406 10.246094 19.085937 21.9375 26.035156 34.710938zm0 0" fill="#f0c419"/><path d="m364.976562 407.863281-15.007812 34.714844h-195.617188l-15.003906-34.714844zm0 0" fill="#2c2f38"/><path d="m200.09375 512h-130.167969l29.417969-142.320312c2.992188-8.96875 11.753906-14.710938 21.171875-13.882813h27.511719l17.355468 52.066406 11.539063 34.714844zm0 0" fill="#e6e7e8"/><path d="m434.398438 512h-130.167969l23.167969-69.421875 11.542968-34.714844 17.355469-52.066406h27.507813c9.441406-.828125 18.226562 4.90625 21.261718 13.882813zm0 0" fill="#e6e7e8"/><g fill="#2c2f38"><path d="m293.1875 260.339844c-7.011719 13.722656-28.898438 15.660156-40.851562 15.660156-11.980469 0-33.839844-1.9375-40.851563-15.660156 13.371094 3.292968 27.082031 5.011718 40.851563 5.117187 13.769531-.105469 27.480468-1.824219 40.851562-5.117187zm0 0"/><path d="m229.433594 165.652344c-8.25-3.03125-16.910156-4.789063-25.6875-5.207032-11.800782-.890624-23.609375 1.628907-34.019532 7.253907 1.1875-15.1875 36.394532-18.1875 53.609376-14.28125 2.726562.339843 5.101562 2.019531 6.328124 4.480469 1.226563 2.460937 1.140626 5.371093-.230468 7.753906zm0 0"/><path d="m274.890625 165.652344c8.246094-3.03125 16.910156-4.789063 25.6875-5.207032 11.800781-.890624 23.605469 1.628907 34.015625 7.253907-1.1875-15.1875-36.394531-18.1875-53.605469-14.28125-2.726562.339843-5.105469 2.019531-6.332031 4.480469-1.226562 2.460937-1.136719 5.371093.234375 7.753906zm0 0"/><path d="m181.515625 179.964844s2.472656 11.089844 12.03125 8.925781c9.5625-2.160156 11.382813 1.992187 19.621094 1.324219 2.816406-.191406 5.648437-.015625 8.421875.515625 1.96875.457031 4.015625.492187 5.996094.097656 2.746093-.734375 2.507812-3.921875 1.546874-5.992187-3.8125-8.21875-14.535156-8.820313-22.382812-7.90625-3.328125.902343-6.710938 1.582031-10.128906 2.039062-3.578125-.992188-6.914063-2.707031-9.804688-5.039062.625 2.226562.777344 4.5625.441406 6.855468-.992187 1.886719-5.742187-.820312-5.742187-.820312zm0 0"/><path d="m226.128906 196.828125c0-10.273437-7.773437-18.605469-17.359375-18.605469-9.582031 0-17.355469 8.332032-17.355469 18.605469s7.773438 18.601563 17.355469 18.601563c9.585938 0 17.359375-8.328126 17.359375-18.601563zm0 0"/></g><path d="m213.636719 180.683594c-4.480469-1.703125-9.492188.546875-11.195313 5.027344-1.703125 4.480468.546875 9.492187 5.027344 11.195312 4.476562 1.703125 9.492188-.546875 11.195312-5.023438 1.703126-4.480468-.546874-9.496093-5.027343-11.199218zm0 0" fill="#fff"/><path d="m322.800781 179.964844s-2.472656 11.089844-12.03125 8.925781c-9.5625-2.160156-11.382812 1.992187-19.621093 1.324219-2.816407-.191406-5.648438-.015625-8.421876.515625-1.96875.457031-4.011718.492187-5.996093.097656-2.746094-.734375-2.507813-3.921875-1.546875-5.992187 3.8125-8.21875 14.535156-8.820313 22.382812-7.90625 3.328125.902343 6.710938 1.582031 10.128906 2.039062 3.578126-.988281 6.917969-2.707031 9.804688-5.039062-.625 2.226562-.773438 4.5625-.441406 6.855468.996094 1.886719 5.742187-.820312 5.742187-.820312zm0 0" fill="#2c2f38"/><path d="m312.90625 196.828125c0-10.273437-7.773438-18.605469-17.359375-18.605469-9.582031 0-17.355469 8.332032-17.355469 18.605469s7.773438 18.601563 17.355469 18.601563c9.585937 0 17.359375-8.328126 17.359375-18.601563zm0 0" fill="#2c2f38"/><path d="m301.878906 185.710938c-1.703125-4.480469-6.71875-6.730469-11.195312-5.027344-4.480469 1.707031-6.730469 6.71875-5.027344 11.199218 1.703125 4.476563 6.714844 6.726563 11.195312 5.023438 4.480469-1.703125 6.730469-6.714844 5.027344-11.195312zm0 0" fill="#fff"/></svg>