<svg height="512pt" viewBox="0 0 512.00027 512" width="512pt" xmlns="http://www.w3.org/2000/svg"><path d="m426.019531 130.382812c.066407 9.554688-.703125 19.09375-2.296875 28.515626-.085937.261718-.085937.617187-.175781.882812-8.914063 52.167969-35.132813 60.910156-35.132813 60.910156h-264.828124s-21.097657-7.0625-31.867188-46.167968c-1.425781-5.144532-2.578125-10.359376-3.441406-15.625-.265625-1.765626-.53125-3.53125-.707032-5.386719-2.351562-16.265625-2.113281-32.800781.707032-48.992188 1.320312-7.238281 3.238281-14.355469 5.738281-21.273437v-.089844c15.886719-43.167969 58.964844-83.15625 161.984375-83.15625 104.960938 0 147.6875 41.578125 162.78125 85.628906 2.210938 6.320313 3.894531 12.816406 5.03125 19.417969 1.457031 8.367187 2.195312 16.84375 2.207031 25.335937zm0 0" fill="#e6e7e8"/><g fill="#bdc3c7"><path d="m255.46875 125.351562c-1.695312 4.546876-6.71875 6.902344-11.296875 5.296876-3.707031-1.324219-91.894531-32.042969-148.921875 41.226562-.898438 1.203125-2.125 2.121094-3.53125 2.648438-1.425781-5.144532-2.578125-10.359376-3.441406-15.625-.265625-1.765626-.53125-3.53125-.707032-5.386719 65.058594-73.796875 161.632813-39.902344 162.605469-39.460938 2.203125.792969 4 2.429688 4.992188 4.550781.996093 2.121094 1.101562 4.550782.300781 6.75zm0 0"/><path d="m426.019531 130.382812c.066407 9.554688-.703125 19.09375-2.296875 28.515626-.085937.261718-.085937.617187-.175781.882812-7.515625-19.519531-25.015625-33.4375-45.726563-36.371094-3.089843-.632812-5.609374-2.863281-6.609374-5.855468-1-2.992188-.324219-6.289063 1.765624-8.652344 2.09375-2.359375 5.285157-3.425782 8.375-2.792969 17.136719 3.011719 32.816407 11.535156 44.667969 24.273437zm0 0"/><path d="m423.8125 105.046875c-.613281.105469-1.230469.164063-1.855469.179687-1.183593.019532-2.359375-.222656-3.441406-.707031-8.03125-3.355469-199.503906-82.007812-323.53125-1.148437-1.988281 1.273437-4.410156 1.6875-6.707031 1.148437 1.320312-7.238281 3.238281-14.355469 5.738281-21.273437v-.089844c120.230469-70.445312 285.660156-12.800781 324.765625 2.472656 2.210938 6.320313 3.894531 12.816406 5.03125 19.417969zm0 0"/></g><path d="m414.898438 512h97.101562v-7.855469c.015625-11.304687-1.347656-22.570312-4.0625-33.546875l-8.207031-33.277344c-9.523438-34.714843-41.429688-58.511718-77.417969-57.734374h-332.625c-35.988281-.777344-67.894531 23.019531-77.417969 57.734374l-8.207031 33.277344c-2.714844 10.976563-4.078125 22.242188-4.0625 33.546875v7.855469zm0 0" fill="#3b97d3"/><path d="m353.105469 353.105469h36.808593c9.605469-.84375 18.539063 4.988281 21.628907 14.121093l29.835937 144.773438h-370.757812l29.925781-144.773438c3.046875-9.125 11.957031-14.964843 21.539063-14.121093zm0 0" fill="#2980ba"/><path d="m185.378906 291.308594h141.242188v79.449218h-141.242188zm0 0" fill="#f29c1f"/><path d="m388.414062 185.378906v61.792969c.011719 16.394531-6.496093 32.117187-18.085937 43.707031-11.589844 11.59375-27.316406 18.097656-43.707031 18.085938h-141.242188c-16.390625.011718-32.117187-6.492188-43.707031-18.085938-11.589844-11.589844-18.097656-27.3125-18.085937-43.707031v-61.792969c17.65625-44.136718 79.449218-70.621094 132.414062-70.621094s114.757812 26.484376 132.414062 70.621094zm0 0" fill="#f0c419"/><path d="m220.691406 203.035156h-26.484375c-4.875 0-8.828125-3.953125-8.828125-8.828125s3.953125-8.828125 8.828125-8.828125h26.484375c4.875 0 8.824219 3.953125 8.824219 8.828125s-3.949219 8.828125-8.824219 8.828125zm0 0" fill="#955ba5"/><path d="m317.792969 203.035156h-26.484375c-4.875 0-8.824219-3.953125-8.824219-8.828125s3.949219-8.828125 8.824219-8.828125h26.484375c4.875 0 8.828125 3.953125 8.828125 8.828125s-3.953125 8.828125-8.828125 8.828125zm0 0" fill="#955ba5"/><path d="m158.898438 256c-3.570313 0-6.789063-2.152344-8.15625-5.449219-1.367188-3.296875-.609376-7.09375 1.914062-9.621093l8.828125-8.824219c3.460937-3.347657 8.96875-3.300781 12.375.105469 3.402344 3.40625 3.453125 8.910156.105469 12.375l-8.828125 8.828124c-1.652344 1.65625-3.898438 2.589844-6.238281 2.585938zm0 0" fill="#d75e72"/><path d="m176.550781 282.484375c-3.570312-.003906-6.785156-2.152344-8.152343-5.449219-1.367188-3.300781-.613282-7.097656 1.914062-9.621094l8.824219-8.828124c3.464843-3.34375 8.972656-3.296876 12.375.109374 3.40625 3.402344 3.453125 8.910157.109375 12.375l-8.828125 8.824219c-1.652344 1.660157-3.898438 2.589844-6.242188 2.589844zm0 0" fill="#d75e72"/><path d="m353.105469 353.105469s-8.828125 52.964843-97.105469 52.964843-97.101562-52.964843-97.101562-52.964843zm0 0" fill="#f0c419"/><path d="m297.734375 258.691406c-7.128906-13.957031-29.394531-15.933594-41.558594-15.933594-12.1875 0-34.421875 1.976563-41.554687 15.933594 13.601562-3.351562 27.546875-5.097656 41.554687-5.207031 14.007813.105469 27.957031 1.855469 41.558594 5.207031zm0 0" fill="#2c2f38"/><path d="m232.878906 150.855469c-8.390625-3.085938-17.199218-4.871094-26.128906-5.296875-12.003906-.910156-24.015625 1.652344-34.605469 7.378906 1.207031-15.449219 37.023438-18.503906 54.53125-14.53125 2.777344.347656 5.191407 2.058594 6.441407 4.5625 1.246093 2.5 1.15625 5.460938-.238282 7.886719zm0 0" fill="#2c2f38"/><path d="m229.515625 178.152344c0-10.453125-7.902344-18.921875-17.652344-18.921875s-17.65625 8.46875-17.65625 18.921875c0 10.449218 7.90625 18.921875 17.65625 18.921875s17.652344-8.472657 17.652344-18.921875zm0 0" fill="#2c2f38"/><path d="m216.8125 161.730469c-4.558594-1.730469-9.65625.558593-11.390625 5.113281-1.730469 4.558594.558594 9.65625 5.113281 11.390625 4.558594 1.734375 9.65625-.554687 11.390625-5.113281 1.730469-4.558594-.558593-9.65625-5.113281-11.390625zm0 0" fill="#fff"/><path d="m279.121094 150.855469c8.390625-3.085938 17.203125-4.871094 26.128906-5.296875 12.003906-.910156 24.015625 1.652344 34.605469 7.378906-1.207031-15.449219-37.023438-18.503906-54.53125-14.53125-2.773438.347656-5.191407 2.058594-6.441407 4.5625-1.246093 2.5-1.15625 5.460938.238282 7.886719zm0 0" fill="#2c2f38"/><path d="m317.792969 178.152344c0-10.453125-7.902344-18.921875-17.65625-18.921875-9.75 0-17.652344 8.46875-17.652344 18.921875 0 10.449218 7.902344 18.921875 17.652344 18.921875 9.753906 0 17.65625-8.472657 17.65625-18.921875zm0 0" fill="#2c2f38"/><path d="m306.578125 166.84375c-1.734375-4.554688-6.832031-6.84375-11.390625-5.113281-4.554688 1.734375-6.84375 6.832031-5.113281 11.390625 1.734375 4.554687 6.832031 6.84375 11.390625 5.113281 4.558594-1.734375 6.847656-6.832031 5.113281-11.390625zm0 0" fill="#fff"/></svg>