<svg height="512pt" viewBox="0 0 512.00027 512" width="512pt" xmlns="http://www.w3.org/2000/svg"><path d="m512 504.144531v7.855469h-512v-7.855469c-.015625-11.304687 1.347656-22.570312 4.0625-33.546875l8.207031-33.277344c9.523438-34.714843 41.429688-58.511718 77.417969-57.734374h332.625c35.988281-.777344 67.894531 23.019531 77.417969 57.734374l8.207031 33.277344c2.714844 10.976563 4.078125 22.242188 4.0625 33.546875zm0 0" fill="#35495e"/><path d="m114.757812 353.105469c-88.273437 0-97.101562-61.796875-97.101562-61.796875 70.621094-26.480469 44.136719-158.894532 61.792969-211.859375 17.65625-52.964844 73.863281-41.800781 79.449219-52.964844 8.824218-17.65625 61.792968-26.484375 123.585937-26.484375s150.066406 35.308594 167.722656 132.414062c17.65625 97.101563 8.828125 141.242188 44.136719 158.894532 0 0-5.777344 61.796875-104.40625 61.796875" fill="#2c2f38"/><path d="m344.277344 353.105469h45.636718c9.605469-.84375 18.539063 4.988281 21.628907 14.121093l2.558593 12.359376 27.277344 132.414062h-370.757812l27.367187-132.414062 2.558594-12.359376c3.046875-9.125 11.957031-14.964843 21.539063-14.121093zm0 0" fill="#2c3e50"/><path d="m185.378906 300.136719h141.242188v61.792969h-141.242188zm0 0" fill="#f29c1f"/><path d="m388.414062 203.035156v44.136719c.011719 16.394531-6.496093 32.117187-18.085937 43.707031-11.589844 11.59375-27.316406 18.097656-43.707031 18.085938h-141.242188c-16.390625.011718-32.117187-6.492188-43.707031-18.085938-11.589844-11.589844-18.097656-27.3125-18.085937-43.707031v-17.65625c17.65625-17.652344 26.484374-52.964844 35.3125-79.445313 8.824218-26.484374 27.277343-59.144531 61.792968-70.621093 26.480469-8.828125 123.585938 52.964843 132.414063 70.621093 8.613281 19.566407 20.5625 37.484376 35.308593 52.964844zm0 0" fill="#f0c419"/><path d="m291.308594 273.65625h-35.308594c-43.636719 0-44.136719-25.40625-44.136719-26.484375 0-4.875 3.949219-8.828125 8.828125-8.828125 4.875 0 8.824219 3.953125 8.824219 8.828125.414063 2.738281 6.511719 8.828125 26.484375 8.828125h35.308594c4.878906 0 8.828125 3.953125 8.828125 8.828125s-3.949219 8.828125-8.828125 8.828125zm0 0" fill="#e64c3c"/><path d="m344.277344 353.105469s-8.828125 35.308593-44.140625 35.308593c-35.308594 0-44.136719 17.65625-44.136719 17.65625s-8.828125-17.65625-44.136719-17.65625c-35.3125 0-44.140625-35.308593-44.140625-35.308593zm0 0" fill="#f0c419"/><path d="m167.722656 512h-39.371094c-8.773437-9.664062-13.621093-22.257812-13.59375-35.308594 0-4.878906 3.953126-8.828125 8.828126-8.828125s8.828124 3.949219 8.828124 8.828125c-.003906 9.363282 3.714844 18.347656 10.339844 24.96875 6.621094 6.625 15.605469 10.34375 24.96875 10.339844zm0 0" fill="#3b97d3"/><path d="m397.242188 476.691406c.027343 13.050782-4.820313 25.644532-13.59375 35.308594h-39.371094c9.363281.003906 18.347656-3.714844 24.96875-10.339844 6.625-6.621094 10.34375-15.605468 10.339844-24.96875 0-4.878906 3.953124-8.828125 8.828124-8.828125s8.828126 3.949219 8.828126 8.828125zm0 0" fill="#3b97d3"/><path d="m264.828125 441.378906v70.621094h-17.65625v-70.621094c0-4.875 3.953125-8.828125 8.828125-8.828125s8.828125 3.953125 8.828125 8.828125zm0 0" fill="#bdc3c7"/><path d="m247.171875 406.070312h17.65625c4.875 0 8.828125 3.949219 8.828125 8.828126v17.652343c0 4.875-3.953125 8.828125-8.828125 8.828125h-17.65625c-4.875 0-8.828125-3.953125-8.828125-8.828125v-17.652343c0-4.878907 3.953125-8.828126 8.828125-8.828126zm0 0" fill="#e6e7e8"/><path d="m229.515625 182.566406c0-10.453125-7.902344-18.925781-17.652344-18.925781s-17.65625 8.472656-17.65625 18.925781c0 10.449219 7.90625 18.921875 17.65625 18.921875s17.652344-8.472656 17.652344-18.921875zm0 0" fill="#35495e"/><path d="m216.8125 166.144531c-4.558594-1.734375-9.65625.554688-11.390625 5.113281-1.734375 4.558594.554687 9.65625 5.113281 11.390626 4.558594 1.730468 9.65625-.558594 11.390625-5.113282 1.730469-4.558594-.558593-9.65625-5.113281-11.390625zm0 0" fill="#fff"/><path d="m317.789062 182.566406c0-10.453125-7.902343-18.925781-17.652343-18.925781-9.753907 0-17.65625 8.472656-17.65625 18.925781 0 10.449219 7.902343 18.921875 17.65625 18.921875 9.75 0 17.652343-8.472656 17.652343-18.921875zm0 0" fill="#35495e"/><path d="m306.582031 171.261719c-1.734375-4.558594-6.832031-6.847657-11.390625-5.113281-4.554687 1.734374-6.84375 6.832031-5.109375 11.390624 1.730469 4.554688 6.832031 6.84375 11.386719 5.113282 4.558594-1.734375 6.847656-6.832032 5.113281-11.390625zm0 0" fill="#fff"/><path d="m356.457031 143.976562c-12.710937-13.238281-64.792969 3.53125-73.796875 7.238282-3.628906 1.367187-7.117187 3.082031-10.410156 5.128906-2.71875 1.71875-5.882812 2.609375-9.097656 2.554688h-14.300782c-3.21875.054687-6.378906-.835938-9.09375-2.554688-3.296874-2.046875-6.785156-3.761719-10.417968-5.128906-9.003906-3.707032-61.085938-20.476563-73.796875-7.238282-8.296875 8.476563-6.179688 28.425782-.089844 42.902344 7.621094 20.394532 27.136719 33.886719 48.90625 33.8125 12.679687.414063 24.695313-5.671875 31.867187-16.140625 4.519532-6.449219 11.886719-10.304687 19.761719-10.34375h.023438c7.875.039063 15.242187 3.894531 19.761719 10.34375 7.171874 10.46875 19.1875 16.554688 31.867187 16.140625 21.773437.074219 41.285156-13.417968 48.90625-33.8125 6.089844-14.476562 8.210937-34.425781-.089844-42.902344zm-152.097656 59.058594c-12.480469.300782-24.046875-6.511718-29.835937-17.566406-5.273438-8.617188-7.570313-18.730469-6.535157-28.777344 10.417969-2.472656 51.464844 7.679688 61.441407 13.945313-.617188 8.476562-4.148438 32.398437-25.070313 32.398437zm133.121094-17.566406c-5.792969 11.054688-17.359375 17.867188-29.839844 17.566406-20.742187 0-24.363281-23.921875-24.980469-32.398437 9.886719-6.265625 50.492188-16.417969 61.175782-13.945313 1.144531 10.03125-1.09375 20.160156-6.355469 28.777344zm0 0" fill="#2c2f38"/></svg>