<svg height="512pt" viewBox="0 0 512.00027 512" width="512pt" xmlns="http://www.w3.org/2000/svg"><path d="m185.378906 291.308594h141.242188v79.449218h-141.242188zm0 0" fill="#f29c1f"/><path d="m512 504.144531v7.855469h-512v-7.855469c-.015625-11.304687 1.347656-22.570312 4.0625-33.546875l8.207031-33.277344c9.523438-34.714843 41.429688-58.511718 77.417969-57.734374h332.625c35.988281-.777344 67.894531 23.019531 77.417969 57.734374l8.207031 33.277344c2.714844 10.976563 4.078125 22.242188 4.0625 33.546875zm0 0" fill="#e64c3c"/><path d="m441.378906 512h-370.757812l27.367187-132.414062 2.558594-12.359376c3.046875-9.125 11.957031-14.964843 21.539063-14.121093h54.464843c19.625 5.988281 38.226563 14.917969 55.171875 26.480469 10.089844 6.765624 18.414063 15.84375 24.277344 26.484374 5.863281-10.640624 14.1875-19.71875 24.277344-26.484374 16.945312-11.5625 35.546875-20.492188 55.171875-26.480469h54.464843c9.605469-.84375 18.539063 4.988281 21.628907 14.121093l2.558593 12.359376zm0 0" fill="#c03a2b"/><path d="m335.449219 353.105469s-61.792969 17.652343-79.449219 52.964843c-17.65625-35.3125-79.449219-52.964843-79.449219-52.964843zm0 0" fill="#f0c419"/><path d="m402.273438 117.582031c61.175781-75.652343-22.6875-117.582031-22.6875-117.582031 5.207031 36.191406-7.855469 54.203125-19.507813 62.941406h-208.15625c-11.652344-8.738281-24.714844-26.75-19.507813-62.941406 0 0-83.863281 41.929688-22.6875 117.582031zm0 0" fill="#2c2f38"/><path d="m124.203125 255.117188c3.894531 30.808593 30.121094 53.898437 61.175781 53.847656h141.242188c31.054687.050781 57.28125-23.039063 61.175781-53.847656l-34.691406-184.496094h-211.863281zm0 0" fill="#f0c419"/><path d="m256 35.308594c211.863281 0 150.070312 220.691406 150.070312 220.691406s-61.792968 0-52.964843-17.65625c8.824219-17.652344 26.480469-114.757812-26.484375-114.757812s-70.621094 26.484374-70.621094 26.484374-17.65625-26.484374-70.621094-26.484374-35.308594 97.105468-26.480468 114.757812c8.824218 17.65625-52.96875 17.65625-52.96875 17.65625s-61.792969-220.691406 150.070312-220.691406zm0 0" fill="#e64c3c"/><path d="m264.828125 441.378906v70.621094h-17.65625v-70.621094c0-4.875 3.953125-8.828125 8.828125-8.828125s8.828125 3.953125 8.828125 8.828125zm0 0" fill="#bdc3c7"/><g fill="#2c2f38"><path d="m185.378906 406.070312c-2.300781.003907-4.507812-.894531-6.15625-2.5-5.800781-4.46875-13.011718-6.714843-20.324218-6.328124-4.878907 0-8.828126-3.953126-8.828126-8.828126s3.949219-8.828124 8.828126-8.828124c11.964843-.519532 23.675781 3.566406 32.722656 11.414062 2.523437 2.523438 3.277344 6.320312 1.914062 9.621094-1.367187 3.296875-4.585937 5.445312-8.15625 5.449218zm0 0"/><path d="m326.65625 405.992188c-3.554688.007812-6.765625-2.125-8.140625-5.402344-1.371094-3.28125-.636719-7.0625 1.863281-9.589844 9.046875-7.847656 20.757813-11.933594 32.726563-11.414062 4.875 0 8.824219 3.953124 8.824219 8.828124s-3.949219 8.828126-8.824219 8.828126c-7.324219-.394532-14.546875 1.855468-20.347657 6.34375-1.65625 1.546874-3.835937 2.40625-6.101562 2.40625zm0 0"/><path d="m301.242188 242.207031c-4.867188 15.023438-27.769532 22.40625-40.171876 24.574219-12.425781 2.179688-35.441406 4.203125-45.121093-8.273438 14.464843.871094 28.980469.101563 43.273437-2.289062 14.480469-3.109375 28.570313-7.808594 42.019532-14.011719zm0 0"/><path d="m231.214844 169.621094c-7.65625-4.613282-15.972656-8.03125-24.664063-10.132813-11.617187-3.160156-23.898437-2.910156-35.378906.710938 4.105469-14.941407 39.851563-11.179688 56.292969-3.972657 2.664062.863282 4.714844 3 5.46875 5.691407.753906 2.695312.109375 5.585937-1.71875 7.703125zm0 0"/><path d="m229.515625 186.980469c0-10.453125-7.902344-18.925781-17.652344-18.925781s-17.65625 8.472656-17.65625 18.925781c0 10.449219 7.90625 18.921875 17.65625 18.921875s17.652344-8.472656 17.652344-18.921875zm0 0"/></g><path d="m216.8125 170.558594c-4.558594-1.730469-9.65625.558594-11.390625 5.113281-1.734375 4.558594.554687 9.65625 5.113281 11.390625 4.558594 1.730469 9.65625-.558594 11.390625-5.113281 1.730469-4.558594-.558593-9.65625-5.113281-11.390625zm0 0" fill="#fff"/><path d="m279.839844 171.472656c6.261718-8.242187 14.957031-14.304687 24.859375-17.320312 13.3125-3.550782 27.476562.945312 36.304687 11.527344-.136718-.132813.136719-2.949219.085938-3.386719-.144532-1.144531-.453125-2.261719-.917969-3.316407-1.039063-2.253906-2.566406-4.25-4.46875-5.839843-4.738281-3.851563-10.378906-6.429688-16.390625-7.496094-7.988281-1.804687-16.316406-1.394531-24.082031 1.191406-4.679688 1.617188-8.984375 4.15625-12.664063 7.464844-3.242187 2.964844-8.042968 8.429687-5.957031 13.40625.964844 1.347656 2.046875 2.609375 3.230469 3.769531zm0 0" fill="#2c2f38"/><path d="m317.792969 186.980469c0-10.453125-7.902344-18.925781-17.65625-18.925781-9.75 0-17.652344 8.472656-17.652344 18.925781 0 10.449219 7.902344 18.921875 17.652344 18.921875 9.753906 0 17.65625-8.472656 17.65625-18.921875zm0 0" fill="#2c2f38"/><path d="m306.578125 175.671875c-1.734375-4.558594-6.832031-6.847656-11.390625-5.113281-4.554688 1.734375-6.84375 6.832031-5.113281 11.390625 1.734375 4.554687 6.832031 6.84375 11.390625 5.113281 4.558594-1.734375 6.847656-6.835938 5.113281-11.390625zm0 0" fill="#fff"/></svg>