<svg height="512pt" viewBox="0 0 512 512.03882" width="512pt" xmlns="http://www.w3.org/2000/svg"><path d="m185.398438 291.347656h141.242187v79.449219h-141.242187zm0 0" fill="#f29c1f"/><path d="m512.019531 504.183594v7.855468h-511.9999998v-7.855468c-.01562495-11.304688 1.3476568-22.570313 4.0624998-33.546875l8.207031-33.277344c9.523438-34.714844 41.429688-58.511719 77.417969-57.734375h333.332031c35.75-.519531 67.3125 23.234375 76.710938 57.734375l8.207031 33.277344c2.714844 10.976562 4.078125 22.242187 4.0625 33.546875zm0 0" fill="#f0c419"/><path d="m441.398438 512.039062h-370.757813l27.363281-132.414062 2.5625-12.359375c3.046875-9.125 11.957032-14.964844 21.539063-14.125h222.191406l-93.308594 104.875-1.234375 1.410156 58.4375 43.609375 1.234375-1.414062 105.402344-118.554688 1.941406 9.445313.265625 1.324219zm0 0" fill="#f3d55b"/><path d="m414.828125 383.066406-105.402344 118.554688-1.234375 1.414062-58.4375-43.609375 1.234375-1.410156 93.308594-104.875h45.636719c9.605468-.839844 18.539062 4.992187 21.628906 14.125l.792969 3.707031zm0 0" fill="#b19046"/><path d="m308.984375 511.773438v.265624h-105.929687c.023437-23.503906 15.503906-44.195312 38.046874-50.847656 2.828126-.824218 5.722657-1.414062 8.652344-1.765625 2.078125-.25 4.171875-.371093 6.265625-.351562 1.941407 0 3.796875.085937 5.648438.265625 19.699219 2.113281 36.5625 15.0625 43.699219 33.542968 1.300781 3.273438 2.246093 6.675782 2.824218 10.152344.535156 2.882813.800782 5.808594.792969 8.738282zm0 0" fill="#e4c05c"/><path d="m388.433594 211.902344v35.308594c.011718 16.390624-6.496094 32.117187-18.085938 43.707031-11.589844 11.59375-27.316406 18.097656-43.707031 18.085937h-141.242187c-16.390626.011719-32.117188-6.492187-43.707032-18.085937-11.589844-11.589844-18.097656-27.316407-18.085937-43.707031v-35.308594c0-44.140625 52.964843-52.96875 88.277343-79.449219 21.703126-15.0625 48.195313-21.601563 74.414063-18.363281 22.734375 23.636718 48.191406 44.496094 75.832031 62.148437 17.566406 8.914063 26.304688 35.664063 26.304688 35.664063zm0 0" fill="#f0c419"/><path d="m286.296875 114.089844c-26.21875-3.238282-52.710937 3.300781-74.414063 18.363281-35.3125 26.480469-88.277343 35.308594-88.277343 79.449219v35.308594c-19.597657-13.066407-39.195313-45.375-47.933594-86.332032v-.089844c-1.578125-6.964843-2.785156-14.007812-3.621094-21.097656-.917969-8.265625-1.390625-16.578125-1.410156-24.894531-.3125-19.625 4.789063-38.960937 14.742187-55.878906 4.320313-7.21875 9.574219-13.835938 15.625-19.683594 15.921876-15.558594 36.054688-26.117187 57.910157-30.367187 27.769531-4.65625 56.261719 1.675781 79.445312 17.65625l.617188.085937c-.941407 5.242187-.789063 10.621094.441406 15.800781 2.335937 9.816406 6.273437 19.183594 11.652344 27.71875 2.738281 4.589844 5.917969 9.179688 9.359375 13.859375 7.921875 10.617188 16.5625 20.671875 25.863281 30.101563zm0 0" fill="#4fba6f"/><path d="m262.023438 79.046875c0 1.851563 3.882812-.972656 2.824218.441406-1.589844 2.292969 11.828125 8.828125 8.828125 8.828125-.53125.085938-21.363281-.53125-21.804687-.53125-65.597656-.527344-128.640625 25.40625-174.875 71.945313-.398438.40625-.839844.761719-1.324219 1.058593-1.578125-6.964843-2.785156-14.007812-3.621094-21.097656 48.796875-44.890625 112.722657-69.730468 179.023438-69.5625h2.121093c2.355469-.003906 4.617188.9375 6.277344 2.613282 1.65625 1.675781 2.574219 3.945312 2.550782 6.304687zm0 0" fill="#4c8056"/><path d="m181.601562 54.945312c-.949218 4.015626-4.523437 6.863282-8.648437 6.886719-.652344-.019531-1.300781-.078125-1.941406-.175781-26.691407-6.695312-54.503907-7.597656-81.570313-2.648438-1.335937.324219-2.738281.296876-4.058594-.089843 4.320313-7.21875 9.574219-13.835938 15.625-19.683594 24.742188-2.371094 49.707032-.640625 73.886719 5.117187 4.769531 1.082032 7.769531 5.820313 6.707031 10.59375zm0 0" fill="#4c8056"/><path d="m436.898438 134.042969c-2.085938 33.199219-13.03125 65.238281-31.691407 92.777343-4.964843 7.289063-10.578125 14.113282-16.773437 20.390626v-35.308594s-8.738282-26.75-26.304688-35.664063c-27.640625-17.652343-53.097656-38.511719-75.832031-62.148437-22.421875-23.039063-42.105469-48.902344-46.875-71.679688-1.230469-5.179687-1.382813-10.558594-.441406-15.800781 6.710937-35.664063 72.476562-27.804687 88.101562-19.863281 0 0 87.835938-6.7070315 105.488281 72.742187 4.019532 17.886719 5.476563 36.253907 4.328126 54.554688zm0 0" fill="#24ae5f"/><path d="m436.898438 134.042969c-.59375 9.652343-1.949219 19.246093-4.0625 28.6875-20.394532-38.335938-46.699219-73.21875-77.949219-103.371094-2.285157-2.203125-3.21875-5.460937-2.441407-8.542969.773438-3.078125 3.136719-5.511718 6.191407-6.371094 3.058593-.859374 6.34375-.019531 8.609375 2.203126 26.785156 26.101562 50.183594 55.460937 69.652344 87.394531zm0 0" fill="#4c8056"/><path d="m343.414062 114.796875c-2.34375.003906-4.589843-.925781-6.242187-2.585937-18.222656-19.085938-33.640625-40.664063-45.792969-64.089844-1.46875-2.824219-1.300781-6.226563.441406-8.894532 1.738282-2.667968 4.785157-4.191406 7.964844-3.984374 3.179688.207031 6 2.113281 7.382813 4.984374 11.347656 21.695313 25.644531 41.71875 42.484375 59.496094 2.527344 2.523438 3.285156 6.324219 1.917968 9.625-1.363281 3.300782-4.585937 5.449219-8.15625 5.449219zm0 0" fill="#4c8056"/><g fill="#805333"><path d="m354.710938 353.140625-92.070313 103.460937c-1.65625 1.925782-4.078125 3.023438-6.621094 3-1.800781.003907-3.558593-.550781-5.03125-1.585937-.265625-.179687-30.015625 18.976563-30.277343 18.710937-3.710938-3.265624 25.511718-28.15625 28.6875-31.867187l81.566406-91.71875zm0 0"/><path d="m416.769531 392.511719-95.691406 107.699219c-1.765625 2.027343-9.621094 11.828124-12.09375 11.828124-1.765625 0 1.941406-9.359374.441406-10.417968-.285156-.175782-.550781-.382813-.792969-.617188-1.757812-1.542968-2.828124-3.722656-2.976562-6.058594-.152344-2.335937.632812-4.632812 2.179688-6.386718l104.519531-117.585938 2.472656 12.09375zm0 0"/><path d="m317.8125 512.039062h-17.65625c.007812-2.277343-.167969-4.550781-.527344-6.796874v-.175782c0-.179687-.089844-.265625-.089844-.441406v-.179688c.011719-.09375-.019531-.191406-.085937-.261718-.5625-3.453125-1.601563-6.8125-3.089844-9.976563-6.125-14.207031-19.335937-24.089843-34.695312-25.953125h-.085938c-1.84375-.253906-3.703125-.371094-5.5625-.351562-1.710937-.003906-3.417969.085937-5.121093.261718h-.175782c-.175781 0-.351562.089844-.53125.089844-21.949218 2.90625-38.34375 21.640625-38.308594 43.785156h-17.65625c-.058593-29.941406 21.441407-55.578124 50.933594-60.734374 1.148438-.265626 2.296875-.441407 3.53125-.617188 2.429688-.328125 4.878906-.476562 7.328125-.441406.621094-.015625 1.238281.015625 1.855469.089844 3.621094.046874 7.230469.460937 10.769531 1.234374 18.992188 3.886719 35.027344 16.519532 43.253907 34.074219 1.472656 2.988281 2.628906 6.125 3.441406 9.355469.707031 2.132812 1.238281 4.316406 1.589844 6.535156.269531 1.429688.445312 2.871094.53125 4.324219.25 2.050781.367187 4.113281.351562 6.179687zm0 0"/></g><path d="m297.753906 276.382812c-7.128906-13.957031-29.394531-15.929687-41.558594-15.929687-12.1875 0-34.421874 1.972656-41.554687 15.929687 13.601563-3.347656 27.546875-5.097656 41.554687-5.207031 14.007813.109375 27.957032 1.855469 41.558594 5.207031zm0 0" fill="#2c2f38"/><path d="m232.898438 172.960938c-8.390626-3.082032-17.199219-4.871094-26.128907-5.296876-12.003906-.90625-24.015625 1.65625-34.605469 7.378907 1.207032-15.449219 37.023438-18.5 54.53125-14.527344 2.777344.34375 5.191407 2.054687 6.441407 4.558594 1.246093 2.503906 1.15625 5.464843-.238281 7.886719zm0 0" fill="#2c2f38"/><path d="m229.535156 200.257812c0-10.449218-7.902344-18.921874-17.652344-18.921874s-17.65625 8.472656-17.65625 18.921874c0 10.453126 7.90625 18.925782 17.65625 18.925782s17.652344-8.472656 17.652344-18.925782zm0 0" fill="#2c2f38"/><path d="m216.832031 183.839844c-4.558593-1.734375-9.65625.554687-11.390625 5.113281-1.734375 4.554687.554688 9.65625 5.113282 11.386719 4.558593 1.734375 9.65625-.554688 11.390624-5.113282 1.730469-4.554687-.558593-9.65625-5.113281-11.386718zm0 0" fill="#fff"/><path d="m279.140625 172.960938c8.390625-3.082032 17.203125-4.871094 26.128906-5.296876 12.003907-.90625 24.015625 1.65625 34.605469 7.378907-1.207031-15.449219-37.023438-18.5-54.53125-14.527344-2.777344.34375-5.191406 2.054687-6.441406 4.558594-1.246094 2.503906-1.15625 5.464843.238281 7.886719zm0 0" fill="#2c2f38"/><path d="m317.8125 200.257812c0-10.449218-7.90625-18.921874-17.65625-18.921874s-17.652344 8.472656-17.652344 18.921874c0 10.453126 7.902344 18.925782 17.652344 18.925782s17.65625-8.472656 17.65625-18.925782zm0 0" fill="#2c2f38"/><path d="m306.597656 188.953125c-1.734375-4.558594-6.832031-6.847656-11.390625-5.113281-4.554687 1.730468-6.84375 6.832031-5.113281 11.386718 1.734375 4.558594 6.832031 6.847657 11.390625 5.113282 4.558594-1.730469 6.847656-6.832032 5.113281-11.386719zm0 0" fill="#fff"/></svg>