<svg height="512pt" viewBox="0 0 512.00027 512" width="512pt" xmlns="http://www.w3.org/2000/svg"><path d="m414.898438 512h97.101562v-7.855469c.015625-11.304687-1.347656-22.570312-4.0625-33.546875l-8.207031-33.277344c-9.523438-34.714843-41.429688-58.511718-77.417969-57.734374h-332.625c-35.988281-.777344-67.894531 23.019531-77.417969 57.734374l-8.207031 33.277344c-2.714844 10.976563-4.078125 22.242188-4.0625 33.546875v7.855469zm0 0" fill="#e64c3c"/><path d="m397.242188 353.105469c61.792968 0 80.242187-52.96875 62.585937-79.449219-22.152344-30.957031-34.457031-67.875-35.308594-105.933594 0-44.136718-8.828125-97.101562-44.140625-114.757812-35.308594-17.65625-97.101562-52.964844-123.585937-52.964844h-.792969c-26.484375 0-88.277344 35.308594-123.585938 52.964844-35.308593 17.65625-44.136718 70.621094-44.136718 114.757812-.851563 38.058594-13.15625 74.976563-35.3125 105.933594-17.65625 26.480469 0 79.449219 61.792968 79.449219l109.242188 97.101562h76.691406zm0 0" fill="#527f72"/><path d="m388.414062 167.722656v44.140625c-8.828124 8.828125-26.484374 17.652344-61.792968 17.652344-35.3125 0-52.964844-26.480469-70.621094-26.480469s-35.308594 26.480469-70.621094 26.480469c-35.308594 0-52.964844-8.824219-61.792968-17.652344v-44.140625c0-17.652344 17.65625-44.136718 44.136718-61.792968 26.484375-17.652344 61.792969 26.484374 88.277344 26.484374s61.792969-44.136718 88.277344-26.484374c6.476562 4.304687 12.535156 9.210937 18.09375 14.65625 16.15625 15.710937 26.042968 33.898437 26.042968 47.136718zm0 0" fill="#f0c419"/><path d="m151.65625 419.839844c-12.417969 29.152344-18.957031 60.472656-19.242188 92.160156h-61.792968l29.925781-144.773438c3.046875-9.125 11.957031-14.964843 21.539063-14.121093h45.636718c-16.316406-.007813-30.507812 11.171875-34.328125 27.035156-3.820312 15.863281 3.734375 32.277344 18.261719 39.699219zm0 0" fill="#804537"/><path d="m441.378906 512h-308.964844c.285157-31.6875 6.824219-63.007812 19.242188-92.160156 8.464844 4.34375 18.324219 5.078125 27.339844 2.035156 9.011718-3.042969 16.410156-9.605469 20.507812-18.1875 72.59375 30.390625 150.464844 46.199219 229.164063 46.519531zm0 0" fill="#527f72"/><path d="m199.503906 403.6875c2.347656-4.75 3.554688-9.976562 3.53125-15.273438.003906-9.367187-3.71875-18.347656-10.339844-24.972656-6.621093-6.621094-15.605468-10.339844-24.972656-10.335937h27.277344c16.648438 15.632812 38.210938 24.992187 61 26.480469 22.789062-1.488282 44.351562-10.847657 61-26.480469h72.914062c9.605469-.84375 18.539063 4.988281 21.628907 14.121093l17.125 82.980469c-78.699219-.320312-156.570313-16.128906-229.164063-46.519531zm0 0" fill="#804537"/><path d="m406.070312 282.484375c0 26.480469-52.964843 35.308594-79.449218 61.792969-3.179688 3.175781-6.445313 6.179687-9.621094 8.828125-16.648438 15.632812-38.210938 24.992187-61 26.480469-22.789062-1.488282-44.351562-10.847657-61-26.480469-3.175781-2.648438-6.441406-5.652344-9.621094-8.828125-26.480468-26.484375-79.449218-35.3125-79.449218-61.792969 0-26.484375 8.828124-79.449219 17.65625-70.621094 8.828124 8.828125 26.484374 17.652344 61.792968 17.652344 35.3125 0 52.964844-26.480469 70.621094-26.480469s35.308594 26.480469 70.621094 26.480469c35.308594 0 52.964844-8.824219 61.792968-17.652344 8.828126-8.828125 17.65625 44.136719 17.65625 70.621094zm0 0" fill="#26b99a"/><g fill="#527f72"><path d="m167.722656 273.65625c-21.769531.855469-43.457031-3.152344-63.484375-11.734375-2.9375-1.304687-4.933593-4.105469-5.207031-7.304687-.277344-3.203126 1.207031-6.304688 3.878906-8.09375 2.667969-1.789063 6.097656-1.984376 8.957032-.515626 17.652343 7.417969 36.726562 10.828126 55.855468 9.992188 49.230469 0 66.609375-7.871094 66.777344-7.945312 4.375-2.152344 9.667969-.347657 11.820312 4.027343 2.152344 4.375.347657 9.664063-4.027343 11.816407-2 1-21.066407 9.757812-74.570313 9.757812zm0 0"/><path d="m344.277344 273.65625c-53.503906 0-72.570313-8.757812-74.570313-9.761719-4.359375-2.179687-6.128906-7.480469-3.949219-11.84375 2.183594-4.359375 7.484376-6.128906 11.847657-3.945312.0625.023437 17.441406 7.894531 66.671875 7.894531 19.128906.835938 38.203125-2.574219 55.855468-9.992188 2.859376-1.46875 6.289063-1.273437 8.957032.515626 2.671875 1.789062 4.15625 4.890624 3.878906 8.09375-.273438 3.199218-2.269531 6-5.207031 7.304687-20.027344 8.582031-41.714844 12.589844-63.484375 11.734375zm0 0"/><path d="m256 326.621094c-18.648438-.996094-37.128906-4.042969-55.109375-9.09375-21.785156-4.679688-44.40625-3.761719-65.742187 2.675781-3.054688.894531-6.351563.082031-8.636719-2.132813-2.28125-2.214843-3.199219-5.488281-2.394531-8.566406.800781-3.078125 3.195312-5.484375 6.269531-6.300781 24.289062-7.265625 50.027343-8.226563 74.789062-2.796875 16.601563 4.636719 33.644531 7.507812 50.847657 8.566406 17.1875-1.066406 34.214843-3.933594 50.800781-8.566406 24.6875-5.417969 50.347656-4.480469 74.570312 2.734375 4.328125 1.0625 7.183594 5.183594 6.660157 9.609375-.527344 4.425781-4.273438 7.765625-8.730469 7.78125h-.085938c-.804687 0-1.609375-.113281-2.382812-.328125-21.335938-6.433594-43.957031-7.355469-65.746094-2.671875-17.980469 5.046875-36.460937 8.097656-55.109375 9.089844zm0 0"/></g><path d="m203.035156 388.414062c.023438 5.296876-1.183594 10.523438-3.53125 15.273438-7.824218 16.121094-26.507812 23.800781-43.40625 17.832031-16.898437-5.964843-26.621094-23.675781-22.585937-41.136719 4.039062-17.460937 20.546875-29.105468 38.351562-27.046874 17.800781 2.054687 31.222657 17.15625 31.171875 35.078124zm0 0" fill="#e6e7e8"/><path d="m284.777344 512h-35.222656c-20.253907-12.972656-38.339844-29.058594-53.582032-47.667969-2.925781-3.902343-2.136718-9.433593 1.765625-12.359375 3.898438-2.925781 9.433594-2.136718 12.359375 1.765625 20.609375 24.363281 46.035156 44.199219 74.679688 58.261719zm0 0" fill="#5e5f62"/><path d="m231.214844 160.792969c-7.65625-4.613281-15.972656-8.03125-24.664063-10.132813-11.617187-3.160156-23.898437-2.910156-35.378906.710938 4.105469-14.941406 39.851563-11.179688 56.292969-3.96875 2.664062.859375 4.714844 2.996094 5.46875 5.6875.753906 2.695312.109375 5.585937-1.71875 7.703125zm0 0" fill="#805333"/><path d="m229.515625 178.152344c0-10.453125-7.902344-18.921875-17.652344-18.921875s-17.65625 8.46875-17.65625 18.921875c0 10.449218 7.90625 18.921875 17.65625 18.921875s17.652344-8.472657 17.652344-18.921875zm0 0" fill="#2c2f38"/><path d="m216.8125 161.730469c-4.558594-1.730469-9.65625.558593-11.390625 5.113281-1.730469 4.558594.558594 9.65625 5.113281 11.390625 4.558594 1.734375 9.65625-.554687 11.390625-5.113281 1.730469-4.558594-.558593-9.65625-5.113281-11.390625zm0 0" fill="#fff"/><path d="m279.839844 162.644531c6.261718-8.242187 14.957031-14.304687 24.859375-17.320312 13.3125-3.550781 27.476562.945312 36.304687 11.527343-.136718-.132812.136719-2.945312.085938-3.386718-.144532-1.144532-.453125-2.257813-.917969-3.316406-1.039063-2.253907-2.566406-4.25-4.46875-5.839844-4.738281-3.847656-10.378906-6.429688-16.390625-7.496094-7.988281-1.804688-16.316406-1.394531-24.082031 1.195312-4.679688 1.613282-8.984375 4.152344-12.664063 7.460938-3.242187 2.96875-8.042968 8.429688-5.957031 13.40625.964844 1.347656 2.046875 2.609375 3.230469 3.769531zm0 0" fill="#805333"/><path d="m317.792969 178.152344c0-10.453125-7.902344-18.921875-17.65625-18.921875-9.75 0-17.652344 8.46875-17.652344 18.921875 0 10.449218 7.902344 18.921875 17.652344 18.921875 9.753906 0 17.65625-8.472657 17.65625-18.921875zm0 0" fill="#2c2f38"/><path d="m306.578125 166.84375c-1.734375-4.554688-6.832031-6.84375-11.390625-5.113281-4.554688 1.734375-6.84375 6.832031-5.113281 11.390625 1.734375 4.554687 6.832031 6.84375 11.390625 5.113281 4.558594-1.734375 6.847656-6.832031 5.113281-11.390625zm0 0" fill="#fff"/></svg>