<svg height="512pt" viewBox="0 0 512 512" width="512pt" xmlns="http://www.w3.org/2000/svg"><path d="m512 512v-26.484375c0-32.777344-13.019531-64.210937-36.199219-87.386719-23.175781-23.175781-54.609375-36.199218-87.386719-36.199218h-264.828124c-68.253907 0-123.585938 55.332031-123.585938 123.585937v26.484375zm0 0" fill="#2c2f38"/><path d="m185.378906 338.554688h141.242188v67.515624h-141.242188zm0 0" fill="#35495e"/><path d="m416.839844 432.550781h5.472656c36.988281 0 69.121094 14.390625 77.417969 34.605469l8.207031 20.039062c2.675781 6.375 4.054688 13.214844 4.0625 20.125v4.679688h-512v-4.679688c.0078125-6.910156 1.386719-13.75 4.0625-20.125l8.207031-20.039062c8.296875-20.214844 40.429688-34.605469 77.417969-34.605469zm0 0" fill="#95a5a5"/><path d="m203.035156 264.828125h105.929688c9.75 0 17.65625 7.902344 17.65625 17.65625v61.792969c0 9.75-7.90625 17.652344-17.65625 17.652344h-105.929688c-9.75 0-17.65625-7.902344-17.65625-17.652344v-61.792969c0-9.753906 7.90625-17.65625 17.65625-17.65625zm0 0" fill="#fdd7ad"/><path d="m326.621094 344.277344v-61.792969c-.027344-9.742187-7.917969-17.628906-17.65625-17.65625h-105.929688c-9.738281.027344-17.628906 7.914063-17.65625 17.65625v79.445313c-16.390625.011718-32.117187-6.492188-43.707031-18.085938-11.589844-11.589844-18.097656-27.3125-18.085937-43.707031v-123.585938c0-35.308593 17.65625-176.550781 70.621093-176.550781v70.621094c.027344 9.738281 7.917969 17.625 17.65625 17.65625h88.273438c9.738281-.03125 17.628906-7.917969 17.65625-17.65625v-70.621094c52.964843 0 70.621093 141.242188 70.621093 176.550781v123.585938c.011719 16.394531-6.496093 32.117187-18.085937 43.707031-11.589844 11.59375-27.316406 18.097656-43.707031 18.085938zm0 0" fill="#2c2f38"/><path d="m441.378906 512h-370.757812l29.90625-96.496094c1.636718-5.441406 10.796875-9.433594 21.589844-9.433594h267.820312c10.796875 0 19.953125 3.992188 21.589844 9.433594zm0 0" fill="#7f8c8d"/><path d="m236.578125 210.496094c-9.976563 10.070312-24.707031 13.796875-38.273437 9.679687-14.042969-1.9375-25.859376-11.488281-30.707032-24.808593 0 0 5.675782-25.867188 40.167969-18.300782 25.867187 5.671875 28.8125 33.429688 28.8125 33.429688zm0 0" fill="#e6e7e8"/><path d="m275.296875 210.496094c9.976563 10.070312 24.707031 13.796875 38.269531 9.679687 14.042969-1.941406 25.863282-11.488281 30.710938-24.808593 0 0-5.675782-25.867188-40.167969-18.300782-25.863281 5.671875-28.8125 33.429688-28.8125 33.429688zm0 0" fill="#e6e7e8"/><path d="m326.621094 476.691406c0-19.503906-31.617188-35.3125-70.621094-35.3125s-70.621094 15.808594-70.621094 35.3125c0 19.5 31.617188 35.308594 70.621094 35.308594s70.621094-15.808594 70.621094-35.308594zm0 0" fill="#f0c419"/><g fill="#2c2f38"><path d="m256 503.171875c-4.875 0-8.828125-3.953125-8.828125-8.828125v-26.066406c-13.894531.71875-27.191406 5.875-37.941406 14.707031-3.464844 3.433594-9.054688 3.410156-12.488281-.050781-3.433594-3.460938-3.410157-9.050782.050781-12.484375 16.488281-13.953125 37.628906-21.179688 59.207031-20.242188 4.875 0 8.828125 3.953125 8.828125 8.828125v35.308594c0 4.875-3.953125 8.828125-8.828125 8.828125zm0 0"/><path d="m256 503.171875c-4.875 0-8.828125-3.953125-8.828125-8.828125v-35.308594c0-4.875 3.953125-8.828125 8.828125-8.828125 21.578125-.933593 42.71875 6.292969 59.207031 20.242188 3.34375 3.457031 3.308594 8.953125-.082031 12.363281-3.394531 3.410156-8.890625 3.476562-12.367188.152344-10.753906-8.8125-24.042968-13.957032-37.929687-14.6875v26.066406c0 4.875-3.953125 8.828125-8.828125 8.828125zm0 0"/><path d="m273.65625 485.515625c-2.34375.003906-4.589844-.925781-6.242188-2.585937l-11.414062-11.414063-11.414062 11.414063c-3.464844 3.347656-8.96875 3.296874-12.375-.105469-3.40625-3.40625-3.453126-8.910157-.105469-12.375l17.652343-17.65625c1.65625-1.65625 3.902344-2.585938 6.242188-2.585938s4.585938.929688 6.242188 2.585938l17.652343 17.65625c2.527344 2.523437 3.28125 6.320312 1.914063 9.617187-1.367188 3.300782-4.582032 5.449219-8.152344 5.449219zm0 0"/><path d="m297.730469 295.722656c-7.128907 13.960938-29.394531 15.933594-41.554688 15.933594-12.1875 0-34.421875-1.972656-41.554687-15.933594 13.601562 3.351563 27.546875 5.101563 41.554687 5.210938 14.007813-.109375 27.957031-1.859375 41.554688-5.210938zm0 0"/></g></svg>