<svg height="512pt" viewBox="0 0 512.00027 512" width="512pt" xmlns="http://www.w3.org/2000/svg"><path d="m414.898438 512h97.101562v-7.855469c.015625-11.304687-1.347656-22.570312-4.0625-33.546875l-8.207031-33.277344c-9.523438-34.714843-41.429688-58.511718-77.417969-57.734374h-332.625c-35.988281-.777344-67.894531 23.019531-77.417969 57.734374l-8.207031 33.277344c-2.714844 10.976563-4.078125 22.242188-4.0625 33.546875v7.855469zm0 0" fill="#fdd7ad"/><path d="m441.378906 512h-370.757812l4.238281-20.480469 17.210937-83.15625 8.476563-41.136719c3.046875-9.125 11.957031-14.964843 21.539063-14.121093h267.828124c9.605469-.84375 18.539063 4.988281 21.628907 14.121093l8.472656 41.050782 17.125 83.242187zm0 0" fill="#f0c419"/><path d="m113.988281 512 17.132813-116.046875c.636718-4.332031 4.355468-7.539063 8.730468-7.539063h232.386719c4.378907 0 8.097657 3.210938 8.734375 7.542969l17.0625 116.042969zm0 0" fill="#464f5d"/><path d="m185.378906 308.964844h141.242188v44.140625h-141.242188zm0 0" fill="#f9c795"/><path d="m388.414062 229.515625v17.65625c.011719 16.394531-6.496093 32.117187-18.085937 43.707031-11.589844 11.59375-27.316406 18.097656-43.707031 18.085938h-141.242188c-16.390625.011718-32.117187-6.492188-43.707031-18.085938-11.589844-11.589844-18.097656-27.3125-18.085937-43.707031v-17.65625c35.3125-35.308594 8.828124-123.585937 26.484374-141.238281 17.652344-17.65625 70.621094 35.308594 105.929688 35.308594s88.277344-52.964844 105.929688-35.308594c17.65625 17.652344-8.824219 105.929687 26.484374 141.238281zm0 0" fill="#fdd7ad"/><g fill="#2c2f38"><path d="m220.679688 256.242188c-4.917969-.113282-8.839844-4.148438-8.816407-9.070313 0-1.078125.5-26.480469 44.136719-26.480469s44.136719 25.402344 44.136719 26.480469c.015625 4.804687-3.8125 8.738281-8.613281 8.855469-4.804688.113281-8.816407-3.632813-9.03125-8.433594-.507813-3.238281-6.660157-9.25-26.492188-9.25-19.972656 0-26.070312 6.09375-26.503906 9.320312-.007813 2.3125-.945313 4.527344-2.605469 6.140626-1.65625 1.617187-3.894531 2.492187-6.210937 2.4375zm0 0"/><path d="m449.414062 70.621094c4.953126 12.445312 1.398438 26.664062-8.828124 35.308594 0 0 0 35.3125-17.65625 44.140624-.085938 15.140626-3.082032 30.125-8.828126 44.136719 0 0 17.480469 43.609375-25.6875 52.789063v-17.480469c-35.308593-35.308594-8.828124-123.585937-26.484374-141.238281-17.652344-17.65625-70.621094 35.308594-105.929688 35.308594s-88.277344-52.964844-105.929688-35.308594c-17.65625 17.652344 8.828126 105.929687-26.484374 141.238281v17.65625c-44.136719-8.828125-26.480469-52.964844-26.480469-52.964844-5.746094-14.011719-8.742188-28.996093-8.828125-44.136719-17.65625-8.828124-17.65625-44.140624-17.65625-44.140624-10.230469-8.644532-13.785156-22.863282-8.828125-35.308594-17.65625-17.65625-26.484375-70.621094-8.828125-70.621094s52.964844 17.65625 52.964844 17.65625c7.421874-6.136719 16.867187-9.285156 26.484374-8.828125 17.65625 0 35.308594 17.65625 35.308594 17.65625s17.65625-17.65625 35.3125-17.65625c11.292969.894531 21.316406 7.574219 26.480469 17.65625 5.140625-9.949219 14.984375-16.601563 26.132813-17.65625 11.128906 1.042969 20.949218 7.703125 26.039062 17.65625 5.167969-10.082031 15.191406-16.761719 26.484375-17.65625 17.65625 0 35.308594 17.65625 35.308594 17.65625s17.65625-17.65625 35.3125-17.65625c9.617187-.457031 19.0625 2.691406 26.480469 8.828125 0 0 35.3125-17.65625 52.964843-17.65625 17.65625 0 8.828125 52.964844-8.824219 70.621094zm0 0"/><path d="m158.898438 308.964844c-4.878907 0-8.828126-3.953125-8.828126-8.828125v-61.792969c0-4.875 3.949219-8.828125 8.828126-8.828125 4.875 0 8.824218 3.953125 8.824218 8.828125v61.792969c0 4.875-3.949218 8.828125-8.824218 8.828125zm0 0"/><path d="m194.207031 317.792969c-4.875 0-8.828125-3.953125-8.828125-8.828125v-35.308594c0-4.875 3.953125-8.828125 8.828125-8.828125s8.828125 3.953125 8.828125 8.828125v35.308594c0 4.875-3.953125 8.828125-8.828125 8.828125zm0 0"/><path d="m229.515625 317.792969c-4.875 0-8.824219-3.953125-8.824219-8.828125v-26.480469c0-4.875 3.949219-8.828125 8.824219-8.828125 4.878906 0 8.828125 3.953125 8.828125 8.828125v26.480469c0 4.875-3.949219 8.828125-8.828125 8.828125zm0 0"/><path d="m353.105469 308.964844c-4.878907 0-8.828125-3.953125-8.828125-8.828125v-61.792969c0-4.875 3.949218-8.828125 8.828125-8.828125 4.875 0 8.824219 3.953125 8.824219 8.828125v61.792969c0 4.875-3.949219 8.828125-8.824219 8.828125zm0 0"/><path d="m317.792969 317.792969c-4.875 0-8.828125-3.953125-8.828125-8.828125v-35.308594c0-4.875 3.953125-8.828125 8.828125-8.828125s8.828125 3.953125 8.828125 8.828125v35.308594c0 4.875-3.953125 8.828125-8.828125 8.828125zm0 0"/><path d="m282.484375 317.792969c-4.875 0-8.828125-3.953125-8.828125-8.828125v-26.480469c0-4.875 3.953125-8.828125 8.828125-8.828125s8.824219 3.953125 8.824219 8.828125v26.480469c0 4.875-3.949219 8.828125-8.824219 8.828125zm0 0"/></g><path d="m154.960938 460.488281-46.621094 31.03125 17.210937-83.15625 31.410157 39.261719c1.546874 1.933594 2.210937 4.425781 1.832031 6.875-.382813 2.445312-1.773438 4.617188-3.832031 5.988281zm0 0" fill="#f0c419"/><path d="m335.449219 512c-.867188-41.757812-6.792969-83.257812-17.65625-123.585938h-123.585938c-10.863281 40.328126-16.789062 81.828126-17.65625 123.585938zm0 0" fill="#f0c419"/><path d="m403.660156 491.519531-46.621094-31.027343c-2.058593-1.375-3.449218-3.546876-3.828124-5.992188-.382813-2.449219.28125-4.941406 1.828124-6.875l31.496094-39.347656zm0 0" fill="#f0c419"/><path d="m255.902344 405.957031c-2.296875.027344-4.507813-.863281-6.144532-2.472656-8.8125-5.03125-18.964843-7.210937-29.066406-6.242187h-61.792968c-4.878907 0-8.828126-3.953126-8.828126-8.828126s3.949219-8.828124 8.828126-8.828124h61.792968c12.167969-.554688 24.289063 1.871093 35.308594 7.0625 11.019531-5.191407 23.140625-7.617188 35.308594-7.0625h61.796875c4.875 0 8.824219 3.953124 8.824219 8.828124s-3.949219 8.828126-8.824219 8.828126h-61.796875c-21.578125 0-29.21875 6.386718-29.292969 6.457031-1.703125 1.457031-3.871094 2.261719-6.113281 2.257812zm0 0" fill="#2c2f38"/><path d="m231.214844 160.792969c-7.65625-4.613281-15.972656-8.03125-24.664063-10.132813-11.617187-3.160156-23.898437-2.910156-35.378906.710938 4.105469-14.941406 39.851563-11.179688 56.292969-3.96875 2.664062.859375 4.714844 2.996094 5.46875 5.6875.753906 2.695312.109375 5.585937-1.71875 7.703125zm0 0" fill="#2c2f38"/><path d="m229.515625 178.152344c0-10.453125-7.902344-18.921875-17.652344-18.921875s-17.65625 8.46875-17.65625 18.921875c0 10.449218 7.90625 18.921875 17.65625 18.921875s17.652344-8.472657 17.652344-18.921875zm0 0" fill="#2c2f38"/><path d="m216.8125 161.730469c-4.558594-1.730469-9.65625.558593-11.390625 5.113281-1.730469 4.558594.558594 9.65625 5.113281 11.390625 4.558594 1.734375 9.65625-.554687 11.390625-5.113281 1.730469-4.558594-.558593-9.65625-5.113281-11.390625zm0 0" fill="#fff"/><path d="m279.839844 162.644531c6.261718-8.242187 14.957031-14.304687 24.859375-17.320312 13.3125-3.550781 27.476562.945312 36.304687 11.527343-.136718-.132812.136719-2.945312.085938-3.386718-.144532-1.144532-.453125-2.257813-.917969-3.316406-1.039063-2.253907-2.566406-4.25-4.46875-5.839844-4.738281-3.847656-10.378906-6.429688-16.390625-7.496094-7.988281-1.804688-16.316406-1.394531-24.082031 1.195312-4.679688 1.613282-8.984375 4.152344-12.664063 7.460938-3.242187 2.96875-8.042968 8.429688-5.957031 13.40625.964844 1.347656 2.046875 2.609375 3.230469 3.769531zm0 0" fill="#2c2f38"/><path d="m317.792969 178.152344c0-10.453125-7.902344-18.921875-17.65625-18.921875-9.75 0-17.652344 8.46875-17.652344 18.921875 0 10.449218 7.902344 18.921875 17.652344 18.921875 9.753906 0 17.65625-8.472657 17.65625-18.921875zm0 0" fill="#2c2f38"/><path d="m306.578125 166.84375c-1.734375-4.554688-6.832031-6.84375-11.390625-5.113281-4.554688 1.734375-6.84375 6.832031-5.113281 11.390625 1.734375 4.554687 6.832031 6.84375 11.390625 5.113281 4.558594-1.734375 6.847656-6.832031 5.113281-11.390625zm0 0" fill="#fff"/></svg>