<svg height="512pt" viewBox="0 0 512.00027 512" width="512pt" xmlns="http://www.w3.org/2000/svg"><path d="m185.378906 264.828125h141.242188v79.449219h-141.242188zm0 0" fill="#f29c1f"/><path d="m220.691406 0h70.617188c4.878906 0 8.828125 3.953125 8.828125 8.828125v123.585937h-88.273438v-123.585937c0-4.875 3.949219-8.828125 8.828125-8.828125zm0 0" fill="#f29c1f"/><path d="m185.378906 35.308594h141.242188c34.128906 0 61.792968 27.667968 61.792968 61.796875v123.585937c0 34.125-27.664062 61.792969-61.792968 61.792969h-141.242188c-34.125 0-61.792968-27.667969-61.792968-61.792969v-123.585937c0-34.128907 27.667968-61.796875 61.792968-61.796875zm0 0" fill="#f0c419"/><path d="m308.964844 79.449219c0 29.25-23.710938 52.964843-52.964844 52.964843-29.25 0-52.964844-23.714843-52.964844-52.964843 0-29.253907 23.714844-52.964844 52.964844-52.964844 29.253906 0 52.964844 23.710937 52.964844 52.964844zm0 0" fill="#2c2f38"/><path d="m256 35.308594v44.140625h-44.136719c.007813-24.375 19.765625-44.128907 44.136719-44.140625zm0 0" fill="#f0c419"/><path d="m256 123.585938v-44.136719h44.136719c-.007813 24.371093-19.761719 44.128906-44.136719 44.136719zm0 0" fill="#f0c419"/><path d="m414.898438 512h97.101562v-7.855469c.015625-11.304687-1.347656-22.570312-4.0625-33.546875l-8.207031-59.761718c-9.523438-34.714844-41.429688-58.507813-77.417969-57.730469h-332.625c-35.988281-.777344-67.894531 23.015625-77.417969 57.730469l-8.207031 59.761718c-2.714844 10.976563-4.078125 22.242188-4.0625 33.546875v7.855469zm0 0" fill="#f3d55b"/><path d="m441.378906 512h-370.757812l29.90625-171.230469c3.0625-9.140625 11.988281-14.988281 21.589844-14.148437h267.820312c9.601562-.839844 18.53125 5.007812 21.589844 14.148437zm0 0" fill="#f0c419"/><path d="m229.515625 423.722656c0 29.253906-23.710937 52.96875-52.964844 52.96875-29.25 0-52.964843-23.714844-52.964843-52.96875 0-29.25 23.714843-52.964844 52.964843-52.964844 29.253907 0 52.964844 23.714844 52.964844 52.964844zm0 0" fill="#2c2f38"/><path d="m220.691406 423.722656h-44.140625v-44.136718c24.375.007812 44.128907 19.765624 44.140625 44.136718zm0 0" fill="#f0c419"/><path d="m132.414062 423.722656h44.136719v44.140625c-24.371093-.011719-44.128906-19.765625-44.136719-44.140625zm0 0" fill="#f0c419"/><path d="m388.414062 423.722656c0 29.253906-23.714843 52.96875-52.964843 52.96875-29.253907 0-52.964844-23.714844-52.964844-52.96875 0-29.25 23.710937-52.964844 52.964844-52.964844 29.25 0 52.964843 23.714844 52.964843 52.964844zm0 0" fill="#2c2f38"/><path d="m335.449219 379.585938v44.136718h-44.140625c.011718-24.371094 19.765625-44.128906 44.140625-44.136718zm0 0" fill="#f0c419"/><path d="m335.449219 467.863281v-44.140625h44.136719c-.007813 24.375-19.765626 44.128906-44.136719 44.140625zm0 0" fill="#f0c419"/><g fill="#2c2f38"><path d="m297.734375 245.449219c-7.128906-13.957031-29.394531-15.933594-41.558594-15.933594-12.1875 0-34.421875 1.976563-41.554687 15.933594 13.601562-3.351563 27.546875-5.097657 41.554687-5.207031 14.007813.105468 27.957031 1.855468 41.558594 5.207031zm0 0"/><path d="m232.878906 142.027344c-8.390625-3.085938-17.199218-4.871094-26.128906-5.296875-12.003906-.90625-24.015625 1.652343-34.605469 7.378906 1.207031-15.449219 37.023438-18.503906 54.53125-14.53125 2.777344.347656 5.191407 2.058594 6.441407 4.5625 1.246093 2.5 1.15625 5.460937-.238282 7.886719zm0 0"/><path d="m229.515625 169.324219c0-10.449219-7.902344-18.921875-17.652344-18.921875s-17.65625 8.472656-17.65625 18.921875 7.90625 18.921875 17.65625 18.921875 17.652344-8.472656 17.652344-18.921875zm0 0"/></g><path d="m216.8125 152.902344c-4.558594-1.730469-9.65625.558594-11.390625 5.113281-1.730469 4.558594.558594 9.65625 5.113281 11.390625 4.558594 1.734375 9.65625-.554688 11.390625-5.113281 1.730469-4.554688-.558593-9.65625-5.113281-11.390625zm0 0" fill="#fff"/><path d="m279.121094 142.027344c8.390625-3.085938 17.203125-4.871094 26.128906-5.296875 12.003906-.90625 24.015625 1.652343 34.605469 7.378906-1.207031-15.449219-37.023438-18.503906-54.53125-14.53125-2.773438.347656-5.191407 2.058594-6.441407 4.5625-1.246093 2.5-1.15625 5.460937.238282 7.886719zm0 0" fill="#2c2f38"/><path d="m317.792969 169.324219c0-10.449219-7.902344-18.921875-17.65625-18.921875-9.75 0-17.652344 8.472656-17.652344 18.921875s7.902344 18.921875 17.652344 18.921875c9.753906 0 17.65625-8.472656 17.65625-18.921875zm0 0" fill="#2c2f38"/><path d="m306.578125 158.015625c-1.734375-4.554687-6.832031-6.84375-11.390625-5.113281-4.554688 1.734375-6.84375 6.832031-5.113281 11.390625 1.734375 4.558593 6.832031 6.847656 11.390625 5.113281s6.847656-6.832031 5.113281-11.390625zm0 0" fill="#fff"/></svg>