<svg height="512pt" viewBox="0 -1 512.00027 512" width="512pt" xmlns="http://www.w3.org/2000/svg"><path d="m123.585938 245.878906c-105.929688-123.585937-26.480469-158.894531-26.480469-158.894531 8.03125-24.011719 16.945312-59.324219 45.371093-66.472656 7.804688-1.695313 15.914063-1.390625 23.570313.882812.792969.175781 10.238281 4.058594 10.503906 3.796875 26.484375-26.484375 44.140625-17.65625 44.140625-17.65625 4.609375-4.8125 10.988282-7.535156 17.652344-7.535156 6.667969 0 13.042969 2.722656 17.65625 7.535156 4.613281-4.8125 10.988281-7.535156 17.65625-7.535156 6.664062 0 13.042969 2.722656 17.652344 7.535156 0 0 17.65625-8.828125 44.140625 17.65625 21.03125-10.984375 46.976562-3.527344 58.96875 16.949219 5.476562 8.144531 9.898437 16.953125 13.152343 26.214844 1.675782 4.679687 2.292969 16.332031 7.328126 18.628906.261718.085937 79.269531 35.484375-26.484376 158.894531zm0 0" fill="#cb8252"/><path d="m185.378906 281.191406h141.242188v97.101563h-141.242188zm0 0" fill="#f9c795"/><path d="m414.898438 510.707031h97.101562v-7.855469c.015625-11.304687-1.347656-22.570312-4.0625-33.546874l-8.207031-33.277344c-9.523438-34.714844-41.429688-58.511719-77.417969-57.734375h-332.625c-35.988281-.777344-67.894531 23.019531-77.417969 57.734375l-8.207031 33.277344c-2.714844 10.976562-4.078125 22.242187-4.0625 33.546874v7.855469zm0 0" fill="#fdd7ad"/><path d="m441.378906 510.707031h-370.757812l29.90625-144.746093c3.0625-9.140626 11.988281-14.992188 21.589844-14.152344h267.820312c9.601562-.839844 18.53125 5.011718 21.589844 14.152344zm0 0" fill="#35495e"/><path d="m388.414062 201.742188v44.136718c.011719 16.394532-6.496093 32.117188-18.085937 43.707032-11.589844 11.59375-27.316406 18.097656-43.707031 18.085937h-141.242188c-16.390625.011719-32.117187-6.492187-43.707031-18.085937-11.589844-11.589844-18.097656-27.3125-18.085937-43.707032v-44.136718s26.484374-17.65625 26.484374-44.136719c0-26.484375 0-61.796875 44.136719-61.796875 35.308594 0 26.484375-8.824219 61.792969-8.824219s26.484375 8.824219 61.792969 8.824219c44.136719 0 44.136719 35.3125 44.136719 61.796875 0 26.480469 26.484374 44.136719 26.484374 44.136719zm0 0" fill="#fdd7ad"/><g fill="#cb8252"><path d="m158.898438 307.671875c-4.878907 0-8.828126-3.953125-8.828126-8.828125v-61.792969c0-4.875 3.949219-8.828125 8.828126-8.828125 4.875 0 8.824218 3.953125 8.824218 8.828125v61.792969c0 4.875-3.949218 8.828125-8.824218 8.828125zm0 0"/><path d="m194.207031 316.5c-4.875 0-8.828125-3.953125-8.828125-8.828125v-35.308594c0-4.875 3.953125-8.828125 8.828125-8.828125s8.828125 3.953125 8.828125 8.828125v35.308594c0 4.875-3.953125 8.828125-8.828125 8.828125zm0 0"/><path d="m229.515625 316.5c-4.875 0-8.824219-3.953125-8.824219-8.828125v-26.480469c0-4.875 3.949219-8.828125 8.824219-8.828125 4.878906 0 8.828125 3.953125 8.828125 8.828125v26.480469c0 4.875-3.949219 8.828125-8.828125 8.828125zm0 0"/><path d="m353.105469 307.671875c-4.878907 0-8.828125-3.953125-8.828125-8.828125v-61.792969c0-4.875 3.949218-8.828125 8.828125-8.828125 4.875 0 8.824219 3.953125 8.824219 8.828125v61.792969c0 4.875-3.949219 8.828125-8.824219 8.828125zm0 0"/><path d="m317.792969 316.5c-4.875 0-8.828125-3.953125-8.828125-8.828125v-35.308594c0-4.875 3.953125-8.828125 8.828125-8.828125s8.828125 3.953125 8.828125 8.828125v35.308594c0 4.875-3.953125 8.828125-8.828125 8.828125zm0 0"/><path d="m282.484375 316.5c-4.875 0-8.828125-3.953125-8.828125-8.828125v-26.480469c0-4.875 3.953125-8.828125 8.828125-8.828125s8.824219 3.953125 8.824219 8.828125v26.480469c0 4.875-3.949219 8.828125-8.824219 8.828125zm0 0"/></g><path d="m220.691406 466.570312c0 24.375-19.761718 44.136719-44.140625 44.136719-24.375 0-44.136719-19.761719-44.136719-44.136719 0-24.378906 19.761719-44.140624 44.136719-44.140624 24.378907 0 44.140625 19.761718 44.140625 44.140624zm0 0" fill="#67b9cc"/><path d="m211.863281 466.570312c0 19.5-15.808593 35.308594-35.3125 35.308594-19.5 0-35.308593-15.808594-35.308593-35.308594 0-19.503906 15.808593-35.3125 35.308593-35.3125 19.503907 0 35.3125 15.808594 35.3125 35.3125zm0 0" fill="#9fc9d3"/><path d="m379.585938 466.570312c0 24.375-19.761719 44.136719-44.136719 44.136719-24.378907 0-44.140625-19.761719-44.140625-44.136719 0-24.378906 19.761718-44.140624 44.140625-44.140624 24.375 0 44.136719 19.761718 44.136719 44.140624zm0 0" fill="#67b9cc"/><path d="m256 422.429688c-4.875 0-8.828125-3.949219-8.828125-8.824219 0-12.476563-34.5-17.65625-52.964844-17.65625-4.875 0-8.828125-3.953125-8.828125-8.828125s3.953125-8.828125 8.828125-8.828125c5.542969 0 44.101563.585937 61.792969 16.332031 17.691406-15.746094 56.25-16.332031 61.792969-16.332031 4.875-.003907 8.828125 3.949219 8.832031 8.824219s-3.949219 8.828124-8.824219 8.832031c-22.207031.023437-52.972656 6.171875-52.972656 17.65625 0 4.875-3.953125 8.824219-8.828125 8.824219zm0 0" fill="#95a5a5"/><path d="m370.757812 466.570312c0 19.5-15.808593 35.308594-35.308593 35.308594-19.503907 0-35.3125-15.808594-35.3125-35.308594 0-19.503906 15.808593-35.3125 35.3125-35.3125 19.5 0 35.308593 15.808594 35.308593 35.3125zm0 0" fill="#9fc9d3"/><path d="m194.207031 466.570312c0 9.75-7.90625 17.652344-17.65625 17.652344s-17.652343-7.902344-17.652343-17.652344 7.902343-17.65625 17.652343-17.65625 17.65625 7.90625 17.65625 17.65625zm0 0" fill="#fff"/><path d="m353.105469 466.570312c0 9.75-7.90625 17.652344-17.65625 17.652344s-17.65625-7.902344-17.65625-17.652344 7.90625-17.65625 17.65625-17.65625 17.65625 7.90625 17.65625 17.65625zm0 0" fill="#fff"/><path d="m301.242188 258.289062c-4.867188-15.023437-27.769532-22.402343-40.171876-24.574218-12.425781-2.175782-35.441406-4.203125-45.121093 8.273437 14.464843-.871093 28.980469-.101562 43.273437 2.289063 14.480469 3.109375 28.570313 7.808594 42.019532 14.011718zm0 0" fill="#2c2f38"/><path d="m231.214844 155.085938c-7.65625-4.613282-15.972656-8.03125-24.664063-10.132813-11.617187-3.15625-23.898437-2.910156-35.378906.714844 4.105469-14.945313 39.851563-11.183594 56.292969-3.972657 2.664062.859376 4.714844 2.996094 5.46875 5.6875.753906 2.695313.109375 5.585938-1.71875 7.703126zm0 0" fill="#cb8252"/><path d="m229.515625 172.445312c0-10.453124-7.902344-18.921874-17.652344-18.921874s-17.65625 8.46875-17.65625 18.921874c0 10.449219 7.90625 18.921876 17.65625 18.921876s17.652344-8.472657 17.652344-18.921876zm0 0" fill="#2c2f38"/><path d="m216.8125 156.023438c-4.558594-1.730469-9.65625.558593-11.390625 5.113281-1.734375 4.558593.554687 9.65625 5.113281 11.390625 4.558594 1.730468 9.65625-.558594 11.390625-5.113282 1.730469-4.558593-.558593-9.65625-5.113281-11.390624zm0 0" fill="#fff"/><path d="m279.839844 156.9375c6.261718-8.242188 14.957031-14.304688 24.859375-17.320312 13.3125-3.550782 27.476562.949218 36.304687 11.527343-.136718-.132812.136719-2.945312.085938-3.386719-.144532-1.140624-.453125-2.257812-.917969-3.316406-1.039063-2.253906-2.566406-4.25-4.46875-5.839844-4.738281-3.847656-10.378906-6.429687-16.390625-7.496093-7.988281-1.804688-16.316406-1.390625-24.082031 1.195312-4.679688 1.613281-8.984375 4.152344-12.664063 7.460938-3.242187 2.96875-8.042968 8.429687-5.957031 13.40625.964844 1.347656 2.046875 2.609375 3.230469 3.769531zm0 0" fill="#cb8252"/><path d="m317.792969 172.445312c0-10.453124-7.902344-18.921874-17.65625-18.921874-9.75 0-17.652344 8.46875-17.652344 18.921874 0 10.449219 7.902344 18.921876 17.652344 18.921876 9.753906 0 17.65625-8.472657 17.65625-18.921876zm0 0" fill="#2c2f38"/><path d="m306.578125 161.136719c-1.734375-4.554688-6.832031-6.84375-11.390625-5.113281-4.554688 1.734374-6.84375 6.832031-5.113281 11.390624 1.734375 4.554688 6.835937 6.84375 11.390625 5.113282 4.558594-1.734375 6.847656-6.832032 5.113281-11.390625zm0 0" fill="#fff"/></svg>