<svg height="512pt" viewBox="0 0 512.00027 512" width="512pt" xmlns="http://www.w3.org/2000/svg"><path d="m220.691406 0h70.617188c4.878906 0 8.828125 3.953125 8.828125 8.828125v44.136719h-88.273438v-44.136719c0-4.875 3.949219-8.828125 8.828125-8.828125zm0 0" fill="#f29c1f"/><path d="m185.378906 256h141.242188v97.105469h-141.242188zm0 0" fill="#f29c1f"/><path d="m414.898438 512h97.101562v-7.855469c.015625-11.304687-1.347656-22.570312-4.0625-33.546875l-8.207031-59.761718c-9.523438-34.714844-41.429688-58.507813-77.417969-57.730469h-332.625c-35.988281-.777344-67.894531 23.015625-77.417969 57.730469l-8.207031 59.761718c-2.714844 10.976563-4.078125 22.242188-4.0625 33.546875v7.855469zm0 0" fill="#c03a2b"/><path d="m441.378906 512h-370.757812l29.90625-171.230469c3.0625-9.140625 11.988281-14.988281 21.589844-14.148437h267.820312c9.601562-.839844 18.53125 5.007812 21.589844 14.148437zm0 0" fill="#e64c3c"/><path d="m185.378906 35.308594h141.242188c34.128906 0 61.792968 27.667968 61.792968 61.796875v123.585937c0 34.125-27.664062 61.792969-61.792968 61.792969h-141.242188c-34.125 0-61.792968-27.667969-61.792968-61.792969v-123.585937c0-34.128907 27.667968-61.796875 61.792968-61.796875zm0 0" fill="#f0c419"/><g fill="#2c2f38"><path d="m297.734375 207.449219c-7.132813 13.957031-29.398437 15.929687-41.558594 15.929687-12.1875 0-34.421875-1.972656-41.554687-15.929687 13.601562 3.351562 27.546875 5.097656 41.554687 5.207031 14.007813-.109375 27.957031-1.855469 41.558594-5.207031zm0 0"/><path d="m232.878906 115.542969c-8.390625-3.082031-17.199218-4.871094-26.128906-5.296875-12.003906-.90625-24.015625 1.65625-34.605469 7.378906 1.207031-15.449219 37.023438-18.5 54.53125-14.527344 2.777344.34375 5.191407 2.054688 6.441407 4.558594 1.246093 2.503906 1.15625 5.464844-.238282 7.886719zm0 0"/><path d="m229.515625 142.839844c0-10.449219-7.902344-18.921875-17.652344-18.921875s-17.65625 8.472656-17.65625 18.921875c0 10.453125 7.90625 18.925781 17.65625 18.925781s17.652344-8.472656 17.652344-18.925781zm0 0"/></g><path d="m216.8125 126.421875c-4.558594-1.734375-9.65625.554687-11.390625 5.113281-1.730469 4.554688.558594 9.65625 5.113281 11.386719 4.558594 1.734375 9.65625-.554687 11.390625-5.109375 1.730469-4.558594-.558593-9.65625-5.113281-11.390625zm0 0" fill="#fff"/><path d="m279.121094 115.542969c8.390625-3.082031 17.203125-4.871094 26.128906-5.296875 12.003906-.90625 24.015625 1.65625 34.605469 7.378906-1.207031-15.449219-37.023438-18.5-54.53125-14.527344-2.773438.34375-5.191407 2.054688-6.441407 4.558594-1.246093 2.503906-1.15625 5.464844.238282 7.886719zm0 0" fill="#2c2f38"/><path d="m317.792969 142.839844c0-10.449219-7.902344-18.921875-17.65625-18.921875-9.75 0-17.652344 8.472656-17.652344 18.921875 0 10.453125 7.902344 18.925781 17.652344 18.925781 9.753906 0 17.65625-8.472656 17.65625-18.925781zm0 0" fill="#2c2f38"/><path d="m306.578125 131.535156c-1.734375-4.558594-6.832031-6.847656-11.390625-5.113281-4.554688 1.730469-6.84375 6.832031-5.113281 11.386719 1.734375 4.558594 6.832031 6.847656 11.390625 5.113281 4.558594-1.730469 6.847656-6.832031 5.113281-11.386719zm0 0" fill="#fff"/></svg>