<svg height="512pt" viewBox="0 0 512.00027 512" width="512pt" xmlns="http://www.w3.org/2000/svg"><path d="m512 504.144531v7.855469h-512v-7.855469c-.015625-11.304687 1.347656-22.570312 4.0625-33.546875l8.207031-24.453125c9.523438-34.710937 41.429688-58.507812 77.417969-57.730469h332.625c35.988281-.777343 67.894531 23.019532 77.417969 57.730469l8.207031 24.453125c2.714844 10.976563 4.078125 22.242188 4.0625 33.546875zm0 0" fill="#bdc3c7"/><path d="m441.378906 512h-370.757812l27.1875-123.585938 2.738281-12.359374c3.046875-9.125 11.957031-14.964844 21.539063-14.125h63.648437l5.207031 17.65625 2.558594 8.828124 9.886719 33.542969 29.398437-33.542969 23.214844-26.484374 23.214844 26.484374 29.398437 33.542969 9.886719-33.542969 2.558594-8.828124 5.210937-17.65625h63.644531c9.605469-.84375 18.539063 4.992187 21.628907 14.125l2.734375 12.359374zm0 0" fill="#95a5a5"/><path d="m300.136719 512h-79.445313l-35.3125-132.414062 52.964844-8.828126h61.792969l26.484375 44.140626zm0 0" fill="#d1d4d1"/><path d="m185.378906 300.136719h141.242188v79.449219h-141.242188zm0 0" fill="#f29c1f"/><path d="m388.414062 247.171875v8.828125c.011719 16.390625-6.496093 32.117188-18.085937 43.707031-11.589844 11.589844-27.316406 18.097657-43.707031 18.085938h-141.242188c-16.390625.011719-32.117187-6.496094-43.707031-18.085938-11.589844-11.589843-18.097656-27.316406-18.085937-43.707031v-176.550781h264.828124zm0 0" fill="#f0c419"/><path d="m423.722656 61.792969v167.722656c0 9.753906-7.902344 17.65625-17.652344 17.65625h-17.65625c-9.75 0-17.65625-7.902344-17.65625-17.65625v-79.445313c0-29.253906-23.710937-52.964843-52.964843-52.964843h-123.585938c-29.253906 0-52.964843 23.710937-52.964843 52.964843v79.445313c0 9.753906-7.90625 17.65625-17.65625 17.65625h-17.65625c-9.75 0-17.652344-7.902344-17.652344-17.65625v-158.894531c0-9.75 7.902344-17.65625 17.652344-17.65625h79.449218c4.875 0 8.828125-3.953125 8.828125-8.828125v-35.308594c0-4.875 3.953125-8.828125 8.828125-8.828125h105.929688c4.875 0 8.828125 3.953125 8.828125 8.828125v26.480469c0 4.878906 3.953125 8.828125 8.828125 8.828125h79.449218c9.75 0 17.652344 7.90625 17.652344 17.65625zm0 0" fill="#f18d46"/><path d="m229.871094 391.769531c1.621094 8.28125 8.863281 14.265625 17.300781 14.300781h17.65625c8.4375-.035156 15.679687-6.019531 17.300781-14.300781l.355469-29.839843h-52.96875zm0 0" fill="#c03a2b"/><path d="m291.308594 512h-70.617188l4.234375-16.859375 22.246094-89.070313h17.65625l22.246094 89.070313zm0 0" fill="#e64c3c"/><path d="m256 361.929688-52.613281 60.027343-12.445313-42.371093-5.207031-17.65625zm0 0" fill="#ecf0f1"/><path d="m326.269531 361.929688-5.210937 17.65625-12.445313 42.371093-52.613281-60.027343zm0 0" fill="#ecf0f1"/><path d="m229.515625 512h-23.214844l-70.445312-54.820312c-2.425781-1.847657-3.730469-4.816407-3.441407-7.855469.351563-2.988281 2.171876-5.605469 4.855469-6.972657l6.707031-3.355468-17.832031-17.832032c-2.367187-2.386718-3.1875-5.90625-2.117187-9.09375l7.855468-23.65625 8.828126-26.484374h18.1875c-.011719.960937-.160157 1.910156-.441407 2.828124l-7.945312 23.65625-8.035157 24.097657 22.6875 22.601562c1.976563 2.035157 2.890626 4.875 2.472657 7.679688-.460938 2.789062-2.234375 5.1875-4.769531 6.441406l-5.117188 2.5625 46.785156 36.457031-29.394531-99.839844-7.0625-24.011718c-.246094-.800782-.367187-1.632813-.355469-2.472656h17.65625v-1.234376l.355469 1.234376 5.207031 17.65625 2.558594 8.828124 9.886719 33.542969v.089844l21.539062 73.09375 4.238281 14.386719c.253907.800781.371094 1.636718.351563 2.472656zm0 0" fill="#606060"/><path d="m385.855469 421.164062-17.832031 17.832032 6.707031 3.355468c2.683593 1.367188 4.503906 3.984376 4.855469 6.972657.289062 3.039062-1.015626 6.007812-3.441407 7.855469l-70.445312 54.820312h-23.214844c-.019531-.835938.097656-1.671875.351563-2.472656l4.238281-14.386719 21.539062-73.09375v-.089844l9.886719-33.542969 2.558594-8.828124 5.210937-17.65625.351563-1.234376v1.234376h17.65625c.011718.839843-.109375 1.671874-.355469 2.472656l-7.0625 24.011718-29.394531 99.839844 46.785156-36.457031-5.117188-2.5625c-2.535156-1.253906-4.308593-3.652344-4.769531-6.441406-.414062-2.804688.496094-5.644531 2.472657-7.679688l22.6875-22.601562-8.035157-24.097657-7.941406-23.65625c-.285156-.917968-.433594-1.867187-.441406-2.828124h18.183593l8.828126 26.484374 7.855468 23.65625c1.070313 3.1875.25 6.707032-2.117187 9.09375zm0 0" fill="#606060"/><g fill="#2c2f38"><path d="m301.242188 237.792969c-4.867188 15.023437-27.769532 22.40625-40.171876 24.578125-12.425781 2.175781-35.441406 4.199218-45.121093-8.277344 14.464843.871094 28.980469.101562 43.273437-2.289062 14.480469-3.109376 28.570313-7.808594 42.019532-14.011719zm0 0"/><path d="m231.214844 165.207031c-7.65625-4.613281-15.972656-8.03125-24.664063-10.132812-11.617187-3.160157-23.898437-2.910157-35.378906.710937 4.105469-14.941406 39.851563-11.179687 56.292969-3.972656 2.664062.863281 4.714844 3 5.46875 5.691406.753906 2.695313.109375 5.585938-1.71875 7.703125zm0 0"/><path d="m229.515625 182.566406c0-10.453125-7.902344-18.925781-17.652344-18.925781s-17.65625 8.472656-17.65625 18.925781c0 10.449219 7.90625 18.921875 17.65625 18.921875s17.652344-8.472656 17.652344-18.921875zm0 0"/></g><path d="m216.8125 166.144531c-4.558594-1.734375-9.65625.554688-11.390625 5.113281-1.734375 4.558594.554687 9.65625 5.113281 11.390626 4.558594 1.730468 9.65625-.558594 11.390625-5.113282 1.730469-4.558594-.558593-9.65625-5.113281-11.390625zm0 0" fill="#fff"/><path d="m279.839844 167.058594c6.261718-8.242188 14.957031-14.304688 24.859375-17.320313 13.3125-3.550781 27.476562.945313 36.304687 11.527344-.136718-.132813.136719-2.945313.085938-3.386719-.144532-1.144531-.453125-2.261718-.917969-3.316406-1.039063-2.253906-2.566406-4.25-4.46875-5.839844-4.738281-3.847656-10.378906-6.429687-16.390625-7.496094-7.988281-1.804687-16.316406-1.394531-24.082031 1.195313-4.679688 1.613281-8.984375 4.152344-12.664063 7.460937-3.242187 2.96875-8.042968 8.429688-5.957031 13.40625.964844 1.347657 2.046875 2.609376 3.230469 3.769532zm0 0" fill="#2c2f38"/><path d="m317.792969 182.566406c0-10.453125-7.902344-18.925781-17.65625-18.925781-9.75 0-17.652344 8.472656-17.652344 18.925781 0 10.449219 7.902344 18.921875 17.652344 18.921875 9.753906 0 17.65625-8.472656 17.65625-18.921875zm0 0" fill="#2c2f38"/><path d="m306.578125 171.257812c-1.734375-4.554687-6.832031-6.84375-11.390625-5.113281-4.554688 1.734375-6.84375 6.832031-5.113281 11.390625 1.734375 4.554688 6.835937 6.84375 11.390625 5.113282 4.558594-1.734376 6.847656-6.832032 5.113281-11.390626zm0 0" fill="#fff"/></svg>