<svg height="512pt" viewBox="0 0 512 512.04014" width="512pt" xmlns="http://www.w3.org/2000/svg"><path d="m185.398438 300.179688h141.242187v79.445312h-141.242187zm0 0" fill="#f29c1f"/><path d="m388.433594 61.832031v194.207031c.011718 16.394532-6.492188 32.117188-18.085938 43.707032-11.589844 11.59375-27.316406 18.097656-43.707031 18.085937h-141.242187c-16.390626.011719-32.117188-6.492187-43.707032-18.085937-11.589844-11.589844-18.097656-27.3125-18.085937-43.707032v-185.378906zm0 0" fill="#f0c419"/><path d="m414.917969 512.039062h97.101562v-7.855468c.015625-11.304688-1.347656-22.570313-4.058593-33.542969l-8.210938-24.453125c-9.523438-34.714844-41.429688-58.507812-77.417969-57.734375h-332.625c-35.988281-.773437-67.894531 23.019531-77.417969 57.734375l-8.207031 24.453125c-2.714843 10.972656-4.07812475 22.238281-4.0624998 33.542969v7.855468zm0 0" fill="#2c3e50"/><path d="m441.398438 512.039062h-370.757813l29.925781-135.945312c3.046875-9.125 11.957032-14.964844 21.539063-14.121094 0 0 36.8125 8.824219 45.640625 44.136719 8.121094 32.398437 45.988281 42.546875 79.445312 43.960937 3.003906.089844 5.914063.175782 8.828125.175782 2.914063 0 5.828125-.085938 8.828125-.175782 33.457032-1.414062 71.328125-11.5625 79.449219-43.960937 8.828125-35.3125 45.636719-44.136719 45.636719-44.136719 9.605468-.84375 18.539062 4.988282 21.628906 14.121094zm0 0" fill="#35495e"/><path d="m256.019531 450.246094c-35.308593 0-79.449219-8.828125-88.273437-44.136719-8.828125-35.3125-45.640625-44.136719-45.640625-44.136719h98.605469s8.828124 88.273438 35.308593 88.273438zm0 0" fill="#2c2f38"/><path d="m389.933594 361.972656s-36.808594 8.824219-45.636719 44.136719c-8.828125 35.308594-52.964844 44.136719-88.277344 44.136719 26.484375 0 35.3125-88.273438 35.3125-88.273438zm0 0" fill="#2c2f38"/><path d="m317.8125 361.972656s-35.308594 88.273438-61.792969 88.273438c-26.480469 0-61.792969-88.273438-61.792969-88.273438zm0 0" fill="#f0c419"/><path d="m411.472656 104.910156c12.183594 1.0625 25.425782 5.476563 47.582032 9.886719 44.136718 8.828125 52.964843-52.964844 52.964843-52.964844-61.792969 0-35.308593-61.7929685-97.101562-61.7929685-24.730469-.7734375-48.480469 9.6757815-64.621094 28.4257815zm0 0" fill="#2c2f38"/><path d="m264.847656 450.070312v61.96875h-17.65625v-61.96875c3.003906.089844 5.914063.175782 8.828125.175782 2.914063 0 5.828125-.085938 8.828125-.175782zm0 0" fill="#bdc3c7"/><path d="m150.089844 512.039062h-35.3125c-5.761719-7.621093-8.863282-16.925781-8.824219-26.480468 0-4.875 3.949219-8.828125 8.824219-8.828125s8.828125 3.953125 8.828125 8.828125c.042969 14.605468 11.875 26.4375 26.484375 26.480468zm0 0" fill="#67b9cc"/><path d="m406.089844 485.558594c.039062 9.554687-3.0625 18.859375-8.828125 26.480468h-35.308594c14.605469-.042968 26.4375-11.875 26.480469-26.480468 0-4.875 3.953125-8.828125 8.828125-8.828125s8.828125 3.953125 8.828125 8.828125zm0 0" fill="#cc66a1"/><path d="m388.433594 238.386719c-35.308594 0-44.136719-132.414063-52.964844-132.414063s-17.65625 26.480469-79.449219 26.480469-97.101562 52.964844-105.929687 79.449219-17.65625 35.308594-26.484375 35.308594c-8.5625 0-15.09375-4.148438-19.417969-20.566407-2.484375-10.082031-4.078125-20.359375-4.769531-30.71875-.792969-8.917969-1.324219-19.246093-1.765625-31.339843-.265625-9.003907-.441406-18.980469-.441406-29.925782v-.085937c-.085938-3.53125-.085938-7.152344-.085938-10.949219 0-105.929688 123.585938-105.929688 158.894531-105.929688 35.3125 0 114.757813 0 141.242188 44.136719 26.484375 44.140625 26.484375 176.554688-8.828125 176.554688zm0 0" fill="#35495e"/><path d="m293.800781 79.839844c.472657 2.308594 0 4.707031-1.3125 6.664062-1.308593 1.957032-3.347656 3.308594-5.660156 3.753906-1.5.265626-139.300781 28.691407-182.640625 136.386719-2.484375-10.082031-4.078125-20.359375-4.769531-30.71875 55.171875-96.574219 178.230469-121.820312 183.96875-122.96875 4.765625-.914062 9.390625 2.140625 10.414062 6.882813zm0 0" fill="#67b9cc"/><path d="m246.75 56.273438c-1.144531.351562-99.574219 30.277343-149.097656 108.3125-.265625-9.003907-.441406-18.980469-.441406-29.925782v-.085937c54.554687-67.972657 139.917968-93.75 144.597656-95.164063 4.652344-1.347656 9.523437 1.285156 10.945312 5.914063.699219 2.25.457032 4.683593-.675781 6.75-1.132813 2.0625-3.054687 3.578125-5.328125 4.199219zm0 0" fill="#cc66a1"/><g fill="#2c2f38"><path d="m297.753906 269.28125c-7.132812 13.957031-29.398437 15.933594-41.558594 15.933594-12.1875 0-34.421874-1.976563-41.554687-15.933594 13.601563 3.351562 27.546875 5.097656 41.554687 5.207031 14.007813-.105469 27.957032-1.855469 41.558594-5.207031zm0 0"/><path d="m232.898438 177.375c-8.390626-3.082031-17.199219-4.867188-26.128907-5.292969-12.003906-.910156-24.015625 1.652344-34.605469 7.378907 1.207032-15.449219 37.023438-18.503907 54.53125-14.53125 2.777344.34375 5.195313 2.058593 6.441407 4.558593 1.246093 2.503907 1.15625 5.464844-.238281 7.886719zm0 0"/><path d="m279.140625 177.375c8.390625-3.082031 17.203125-4.867188 26.128906-5.292969 12.003907-.910156 24.015625 1.652344 34.605469 7.378907-1.207031-15.449219-37.023438-18.503907-54.53125-14.53125-2.773438.34375-5.191406 2.058593-6.4375 4.558593-1.25 2.503907-1.160156 5.464844.234375 7.886719zm0 0"/><path d="m184.160156 191.9375s2.511719 11.277344 12.238282 9.078125c9.722656-2.199219 11.578124 2.023437 19.957031 1.347656 2.867187-.195312 5.746093-.019531 8.566406.523438 2.003906.464843 4.082031.5 6.101563.101562 2.789062-.746093 2.550781-3.992187 1.574218-6.097656-3.878906-8.359375-14.789062-8.972656-22.769531-8.042969-3.386719.917969-6.828125 1.609375-10.304687 2.074219-3.640626-1.007813-7.035157-2.753906-9.976563-5.125.636719 2.265625.792969 4.640625.449219 6.972656-1.007813 1.917969-5.835938-.832031-5.835938-.832031zm0 0"/><path d="m229.539062 209.089844c0-10.453125-7.90625-18.925782-17.65625-18.925782s-17.65625 8.472657-17.65625 18.925782c0 10.449218 7.90625 18.921875 17.65625 18.921875s17.65625-8.472657 17.65625-18.921875zm0 0"/></g><path d="m216.832031 192.667969c-4.558593-1.734375-9.65625.554687-11.390625 5.113281-1.730468 4.554688.558594 9.65625 5.113282 11.386719 4.558593 1.734375 9.65625-.554688 11.390624-5.109375 1.730469-4.558594-.558593-9.65625-5.113281-11.390625zm0 0" fill="#fff"/><path d="m327.875 191.9375s-2.511719 11.277344-12.238281 9.078125c-9.722657-2.199219-11.578125 2.023437-19.957031 1.347656-2.867188-.195312-5.746094-.019531-8.566407.523438-2.003906.464843-4.082031.5-6.101562.101562-2.792969-.746093-2.550781-3.992187-1.574219-6.097656 3.878906-8.359375 14.789062-8.972656 22.769531-8.042969 3.386719.917969 6.828125 1.609375 10.304688 2.074219 3.640625-1.007813 7.035156-2.753906 9.976562-5.125-.636719 2.265625-.792969 4.640625-.449219 6.972656 1.011719 1.917969 5.835938-.832031 5.835938-.832031zm0 0" fill="#2c2f38"/><path d="m317.8125 209.089844c0-10.453125-7.90625-18.925782-17.65625-18.925782s-17.65625 8.472657-17.65625 18.925782c0 10.449218 7.90625 18.921875 17.65625 18.921875s17.65625-8.472657 17.65625-18.921875zm0 0" fill="#2c2f38"/><path d="m306.59375 197.78125c-1.730469-4.558594-6.832031-6.847656-11.386719-5.113281-4.558593 1.734375-6.847656 6.832031-5.113281 11.390625 1.730469 4.554687 6.832031 6.84375 11.386719 5.109375 4.558593-1.730469 6.847656-6.832031 5.113281-11.386719zm0 0" fill="#fff"/></svg>