<svg height="512pt" viewBox="0 0 512 512" width="512pt" xmlns="http://www.w3.org/2000/svg"><path d="m350.191406 180.523438c-30.964844 28.300781-66.324218 51.378906-104.695312 68.328124-31.804688-25.222656-57.964844-56.828124-76.800782-92.78125v-.085937c4.5-12.625 26.042969-63.558594 91.984376-109.023437 61.96875 55.527343 82.800781 109.199218 89.511718 133.5625zm0 0" fill="#14a085"/><path d="m239.558594 160.496094c0-16.394532-12.398438-29.683594-27.695313-29.683594s-27.699219 13.289062-27.699219 29.683594c0 16.394531 12.402344 29.683594 27.699219 29.683594s27.695313-13.289063 27.695313-29.683594zm0 0" fill="#2c2f38"/><path d="m328.113281 160.496094c0-16.558594-12.523437-29.984375-27.976562-29.984375-15.449219 0-27.976563 13.425781-27.976563 29.984375 0 16.5625 12.527344 29.984375 27.976563 29.984375 15.453125 0 27.976562-13.421875 27.976562-29.984375zm0 0" fill="#2c2f38"/><path d="m414.898438 512h97.101562v-7.855469c0-11.300781-12.269531-93.308593-12.269531-93.308593-9.523438-34.714844-41.429688-58.507813-77.417969-57.734376h-332.625c-35.988281-.773437-67.894531 23.019532-77.417969 57.734376 0 0-12.269531 82.007812-12.269531 93.308593v7.855469zm0 0" fill="#d3c18d"/><path d="m424.429688 414.808594-.707032.089844c-3.617187-.265626-7.238281-.621094-10.769531-.972657-3.53125-.351562-7.0625-.792969-10.503906-1.324219-2.734375-.351562-5.472657-.792968-8.121094-1.234374-2.207031-.355469-4.414063-.796876-6.53125-1.238282-2.121094-.351562-4.148437-.792968-6.269531-1.234375-3-.617187-5.914063-1.324219-8.828125-2.03125-3.175781-.792969-6.265625-1.589843-9.265625-2.472656-2.738282-.707031-5.476563-1.5-8.125-2.382813-3.265625-.96875-6.53125-2.03125-9.707032-3.175781 2.292969-2.386719 4.5-4.769531 6.53125-7.0625 2.558594-2.824219 4.855469-5.652343 7.0625-8.386719 1.324219-1.589843 2.558594-3.179687 3.707032-4.769531 3.355468-4.324219 6.265625-8.5625 8.828125-12.535156.175781-.261719.351562-.527344.441406-.703125 2.292969-3.53125 4.238281-6.886719 6-10.066406.882813-1.585938 1.679687-3.175782 2.472656-4.675782 3.40625-6.625 6.210938-13.535156 8.386719-20.65625.222656-.605468.402344-1.226562.53125-1.855468.265625-.972656.351562-1.5.351562-1.5 2.945313-.042969 5.875.4375 8.652344 1.410156 6.285156 1.613281 11.234375 6.460938 12.976563 12.714844l11.386719 65.234375zm0 0" fill="#f9eab0"/><path d="m432.109375 459.035156c-6.972656 0-13.769531-.175781-20.390625-.441406-2.472656-.175781-4.945312-.265625-7.414062-.441406-6.886719-.441406-13.683594-1.058594-20.214844-1.855469-1.855469-.175781-3.710938-.351563-5.5625-.617187-2.558594-.351563-5.03125-.707032-7.503906-1.058594-2.914063-.441406-5.828126-.882813-8.652344-1.414063-2.734375-.527343-5.472656-.96875-8.207032-1.585937-.707031-.179688-1.414062-.265625-2.121093-.441406h-.085938c-3.089843-.621094-6.09375-1.324219-9.003906-2.03125-1.816406-.347657-3.617187-.789063-5.386719-1.324219-5.296875-1.324219-10.417968-2.738281-15.359375-4.328125-1.5-.441406-3-.882813-4.414062-1.410156-2.207031-.617188-4.324219-1.414063-6.445313-2.117188-3.617187-1.238281-7.0625-2.5625-10.503906-3.886719 3-2.03125 5.914062-4.058593 8.738281-6.179687 2.914063-2.117188 5.652344-4.148438 8.300781-6.265625.429688-.296875.84375-.621094 1.234376-.972657 1.941406-1.5 3.882812-3.089843 5.738281-4.589843 5.207031-4.414063 10.0625-8.738281 14.476562-13.066407 2.207031-2.117187 4.238281-4.148437 6.179688-6.175781h.089843c3.175782 1.144531 6.441407 2.207031 9.707032 3.175781 2.648437.882813 5.386718 1.675782 8.125 2.382813 3.085937.882813 6.089844 1.679687 9.265625 2.472656 2.914062.707031 5.828125 1.414063 8.828125 2.03125 2.121094.441407 4.148437.882813 6.269531 1.234375 2.117187.441406 4.324219.882813 6.53125 1.238282 2.648437.441406 5.386719.882812 8.121094 1.234374 1.675781.265626 3.441406.53125 5.207031.707032 1.765625.265625 3.53125.441406 5.296875.617187 3.53125.351563 7.152344.707031 10.769531.972657l.707032-.089844 1.5 8.5625 4.679687 26.835937zm0 0" fill="#f9eab0"/><path d="m441.378906 512h-167.722656c10.046875-3.765625 19.8125-8.25 29.21875-13.417969 1.851562-.972656 3.707031-2.03125 5.472656-3.089843 9.464844-5.390626 18.523438-11.46875 27.101563-18.183594 1.5-1.148438 2.914062-2.296875 4.324219-3.445313 5.648437-4.5 10.59375-8.914062 15.007812-13.152343 2.734375-2.558594 5.296875-5.121094 7.589844-7.503907 2.824218.53125 5.738281.972657 8.652344 1.414063 2.472656.351562 4.945312.707031 7.503906 1.058594 1.851562.265624 3.707031.441406 5.5625.617187 6.53125.796875 13.328125 1.414063 20.214844 1.855469 2.46875.175781 4.941406.265625 7.414062.441406 6.621094.265625 13.417969.441406 20.390625.441406l1.5 8.648438zm0 0" fill="#f9eab0"/><path d="m362.371094 453.207031c-2.292969 2.382813-4.855469 4.945313-7.589844 7.503907-4.414062 4.238281-9.359375 8.652343-15.007812 13.152343-1.410157 1.148438-2.824219 2.296875-4.324219 3.445313-8.578125 6.714844-17.636719 12.792968-27.101563 18.183594-1.765625 1.058593-3.621094 2.117187-5.472656 3.089843-9.40625 5.167969-19.171875 9.652344-29.21875 13.417969h-185.378906c6.265625-.972656 12.445312-2.03125 18.449218-3.179688 4.414063-.792968 8.828126-1.675781 13.0625-2.558593.921876-.125 1.835938-.300781 2.738282-.53125.625-.101563 1.246094-.25 1.851562-.4375 3.003906-.53125 5.917969-1.238281 8.828125-1.855469 4.769531-1.058594 9.535157-2.207031 14.125-3.265625 4.0625-.972656 8.035157-2.03125 11.917969-3.003906 4.679688-1.234375 9.179688-2.46875 13.683594-3.792969 3.441406-.972656 6.796875-1.941406 10.0625-3.003906 3.441406-.96875 6.796875-2.117188 10.152344-3.265625 2.734374-.882813 5.472656-1.765625 8.121093-2.734375 2.382813-.707032 4.679688-1.503906 6.972657-2.386719 3-1.058594 5.828124-2.117187 8.652343-3.175781 2.558594-.972656 5.03125-1.941406 7.503907-2.914063 3.175781-1.234375 6.355468-2.558593 9.355468-3.882812 3.882813-1.589844 7.59375-3.265625 11.300782-4.945313 3.089843-1.410156 6.179687-2.824218 9.179687-4.324218 2.914063-1.324219 5.738281-2.734376 8.472656-4.238282 2.914063-1.410156 5.652344-2.914062 8.386719-4.414062 1.503906-.792969 3.003906-1.585938 4.503906-2.46875 3.175782-1.765625 6.179688-3.53125 9.179688-5.296875 2.914062-1.765625 5.828125-3.621094 8.652344-5.386719 2.558593-1.589844 5.03125-3.175781 7.414062-4.855469 3.441406 1.324219 6.886719 2.648438 10.503906 3.886719l3.179688 1.058594 3.175781 1.058594c8.035156 2.648437 16.421875 5.03125 25.25 7.0625 2.910156.707031 5.914063 1.410156 9.003906 2.03125h.085938c.699219.1875 1.40625.335937 2.121093.441406 1.851563.441406 3.707032.792968 5.558594 1.058594zm0 0" fill="#f9eab0"/><path d="m389.914062 326.621094s-.085937.527344-.351562 1.5c-.128906.628906-.308594 1.25-.53125 1.855468-2.175781 7.121094-4.980469 14.03125-8.386719 20.65625-.792969 1.5-1.589843 3.089844-2.472656 4.675782-1.761719 3.179687-3.707031 6.535156-6 10.066406-.089844.175781-.265625.441406-.441406.703125-2.5625 3.972656-5.472657 8.210937-8.828125 12.535156-1.148438 1.589844-2.382813 3.179688-3.707032 4.769531-2.207031 2.734376-4.503906 5.5625-7.0625 8.386719-2.03125 2.292969-4.238281 4.675781-6.53125 7.0625h-.089843c-1.941407 2.027344-3.972657 4.058594-6.179688 6.175781-4.414062 4.328126-9.269531 8.652344-14.476562 13.066407-1.855469 1.5-3.796875 3.089843-5.738281 4.589843-.390626.351563-.804688.675782-1.234376.972657-2.648437 2.117187-5.386718 4.148437-8.300781 6.265625-2.824219 2.121094-5.738281 4.148437-8.738281 6.179687-2.382812 1.679688-4.855469 3.265625-7.414062 4.855469-2.824219 1.765625-5.738282 3.621094-8.652344 5.386719-3 1.765625-6.003906 3.53125-9.179688 5.296875-1.5.882812-3 1.675781-4.503906 2.46875-2.734375 1.5-5.472656 3.003906-8.386719 4.414062-2.734375 1.503906-5.558593 2.914063-8.472656 4.238282-3 1.5-6.089844 2.914062-9.179687 4.324218-3.707032 1.679688-7.417969 3.355469-11.300782 4.945313-3 1.324219-6.179687 2.648437-9.355468 3.882812-2.472657.972657-4.945313 1.941407-7.503907 2.914063-2.824219 1.058594-5.652343 2.117187-8.652343 3.175781-2.292969.796875-4.589844 1.589844-6.972657 2.386719-2.648437.96875-5.386719 1.851562-8.121093 2.734375-3.355469 1.148437-6.710938 2.296875-10.152344 3.265625-3.265625 1.0625-6.621094 2.03125-10.0625 3.003906-4.503906 1.324219-9.003906 2.558594-13.683594 3.792969-3.882812.972656-7.855469 2.03125-11.917969 3.003906-4.589843 1.058594-9.355469 2.207031-14.125 3.265625-2.910156.617188-5.824219 1.324219-8.828125 1.855469-.605468.1875-1.226562.335937-1.851562.4375-.902344.230469-1.816406.40625-2.738282.53125-4.234374.882812-8.648437 1.765625-13.0625 2.558593-6.003906 1.148438-12.183593 2.207032-18.449218 3.179688h-17.65625l7.769531-44.402344 1.5-8.652344c17.035156-3.089843 33.101563-6.707031 48.199219-10.59375 3.175781-.882812 6.355468-1.675781 9.445312-2.558593 2.824219-.792969 5.648438-1.589844 8.386719-2.472657 13.503906-3.882812 26.304687-8.121093 38.222656-12.535156 3.707031-1.410156 7.238281-2.734375 10.769531-4.148437 1.765626-.707031 3.53125-1.410157 5.207032-2.117188.972656-.355469 1.855468-.796875 2.824218-1.238281 1.5-.617188 2.914063-1.234375 4.328126-1.765625.207031-.148437.449218-.242187.703124-.261719 9.359376-3.972656 18.1875-8.035156 26.394532-12.273437.265625-.085938.53125-.261719.796875-.351563 2.734375-1.414062 5.382812-2.738281 8.03125-4.148437 2.648437-1.414063 5.296875-2.824219 7.769531-4.238281 1.148438-.617188 2.207031-1.234376 3.355469-1.851563l1.851562-1.0625c4.238281-2.382813 8.386719-4.855469 12.359375-7.238281 5.472656-3.441406 10.679688-6.796875 15.535156-10.0625 2.738282-1.855469 5.386719-3.707032 7.945313-5.5625 2.382813-1.765625 4.769531-3.441406 6.976563-5.207032 1.058593-.792968 2.203124-1.675781 3.175781-2.382812.792969-.617188 1.5-1.238281 2.207031-1.765625 5.648438-4.414063 10.679688-8.652344 15.007812-12.535156 1.5-1.324219 2.824219-2.558594 4.148438-3.796875 3.882812-3.617188 7.238281-6.972656 9.976562-9.796875.96875-.972657 1.765626-1.855469 2.558594-2.738281.226563-.183594.433594-.390626.617188-.617188.265625-.265625.441406-.53125.707031-.792969.320313-.332031.613281-.6875.882813-1.0625.433593-.417969.847656-.859375 1.234374-1.324219 3.265626-3.707031 4.769532-5.824218 4.769532-5.824218zm0 0" fill="#f9eab0"/><path d="m344.277344 326.621094s-1.503906 2.117187-4.769532 5.824218c-.386718.464844-.800781.90625-1.234374 1.324219-.269532.375-.5625.730469-.882813 1.0625-.265625.261719-.441406.527344-.707031.792969-.183594.226562-.390625.433594-.617188.617188-.792968.882812-1.589844 1.765624-2.558594 2.738281-2.738281 2.824219-6.09375 6.179687-9.976562 9.796875-1.324219 1.238281-2.648438 2.472656-4.148438 3.796875-4.328124 3.882812-9.359374 8.121093-15.007812 12.535156-.707031.527344-1.414062 1.148437-2.207031 1.765625-.972657.707031-2.117188 1.589844-3.175781 2.382812-2.207032 1.765626-4.59375 3.441407-6.976563 5.207032-2.824219-1.675782-5.648437-3.265625-8.296875-4.941406-8.84375-5.390626-17.386719-11.257813-25.601562-17.566407-1.324219-.972656-2.648438-1.941406-3.792969-2.914062-1.148438-.882813-2.296875-1.765625-3.269531-2.648438-1.410157-1.148437-2.824219-2.296875-4.058594-3.355469-3.882813-3.265624-7.0625-6.179687-9.621094-8.5625-1.5-1.324218-2.738281-2.558593-3.796875-3.617187-.707031-.707031-1.234375-1.324219-1.765625-1.765625-.617188-.621094-1.058594-1.148438-1.414062-1.503906-.121094-.167969-.269532-.316406-.441407-.441406-.085937-.175782-.175781-.175782-.261719-.261719-.046874-.097657-.105468-.1875-.179687-.265625zm0 0" fill="#f9eab0"/><path d="m292.015625 374.464844c-2.558594 1.855468-5.207031 3.710937-7.945313 5.5625-4.855468 3.265625-10.0625 6.621094-15.535156 10.0625-3.972656 2.382812-8.121094 4.855468-12.359375 7.238281l-1.851562 1.0625c-1.148438.617187-2.207031 1.234375-3.355469 1.851563-2.472656 1.414062-5.121094 2.824218-7.769531 4.238281-2.734375-1.941407-5.296875-3.972657-7.765625-5.914063-25.140625-18.886718-45.339844-43.570312-58.882813-71.945312h52.964844c.074219.078125.132813.167968.179687.265625.253907.210937.492188.449219.703126.703125.355468.355468.796874.882812 1.414062 1.503906.53125.441406 1.058594 1.058594 1.765625 1.765625 1.058594 1.058594 2.296875 2.292969 3.796875 3.617187 2.558594 2.382813 5.738281 5.296876 9.621094 8.5625 1.234375 1.058594 2.648437 2.207032 4.058594 3.355469.972656.882813 2.121093 1.765625 3.269531 2.648438 1.144531.972656 2.46875 1.941406 3.792969 2.914062 8.214843 6.308594 16.757812 12.175781 25.601562 17.566407 2.648438 1.675781 5.472656 3.265624 8.296875 4.941406zm0 0" fill="#f9eab0"/><path d="m243.199219 404.480469c-2.648438 1.410156-5.296875 2.734375-8.03125 4.148437-.265625.089844-.53125.265625-.796875.351563-8.207032 4.238281-17.035156 8.300781-26.394532 12.273437-.253906.019532-.496093.113282-.703124.261719-1.414063.53125-2.828126 1.148437-4.328126 1.765625-.96875.441406-1.851562.882812-2.824218 1.238281-1.675782.707031-3.441406 1.410157-5.207032 2.117188-3.445312-1.851563-6.796874-3.707031-9.886718-5.648438h-.089844c-1.851562-1.148437-3.617188-2.296875-5.382812-3.445312-1.765626-1.058594-3.445313-2.292969-5.121094-3.441407-3.355469-2.382812-6.445313-4.679687-9.359375-7.148437-1.5-1.148437-2.910157-2.386719-4.324219-3.621094-1.410156-1.148437-2.734375-2.382812-4.058594-3.617187-3.710937-3.445313-7.0625-6.886719-10.152344-10.328125-.265624-.355469-.617187-.707031-.796874-.972657-1.058594-1.148437-2.027344-2.296874-2.910157-3.441406-3.871093-4.683594-7.441406-9.605468-10.683593-14.742187-.699219-1-1.347657-2.03125-1.941407-3.089844-4.132812-6.933594-7.617187-14.234375-10.417969-21.804687-.527343-1.414063-.96875-2.738282-1.410156-3.972657-1.023437-2.980469-1.875-6.015625-2.5625-9.09375-.15625-.488281-.277344-.992187-.351562-1.5-.269532-1.046875-.476563-2.105469-.617188-3.179687 2.359375-.640625 4.792969-.96875 7.238282-.96875h54.464843c13.542969 28.375 33.742188 53.058594 58.882813 71.945312 2.46875 1.941406 5.03125 3.972656 7.765625 5.914063zm0 0" fill="#f9eab0"/><path d="m194.914062 426.636719c-3.53125 1.414062-7.0625 2.738281-10.769531 4.148437-11.917969 4.414063-24.71875 8.652344-38.222656 12.535156-2.738281.882813-5.5625 1.679688-8.386719 2.472657-3.089844.882812-6.269531 1.675781-9.445312 2.558593-15.097656 3.886719-31.164063 7.503907-48.199219 10.59375l1.589844-9.269531 9.445312-54.023437 2.734375-15.273438 6.886719-39.632812c.839844-3.65625 2.972656-6.882813 6.003906-9.09375 2.4375-1.941406 5.269531-3.324219 8.296875-4.0625.140625 1.074218.347656 2.132812.617188 3.179687.085937.507813.203125 1.007813.351562 1.5.6875 3.078125 1.539063 6.113281 2.5625 9.09375.351563 1.234375.882813 2.558594 1.410156 3.972657 2.800782 7.570312 6.285157 14.871093 10.417969 21.804687.617188.96875 1.234375 2.027344 1.941407 3.089844 3.242187 5.136719 6.8125 10.058593 10.683593 14.742187.882813 1.144532 1.851563 2.292969 2.910157 3.441406.179687.265626.53125.617188.796874.972657 3.203126 3.613281 6.589844 7.0625 10.152344 10.328125 1.324219 1.234375 2.648438 2.46875 4.058594 3.617187 1.324219 1.234375 2.824219 2.472657 4.324219 3.621094 2.914062 2.46875 6.003906 4.765625 9.359375 7.148437 1.675781 1.148438 3.355468 2.382813 5.121094 3.441407 1.765624 1.148437 3.441406 2.296875 5.296874 3.445312.085938.085938.085938 0 .175782 0h.175781c1.5.96875 3 1.941407 4.589844 2.824219 1.675781.972656 3.355469 1.855469 5.121093 2.824219zm0 0" fill="#f9eab0"/><path d="m185.378906 282.484375h141.242188v44.136719h-141.242188zm0 0" fill="#d3c18d"/><path d="m211.863281 35.308594c-5.402343 4.082031-10.558593 8.472656-15.449219 13.15625-1.675781 1.585937-3.355468 3.175781-5.03125 4.855468-1.058593 1.058594-2.207031 2.117188-3.179687 3.265626-5.558594 5.558593-10.855469 11.476562-15.800781 17.300781-1.5 1.675781-2.914063 3.441406-4.324219 5.121093-1.5 1.851563-3.003906 3.796876-4.503906 5.558594-3 3.796875-5.738281 7.328125-8.207031 10.59375-.355469.441406-.621094.796875-.796876 1.058594-.96875 1.238281-1.765624 2.386719-2.558593 3.445312-2.472657 3.265626-4.503907 6.179688-6.179688 8.472657-1.324219-3.175781-2.558593-6.441407-3.882812-9.796875-1.324219-3.621094-2.738281-7.238282-3.972657-10.945313-.796874-2.121093-1.503906-4.328125-2.296874-6.535156-1.058594-3.351563-2.207032-6.707031-3.265626-10.238281l-2.296874-1.058594c1.28125-2.609375 2.757812-5.117188 4.414062-7.503906 11.472656-16.789063 30.515625-26.804688 50.847656-26.75zm0 0" fill="#f9eab0"/><path d="m245.496094 248.851562c-3.179688 1.410157-6.269532 2.734376-9.269532 3.96875h-.089843c-.792969.355469-1.5.621094-2.292969.972657-1.414062.53125-2.824219 1.058593-4.148438 1.589843-4.238281 1.675782-8.300781 3.179688-12.183593 4.5-2.117188.707032-4.148438 1.414063-6.179688 2.121094-2.914062.96875-5.824219 1.851563-8.5625 2.648438-.792969-.621094-3.621093-2.914063-8.210937-7.152344-27.425782-26.742188-51.28125-56.917969-70.972656-89.777344v-70.621094c.003906-5.910156.835937-11.792968 2.472656-17.476562 1.039062-3.472656 2.398437-6.84375 4.058594-10.0625l2.296874 1.058594c1.058594 3.53125 2.207032 6.886718 3.265626 10.238281.792968 2.207031 1.5 4.414063 2.296874 6.535156 1.234376 3.707031 2.648438 7.324219 3.972657 10.945313 1.324219 3.355468 2.558593 6.621094 3.882812 9.796875 1.148438 2.738281 2.207031 5.472656 3.355469 8.121093 4.5 10.59375 9.179688 20.394532 14.035156 29.574219 1.765625 3.53125 3.617188 6.886719 5.472656 10.152344v.085937c1.414063 2.5625 2.914063 5.121094 4.324219 7.59375 3.003907 5.121094 5.914063 9.886719 8.917969 14.476563l3.175781 4.765625c0 .089844.089844.179688.179688.265625 1.5 2.296875 3 4.503906 4.589843 6.621094 1.144532 1.675781 2.292969 3.355469 3.53125 4.945312.882813 1.234375 1.851563 2.558594 2.824219 3.792969 4.058594 5.296875 8.03125 10.242188 11.828125 14.742188 1.058594 1.238281 2.117188 2.382812 3.175782 3.53125 1.679687 1.941406 3.355468 3.796874 5.035156 5.5625l.792968.792968c1.414063 1.589844 2.824219 3.003906 4.238282 4.503906 6 6.003907 11.5625 10.945313 16.242187 14.917969l.085938.089844c1.414062 1.234375 2.828125 2.292969 4.0625 3.265625.445312.386719.914062.742188 1.414062 1.058594.882813.707031 1.585938 1.324218 2.382813 1.855468zm0 0" fill="#f9eab0"/><path d="m202.769531 264.652344c-3.621093 1.058594-7.148437 2.027344-10.417969 2.824218-1.675781.441407-3.351562.792969-5.03125 1.234376-.351562.089843-.792968.175781-1.148437.265624-5.382813 1.234376-9.972656 2.117188-13.945313 2.824219-.226562.089844-.464843.148438-.707031.175781-3.796875.621094-6.886719 1.0625-9.003906 1.324219-.617187.089844-1.234375.089844-1.675781.179688-.265625 0-.355469.085937-.53125.085937-.238282-.019531-.480469.011719-.707032.089844h-.617187v2.824219h-.085937l-1.0625-.53125c-2.585938-1.28125-5.09375-2.726563-7.503907-4.324219-16.773437-11.523438-26.78125-30.582031-26.746093-50.933594v-52.96875c19.691406 32.859375 43.546874 63.035156 70.972656 89.777344 4.589844 4.238281 7.417968 6.53125 8.210937 7.152344zm0 0" fill="#f9eab0"/><path d="m388.414062 141.242188v52.964843c-35.3125 52.964844-123.585937 88.277344-123.585937 88.277344h-79.449219c-4.664062.019531-9.316406-.515625-13.859375-1.589844-4.058593-.886719-8-2.25-11.738281-4.0625-.265625-.085937-.53125-.265625-.796875-.351562v-2.824219h.617187c.226563-.078125.46875-.109375.707032-.089844.175781 0 .265625-.085937.53125-.085937.441406-.089844 1.058594-.089844 1.675781-.179688 2.117187-.261719 5.207031-.703125 9.003906-1.324219.242188-.027343.480469-.085937.707031-.175781 3.972657-.707031 8.5625-1.589843 13.945313-2.824219.355469-.089843.796875-.175781 1.148437-.265624 1.679688-.441407 3.355469-.792969 5.03125-1.234376 3.269532-.796874 6.796876-1.765624 10.417969-2.824218 2.738281-.796875 5.648438-1.679688 8.5625-2.648438 2.558594-.882812 5.207031-1.765625 7.855469-2.738281 2.207031-.707031 4.59375-1.589844 6.976562-2.558594.453126-.109375.894532-.253906 1.324219-.441406.703125-.265625 1.410157-.53125 2.207031-.882813h.085938c1.324219-.53125 2.648438-1.058593 4.0625-1.589843.792969-.351563 1.5-.617188 2.292969-.972657h.089843c3-1.234374 6.089844-2.558593 9.269532-3.96875 2.648437-1.148437 5.296875-2.386718 8.03125-3.621093l.53125-.265625c2.472656-1.148438 5.03125-2.382813 7.589844-3.707032.664062-.289062 1.3125-.613281 1.941406-.972656 5.121094-2.46875 10.242187-5.207031 15.449218-8.207031 20.273438-11.46875 39.476563-24.734375 57.378907-39.636719.4375-.324218.851562-.675781 1.238281-1.058594 1.941406-1.589843 3.972656-3.265624 5.914062-5.03125 2.207032-1.855468 4.414063-3.796874 6.621094-5.828124 2.382813-2.207032 4.855469-4.414063 7.238282-6.707032 1.589843-1.5 3.175781-3.003906 4.765624-4.589844 1.238282-1.238281 2.472657-2.386718 3.621094-3.621093 1.675782-1.675781 3.265625-3.355469 4.855469-5.03125.628906-.542969 1.222656-1.132813 1.765625-1.765625.527344-.617188 1.058594-1.234375 1.675781-1.855469 2.03125-2.117187 4.058594-4.234375 6.003907-6.441406.175781-.179688.351562-.441407.527343-.621094.339844-.277344.636719-.605469.882813-.96875.089844 0 .089844 0 .089844-.089844.289062-.269531.554687-.566406.792968-.882812.175782-.175781.355469-.265625.441406-.441407l.265626-.265624c.378906-.386719.730468-.800782 1.058593-1.234376.378907-.359374.730469-.742187 1.058594-1.148437.175781-.152344.324219-.332031.441406-.527344.375-.363281.730469-.746093 1.0625-1.148437v-.089844c.601563-.574219 1.164063-1.195312 1.675781-1.851562zm0 0" fill="#f9eab0"/><path d="m388.414062 194.207031v26.484375c.011719 16.390625-6.496093 32.113282-18.085937 43.707032-11.589844 11.589843-27.316406 18.097656-43.707031 18.085937h-61.792969s88.273437-35.3125 123.585937-88.277344zm0 0" fill="#f9eab0"/><path d="m300.136719 8.828125v26.480469h-88.273438v-26.480469c.011719-4.871094 3.957031-8.8125 8.828125-8.828125h70.617188c4.871094.015625 8.816406 3.957031 8.828125 8.828125zm0 0" fill="#d3c18d"/><path d="m380.117188 150.511719c-1.945313 2.207031-3.972657 4.324219-6.003907 6.441406-1.148437 1.238281-2.296875 2.386719-3.441406 3.621094-1.589844 1.675781-3.179687 3.355469-4.855469 5.03125-1.148437 1.234375-2.382812 2.382812-3.621094 3.621093-1.589843 1.585938-3.175781 3.089844-4.765624 4.589844-2.382813 2.292969-4.855469 4.5-7.238282 6.707032-.089844-.441407-.265625-.792969-.355468-1.234376-.105469-.484374-.253907-.957031-.441407-1.414062-.441406-1.5-.882812-3-1.410156-4.679688 0-.085937 0-.085937-.089844-.175781-.164062-.628906-.371093-1.25-.617187-1.851562-5.132813-15.210938-11.820313-29.855469-19.949219-43.699219-1.058594-1.851562-2.207031-3.792969-3.445313-5.738281-.320312-.605469-.671874-1.195313-1.058593-1.761719-6.964844-11.285156-14.691407-22.078125-23.128907-32.3125-2.292968-2.824219-4.589843-5.558594-7.148437-8.472656-1.855469-2.117188-3.707031-4.238282-5.738281-6.445313-.882813-.882812-1.675782-1.851562-2.648438-2.824219-2.296875-2.472656-4.679687-4.941406-7.152344-7.414062-.210937-.257812-.449218-.492188-.703124-.707031-1.082032-1.183594-2.230469-2.304688-3.445313-3.355469-1.5-1.585938-3.089844-3.089844-4.765625-4.589844-.273438-.316406-.566406-.609375-.882812-.882812-2.117188-2.03125-4.324219-3.972656-6.53125-6.003906-2.207032-2.027344-4.503907-3.96875-6.796876-6-2.207031-1.855469-4.414062-3.796876-6.710937-5.652344h61.792969s5.207031 5.210937 12.800781 14.214844c.792969.882812 1.589844 1.765624 2.382813 2.824218 5.648437 6.796875 12.449218 15.359375 19.421874 25.421875 1.941407 2.828125 3.972657 5.828125 5.914063 8.828125 9.296875 14.160156 17.21875 29.175782 23.65625 44.84375 1.238281 3.089844 2.386719 6.179688 3.445313 9.269532.085937.089843.085937.175781.175781.355468 0 0 .089843.085938 0 .085938l1.058593 3.179687c.175782.617188.441407 1.234375.617188 1.851563.089844.390625.207031.777344.355469 1.148437.261719.882813.527343 1.855469.792969 2.738281zm0 0" fill="#f9eab0"/><path d="m388.414062 97.101562v44.140626c-.511718.65625-1.074218 1.277343-1.675781 1.851562v.089844c-.332031.402344-.6875.785156-1.0625 1.148437-.117187.195313-.265625.375-.441406.527344-.328125.40625-.679687.789063-1.058594 1.148437-.328125.433594-.679687.847657-1.058593 1.234376l-.265626.265624c-.085937.175782-.265624.265626-.441406.441407-.238281.316406-.503906.613281-.792968.882812 0 .089844 0 .089844-.089844.089844-.246094.363281-.542969.691406-.882813.96875-.175781.179687-.351562.441406-.527343.621094l-.53125-.441407c-.265626-.882812-.53125-1.855468-.792969-2.738281-.089844-.351562-.265625-.792969-.355469-1.148437-.164062-.628906-.371094-1.25-.617188-1.851563l-1.058593-3.179687c.089843 0 0-.085938 0-.085938-.089844-.179687-.089844-.265625-.175781-.355468-1.058594-3.089844-2.207032-6.179688-3.445313-9.269532-6.4375-15.667968-14.359375-30.683594-23.65625-44.84375-1.941406-3.089844-3.972656-6-5.914063-8.828125-6.972656-10.0625-13.773437-18.625-19.421874-25.421875-.792969-.972656-1.589844-1.941406-2.382813-2.824218-7.59375-9.003907-12.800781-14.214844-12.800781-14.214844h17.65625c16.390625-.011719 32.117187 6.496094 43.707031 18.085937 11.589844 11.59375 18.097656 27.316407 18.085937 43.707031zm0 0" fill="#f9eab0"/><path d="m260.679688 46.960938c-2.5625 1.765624-5.03125 3.53125-7.417969 5.296874-.527344.441407-1.144531.796876-1.675781 1.324219-2.472657 1.765625-4.855469 3.53125-7.148438 5.386719-8.078125 6.304688-15.769531 13.082031-23.042969 20.304688-2.207031 2.117187-4.324219 4.234374-6.441406 6.355468-4.0625 4.234375-7.769531 8.386719-11.125 12.445313-1.234375 1.414062-2.292969 2.738281-3.355469 4.0625-1.144531 1.410156-2.117187 2.734375-3.085937 3.972656-.585938.628906-1.117188 1.308594-1.589844 2.027344-4.808594 6.359375-9.289063 12.957031-13.417969 19.773437-.972656 1.679688-1.855468 3.269532-2.738281 4.769532-2.734375 4.765624-4.941406 9.089843-6.621094 12.800781-.351562.703125-.617187 1.324219-.882812 1.941406-.351563.792969-.617188 1.5-.882813 2.117187-.234375.386719-.410156.800782-.527344 1.234376-.882812 2.121093-1.589843 3.886718-2.03125 5.210937-1.855468-3.265625-3.707031-6.621094-5.472656-10.152344-4.855468-9.179687-9.535156-18.980469-14.035156-29.574219-1.148438-2.648437-2.207031-5.382812-3.355469-8.121093 1.675781-2.292969 3.707031-5.207031 6.179688-8.472657.792969-1.058593 1.589843-2.207031 2.558593-3.445312.175782-.261719.441407-.617188.796876-1.058594 2.382812-3.265625 5.207031-6.796875 8.207031-10.59375 1.5-1.761718 3.003906-3.707031 4.503906-5.558594 1.410156-1.679687 2.914063-3.355468 4.324219-5.121093 4.945312-5.824219 10.242187-11.742188 15.800781-17.300781 1.058594-1.148438 2.121094-2.207032 3.179687-3.265626 1.589844-1.589843 3.265626-3.269531 5.03125-4.855468 4.890626-4.683594 10.046876-9.074219 15.449219-13.15625h35.308594c2.296875 1.855468 4.503906 3.796875 6.710937 5.652344 2.292969 2.03125 4.589844 3.972656 6.796876 6zm0 0" fill="#f9eab0"/><path d="m137.535156 445.792969c-15.695312-17.460938-29.269531-36.722657-40.433594-57.378907zm0 0" fill="#f9eab0"/><g fill="#7f6e5d"><path d="m388.414062 132.414062v22.15625c-10.429687 11.679688-21.480468 22.789063-33.105468 33.28125-31.363282 28.566407-67.09375 51.929688-105.839844 69.207032-13.753906 6.089844-27.878906 11.308594-42.285156 15.625-.089844 0-.089844.089844-.175782.089844h-.089843c-.882813.265624-1.765625.527343-2.558594.707031-10.773437 3.1875-21.742187 5.667969-32.839844 7.414062-4.058593-.886719-8-2.25-11.738281-4.0625-.265625-.085937-.53125-.265625-.796875-.351562h-.085937l-1.0625-.53125c-2.585938-1.28125-5.09375-2.726563-7.503907-4.324219.828125-3.789062 4.074219-6.566406 7.945313-6.796875 8.835937-.960937 17.597656-2.523437 26.21875-4.679687 3.089844-.707032 6.445312-1.589844 10.0625-2.648438 3.179687-.792969 6.535156-1.765625 10.066406-2.824219 7.238281-2.296875 15.269531-5.03125 23.746094-8.386719 3-1.148437 6-2.382812 9.179687-3.707031 3-1.324219 6.003907-2.648437 9.09375-4.0625 33.953125-15.613281 65.449219-36.105469 93.480469-60.820312 2.386719-2.117188 4.769531-4.238281 7.152344-6.53125 2.382812-2.121094 4.679687-4.328125 7.0625-6.621094 5.207031-5.03125 10.417968-10.328125 15.625-15.890625v-.089844c2.292968-2.46875 4.589844-4.851562 6.796875-7.414062v-.085938c1.675781-1.855468 3.355469-3.710937 4.941406-5.5625.535156-.621094 1.160156-1.15625 1.855469-1.589844 1.441406-.957031 3.125-1.476562 4.855468-1.5zm0 0"/><path d="m388.414062 185.378906v23.570313c-28.335937 35.046875-75.917968 61.085937-101.957031 73.535156h-30.457031c.042969-3.605469 2.230469-6.832031 5.5625-8.210937.882812-.351563 86.15625-34.957032 119.523438-84.921876 1.621093-2.46875 4.375-3.960937 7.328124-3.972656zm0 0"/><path d="m355.222656 187.761719c-.8125.554687-1.707031.96875-2.648437 1.238281-.769531.246094-1.574219.363281-2.382813.351562-2.542968.019532-4.960937-1.078124-6.621094-3-.855468-1.003906-1.488281-2.175781-1.855468-3.445312-.441406-1.675781-.96875-3.351562-1.589844-5.207031-8.03125-26.042969-28.597656-71.503907-80.152344-119.4375-1.675781-1.5-3.441406-3.089844-5.207031-4.679688-.53125-.441406-.972656-.882812-1.503906-1.324219-2.207031-2.027343-4.5-4.058593-6.796875-5.914062-1.585938-1.5-3.265625-2.824219-4.941406-4.234375-2.027344-1.675781-3.195313-4.171875-3.179688-6.800781h22.511719c1.765625 1.589844 3.53125 3.089844 5.207031 4.679687.199219.121094.375.269531.53125.441407.175781.089843.175781.175781.265625.265624 53.316406 47.757813 77.0625 94.277344 87.480469 123.851563 1.234375 3.265625 2.207031 6.445313 3.089844 9.269531.441406 1.5.882812 2.910156 1.234374 4.324219 1.054688 3.613281-.335937 7.496094-3.441406 9.621094zm0 0"/><path d="m388.414062 150.15625c.011719 3.9375-2.636718 7.386719-6.445312 8.386719-.769531.246093-1.574219.367187-2.382812.355469-1.992188.003906-3.925782-.683594-5.472657-1.945313-1.464843-1.132813-2.515625-2.714844-3-4.5-.355469-1.238281-.796875-2.5625-1.148437-3.796875-17.921875-57.289062-66.738282-106.546875-67.265625-107.078125-1.648438-1.667969-2.566407-3.921875-2.5625-6.269531h21.011719c26.585937 28.832031 47.730468 62.238281 62.410156 98.605468 1.148437 3.089844 2.207031 6.179688 3.179687 9.269532.441407 1.5.882813 3 1.324219 4.5.25.800781.371094 1.636718.351562 2.472656zm0 0"/><path d="m252.558594 254.144531c-.824219 1.136719-1.917969 2.046875-3.179688 2.648438-1.207031.59375-2.539062.898437-3.882812.882812-1.914063.027344-3.78125-.597656-5.296875-1.765625-1.238281-.882812-2.5625-1.941406-3.972657-3.089844h-.089843c-2.382813-1.851562-4.941407-4.058593-7.765625-6.53125-27.121094-24.347656-49.792969-53.234374-67.003906-85.363281-.316407-.4375-.582032-.914062-.792969-1.410156-8.605469-15.238281-16.152344-31.046875-22.597657-47.316406-.089843-.265625-.265624-.53125-.355468-.796875-4.058594-9.972656-7.945313-20.65625-11.5625-31.777344 1.039062-3.472656 2.398437-6.84375 4.058594-10.0625 1.28125-2.609375 2.757812-5.117188 4.414062-7.503906 2.980469.742187 5.355469 2.984375 6.269531 5.914062 2.382813 7.503906 4.855469 14.742188 7.414063 21.804688 1.234375 3.355468 2.472656 6.707031 3.796875 9.886718.617187 1.765626 1.324219 3.441407 2.03125 5.121094l1.851562 4.5c3.707031 9.179688 7.769531 18.007813 12.09375 26.484375 1.589844 3.265625 3.265625 6.53125 5.03125 9.710938 1.058594 2.117187 2.207031 4.234375 3.355469 6.265625.617188 1.148437 1.324219 2.382812 2.03125 3.53125 17.191406 31.871094 40.359375 60.132812 68.238281 83.242187 1.5 1.238281 2.824219 2.296875 4.148438 3.269531 1.191406.890626 2.136719 2.078126 2.734375 3.441407 1.324218 2.925781.953125 6.34375-.96875 8.914062zm0 0"/><path d="m210.097656 270.125c-.855468 1.066406-1.902344 1.964844-3.089844 2.648438-.089843-.089844-.089843 0-.089843 0-.882813.265624-1.765625.527343-2.558594.707031-.425781.144531-.875.203125-1.324219.175781-1.90625-.019531-3.761718-.636719-5.296875-1.765625-.265625-.265625-2.207031-1.679687-5.386719-4.414063-2.027343-1.855468-4.675781-4.238281-7.855468-7.328124-23.027344-23.023438-43.457032-48.511719-60.910156-76.003907v-25.246093c3.050781-.007813 5.886718 1.5625 7.503906 4.148437 20.023437 33.886719 44.785156 64.742187 73.535156 91.628906 2.382812 2.03125 3.617188 3 3.707031 3.089844 1.402344 1.078125 2.449219 2.554687 3 4.238281 1.015625 2.738282.546875 5.808594-1.234375 8.121094zm0 0"/><path d="m168.695312 164.851562c-2.335937.011719-4.582031-.910156-6.238281-2.558593-1.65625-1.648438-2.589843-3.886719-2.589843-6.222657v-.089843c0-1.011719.171874-2.011719.511718-2.964844 5.289063-14.820313 27.792969-66.792969 95.289063-113.320313 4.011719-2.660156 9.417969-1.617187 12.148437 2.347657 2.730469 3.964843 1.785156 9.386719-2.128906 12.1875-64.273438 44.316406-84.921875 94.292969-88.597656 104.492187-1.175782 3.644532-4.566406 6.117188-8.394532 6.128906zm0 0"/><path d="m220.691406 35.308594c-.019531 2.777344-1.324218 5.382812-3.53125 7.0625-23.273437 19.519531-43.871094 42.015625-61.265625 66.914062-1.148437 1.589844-2.03125 2.914063-2.824219 3.972656-.996093 1.335938-2.339843 2.375-3.882812 3-1.0625.457032-2.203125.695313-3.355469.707032-3.285156.027344-6.316406-1.777344-7.855469-4.679688-.132812-.285156-.25-.582031-.355468-.882812-1.09375-2.78125-.730469-5.925782.972656-8.382813.96875-1.414062 2.117188-2.914062 3.355469-4.679687 1.765625-2.472656 3.882812-5.386719 6.265625-8.476563v-.085937c14.6875-19.757813 31.304687-38.003906 49.613281-54.46875zm0 0"/><path d="m353.101562 326.621094c.003907 1.867187-.585937 3.691406-1.675781 5.207031-15.605469 19.121094-33.890625 35.890625-54.289062 49.789063-.21875.234374-.492188.417968-.792969.527343-15.621094 11.179688-31.988281 21.265625-48.996094 30.191407-.085937 0-.175781 0-.175781.089843-15.609375 8.222657-31.671875 15.5625-48.109375 21.980469-.585938.335938-1.207031.605469-1.855469.792969-18.457031 7.257812-37.285156 13.535156-56.40625 18.804687-.535156.226563-1.101562.375-1.679687.441406-18.976563 5.296876-38.398438 9.796876-57.640625 13.152344-.519531.144532-1.054688.203125-1.589844.175782-.507813.027343-1.015625-.03125-1.5-.175782l1.5-8.652344 1.589844-9.269531c13.503906-2.46875 26.921875-5.472656 40.25-8.824219 3.179687-.796874 6.359375-1.589843 9.449219-2.472656h.085937c.355469-.089844.617187-.175781.882813-.265625.972656-.265625 2.03125-.53125 3-.792969 1.855468-.53125 3.53125-1.0625 5.296874-1.589843h.089844c11.742188-3.355469 23.039063-6.972657 33.984375-10.945313h.089844c3.441406-1.238281 6.886719-2.472656 10.242187-3.796875.085938.085938.085938 0 .175782 0h.085937c2.207031-.882812 4.328125-1.679687 6.535157-2.5625 1.324218-.527343 2.558593-.96875 3.792968-1.585937h.089844c10.769531-4.328125 21.1875-9.003906 31.25-13.859375 2.914062-1.5 5.824219-2.914063 8.652344-4.414063 1.234375-.617187 2.382812-1.238281 3.617187-1.855468 1.675781-.882813 3.265625-1.765626 4.945313-2.734376 11.210937-6.09375 21.890625-12.449218 31.777344-18.980468 2.738281-1.765625 5.386718-3.621094 7.945312-5.472656 1.058594-.707032 2.117188-1.414063 3.179688-2.207032 1.585937-1.148437 3.085937-2.296875 4.589843-3.441406 15.070313-10.894531 28.921875-23.386719 41.3125-37.253906zm0 0"/><path d="m398.566406 328.03125v.265625c-6.757812 24.792969-19.382812 47.589844-36.8125 66.472656-2.117187 2.382813-4.238281 4.765625-6.445312 7.238281-2.207032 2.382813-4.5 4.679688-6.882813 7.0625-8.890625 8.800782-18.359375 16.996094-28.335937 24.539063-2.828125 2.121094-5.738282 4.238281-8.742188 6.359375-2.910156 2.027344-5.914062 4.058594-9.003906 6.089844-38.574219 25.335937-92.246094 49.433594-166.929688 65.941406h-55.964843c-.015625-4.339844 3.128906-8.046875 7.414062-8.738281 98.78125-15.890625 164.898438-44.84375 208.859375-74.769531 15.285156-10.375 29.535156-22.199219 42.550782-35.3125.316406-.300782.613281-.625.882812-.96875 18.867188-18.273438 33.144531-40.746094 41.664062-65.589844h9.09375c2.945313-.042969 5.875.4375 8.652344 1.410156zm0 0"/><path d="m425.929688 423.371094c-.707032.253906-1.453126.371094-2.207032.351562h-.617187c-25.402344-1.789062-50.484375-6.710937-74.679688-14.652344-1.941406-.617187-3.886719-1.234374-5.828125-1.941406-1.246094-.429687-2.367187-1.15625-3.265625-2.121094-2.484375-2.320312-3.320312-5.910156-2.117187-9.089843.433594-1.316407 1.195312-2.5 2.207031-3.445313 2.390625-2.296875 5.875-3.046875 9.003906-1.941406 1.234375.441406 2.472657.882812 3.707031 1.238281 3.175782 1.058594 6.355469 2.117188 9.621094 3 19.9375 5.894531 40.445313 9.652344 61.175782 11.210938l1.5 8.828125zm0 0"/><path d="m299.695312 378.878906c-.636718 1.09375-1.511718 2.027344-2.558593 2.738282-.21875.234374-.492188.417968-.792969.527343-1.3125.769531-2.808594 1.167969-4.328125 1.148438-1.546875.007812-3.066406-.386719-4.414063-1.148438-1.234374-.703125-2.382812-1.410156-3.53125-2.117187-2.824218-1.675782-5.648437-3.355469-8.296874-5.03125-19.371094-11.867188-37.140626-26.164063-52.875-42.550782-1.429688-1.601562-2.214844-3.675781-2.207032-5.824218h21.273438c15.050781 14.242187 31.664062 26.738281 49.523437 37.253906 1.585938.96875 3.265625 1.941406 4.941407 2.910156 1.054687.585938 1.9375 1.4375 2.5625 2.472656 2.15625 2.769532 2.4375 6.566407.703124 9.621094zm0 0"/><path d="m433.609375 467.683594c-.492187.109375-.996094.167968-1.5.179687-22.320313.058594-44.609375-1.683593-66.648437-5.210937-1.585938-.261719-3.089844-.527344-4.589844-.792969-2.03125-.351563-4.058594-.707031-6.089844-1.148437-3.53125-.617188-7.0625-1.410157-10.59375-2.207032-14.222656-3.15625-28.207031-7.316406-41.84375-12.445312-1.585938-.53125-3.089844-1.148438-4.675781-1.765625-2.203125-.808594-3.984375-2.480469-4.933594-4.625-.949219-2.148438-.984375-4.589844-.101563-6.761719.65625-1.679688 1.792969-3.121094 3.269532-4.148438 2.394531-1.613281 5.433594-1.941406 8.121094-.882812 1.851562.703125 3.707031 1.410156 5.558593 2.027344 3.445313 1.324218 6.976563 2.5625 10.507813 3.707031 14.277344 4.613281 28.84375 8.269531 43.605468 10.949219.210938-.011719.421876.019531.621094.085937 21.90625 3.65625 44.082032 5.515625 66.292969 5.5625l1.5 8.828125zm0 0"/><path d="m250.351562 409.6875c-.777343 1.109375-1.808593 2.015625-3.003906 2.648438-.085937 0-.175781 0-.175781.089843-1.253906.550781-2.601563.851563-3.972656.882813-1.867188 0-3.691407-.585938-5.207031-1.679688-1.234376-.882812-2.382813-1.765625-3.621094-2.648437-2.648438-2.027344-5.207032-4.058594-7.589844-6-24.933594-19.453125-44.949219-44.488281-58.4375-73.09375-.417969-1.039063-.628906-2.148438-.621094-3.265625h18.539063c13.964843 26.484375 33.695312 49.503906 57.734375 67.355468 1.410156 1.144532 2.910156 2.292969 4.414062 3.351563 1.035156.796875 1.902344 1.785156 2.558594 2.914063 1.570312 3.019531 1.332031 6.660156-.617188 9.445312zm0 0"/><path d="m202.679688 430.785156c-1.121094 2.175782-3.109376 3.777344-5.472657 4.414063-.75.179687-1.519531.269531-2.292969.265625-1.449218-.003906-2.875-.371094-4.148437-1.058594-2.296875-1.148438-4.414063-2.382812-6.621094-3.621094-3.355469-1.941406-6.535156-3.972656-9.625-6-34.066406-20.851562-58.5-54.332031-67.96875-93.132812 2.4375-1.941406 5.269531-3.324219 8.296875-4.0625 2.359375-.640625 4.792969-.96875 7.238282-.96875h1.589843c1.765625 10.238281 13.0625 57.554687 71.765625 90.21875 1.148438.703125 2.386719 1.410156 3.621094 2.027344 1.8125.917968 3.203125 2.5 3.882812 4.414062 1.105469 2.402344 1.007813 5.1875-.265624 7.503906zm0 0"/><path d="m143.359375 452.414062c-.753906.671876-1.621094 1.210938-2.558594 1.589844-.535156.226563-1.101562.375-1.679687.441406-.515625.144532-1.050782.203126-1.585938.175782-2.542968.023437-4.964844-1.074219-6.621094-3-.972656-1.0625-1.941406-2.207032-2.824218-3.269532-2.207032-2.558593-4.328125-5.03125-6.359375-7.5-11.621094-14.097656-21.933594-29.226562-30.804688-45.199218l2.734375-15.273438c4.246094-1.871094 9.214844-.085937 11.300782 4.0625 9.988281 18.300782 21.882812 35.492188 35.484374 51.289063h.089844c1.148438 1.410156 2.382813 2.824219 3.621094 4.238281.871094.941406 1.480469 2.097656 1.765625 3.351562 1 3.273438 0 6.824219-2.5625 9.09375zm0 0"/><path d="m371.023438 454.621094c-.25 1.761718-1.050782 3.402344-2.296876 4.679687-1.058593 1.058594-2.117187 2.207031-3.265624 3.351563-20.148438 20.28125-43.617188 36.96875-69.382813 49.347656h-31.25c.042969-3.675781 2.3125-6.960938 5.738281-8.296875 27.179688-10.269531 52.164063-25.609375 73.621094-45.199219h.089844c2.734375-2.472656 5.296875-4.941406 7.679687-7.324218h.085938c1.414062-1.414063 2.738281-2.738282 3.972656-4.0625 1.871094-1.960938 4.546875-2.941407 7.238281-2.648438.152344-.003906.304688.023438.441406.089844.210938-.011719.421876.019531.621094.085937 0 0 0-.085937.085938 0 1.546875.304688 2.964844 1.074219 4.0625 2.207031 2.109375 1.992188 3.074218 4.914063 2.558594 7.769532zm0 0"/></g><path d="m232.878906 137.613281c-8.390625-3.085937-17.199218-4.871093-26.128906-5.296875-12.003906-.90625-24.015625 1.652344-34.605469 7.378906 1.207031-15.449218 37.023438-18.503906 54.53125-14.53125 2.777344.347657 5.191407 2.058594 6.441407 4.5625 1.246093 2.5 1.15625 5.460938-.238282 7.886719zm0 0" fill="#2c2f38"/><path d="m229.515625 160.496094c0-10.449219-7.902344-18.921875-17.652344-18.921875s-17.65625 8.472656-17.65625 18.921875c0 10.449218 7.90625 18.921875 17.65625 18.921875s17.652344-8.472657 17.652344-18.921875zm0 0" fill="#4fba6f"/><path d="m216.8125 144.078125c-4.558594-1.734375-9.65625.554687-11.390625 5.109375-1.734375 4.558594.554687 9.65625 5.113281 11.390625 4.554688 1.734375 9.65625-.554687 11.390625-5.113281 1.730469-4.554688-.558593-9.65625-5.113281-11.386719zm0 0" fill="#fff"/><path d="m279.121094 137.613281c8.390625-3.085937 17.199218-4.871093 26.128906-5.296875 12.003906-.90625 24.015625 1.652344 34.605469 7.378906-1.207031-15.449218-37.023438-18.503906-54.53125-14.53125-2.777344.347657-5.191407 2.058594-6.441407 4.5625-1.246093 2.5-1.15625 5.460938.238282 7.886719zm0 0" fill="#2c2f38"/><path d="m317.792969 160.496094c0-10.449219-7.90625-18.921875-17.65625-18.921875s-17.652344 8.472656-17.652344 18.921875c0 10.449218 7.902344 18.921875 17.652344 18.921875s17.65625-8.472657 17.65625-18.921875zm0 0" fill="#4fba6f"/><path d="m306.578125 149.1875c-1.734375-4.554688-6.832031-6.84375-11.390625-5.109375-4.554688 1.730469-6.84375 6.832031-5.113281 11.386719 1.734375 4.558594 6.832031 6.847656 11.390625 5.113281s6.847656-6.832031 5.113281-11.390625zm0 0" fill="#fff"/></svg>