<svg height="512pt" viewBox="0 0 512.00027 512" width="512pt" xmlns="http://www.w3.org/2000/svg"><path d="m185.378906 300.136719h141.242188v79.449219h-141.242188zm0 0" fill="#f29c1f"/><path d="m512 504.144531v7.855469h-512v-7.855469c-.015625-11.304687 1.347656-22.570312 4.0625-33.546875l8.207031-24.453125c9.523438-34.710937 41.429688-58.507812 77.417969-57.730469h332.625c35.988281-.777343 67.894531 23.019532 77.417969 57.730469l8.207031 24.453125c2.714844 10.976563 4.078125 22.242188 4.0625 33.546875zm0 0" fill="#2fa8cc"/><path d="m194.207031 512h-123.585937l29.925781-135.945312c3.046875-9.125 11.957031-14.964844 21.539063-14.125h10.328124v44.140624c15.359376 7.679688 37.429688 22.066407 42.902344 25.597657zm0 0" fill="#84b5cb"/><path d="m441.378906 512h-123.585937l18.890625-80.332031c2.738281-1.765625 9.621094-6.265625 17.742187-11.210938 8.125-5.03125 17.480469-10.503906 25.160157-14.386719v-44.140624h10.328124c9.605469-.84375 18.539063 4.992187 21.628907 14.125zm0 0" fill="#84b5cb"/><path d="m353.105469 361.929688-6.269531 26.484374-10.152344 43.253907-18.890625 80.332031h-123.585938l-18.890625-80.332031-10.152344-43.253907-6.265624-26.484374zm0 0" fill="#f0c419"/><path d="m175.316406 431.667969c-5.472656-3.53125-27.542968-17.917969-42.902344-25.597657v-44.140624h26.484376zm0 0" fill="#e6e7e8"/><path d="m379.585938 361.929688v44.140624c-7.679688 3.882813-17.035157 9.355469-25.160157 14.386719-8.121093 4.945313-15.003906 9.445313-17.742187 11.210938l16.421875-69.738281zm0 0" fill="#e6e7e8"/><path d="m388.414062 88.277344v167.722656c.011719 16.390625-6.496093 32.117188-18.085937 43.707031-11.589844 11.589844-27.316406 18.097657-43.707031 18.085938h-141.242188c-16.390625.011719-32.117187-6.496094-43.707031-18.085938-11.589844-11.589843-18.097656-27.316406-18.085937-43.707031v-167.722656zm0 0" fill="#f0c419"/><path d="m423.722656 170.460938c-8.824218 50.933593-35.308594 67.882812-35.308594 67.882812-26.484374 0-17.65625-85.273438-35.308593-113.699219-17.65625-28.421875-79.449219-9.445312-97.105469-9.445312s-79.449219-18.976563-97.101562 9.445312c-17.65625 28.425781-8.828126 113.699219-35.3125 113.699219 0 0-26.480469-16.949219-35.308594-67.882812-8.828125-50.847657 0-135.679688 70.621094-144.242188 11.03125-1.238281 21.097656-2.382812 30.363281-3.355469 8.566406-.882812 16.421875-1.589843 23.484375-2.117187.164062-.074219.347656-.101563.527344-.089844h.089843c10.304688-13.046875 26.011719-20.65625 42.636719-20.65625s32.332031 7.609375 42.636719 20.65625h.089843c.179688-.011719.363282.015625.527344.089844 7.0625.527344 14.921875 1.234375 23.484375 2.117187 9.265625.972657 19.332031 2.117188 30.367188 3.355469 70.617187 8.5625 79.445312 93.394531 70.617187 144.242188zm0 0" fill="#2c2f38"/><path d="m329.445312 58.351562c-.917968.273438-1.867187.421876-2.824218.441407-3.796875.019531-7.179688-2.402344-8.386719-6.003907-3.925781-10.71875-9.792969-20.621093-17.300781-29.21875-.738282-.824218-1.308594-1.785156-1.679688-2.824218 7.0625.527344 14.921875 1.234375 23.484375 2.117187 5.039063 7.574219 9.160157 15.726563 12.269531 24.277344 1.515626 4.628906-.960937 9.617187-5.5625 11.210937zm0 0" fill="#bdc3c7"/><path d="m212.746094 20.746094c-.371094 1.039062-.941406 2-1.679688 2.824218-7.507812 8.597657-13.375 18.5-17.300781 29.21875-1.207031 3.601563-4.589844 6.023438-8.386719 6.003907-.957031-.019531-1.90625-.167969-2.824218-.441407-4.601563-1.59375-7.078126-6.582031-5.5625-11.210937 3.113281-8.550781 7.230468-16.703125 12.269531-24.277344 8.566406-.882812 16.421875-1.589843 23.484375-2.117187zm0 0" fill="#bdc3c7"/><g fill="#f29c1f"><path d="m247.171875 494.34375c-.007813 6.203125-1.652344 12.292969-4.765625 17.65625h-30.542969c9.738281-.027344 17.625-7.917969 17.652344-17.65625 0-4.875 3.953125-8.828125 8.828125-8.828125s8.828125 3.953125 8.828125 8.828125zm0 0"/><path d="m300.136719 512h-30.542969c-3.113281-5.363281-4.757812-11.453125-4.765625-17.65625 0-4.875 3.953125-8.828125 8.828125-8.828125s8.828125 3.953125 8.828125 8.828125c.027344 9.738281 7.914063 17.628906 17.652344 17.65625zm0 0"/><path d="m238.34375 423.722656c-2.339844.003906-4.585938-.925781-6.238281-2.585937l-6.242188-6.238281h-14c-4.875 0-8.828125-3.953126-8.828125-8.828126s3.953125-8.828124 8.828125-8.828124h17.652344c2.34375 0 4.585937.929687 6.242187 2.585937l8.828126 8.828125c2.523437 2.523438 3.277343 6.320312 1.914062 9.617188-1.367188 3.300781-4.585938 5.449218-8.15625 5.449218zm0 0"/><path d="m273.65625 423.722656c-3.570312 0-6.789062-2.148437-8.15625-5.449218-1.363281-3.296876-.609375-7.09375 1.914062-9.617188l8.828126-8.828125c1.65625-1.65625 3.898437-2.585937 6.242187-2.585937h17.652344c4.875 0 8.828125 3.953124 8.828125 8.828124s-3.953125 8.828126-8.828125 8.828126h-14l-6.242188 6.238281c-1.652343 1.660156-3.898437 2.589843-6.238281 2.585937zm0 0"/></g><path d="m297.734375 251.585938c-7.132813 13.957031-29.398437 15.933593-41.558594 15.933593-12.1875 0-34.421875-1.976562-41.554687-15.933593 13.601562 3.351562 27.546875 5.097656 41.554687 5.207031 14.007813-.105469 27.957031-1.855469 41.558594-5.207031zm0 0" fill="#2c2f38"/><path d="m232.878906 159.679688c-8.390625-3.082032-17.199218-4.867188-26.128906-5.292969-12.003906-.910157-24.015625 1.652343-34.605469 7.378906 1.207031-15.449219 37.023438-18.503906 54.53125-14.53125 2.777344.34375 5.191407 2.058594 6.441407 4.558594 1.246093 2.503906 1.15625 5.464843-.238282 7.886719zm0 0" fill="#2c2f38"/><path d="m229.515625 186.980469c0-10.453125-7.902344-18.925781-17.652344-18.925781s-17.65625 8.472656-17.65625 18.925781c0 10.449219 7.90625 18.921875 17.65625 18.921875s17.652344-8.472656 17.652344-18.921875zm0 0" fill="#2c2f38"/><path d="m216.8125 170.558594c-4.558594-1.730469-9.65625.558594-11.390625 5.113281-1.734375 4.558594.554687 9.65625 5.113281 11.390625 4.558594 1.730469 9.65625-.558594 11.390625-5.113281 1.730469-4.558594-.558593-9.65625-5.113281-11.390625zm0 0" fill="#fff"/><path d="m279.121094 159.679688c8.390625-3.082032 17.203125-4.867188 26.128906-5.292969 12.003906-.910157 24.015625 1.652343 34.605469 7.378906-1.207031-15.449219-37.023438-18.503906-54.53125-14.53125-2.773438.34375-5.191407 2.058594-6.441407 4.558594-1.246093 2.503906-1.15625 5.464843.238282 7.886719zm0 0" fill="#2c2f38"/><path d="m317.792969 186.980469c0-10.453125-7.902344-18.925781-17.65625-18.925781-9.75 0-17.652344 8.472656-17.652344 18.925781 0 10.449219 7.902344 18.921875 17.652344 18.921875 9.753906 0 17.65625-8.472656 17.65625-18.921875zm0 0" fill="#2c2f38"/><path d="m306.578125 175.671875c-1.734375-4.558594-6.832031-6.847656-11.390625-5.113281-4.554688 1.734375-6.84375 6.832031-5.113281 11.390625 1.734375 4.554687 6.832031 6.84375 11.390625 5.113281 4.558594-1.734375 6.847656-6.835938 5.113281-11.390625zm0 0" fill="#fff"/></svg>