<svg height="512pt" viewBox="0 0 512.00027 512" width="512pt" xmlns="http://www.w3.org/2000/svg"><path d="m414.898438 512h97.101562v-7.855469c.015625-11.304687-1.347656-22.570312-4.0625-33.546875l-8.207031-24.453125c-9.523438-34.710937-41.429688-58.507812-77.417969-57.730469h-332.625c-35.988281-.777343-67.894531 23.019532-77.417969 57.730469l-8.207031 24.453125c-2.714844 10.976563-4.078125 22.242188-4.0625 33.546875v7.855469zm0 0" fill="#e4c05c"/><path d="m185.378906 300.136719h141.242188v79.449219h-141.242188zm0 0" fill="#f29c1f"/><path d="m203.035156 512h-132.414062l29.925781-135.945312c3.046875-9.125 11.957031-14.964844 21.539063-14.125h36.8125c.527343 1.945312 1.144531 3.796874 1.675781 5.652343.242187.925781.535156 1.839844.882812 2.734375.265625.972656.617188 1.855469.882813 2.648438.882812 2.738281 1.765625 5.386718 2.734375 7.945312.109375.367188.257812.722656.441406 1.058594.707031 2.03125 1.414063 3.972656 2.207031 5.828125.53125 1.324219 1.0625 2.648437 1.589844 3.882813.097656.160156.160156.34375.175781.53125 1.414063 3.351562 2.914063 6.441406 4.328125 9.355468.882813 1.765625 1.675782 3.445313 2.558594 5.03125.265625.617188.617188 1.148438.882812 1.679688.175782.261718.351563.617187.53125.882812.351563.792969.792969 1.5 1.144532 2.207032 1.679687 2.910156 3.355468 5.648437 5.035156 8.121093.882812 1.410157 1.765625 2.734375 2.648438 3.972657.703124.96875 1.320312 1.851562 2.027343 2.734374l.53125.796876c.265625.261718.441407.617187.707031.882812.3125.363281.609376.746094.882813 1.144531.703125.882813 1.410156 1.679688 2.117187 2.472657 1.234376 1.589843 2.558594 2.914062 3.621094 4.0625 1.359375 1.433593 2.804688 2.789062 4.324219 4.058593.332031.320313.683594.617188 1.058594.882813l.265625.265625c.25.199219.515625.375.792968.53125l.089844.085937c1.375 2.597656 2.585938 5.28125 3.617188 8.035156 8.050781 20.378907 6.726562 43.269532-3.617188 62.585938zm0 0" fill="#f3d55b"/><path d="m441.378906 512h-132.414062c-7.652344-13.710938-10.480469-29.597656-8.03125-45.109375.351562-2.207031.707031-4.238281 1.148437-6.089844 0-.175781.085938-.355469.085938-.53125.882812-3.617187 1.855469-6.882812 2.738281-9.621093.175781-.441407.261719-.792969.441406-1.148438v-.085938l.085938-.089843c.996094-2.726563 2.175781-5.378907 3.53125-7.945313.40625-.261718.789062-.558594 1.148437-.882812.351563-.261719.792969-.617188 1.324219-1.058594 1.058594-.972656 2.382812-2.207031 4.0625-3.882812 1.058594-1.148438 2.382812-2.472657 3.617188-4.0625.707031-.792969 1.414062-1.589844 2.117187-2.472657.355469-.519531.738281-1.019531 1.148437-1.5.121094-.195312.269532-.375.441407-.527343 1.679687-2.207032 3.445312-4.679688 5.210937-7.503907 2.203125-3.355469 4.410156-7.0625 6.707032-11.210937 1.148437-2.121094 2.296874-4.328125 3.441406-6.710938 1.414062-2.914062 2.914062-6.003906 4.328125-9.355468.011719-.207032.105469-.398438.261719-.53125.441406-1.234376.972656-2.558594 1.503906-3.882813 1.851562-4.589844 3.707031-9.535156 5.382812-14.832031.617188-1.765625 1.238282-3.53125 1.765625-5.382813.53125-1.855469 1.148438-3.707031 1.679688-5.652343h36.808593c9.605469-.84375 18.539063 4.992187 21.628907 14.125zm0 0" fill="#f3d55b"/><path d="m308.964844 512h-105.929688c10.34375-19.316406 11.667969-42.207031 3.617188-62.585938-1.03125-2.753906-2.242188-5.4375-3.617188-8.035156.707032-1.410156 1.5-2.914062 2.382813-4.324218.175781-.355469.441406-.707032.707031-1.148438.375-.773438.816406-1.511719 1.324219-2.207031 4.734375-7.433594 10.082031-14.460938 15.976562-21.007813 1.324219-1.503906 2.472657-2.828125 3.441407-3.886718l.972656-.96875c1.058594-1.148438 1.675781-1.765626 1.675781-1.765626l5.386719 7.148438 21.097656 28.160156 21.097656-28.160156 5.386719-7.148438s.617187.617188 1.675781 1.765626l.972656.96875c.261719.355468.617188.707031.96875 1.148437.257813.214844.492188.449219.707032.707031.617187.617188 1.148437 1.324219 1.765625 2.03125 5.324219 5.941406 10.21875 12.253906 14.652343 18.890625.292969.519531.617188 1.019531.972657 1.5.148437.183594.269531.394531.351562.617188 1.605469 2.480469 3.078125 5.046875 4.414063 7.679687-1.355469 2.566406-2.535156 5.21875-3.53125 7.945313l-.085938.089843v.085938c-1.351562 3.5-2.414062 7.101562-3.179687 10.769531-.527344 2.121094-.882813 4.328125-1.234375 6.621094-2.449219 15.511719.378906 31.398437 8.03125 45.109375zm0 0" fill="#c03a2b"/><path d="m353.105469 361.929688c-.53125 1.945312-1.148438 3.796874-1.679688 5.652343-.527343 1.851563-1.148437 3.707031-1.765625 5.382813-1.675781 5.296875-3.53125 10.242187-5.382812 14.832031-.53125 1.324219-1.0625 2.648437-1.503906 3.882813-.15625.132812-.25.324218-.261719.53125-1.414063 3.351562-2.914063 6.441406-4.328125 9.355468-1.144532 2.382813-2.292969 4.589844-3.441406 6.710938-.175782.261718-.351563.617187-.53125.882812-.96875 1.765625-1.941407 3.441406-2.824219 5.03125-.527344.96875-1.148438 1.851563-1.675781 2.734375-.617188.882813-1.148438 1.765625-1.675782 2.5625-1.765625 2.824219-3.53125 5.296875-5.210937 7.503907-.175781.175781-.265625.351562-.441407.527343-.410156.480469-.792968.980469-1.148437 1.5-.703125.882813-1.410156 1.679688-2.117187 2.472657-1.234376 1.589843-2.558594 2.914062-3.617188 4.0625-1.679688 1.675781-3.003906 2.910156-4.0625 3.882812-.53125.441406-.972656.792969-1.324219 1.058594-.359375.324218-.742187.621094-1.148437.882812-.707032-1.410156-1.5-2.914062-2.382813-4.324218v-.089844c-.195312-.347656-.433593-.675782-.707031-.96875v-.089844c-.085938-.175781-.085938-.265625-.175781-.351562 0-.089844-.089844-.179688-.175781-.355469l-.089844-.085938c0-.089843-.085938-.179687-.175782-.355469-.203124-.371093-.441406-.726562-.707031-1.058593-.085937-.175781-.265625-.441407-.351562-.617188-.089844-.089843-.175781-.265625-.265625-.355469-.203125-.398437-.4375-.785156-.707032-1.144531-.441406-.617187-.882812-1.324219-1.324218-1.941406-.261719-.441406-.527344-.796875-.792969-1.238281-.265625-.351563-.617187-.792969-.972656-1.234375-.203125-.34375-.441407-.667969-.703125-.972657l-1.0625-1.589843c-.085938-.085938-.175782-.261719-.261719-.351563-.230469-.191406-.414063-.433594-.53125-.707031-.265625-.351563-.617187-.707031-.882813-1.058594-.6875-.949219-1.421874-1.863281-2.207031-2.738281-2.117187-2.734375-4.148437-5.03125-5.914062-7.058594-.617188-.707031-1.148438-1.414062-1.765625-2.03125l-.707032-.707031c-2.207031-2.472656-3.617187-3.882813-3.617187-3.882813l1.144531-1.414062 2.03125-2.558594 2.296875-2.914062 29.835938-37.253906zm0 0" fill="#e4c05c"/><path d="m317.792969 361.929688-29.835938 37.253906-2.296875 2.914062-2.03125 2.558594-1.144531 1.414062-5.386719 7.148438-21.097656 28.160156-21.097656-28.160156-5.386719-7.148438-5.472656-6.886718-29.835938-37.253906zm0 0" fill="#f0c419"/><path d="m229.515625 406.070312s-.617187.617188-1.675781 1.765626l-.972656.96875c-.96875 1.058593-2.117188 2.382812-3.441407 3.886718-5.894531 6.546875-11.242187 13.574219-15.976562 21.007813-.507813.695312-.949219 1.433593-1.324219 2.207031-.300781.339844-.539062.726562-.707031 1.148438-.882813 1.410156-1.675781 2.914062-2.382813 4.324218l-.089844-.085937c-.277343-.15625-.542968-.332031-.792968-.53125l-.265625-.265625c-.375-.265625-.726563-.5625-1.058594-.882813-1.519531-1.269531-2.964844-2.625-4.324219-4.058593-1.0625-1.148438-2.386718-2.472657-3.621094-4.0625-.707031-.792969-1.414062-1.589844-2.117187-2.472657-.273437-.398437-.570313-.78125-.882813-1.144531-.207031-.316406-.445312-.613281-.707031-.882812l-.53125-.796876c-.707031-.882812-1.410156-1.851562-2.027343-2.734374-.882813-1.238282-1.765626-2.5625-2.648438-3.972657-1.679688-2.472656-3.355469-5.121093-5.035156-8.121093-.351563-.707032-.792969-1.414063-1.144532-2.207032-.179687-.265625-.355468-.621094-.53125-.882812-.265624-.53125-.617187-1.0625-.882812-1.679688-.882812-1.585937-1.765625-3.265625-2.558594-5.03125-1.414062-2.914062-2.824218-6.003906-4.328125-9.355468-.015625-.1875-.078125-.371094-.175781-.53125-.527344-1.234376-1.058594-2.558594-1.589844-3.882813-.792968-1.855469-1.5-3.796875-2.207031-5.828125-.183594-.335938-.332031-.691406-.441406-1.058594-.96875-2.558594-1.851563-5.207031-2.734375-7.945312-.265625-.792969-.617188-1.675782-.882813-2.648438-.351562-.882812-.617187-1.851562-.882812-2.734375-.53125-1.855469-1.148438-3.707031-1.675781-5.652343h35.308593l29.835938 37.253906zm0 0" fill="#e4c05c"/><path d="m125.261719 115.113281c-2.339844 0-4.585938-.929687-6.242188-2.585937s-2.585937-3.902344-2.582031-6.242188c.007812-.808594.117188-1.613281.324219-2.398437 1.039062-4.355469 5.171875-7.246094 9.617187-6.722657 4.449219.519532 7.800782 4.289063 7.800782 8.765626-.003907.734374-.097657 1.464843-.277344 2.175781-.859375 4.082031-4.464844 7.007812-8.640625 7.007812zm0 0"/><path d="m386.738281 115.113281c-4.183593.003907-7.796875-2.925781-8.652343-7.019531-.171876-.707031-.261719-1.433594-.265626-2.164062-.003906-4.484376 3.351563-8.261719 7.808594-8.777344 4.453125-.519532 8.589844 2.386718 9.613282 6.753906.199218.777344.308593 1.574219.320312 2.378906 0 2.339844-.929688 4.585938-2.582031 6.242188-1.65625 1.65625-3.902344 2.585937-6.242188 2.585937zm0 0"/><path d="m388.414062 132.414062v123.585938c.011719 16.390625-6.496093 32.117188-18.085937 43.707031-11.589844 11.589844-27.316406 18.097657-43.707031 18.085938h-141.242188c-16.390625.011719-32.117187-6.496094-43.707031-18.085938-11.589844-11.589843-18.097656-27.316406-18.085937-43.707031v-123.585938c.03125-8.527343.5625-17.046874 1.589843-25.511718 32.660157 10.503906 67 42.109375 130.824219 43.167968 63.824219-1.058593 98.164062-32.664062 130.824219-43.167968 1.027343 8.464844 1.558593 16.984375 1.589843 25.511718zm0 0" fill="#f0c419"/><path d="m125.175781 106.902344c-1.027343 8.464844-1.558593 16.984375-1.589843 25.511718v97.101563s-114.933594-73.265625-51.730469-114.757813c11.34375-8.265624 25.304687-12.125 39.285156-10.855468 3.917969.378906 7.792969 1.148437 11.5625 2.292968.796875.175782 1.675781.441407 2.472656.707032zm0 0" fill="#b19046"/><path d="m388.414062 229.515625v-97.101563c-.03125-8.527343-.5625-17.046874-1.589843-25.511718.796875-.265625 1.679687-.53125 2.472656-.707032 3.769531-1.144531 7.644531-1.914062 11.5625-2.292968 13.980469-1.269532 27.941406 2.589844 39.285156 10.855468 63.203125 41.492188-51.730469 114.757813-51.730469 114.757813zm0 0" fill="#b19046"/><path d="m386.824219 106.902344c-32.660157 10.503906-67 42.109375-130.824219 43.167968-63.824219-1.058593-98.164062-32.664062-130.824219-43.167968 0-.175782.085938-.441406.085938-.617188 49.703125 1.589844 99.488281 8.472656 130.738281 8.472656s81.039062-6.882812 130.738281-8.472656c0 .175782.085938.441406.085938.617188zm0 0" fill="#f3d55b"/><path d="m400.859375 103.902344c-3.917969.378906-7.792969 1.148437-11.5625 2.292968-.882813 0-1.675781.089844-2.558594.089844-49.699219 1.589844-99.488281 8.472656-130.738281 8.472656s-81.035156-6.882812-130.738281-8.472656c-.882813 0-1.675781-.089844-2.558594-.089844-3.769531-1.144531-7.644531-1.914062-11.5625-2.292968l39.015625-81.304688c5.292969-13.621094 18.402344-22.59374975 33.015625-22.597656h145.65625c14.613281.00390625 27.722656 8.976562 33.015625 22.597656zm0 0" fill="#e4c05c"/><g fill="#805333"><path d="m167.722656 229.515625c0 4.878906-3.949218 8.828125-8.824218 8.828125-4.878907 0-8.828126-3.949219-8.828126-8.828125 0-4.875 3.949219-8.824219 8.828126-8.824219 4.875 0 8.824218 3.949219 8.824218 8.824219zm0 0"/><path d="m167.722656 256c0 4.875-3.949218 8.828125-8.824218 8.828125-4.878907 0-8.828126-3.953125-8.828126-8.828125s3.949219-8.828125 8.828126-8.828125c4.875 0 8.824218 3.953125 8.824218 8.828125zm0 0"/><path d="m194.207031 256c0 4.875-3.953125 8.828125-8.828125 8.828125s-8.828125-3.953125-8.828125-8.828125 3.953125-8.828125 8.828125-8.828125 8.828125 3.953125 8.828125 8.828125zm0 0"/><path d="m194.207031 282.484375c0 4.875-3.953125 8.824219-8.828125 8.824219s-8.828125-3.949219-8.828125-8.824219 3.953125-8.828125 8.828125-8.828125 8.828125 3.953125 8.828125 8.828125zm0 0"/><path d="m220.691406 282.484375c0 4.875-3.953125 8.824219-8.828125 8.824219s-8.828125-3.949219-8.828125-8.824219 3.953125-8.828125 8.828125-8.828125 8.828125 3.953125 8.828125 8.828125zm0 0"/><path d="m361.929688 229.515625c0 4.878906-3.949219 8.828125-8.824219 8.828125-4.878907 0-8.828125-3.949219-8.828125-8.828125 0-4.875 3.949218-8.824219 8.828125-8.824219 4.875 0 8.824219 3.949219 8.824219 8.824219zm0 0"/><path d="m361.929688 256c0 4.875-3.949219 8.828125-8.824219 8.828125-4.878907 0-8.828125-3.953125-8.828125-8.828125s3.949218-8.828125 8.828125-8.828125c4.875 0 8.824219 3.953125 8.824219 8.828125zm0 0"/><path d="m335.449219 256c0 4.875-3.953125 8.828125-8.828125 8.828125s-8.828125-3.953125-8.828125-8.828125 3.953125-8.828125 8.828125-8.828125 8.828125 3.953125 8.828125 8.828125zm0 0"/><path d="m335.449219 282.484375c0 4.875-3.953125 8.824219-8.828125 8.824219s-8.828125-3.949219-8.828125-8.824219 3.953125-8.828125 8.828125-8.828125 8.828125 3.953125 8.828125 8.828125zm0 0"/><path d="m308.964844 282.484375c0 4.875-3.953125 8.824219-8.828125 8.824219s-8.828125-3.949219-8.828125-8.824219 3.953125-8.828125 8.828125-8.828125 8.828125 3.953125 8.828125 8.828125zm0 0"/></g><path d="m235.785156 412.335938-.882812.882812c-1.148438 1.148438-3.355469 3.53125-6.089844 6.710938-5.941406 6.710937-11.261719 13.949218-15.890625 21.625-.707031 1.238281-1.414063 2.5625-2.03125 3.796874-.894531 1.808594-2.390625 3.246094-4.238281 4.0625-.40625.25-.855469.429688-1.324219.527344-.75.175782-1.519531.265625-2.292969.265625-1.734375.003907-3.425781-.519531-4.855468-1.5-.710938-.484375-1.390626-1.015625-2.03125-1.589843l-.085938-.089844-.179688-.175782c-7.324218-5.914062-29.925781-28.160156-45.460937-82.535156-.253906-.769531-.371094-1.578125-.351563-2.386718h18.007813c6.023437 23.964843 17.269531 46.300781 32.925781 65.414062 5.039063-7.671875 10.675782-14.933594 16.859375-21.714844l-30.542969-38.226562c-1.269531-1.539063-1.957031-3.476563-1.941406-5.472656h20.128906l30.894532 38.667968c.089844 0 .089844.085938.175781.175782 2.640625 3.519531 2.300781 8.4375-.792969 11.5625zm0 0" fill="#b19046"/><path d="m361.929688 361.929688c.015624.808593-.105469 1.613281-.351563 2.386718-15.535156 54.375-38.136719 76.621094-45.460937 82.535156l-.179688.175782c0 .089844-.085938.089844-.085938.179687-1.148437.882813-1.855468 1.410157-2.03125 1.5-1.429687.980469-3.121093 1.503907-4.855468 1.5-.773438 0-1.542969-.089843-2.292969-.265625-.46875-.097656-.917969-.277344-1.324219-.527344-1.84375-.816406-3.34375-2.253906-4.238281-4.0625-.617187-1.234374-1.324219-2.558593-2.03125-3.796874-4.628906-7.675782-9.949219-14.914063-15.890625-21.625-2.734375-3.179688-4.941406-5.5625-6.089844-6.710938l-.882812-.882812c-3.09375-3.125-3.433594-8.042969-.792969-11.5625.085937-.089844.085937-.175782.175781-.175782l30.894532-38.667968h20.128906c.015625 1.996093-.671875 3.933593-1.941406 5.472656l-30.542969 38.226562c6.183593 6.78125 11.820312 14.042969 16.859375 21.714844 15.644531-19.125 26.882812-41.457031 32.925781-65.414062zm0 0" fill="#b19046"/><path d="m256 450.207031c-2.777344 0-5.394531-1.308593-7.0625-3.53125l-26.480469-35.308593c-2.925781-3.902344-2.136719-9.433594 1.765625-12.359376 3.898438-2.925781 9.429688-2.136718 12.355469 1.765626l19.421875 25.890624 19.421875-25.890624c2.925781-3.902344 8.457031-4.691407 12.359375-1.765626 3.898438 2.925782 4.6875 8.457032 1.765625 12.359376l-26.484375 35.308593c-1.667969 2.222657-4.285156 3.53125-7.0625 3.53125zm0 0" fill="#b19046"/><path d="m212.921875 512h-18.714844c-.019531-1.519531.378907-3.015625 1.148438-4.324219 9.902343-18.945312 10.164062-41.476562.707031-60.648437l-.179688-.175782c-.144531-.394531-.320312-.777343-.527343-1.148437-1.832031-3.277344-1.371094-7.363281 1.148437-10.148437.609375-.753907 1.359375-1.382813 2.207032-1.855469 2.71875-1.5 6.019531-1.5 8.738281 0 1.378906.792969 2.511719 1.953125 3.265625 3.355469.828125 1.453124 1.566406 2.957031 2.207031 4.5 10.265625 22.359374 10.265625 48.085937 0 70.445312zm0 0" fill="#b19046"/><path d="m317.792969 512h-18.714844c-10.265625-22.359375-10.265625-48.085938 0-70.445312.640625-1.542969 1.378906-3.046876 2.207031-4.5.78125-1.382813 1.90625-2.539063 3.265625-3.355469 2.699219-1.589844 6.042969-1.589844 8.742188 0 .84375.472656 1.59375 1.101562 2.207031 1.855469 2.511719 2.789062 2.972656 6.867187 1.144531 10.148437-.207031.371094-.382812.753906-.527343 1.148437l-.179688.175782c-9.417969 19.179687-9.15625 41.695312.707031 60.648437.769531 1.308594 1.167969 2.804688 1.148438 4.324219zm0 0" fill="#b19046"/><path d="m297.734375 256c-7.132813 13.957031-29.398437 15.933594-41.558594 15.933594-12.1875 0-34.421875-1.976563-41.554687-15.933594 13.601562 3.351562 27.546875 5.097656 41.554687 5.207031 14.007813-.105469 27.957031-1.855469 41.558594-5.207031zm0 0" fill="#2c2f38"/><path d="m232.878906 164.09375c-8.390625-3.082031-17.199218-4.867188-26.128906-5.296875-12.003906-.90625-24.015625 1.65625-34.605469 7.378906 1.207031-15.445312 37.023438-18.5 54.53125-14.527343 2.777344.34375 5.191407 2.058593 6.441407 4.558593 1.246093 2.503907 1.15625 5.464844-.238282 7.886719zm0 0" fill="#2c2f38"/><path d="m229.515625 191.394531c0-10.453125-7.902344-18.925781-17.652344-18.925781s-17.65625 8.472656-17.65625 18.925781c0 10.449219 7.90625 18.921875 17.65625 18.921875s17.652344-8.472656 17.652344-18.921875zm0 0" fill="#2c2f38"/><path d="m216.816406 174.96875c-4.554687-1.734375-9.65625.554688-11.386718 5.113281-1.734376 4.554688.554687 9.65625 5.109374 11.386719 4.558594 1.734375 9.65625-.554688 11.390626-5.113281 1.734374-4.554688-.554688-9.652344-5.113282-11.386719zm0 0" fill="#fff"/><path d="m279.121094 164.09375c8.390625-3.082031 17.203125-4.867188 26.128906-5.296875 12.003906-.90625 24.015625 1.65625 34.605469 7.378906-1.207031-15.445312-37.023438-18.5-54.53125-14.527343-2.773438.34375-5.191407 2.058593-6.441407 4.558593-1.246093 2.503907-1.15625 5.464844.238282 7.886719zm0 0" fill="#2c2f38"/><path d="m317.792969 191.394531c0-10.453125-7.902344-18.925781-17.65625-18.925781-9.75 0-17.652344 8.472656-17.652344 18.925781 0 10.449219 7.902344 18.921875 17.652344 18.921875 9.753906 0 17.65625-8.472656 17.65625-18.921875zm0 0" fill="#2c2f38"/><path d="m306.578125 180.085938c-1.734375-4.558594-6.832031-6.847657-11.390625-5.113282-4.554688 1.734375-6.84375 6.832032-5.113281 11.390625 1.734375 4.554688 6.835937 6.84375 11.390625 5.113281 4.558594-1.734374 6.847656-6.835937 5.113281-11.390624zm0 0" fill="#fff"/></svg>