<svg height="512pt" viewBox="0 0 512.00027 512" width="512pt" xmlns="http://www.w3.org/2000/svg"><path d="m185.378906 300.136719h141.242188v79.449219h-141.242188zm0 0" fill="#603e26"/><path d="m414.898438 512h97.101562v-7.855469c.015625-11.304687-1.347656-22.570312-4.0625-33.546875l-8.207031-24.453125c-9.523438-34.710937-41.429688-58.507812-77.417969-57.730469h-332.625c-35.988281-.777343-67.894531 23.019532-77.417969 57.730469l-8.207031 24.453125c-2.714844 10.976563-4.078125 22.242188-4.0625 33.546875v7.855469zm0 0" fill="#805333"/><path d="m441.378906 512h-370.757812l29.90625-135.917969c3.0625-9.140625 11.988281-14.992187 21.589844-14.152343h267.820312c9.601562-.839844 18.53125 5.011718 21.589844 14.152343zm0 0" fill="#e64c3c"/><path d="m407.039062 512h-301.109374c35.3125-44.136719 26.484374-150.070312 26.484374-150.070312h70.621094s0 114.761718 52.964844 114.761718 52.964844-114.761718 52.964844-114.761718h71.59375s-8.828125 105.933593 26.480468 150.070312zm0 0" fill="#285680"/><path d="m308.964844 361.929688h35.3125s17.652344 150.070312-88.277344 150.070312-88.277344-150.070312-88.277344-150.070312h35.3125" fill="#f29c1f"/><path d="m317.792969 361.929688s0 114.761718-61.792969 114.761718-61.792969-114.761718-61.792969-114.761718zm0 0" fill="#e57e25"/><path d="m344.277344 88.277344v-70.621094c0-9.75-7.90625-17.65625-17.65625-17.65625h-141.242188c-9.75 0-17.65625 7.90625-17.65625 17.65625v70.621094" fill="#2c2f38"/><path d="m203.035156 79.449219c-4.875 0-8.828125-3.953125-8.828125-8.828125v-17.65625c0-4.875 3.953125-8.828125 8.828125-8.828125s8.828125 3.953125 8.828125 8.828125v17.65625c0 4.875-3.953125 8.828125-8.828125 8.828125zm0 0" fill="#464f5d"/><path d="m238.34375 79.449219c-4.875 0-8.828125-3.953125-8.828125-8.828125v-35.3125c0-4.875 3.953125-8.824219 8.828125-8.824219s8.828125 3.949219 8.828125 8.824219v35.3125c0 4.875-3.953125 8.828125-8.828125 8.828125zm0 0" fill="#464f5d"/><path d="m273.65625 79.449219c-4.875 0-8.828125-3.953125-8.828125-8.828125v-35.3125c0-4.875 3.953125-8.824219 8.828125-8.824219s8.828125 3.949219 8.828125 8.824219v35.3125c0 4.875-3.953125 8.828125-8.828125 8.828125zm0 0" fill="#464f5d"/><path d="m308.964844 79.449219c-4.875 0-8.828125-3.953125-8.828125-8.828125v-17.65625c0-4.875 3.953125-8.828125 8.828125-8.828125s8.828125 3.953125 8.828125 8.828125v17.65625c0 4.875-3.953125 8.828125-8.828125 8.828125zm0 0" fill="#464f5d"/><path d="m185.378906 70.621094h141.242188c34.128906 0 61.792968 27.664062 61.792968 61.792968v123.585938c0 34.128906-27.664062 61.792969-61.792968 61.792969h-141.242188c-34.125 0-61.792968-27.664063-61.792968-61.792969v-123.585938c0-34.128906 27.667968-61.792968 61.792968-61.792968zm0 0" fill="#805333"/><g fill="#2c2f38"><path d="m167.722656 229.515625c0 4.878906-3.949218 8.828125-8.824218 8.828125-4.878907 0-8.828126-3.949219-8.828126-8.828125 0-4.875 3.949219-8.824219 8.828126-8.824219 4.875 0 8.824218 3.949219 8.824218 8.824219zm0 0"/><path d="m167.722656 256c0 4.875-3.949218 8.828125-8.824218 8.828125-4.878907 0-8.828126-3.953125-8.828126-8.828125s3.949219-8.828125 8.828126-8.828125c4.875 0 8.824218 3.953125 8.824218 8.828125zm0 0"/><path d="m194.207031 256c0 4.875-3.953125 8.828125-8.828125 8.828125s-8.828125-3.953125-8.828125-8.828125 3.953125-8.828125 8.828125-8.828125 8.828125 3.953125 8.828125 8.828125zm0 0"/><path d="m194.207031 282.484375c0 4.875-3.953125 8.824219-8.828125 8.824219s-8.828125-3.949219-8.828125-8.824219 3.953125-8.828125 8.828125-8.828125 8.828125 3.953125 8.828125 8.828125zm0 0"/><path d="m220.691406 282.484375c0 4.875-3.953125 8.824219-8.828125 8.824219s-8.828125-3.949219-8.828125-8.824219 3.953125-8.828125 8.828125-8.828125 8.828125 3.953125 8.828125 8.828125zm0 0"/><path d="m361.929688 229.515625c0 4.878906-3.949219 8.828125-8.824219 8.828125-4.878907 0-8.828125-3.949219-8.828125-8.828125 0-4.875 3.949218-8.824219 8.828125-8.824219 4.875 0 8.824219 3.949219 8.824219 8.824219zm0 0"/><path d="m361.929688 256c0 4.875-3.949219 8.828125-8.824219 8.828125-4.878907 0-8.828125-3.953125-8.828125-8.828125s3.949218-8.828125 8.828125-8.828125c4.875 0 8.824219 3.953125 8.824219 8.828125zm0 0"/><path d="m335.449219 256c0 4.875-3.953125 8.828125-8.828125 8.828125s-8.828125-3.953125-8.828125-8.828125 3.953125-8.828125 8.828125-8.828125 8.828125 3.953125 8.828125 8.828125zm0 0"/><path d="m335.449219 282.484375c0 4.875-3.953125 8.824219-8.828125 8.824219s-8.828125-3.949219-8.828125-8.824219 3.953125-8.828125 8.828125-8.828125 8.828125 3.953125 8.828125 8.828125zm0 0"/><path d="m308.964844 282.484375c0 4.875-3.953125 8.824219-8.828125 8.824219s-8.828125-3.949219-8.828125-8.824219 3.953125-8.828125 8.828125-8.828125 8.828125 3.953125 8.828125 8.828125zm0 0"/></g><path d="m264.828125 361.929688v61.792968c0 4.878906-3.953125 8.828125-8.828125 8.828125s-8.828125-3.949219-8.828125-8.828125v-61.792968zm0 0" fill="#f29c1f"/><path d="m297.734375 245.449219c-7.128906-13.957031-29.394531-15.933594-41.558594-15.933594-12.1875 0-34.421875 1.976563-41.554687 15.933594 13.601562-3.351563 27.546875-5.097657 41.554687-5.207031 14.007813.105468 27.957031 1.855468 41.558594 5.207031zm0 0" fill="#2c2f38"/><path d="m232.878906 146.441406c-8.390625-3.085937-17.199218-4.871094-26.128906-5.296875-12.003906-.90625-24.015625 1.652344-34.605469 7.378907 1.207031-15.449219 37.023438-18.503907 54.53125-14.53125 2.777344.347656 5.191407 2.058593 6.441407 4.5625 1.246093 2.5 1.15625 5.460937-.238282 7.886718zm0 0" fill="#2c2f38"/><path d="m229.515625 173.738281c0-10.453125-7.902344-18.921875-17.652344-18.921875s-17.65625 8.46875-17.65625 18.921875c0 10.449219 7.90625 18.921875 17.65625 18.921875s17.652344-8.472656 17.652344-18.921875zm0 0" fill="#2c2f38"/><path d="m216.816406 157.3125c-4.558594-1.734375-9.65625.554688-11.390625 5.113281-1.730469 4.558594.558594 9.65625 5.113281 11.390625 4.558594 1.730469 9.65625-.558594 11.390626-5.113281 1.730468-4.558594-.558594-9.65625-5.113282-11.390625zm0 0" fill="#fff"/><path d="m279.121094 146.441406c8.390625-3.085937 17.203125-4.871094 26.128906-5.296875 12.003906-.90625 24.015625 1.652344 34.605469 7.378907-1.207031-15.449219-37.023438-18.503907-54.53125-14.53125-2.773438.347656-5.191407 2.058593-6.441407 4.5625-1.246093 2.5-1.15625 5.460937.238282 7.886718zm0 0" fill="#2c2f38"/><path d="m317.792969 173.738281c0-10.453125-7.902344-18.921875-17.65625-18.921875-9.75 0-17.652344 8.46875-17.652344 18.921875 0 10.449219 7.902344 18.921875 17.652344 18.921875 9.753906 0 17.65625-8.472656 17.65625-18.921875zm0 0" fill="#2c2f38"/><path d="m306.578125 162.429688c-1.734375-4.554688-6.832031-6.84375-11.390625-5.113282-4.554688 1.734375-6.84375 6.832032-5.113281 11.390625 1.734375 4.554688 6.835937 6.84375 11.390625 5.113281 4.558594-1.734374 6.847656-6.832031 5.113281-11.390624zm0 0" fill="#fff"/></svg>