<svg height="512pt" viewBox="0 0 512.00027 512" width="512pt" xmlns="http://www.w3.org/2000/svg"><path d="m185.378906 264.828125h141.242188v79.449219h-141.242188zm0 0" fill="#f29c1f"/><path d="m512 504.144531v7.855469h-512v-7.855469c-.015625-11.304687 1.347656-22.570312 4.0625-33.546875l8.207031-59.761718c9.523438-34.714844 41.429688-58.507813 77.417969-57.730469h332.625c35.988281-.777344 67.894531 23.015625 77.417969 57.730469l8.207031 59.761718c2.714844 10.976563 4.078125 22.242188 4.0625 33.546875zm0 0" fill="#2c3e50"/><path d="m370.757812 326.621094h19.15625c9.605469-.84375 18.539063 4.992187 21.628907 14.125l2.117187 12.359375 27.71875 158.894531h-370.757812l27.804687-158.894531 2.121094-12.359375c3.046875-9.125 11.957031-14.96875 21.539063-14.125zm0 0" fill="#35495e"/><path d="m370.757812 326.621094v17.65625c-.019531 29.242187-23.722656 52.941406-52.964843 52.964844h-123.585938c-29.242187-.023438-52.941406-23.722657-52.964843-52.964844v-17.65625zm0 0" fill="#2c3e50"/><path d="m220.691406 326.621094h70.617188v70.621094h-70.617188zm0 0" fill="#fff"/><path d="m185.378906 35.308594h141.242188c34.128906 0 61.792968 27.667968 61.792968 61.796875v123.585937c0 34.125-27.664062 61.792969-61.792968 61.792969h-141.242188c-34.125 0-61.792968-27.667969-61.792968-61.792969v-123.585937c0-34.128907 27.667968-61.796875 61.792968-61.796875zm0 0" fill="#f0c419"/><path d="m220.691406 0h70.617188c4.878906 0 8.828125 3.953125 8.828125 8.828125v26.480469h-88.273438v-26.480469c0-4.875 3.949219-8.828125 8.828125-8.828125zm0 0" fill="#f29c1f"/><path d="m264.828125 432.550781v79.449219h-17.65625v-79.449219c0-4.875 3.953125-8.828125 8.828125-8.828125s8.828125 3.953125 8.828125 8.828125zm0 0" fill="#f3d55b"/><path d="m282.484375 467.863281h-52.96875c-4.875 0-8.824219-3.953125-8.824219-8.828125s3.949219-8.828125 8.824219-8.828125h52.96875c4.875 0 8.824219 3.953125 8.824219 8.828125s-3.949219 8.828125-8.824219 8.828125zm0 0" fill="#f3d55b"/><g fill="#2c2f38"><path d="m297.734375 207.449219c-7.132813 13.957031-29.398437 15.929687-41.558594 15.929687-12.1875 0-34.421875-1.972656-41.554687-15.929687 13.601562 3.351562 27.546875 5.097656 41.554687 5.207031 14.007813-.109375 27.957031-1.855469 41.558594-5.207031zm0 0"/><path d="m232.878906 115.542969c-8.390625-3.082031-17.199218-4.871094-26.128906-5.296875-12.003906-.90625-24.015625 1.65625-34.605469 7.378906 1.207031-15.449219 37.023438-18.5 54.53125-14.527344 2.777344.34375 5.191407 2.054688 6.441407 4.558594 1.246093 2.503906 1.15625 5.464844-.238282 7.886719zm0 0"/><path d="m229.515625 142.839844c0-10.449219-7.902344-18.921875-17.652344-18.921875s-17.65625 8.472656-17.65625 18.921875c0 10.453125 7.90625 18.925781 17.65625 18.925781s17.652344-8.472656 17.652344-18.925781zm0 0"/></g><path d="m216.8125 126.421875c-4.558594-1.734375-9.65625.554687-11.390625 5.113281-1.730469 4.554688.558594 9.65625 5.113281 11.386719 4.558594 1.734375 9.65625-.554687 11.390625-5.109375 1.730469-4.558594-.558593-9.65625-5.113281-11.390625zm0 0" fill="#fff"/><path d="m279.121094 115.542969c8.390625-3.082031 17.203125-4.871094 26.128906-5.296875 12.003906-.90625 24.015625 1.65625 34.605469 7.378906-1.207031-15.449219-37.023438-18.5-54.53125-14.527344-2.773438.34375-5.191407 2.054688-6.441407 4.558594-1.246093 2.503906-1.15625 5.464844.238282 7.886719zm0 0" fill="#2c2f38"/><path d="m317.792969 142.839844c0-10.449219-7.902344-18.921875-17.65625-18.921875-9.75 0-17.652344 8.472656-17.652344 18.921875 0 10.453125 7.902344 18.925781 17.652344 18.925781 9.753906 0 17.65625-8.472656 17.65625-18.925781zm0 0" fill="#2c2f38"/><path d="m306.578125 131.535156c-1.734375-4.558594-6.832031-6.847656-11.390625-5.113281-4.554688 1.730469-6.84375 6.832031-5.113281 11.386719 1.734375 4.558594 6.832031 6.847656 11.390625 5.113281 4.558594-1.730469 6.847656-6.832031 5.113281-11.386719zm0 0" fill="#fff"/></svg>