<svg height="512pt" viewBox="0 0 512.00027 512" width="512pt" xmlns="http://www.w3.org/2000/svg"><path d="m185.378906 291.308594h141.242188v79.449218h-141.242188zm0 0" fill="#f29c1f"/><path d="m512 504.144531v7.855469h-512v-7.855469c-.015625-11.304687 1.347656-22.570312 4.0625-33.546875l8.207031-33.277344c9.523438-34.714843 41.429688-58.511718 77.417969-57.734374h332.625c35.988281-.777344 67.894531 23.019531 77.417969 57.734374l8.207031 33.277344c2.714844 10.976563 4.078125 22.242188 4.0625 33.546875zm0 0" fill="#4482c3"/><path d="m256 511.910156v.089844h-185.378906l27.367187-132.414062 2.558594-12.359376c3.046875-9.125 11.957031-14.964843 21.539063-14.121093h54.464843l-.085937.085937c-.089844 0-.179688.089844-.265625.265625-.71875.507813-1.398438 1.066407-2.03125 1.675781-.085938.089844-.175781.089844-.265625.265626-1.019532.859374-1.988282 1.773437-2.910156 2.738281l-1.238282 1.234375c-2.976562 3.109375-5.75 6.414062-8.296875 9.886718-.707031.972657-1.414062 2.03125-2.207031 3.179688-1.5 2.207031-3 4.589844-4.414062 7.148438l-.089844.089843c-.617188 1.144531-1.324219 2.382813-1.941406 3.707031-.351563.792969-.792969 1.589844-1.148438 2.382813-.617188 1.234375-1.234375 2.558594-1.765625 3.882813-.878906 2.03125-1.761719 4.238281-2.558594 6.445312-.617187 1.765625-1.234375 3.621094-1.765625 5.472656-.085937.441406-.265625.796875-.351562 1.238282-.265625.882812-.441406 1.851562-.707032 2.734374-.644531 2.382813-1.144531 4.796876-1.5 7.238282-.265624 1.238281-.441406 2.5625-.617187 3.886718-.355469 2.382813-.621094 4.941407-.882813 7.5v.621094c-.179687 2.46875-.265624 5.03125-.265624 7.679688v.085937c11.214843-5.101562 24.09375-5.101562 35.308593 0-11.039062 12.089844-17.3125 27.773438-17.652343 44.140625 6.953124-.648437 13.941406-.855468 20.917968-.621094 1.414063 0 2.828125.089844 4.328125.179688 1.148438 0 2.292969.085938 3.53125.175781.738281.011719 1.476563.070313 2.207031.175781 4.4375.285157 8.859376.8125 13.238282 1.589844 1.238281.175782 2.5625.441406 3.886718.707032.328126.015624.65625.074218.96875.175781 2.03125.441406 3.972657.882812 6.003907 1.410156 2.03125.53125 4.148437 1.0625 6.179687 1.765625 1.414063.53125 2.824219.972656 4.238282 1.589844 4.203124 1.566406 8.25 3.515625 12.09375 5.828125 1.234374.792969 2.472656 1.585937 3.617187 2.46875 4.085937 2.894531 7.6875 6.410156 10.683594 10.417969.085937.089843.175781.265624.265625.351562.34375.4375.640625.914062.878906 1.414062.269531.28125.480469.609376.621094.972657.261718.351562.441406.703125.703125 1.058593v.085938c.109375.136719.199219.285156.265625.441406.195312.285156.375.578125.53125.882813.183594.308593.332031.632812.441406.972656.152344.214844.269531.453125.351562.707031.066407.132813.15625.25.265626.351563.011718.230469.105468.453125.265624.617187l.527344 1.5zm0 0" fill="#285680"/><path d="m441.378906 512h-185.378906v-.089844h.089844c.175781-.527344.351562-.96875.527344-1.5.160156-.164062.253906-.386718.265624-.617187.171876-.371094.378907-.726563.617188-1.058594 0-.175781.089844-.265625.175781-.441406.085938-.195313.207031-.375.355469-.53125 0-.085938.085938-.175781.085938-.261719.179687-.355469.441406-.707031.621093-1.0625.359375-.707031.769531-1.386719 1.234375-2.027344l.089844-.089844v-.089843c.261719-.441407.617188-.882813.882812-1.324219.085938-.085938.175782-.261719.261719-.351562 2.996094-4.007813 6.597657-7.523438 10.683594-10.417969 1.148437-.882813 2.382813-1.675781 3.617187-2.46875 3.84375-2.3125 7.894532-4.261719 12.09375-5.828125 1.414063-.617188 2.824219-1.058594 4.238282-1.589844 2.03125-.703125 4.148437-1.234375 6.179687-1.765625 2.03125-.527344 3.972657-.96875 6.003907-1.410156.3125-.101563.640624-.160157.96875-.175781 1.324218-.265626 2.648437-.53125 3.886718-.707032 6.273438-1.09375 12.613282-1.742187 18.976563-1.941406 1.5-.089844 2.914062-.179688 4.328125-.179688 6.976562-.234374 13.964844-.027343 20.921875.621094-.34375-16.367187-6.617188-32.050781-17.65625-44.140625 11.214843-5.101562 24.09375-5.101562 35.308593 0 0-2.648437-.085937-5.296875-.265624-7.765625v-.621094c-.261719-2.558593-.527344-5.117187-.882813-7.5-.261719-2.386718-.703125-4.769531-1.144531-6.976562-.621094-2.824219-1.324219-5.472656-2.03125-8.121094-.441406-1.589844-.972656-3.175781-1.5-4.679687-.820313-2.457031-1.761719-4.871094-2.824219-7.238281-.53125-1.324219-1.148437-2.648438-1.765625-3.882813-.355469-.792969-.796875-1.589844-1.148438-2.382813-.617187-1.324218-1.324218-2.5625-1.941406-3.707031l-.089844-.089843c-.792968-1.410157-1.589843-2.734376-2.382812-4.058594-.089844-.089844-.175781-.265625-.265625-.355469-.617187-.96875-1.148437-1.851563-1.765625-2.734375-.792969-1.148438-1.5-2.207031-2.207031-3.179688-2.199219-2.976562-4.558594-5.835937-7.0625-8.5625-.175781-.175781-.265625-.351562-.441407-.441406-.242187-.3125-.507812-.609375-.792968-.882812-.394532-.484375-.839844-.929688-1.324219-1.324219l-.617187-.617187c-1.410157-1.425782-2.914063-2.753907-4.503907-3.972657-.085937-.175781-.175781-.265625-.265625-.265625l-.085937-.085937h54.464843c9.605469-.84375 18.539063 4.988281 21.628907 14.121093l2.558593 12.359376zm0 0" fill="#285680"/><path d="m317.792969 353.105469-26.484375 114.757812-35.308594 44.136719-35.308594-44.136719-26.484375-114.757812zm0 0" fill="#bdc3c7"/><path d="m251.675781 500.964844 3.441407 8.828125c-.109376-.101563-.199219-.21875-.265626-.351563-.097656-.246094-.214843-.480468-.351562-.707031-.109375-.339844-.257812-.664063-.441406-.972656-.15625-.304688-.335938-.597657-.53125-.882813-.066406-.15625-.15625-.304687-.265625-.441406v-.085938c-.203125-.375-.4375-.726562-.703125-1.058593-.175782-.34375-.382813-.671875-.621094-.972657-.261719-.441406-.617188-.972656-.878906-1.414062-.089844-.085938-.179688-.261719-.265625-.351562-2.996094-4.007813-6.597657-7.523438-10.683594-10.417969-1.144531-.882813-2.382813-1.675781-3.617187-2.46875-3.84375-2.3125-7.890626-4.261719-12.09375-5.828125-1.382813-.605469-2.796876-1.136719-4.238282-1.589844-2.03125-.703125-4.148437-1.234375-6.179687-1.765625-2.03125-.527344-4.058594-.96875-6.003907-1.410156-.3125-.101563-.640624-.160157-.96875-.175781-1.324218-.265626-2.5625-.53125-3.886718-.707032-4.378906-.777344-8.800782-1.304687-13.238282-1.589844-.734374-.101562-1.46875-.160156-2.207031-.175781-1.238281-.089843-2.382812-.175781-3.53125-.175781-1.5-.089844-2.914062-.179688-4.328125-.179688-6.976562-.234374-13.964844-.027343-20.917968.621094.339843-16.367187 6.613281-32.050781 17.652343-44.140625-11.214843-5.101562-24.09375-5.101562-35.308593 0v-.085937c0-2.648438.085937-5.210938.265624-7.679688v-.621094c.261719-2.558593.527344-5.117187.882813-7.5.175781-1.324218.351563-2.648437.617187-3.886718.355469-2.441406.855469-4.855469 1.5-7.238282.265626-.882812.441407-1.851562.707032-2.734374.085937-.441407.265625-.796876.351562-1.238282.53125-1.851562 1.148438-3.707031 1.765625-5.472656.796875-2.207031 1.679688-4.414062 2.558594-6.445312.53125-1.324219 1.148437-2.648438 1.765625-3.882813.355469-.792969.796875-1.589844 1.148438-2.382813.617187-1.324218 1.324218-2.5625 1.941406-3.707031l.089844-.089843c1.414062-2.558594 2.914062-4.941407 4.414062-7.148438.792969-1.148438 1.5-2.207031 2.207031-3.179688 2.546875-3.472656 5.320313-6.777343 8.296875-9.886718l1.238282-1.234375c.921874-.964844 1.890624-1.878907 2.910156-2.738281l.265625-.265626c.632812-.609374 1.3125-1.167968 2.03125-1.675781.085937-.175781.175781-.265625.265625-.265625l.085937-.085937h17.65625l6.886719 17.652343 3.441406 8.828126 11.386719 29.308593 29.660156 76.359375zm0 0" fill="#4482c3"/><path d="m335.449219 432.550781c11.039062 12.089844 17.3125 27.773438 17.65625 44.140625-6.957031-.648437-13.945313-.855468-20.921875-.621094-1.414063 0-2.828125.089844-4.328125.179688-6.363281.199219-12.703125.847656-18.976563 1.941406-1.324218.175782-2.5625.441406-3.886718.707032-.328126.015624-.65625.074218-.96875.175781-1.941407.441406-3.972657.882812-6.003907 1.410156-2.03125.53125-4.148437 1.0625-6.179687 1.765625-1.441406.453125-2.855469.984375-4.238282 1.589844-4.199218 1.566406-8.25 3.515625-12.09375 5.828125-1.234374.792969-2.46875 1.585937-3.617187 2.46875-4.085937 2.894531-7.6875 6.410156-10.683594 10.417969-.085937.089843-.175781.265624-.261719.351562-.265624.441406-.621093.882812-.882812 1.324219v.089843l-.089844.089844c-.464844.640625-.875 1.320313-1.234375 2.027344-.238281.335938-.445312.6875-.621093 1.0625 0 .085938-.085938.175781-.085938.261719-.148438.15625-.269531.335937-.355469.53125-.085937.175781-.175781.265625-.175781.441406-.171875.371094-.378906.726563-.617188 1.058594l3.441407-8.828125v-.085938l6.09375-15.714844.085937-.089843 29.574219-76.179688 11.386719-29.308593 3.441406-8.828126 6.886719-17.652343h17.65625l.085937.085937c.089844 0 .179688.089844.265625.265625 1.589844 1.21875 3.09375 2.546875 4.503907 3.972657.226562.183593.433593.390624.617187.617187l1.324219 1.324219c.285156.273437.550781.570312.792968.882812.175782.089844.265626.265625.441407.441406 2.503906 2.726563 4.863281 5.585938 7.0625 8.5625.707031.972657 1.414062 2.03125 2.207031 3.179688.617188.882812 1.148438 1.765625 1.765625 2.734375.089844.089844.175781.265625.265625.355469.792969 1.324218 1.589844 2.648437 2.382812 4.058594l.089844.089843c.617188 1.144531 1.324219 2.382813 1.941406 3.707031.351563.792969.792969 1.589844 1.148438 2.382813.617188 1.234375 1.234375 2.558594 1.765625 3.882813 1.0625 2.367187 2.003906 4.78125 2.824219 7.238281.527344 1.503906.96875 3.089843 1.5 4.679687.707031 2.648438 1.410156 5.296875 2.03125 8.121094.441406 2.207031.882812 4.589844 1.144531 6.976562.355469 2.382813.621094 4.941407.882813 7.5v.621094c.179687 2.558594.265624 5.117188.265624 7.765625-11.214843-5.101562-24.09375-5.101562-35.308593 0zm0 0" fill="#4482c3"/><path d="m264.828125 512h-18.539063c-17.566406-33.101562-85.714843-26.660156-86.421874-26.570312-2.496094.34375-5.015626-.433594-6.886719-2.121094-1.851563-1.703125-2.90625-4.101563-2.910157-6.617188.105469-13.875 4.144532-27.4375 11.652344-39.109375-5.644531-.304687-11.289062.660157-16.507812 2.828125-2.730469 1.402344-5.996094 1.277344-8.609375-.328125-2.617188-1.605469-4.207031-4.460937-4.191407-7.53125-.171874-18.398437 4.097657-36.566406 12.445313-52.964843 4.859375-9.703126 11.136719-18.628907 18.628906-26.480469h21.890625c-.019531 2.773437-1.320312 5.382812-3.53125 7.058593-6.621094 5.507813-12.289062 12.070313-16.773437 19.421876-7.839844 12.378906-12.734375 26.390624-14.300781 40.960937 10.105468-1.816406 20.527343-.363281 29.75 4.148437 2.535156 1.257813 4.308593 3.65625 4.769531 6.445313.414062 2.804687-.5 5.644531-2.472657 7.679687-7.175781 8.046876-12.078124 17.855469-14.214843 28.425782 19.628906-.941406 39.261719 1.75 57.910156 7.941406h.089844c6.789062 2.394531 13.1875 5.785156 18.976562 10.066406 3.90625 2.738282 7.410157 6.007813 10.417969 9.710938 1.589844 1.859375 3.035156 3.835937 4.324219 5.914062v.085938c.265625.53125.621093 1.058594.882812 1.589844.375.558593.703125 1.148437.972657 1.765624.707031 1.414063 1.414062 2.914063 2.03125 4.414063.414062 1.039063.625 2.148437.617187 3.265625zm0 0" fill="#2fa8cc"/><path d="m379.585938 432.550781c.015624 3.070313-1.574219 5.925781-4.191407 7.53125-2.613281 1.605469-5.878906 1.730469-8.609375.328125-5.210937-2.195312-10.859375-3.160156-16.507812-2.828125 7.492187 11.679688 11.53125 25.234375 11.652344 39.109375-.003907 2.488282-1.0625 4.863282-2.910157 6.53125-1.882812 1.671875-4.382812 2.472656-6.886719 2.207032-.707031-.089844-68.679687-7.0625-86.335937 26.570312h-18.625c-.007813-1.117188.203125-2.226562.617187-3.265625.621094-1.5 1.324219-3 2.03125-4.414063.269532-.617187.597657-1.207031.972657-1.765624.257812-.546876.554687-1.078126.882812-1.589844 1.289063-2.105469 2.734375-4.113282 4.324219-6 3.007812-3.730469 6.511719-7.027344 10.417969-9.800782l.085937-.089843c5.820313-4.136719 12.175782-7.460938 18.890625-9.886719h.089844c18.628906-6.277344 38.277344-8.972656 57.910156-7.941406-1.996093-10.617188-6.921875-20.460938-14.214843-28.425782-1.972657-2.035156-2.886719-4.875-2.46875-7.679687.457031-2.789063 2.234374-5.1875 4.765624-6.445313 9.222657-4.511718 19.644532-5.964843 29.75-4.148437-1.539062-14.5625-6.402343-28.574219-14.214843-40.960937-4.558594-7.324219-10.25-13.878907-16.859375-19.421876-2.207032-1.675781-3.511719-4.285156-3.53125-7.058593h21.890625c7.492187 7.851562 13.769531 16.777343 18.628906 26.480469 8.347656 16.398437 12.617187 34.566406 12.445313 52.964843zm0 0" fill="#2fa8cc"/><path d="m388.414062 105.929688v141.242187c.011719 16.394531-6.496093 32.117187-18.085937 43.707031-11.589844 11.59375-27.316406 18.097656-43.707031 18.085938h-141.242188c-16.390625.011718-32.117187-6.492188-43.707031-18.085938-11.589844-11.589844-18.097656-27.3125-18.085937-43.707031v-141.242187zm0 0" fill="#f0c419"/><path d="m396.710938 111.84375v-.085938c-3.117188-20.792968.121093-42.039062 9.292968-60.957031 2.027344-4.351562 2.1875-9.347656.4375-13.820312-1.746094-4.472657-5.25-8.035157-9.691406-9.859375-45.046875-16.933594-92.636719-26.105469-140.75-27.121094-48.113281 1.015625-95.703125 10.1875-140.75 27.121094-4.441406 1.824218-7.945312 5.386718-9.691406 9.859375-1.75 4.472656-1.589844 9.46875.4375 13.820312 9.171875 18.917969 12.410156 40.164063 9.292968 60.957031v.085938zm0 0" fill="#cc4b4c"/><path d="m256 114.757812c52.964844 0 52.964844 8.828126 105.929688 26.484376 52.96875 17.65625 61.792968-8.828126 61.792968-8.828126-44.136718-44.136718-123.585937-52.964843-167.722656-52.964843s-123.585938 8.828125-167.722656 52.964843c0 0 8.828125 26.484376 61.792968 8.828126 52.964844-17.65625 52.964844-26.484376 105.929688-26.484376zm0 0" fill="#e64c3c"/><path d="m317.792969 353.105469-21.714844 55.789062c-23.058594 19.773438-57.09375 19.773438-80.15625 0l-21.714844-55.789062zm0 0" fill="#ecf0f1"/><g fill="#2c2f38"><path d="m297.734375 251.585938c-7.132813 13.957031-29.398437 15.933593-41.558594 15.933593-12.1875 0-34.421875-1.976562-41.554687-15.933593 13.601562 3.351562 27.546875 5.097656 41.554687 5.207031 14.007813-.105469 27.957031-1.855469 41.558594-5.207031zm0 0"/><path d="m232.878906 159.679688c-8.390625-3.082032-17.199218-4.867188-26.128906-5.292969-12.003906-.910157-24.015625 1.652343-34.605469 7.378906 1.207031-15.449219 37.023438-18.503906 54.53125-14.53125 2.777344.34375 5.191407 2.058594 6.441407 4.558594 1.246093 2.503906 1.15625 5.464843-.238282 7.886719zm0 0"/><path d="m229.515625 186.980469c0-10.453125-7.902344-18.925781-17.652344-18.925781s-17.65625 8.472656-17.65625 18.925781c0 10.449219 7.90625 18.921875 17.65625 18.921875s17.652344-8.472656 17.652344-18.921875zm0 0"/></g><path d="m216.8125 170.558594c-4.558594-1.730469-9.65625.558594-11.390625 5.113281-1.734375 4.558594.554687 9.65625 5.113281 11.390625 4.558594 1.730469 9.65625-.558594 11.390625-5.113281 1.730469-4.558594-.558593-9.65625-5.113281-11.390625zm0 0" fill="#fff"/><path d="m279.121094 159.679688c8.390625-3.082032 17.203125-4.867188 26.128906-5.292969 12.003906-.910157 24.015625 1.652343 34.605469 7.378906-1.207031-15.449219-37.023438-18.503906-54.53125-14.53125-2.773438.34375-5.191407 2.058594-6.441407 4.558594-1.246093 2.503906-1.15625 5.464843.238282 7.886719zm0 0" fill="#2c2f38"/><path d="m317.792969 186.980469c0-10.453125-7.902344-18.925781-17.65625-18.925781-9.75 0-17.652344 8.472656-17.652344 18.925781 0 10.449219 7.902344 18.921875 17.652344 18.921875 9.753906 0 17.65625-8.472656 17.65625-18.921875zm0 0" fill="#2c2f38"/><path d="m306.578125 175.671875c-1.734375-4.558594-6.832031-6.847656-11.390625-5.113281-4.554688 1.734375-6.84375 6.832031-5.113281 11.390625 1.734375 4.554687 6.832031 6.84375 11.390625 5.113281 4.558594-1.734375 6.847656-6.835938 5.113281-11.390625zm0 0" fill="#fff"/></svg>