<svg height="512pt" viewBox="0 0 512.00027 512" width="512pt" xmlns="http://www.w3.org/2000/svg"><path d="m185.378906 291.308594h141.242188v79.449218h-141.242188zm0 0" fill="#802f34"/><path d="m512 504.144531v7.855469h-512v-7.855469c-.015625-11.304687 1.347656-22.570312 4.0625-33.546875l8.207031-33.277344c9.523438-34.714843 41.429688-58.511718 77.417969-57.734374h332.625c35.988281-.777344 67.894531 23.019531 77.417969 57.734374l8.207031 33.277344c2.714844 10.976563 4.078125 22.242188 4.0625 33.546875zm0 0" fill="#c03a2b"/><path d="m441.378906 512h-370.757812l27.367187-132.414062 2.558594-12.359376c3.046875-9.125 11.957031-14.964843 21.539063-14.121093h267.828124c9.605469-.84375 18.539063 4.988281 21.628907 14.121093l2.558593 12.359376zm0 0" fill="#e64c3c"/><path d="m238.34375 0h35.3125c78.003906 0 141.242188 63.234375 141.242188 141.242188v79.449218c0 23.410156-9.300782 45.863282-25.855469 62.417969-16.554688 16.554687-39.011719 25.855469-62.421875 25.855469h-141.242188c-48.753906 0-88.273437-39.523438-88.273437-88.273438v-79.449218c0-78.007813 63.234375-141.242188 141.238281-141.242188zm0 0" fill="#f5efca"/><path d="m159.453125 79.449219c-3.484375-.003907-6.636719-2.050781-8.058594-5.230469-1.417969-3.179688-.835937-6.898438 1.488281-9.492188 21.769532-24.296874 52.839844-38.203124 85.460938-38.242187h35.3125c4.875 0 8.828125 3.949219 8.828125 8.824219 0 4.878906-3.953125 8.828125-8.828125 8.828125h-35.3125c-27.605469.042969-53.894531 11.8125-72.3125 32.375-1.675781 1.871093-4.066406 2.941406-6.578125 2.9375zm0 0" fill="#fff"/><path d="m185.378906 105.929688h141.242188c24.375 0 44.136718 19.761718 44.136718 44.140624v35.308594c0 43.878906-35.570312 79.449219-79.449218 79.449219h-70.617188c-43.878906 0-79.449218-35.570313-79.449218-79.449219v-35.308594c0-24.378906 19.761718-44.140624 44.136718-44.140624zm0 0" fill="#e4c05c"/><path d="m176.550781 167.722656c-3.570312 0-6.785156-2.148437-8.152343-5.449218-1.367188-3.296876-.613282-7.09375 1.914062-9.617188l17.652344-17.65625c3.464844-3.34375 8.96875-3.296875 12.375.109375 3.40625 3.402344 3.453125 8.910156.109375 12.375l-17.65625 17.652344c-1.652344 1.660156-3.898438 2.589843-6.242188 2.585937zm0 0" fill="#f9eab0"/><path d="m185.378906 203.035156c-3.570312 0-6.789062-2.152344-8.152344-5.449218-1.367187-3.300782-.613281-7.09375 1.910157-9.621094l52.96875-52.964844c3.460937-3.34375 8.96875-3.296875 12.375.109375 3.402343 3.402344 3.449219 8.910156.105469 12.375l-52.964844 52.964844c-1.652344 1.65625-3.898438 2.589843-6.242188 2.585937zm0 0" fill="#f9eab0"/><path d="m264.828125 397.242188v114.757812h-17.65625v-114.757812c0-4.875 3.953125-8.828126 8.828125-8.828126s8.828125 3.953126 8.828125 8.828126zm0 0" fill="#802f34"/><path d="m185.378906 353.105469h141.242188c0 24.375-19.761719 44.136719-44.136719 44.136719h-52.96875c-24.375 0-44.136719-19.761719-44.136719-44.136719zm0 0" fill="#c03a2b"/><path d="m203.035156 459.035156h-61.792968c-4.875 0-8.828126-3.953125-8.828126-8.828125s3.953126-8.828125 8.828126-8.828125h61.792968c4.875 0 8.828125 3.953125 8.828125 8.828125s-3.953125 8.828125-8.828125 8.828125zm0 0" fill="#71c285"/><path d="m370.757812 450.207031c0 9.75-7.902343 17.65625-17.652343 17.65625-9.753907 0-17.65625-7.90625-17.65625-17.65625s7.902343-17.65625 17.65625-17.65625c9.75 0 17.652343 7.90625 17.652343 17.65625zm0 0" fill="#f0c419"/></svg>