<svg height="512pt" viewBox="0 0 512.00027 512" width="512pt" xmlns="http://www.w3.org/2000/svg"><path d="m97.105469 132.414062h317.792969v291.308594h-317.792969zm0 0" fill="#464f5d"/><path d="m441.378906 167.722656v229.519532l-51.464844-28.691407c8.261719-35.96875 7.289063-73.441406-2.824218-108.929687-3.882813-12.449219-9.269532-7.675782-16.332032-14.738282-25.6875-25.6875-18.183593-72.828124-26.921874-105.046874-10.417969-38.667969-47.671876-35.222657-79.007813-27.367188-27.101563 6.796875-52.964844-17.65625-79.449219 0-26.480468 17.65625 0 61.792969-52.964844 132.414062-3.441406 4.589844-6.355468-5.65625-8.828124-.183593-21.890626 48.199219-8.828126 123.851562-8.828126 123.851562l-44.136718 28.691407v-229.519532c.019531-92.621094 75.101562-167.6992185 167.722656-167.722656h35.3125c92.621094.0234375 167.703125 75.101562 167.722656 167.722656zm0 0" fill="#7d6599"/><path d="m185.378906 291.308594h141.242188v79.449218h-141.242188zm0 0" fill="#f29c1f"/><path d="m387.089844 259.621094c-5.828125 28.75-31.132813 49.398437-60.46875 49.34375h-141.242188c-16.390625.011718-32.117187-6.492188-43.707031-18.085938-11.589844-11.589844-18.097656-27.3125-18.085937-43.707031v-2.472656c2.378906-5.367188 5.339843-10.457031 8.828124-15.183594 52.964844-70.617187 26.484376-114.757813 52.964844-132.410156 26.484375-17.65625 52.347656 6.796875 79.449219 0 31.335937-7.859375 68.589844-11.300781 79.007813 27.363281 8.738281 32.222656 1.234374 79.359375 26.921874 105.046875 7.738282 8.613281 13.332032 18.925781 16.332032 30.105469zm0 0" fill="#f0c419"/><path d="m512 504.144531v7.855469h-512v-7.855469c-.015625-11.304687 1.347656-22.570312 4.0625-33.546875l8.207031-33.277344c9.523438-34.714843 41.429688-58.511718 77.417969-57.734374h332.625c35.988281-.777344 67.894531 23.019531 77.417969 57.734374l8.207031 33.277344c2.714844 10.976563 4.078125 22.242188 4.0625 33.546875zm0 0" fill="#894b9d"/><path d="m370.757812 353.105469-18.777343 46.492187c-20.449219 13.296875-51.015625 24.125-95.980469 24.125s-75.53125-10.828125-95.980469-24.125h-.105469l-18.671874-46.492187zm0 0" fill="#f0c419"/><path d="m185.378906 512v-50.316406c.019532-4.015625-.453125-8.019532-1.410156-11.917969-.71875-3.445313-1.84375-6.796875-3.355469-9.976563l-5.828125-51.816406c25.011719 13.066406 53.023438 19.308594 81.214844 18.097656 28.191406 1.210938 56.203125-5.03125 81.214844-18.097656l-5.828125 51.816406c-1.511719 3.179688-2.636719 6.53125-3.351563 9.976563-.960937 3.898437-1.433594 7.902344-1.414062 11.917969v50.316406zm0 0" fill="#84b5cb"/><path d="m203.035156 461.683594v50.316406h-132.414062l26.484375-128.089844.882812-4.324218 2.558594-12.359376c.433594-2.03125 1.273437-3.953124 2.472656-5.648437l2.910157.351563 11.035156 17.65625 12.890625 20.65625c5.476562 8.753906 12.195312 16.664062 19.949219 23.480468.617187.53125 1.148437.972656 1.675781 1.414063 2.207031 1.855469 4.503906 3.621093 6.886719 5.296875v.089844c2.601562 1.871093 5.3125 3.578124 8.121093 5.117187 6.234375 3.648437 12.832031 6.636719 19.6875 8.917969l15.445313 5.207031c.960937 3.898437 1.433594 7.902344 1.414062 11.917969zm0 0" fill="#955ba5"/><path d="m441.378906 512h-132.414062v-50.316406c-.019532-4.015625.457031-8.019532 1.414062-11.917969l15.449219-5.207031c6.851563-2.28125 13.449219-5.269532 19.683594-8.917969 2.808593-1.539063 5.523437-3.246094 8.121093-5.117187v-.089844c2.382813-1.675782 4.679688-3.441406 6.972657-5.386719l1.589843-1.324219c7.753907-6.816406 14.472657-14.726562 19.949219-23.480468l12.890625-20.65625 11.035156-17.65625 2.46875-.96875c1.503907 1.808593 2.535157 3.960937 3.003907 6.265624l2.558593 12.359376.796876 3.882812zm0 0" fill="#955ba5"/><path d="m201.621094 449.765625-15.445313-5.207031c-9.90625-3.296875-19.273437-8.027344-27.808593-14.035156v-.089844c-11.425782-8.058594-21.121094-18.324219-28.511719-30.191406l-23.925781-38.3125-2.910157-.351563c4.710938-5.609375 11.746094-8.734375 19.066407-8.472656h36.8125l15.800781 34.867187h.085937l23.484375 51.816406c1.507813 3.179688 2.636719 6.53125 3.351563 9.976563zm0 0" fill="#cc66a1"/><path d="m408.539062 360.960938-2.46875.96875-23.925781 38.3125c-7.390625 11.867187-17.085937 22.132812-28.511719 30.191406v.089844c-8.535156 6.007812-17.902343 10.738281-27.804687 14.035156l-15.449219 5.207031c.714844-3.445313 1.84375-6.796875 3.355469-9.976563l23.480469-51.816406 15.890625-34.867187h36.808593c6.207032-.125 12.242188 2.042969 16.949219 6.089843.605469.542969 1.164063 1.132813 1.675781 1.765626zm0 0" fill="#cc66a1"/><path d="m308.964844 512h-105.929688c0-29.25 23.714844-52.964844 52.964844-52.964844 29.253906 0 52.964844 23.714844 52.964844 52.964844zm0 0" fill="#f3d55b"/><path d="m167.195312 430.433594c.015626.441406-.015624.886718-.089843 1.324218-.175781 1.234376-.351563 2.558594-.617188 3.882813-2.285156 14.453125-8.90625 27.875-18.980469 38.488281-13.503906 13.417969-6.796874 34.871094-6.707031 35.132813.28125.886719.429688 1.808593.441407 2.738281h-18.007813c-5.042969-17.703125-.605469-36.753906 11.738281-50.40625 8.152344-8.898438 13.28125-20.144531 14.65625-32.132812.164063-1.59375.8125-3.101563 1.851563-4.324219.34375-.554688.796875-1.03125 1.324219-1.414063 1.5625-1.300781 3.527343-2.015625 5.5625-2.027344 2.058593.007813 4.054687.726563 5.648437 2.027344 2.019531 1.640625 3.191406 4.109375 3.179687 6.710938zm0 0" fill="#fff"/><path d="m388.765625 512h-18.007813c.019532-.929688.167969-1.851562.441407-2.738281.175781-.527344 6.710937-21.800781-6.707031-35.132813-10.074219-10.613281-16.691407-24.035156-18.980469-38.488281-.265625-1.324219-.441407-2.648437-.617188-3.882813-.074219-.40625-.101562-.824218-.089843-1.234374-.019532-2.648438 1.1875-5.160157 3.265624-6.800782 1.542969-1.335937 3.523438-2.058594 5.5625-2.027344 2.066407-.03125 4.074219.691407 5.648438 2.027344.507812.375.953125.820313 1.324219 1.324219 1.0625 1.347656 1.707031 2.972656 1.855469 4.679687 1.371093 11.894532 6.46875 23.050782 14.566406 31.867188 12.34375 13.652344 16.78125 32.703125 11.738281 50.40625zm0 0" fill="#fff"/><g fill="#2c2f38"><path d="m297.734375 256c-7.132813 13.957031-29.398437 15.933594-41.558594 15.933594-12.1875 0-34.421875-1.976563-41.554687-15.933594 13.601562 3.351562 27.546875 5.097656 41.554687 5.207031 14.007813-.105469 27.957031-1.855469 41.558594-5.207031zm0 0"/><path d="m232.878906 159.679688c-8.390625-3.082032-17.199218-4.867188-26.128906-5.292969-12.003906-.910157-24.015625 1.652343-34.605469 7.378906 1.207031-15.449219 37.023438-18.503906 54.53125-14.53125 2.777344.34375 5.191407 2.058594 6.441407 4.558594 1.246093 2.503906 1.15625 5.464843-.238282 7.886719zm0 0"/><path d="m279.121094 159.679688c8.390625-3.082032 17.203125-4.867188 26.128906-5.292969 12.003906-.910157 24.015625 1.652343 34.605469 7.378906-1.207031-15.449219-37.023438-18.503906-54.53125-14.53125-2.773438.34375-5.191407 2.058594-6.441407 4.558594-1.246093 2.503906-1.15625 5.464843.238282 7.886719zm0 0"/><path d="m184.136719 174.242188s2.515625 11.277343 12.238281 9.078124c9.726562-2.199218 11.582031 2.023438 19.960938 1.347657 2.863281-.195313 5.746093-.019531 8.566406.523437 2.003906.46875 4.082031.5 6.101562.101563 2.789063-.746094 2.550782-3.988281 1.570313-6.097657-3.875-8.359374-14.785157-8.972656-22.769531-8.042968-3.382813.917968-6.824219 1.613281-10.300782 2.074218-3.640625-1.007812-7.035156-2.753906-9.976562-5.125.636718 2.265626.792968 4.640626.449218 6.972657-1.007812 1.917969-5.839843-.832031-5.839843-.832031zm0 0"/><path d="m229.515625 191.394531c0-10.453125-7.902344-18.925781-17.652344-18.925781s-17.65625 8.472656-17.65625 18.925781c0 10.449219 7.90625 18.921875 17.65625 18.921875s17.652344-8.472656 17.652344-18.921875zm0 0"/></g><path d="m216.8125 174.972656c-4.558594-1.734375-9.65625.554688-11.390625 5.113282-1.730469 4.554687.558594 9.65625 5.113281 11.386718 4.558594 1.734375 9.65625-.554687 11.390625-5.109375 1.730469-4.558593-.558593-9.65625-5.113281-11.390625zm0 0" fill="#fff"/><path d="m327.855469 174.242188s-2.511719 11.277343-12.238281 9.078124c-9.722657-2.199218-11.578126 2.023438-19.957032 1.347657-2.867187-.195313-5.746094-.019531-8.566406.523437-2.003906.46875-4.082031.5-6.101562.101563-2.792969-.746094-2.550782-3.988281-1.574219-6.097657 3.878906-8.359374 14.789062-8.972656 22.769531-8.042968 3.386719.917968 6.828125 1.613281 10.304688 2.074218 3.640624-1.007812 7.035156-2.753906 9.972656-5.125-.636719 2.265626-.789063 4.640626-.445313 6.972657 1.011719 1.917969 5.835938-.832031 5.835938-.832031zm0 0" fill="#2c2f38"/><path d="m317.789062 191.394531c0-10.453125-7.902343-18.925781-17.652343-18.925781-9.753907 0-17.65625 8.472656-17.65625 18.925781 0 10.449219 7.902343 18.921875 17.65625 18.921875 9.75 0 17.652343-8.472656 17.652343-18.921875zm0 0" fill="#2c2f38"/><path d="m306.574219 180.085938c-1.734375-4.558594-6.832031-6.847657-11.390625-5.113282-4.554688 1.734375-6.84375 6.832032-5.109375 11.390625 1.730469 4.554688 6.832031 6.84375 11.386719 5.113281 4.558593-1.734374 6.847656-6.832031 5.113281-11.390624zm0 0" fill="#fff"/></svg>