<svg height="512pt" viewBox="0 0 512.00027 512" width="512pt" xmlns="http://www.w3.org/2000/svg"><path d="m185.378906 291.308594h141.242188v79.449218h-141.242188zm0 0" fill="#f29c1f"/><path d="m389.453125 220.691406c14.210937 0 25.890625-11.222656 26.460937-25.425781l1.933594-48.375c1.539063-38.410156-12.644531-75.785156-39.277344-103.503906-26.632812-27.71875-63.410156-43.386719-101.851562-43.386719h-41.4375c-38.441406 0-75.21875 15.667969-101.851562 43.386719-26.632813 27.71875-40.816407 65.09375-39.277344 103.503906l1.933594 48.375c.570312 14.203125 12.25 25.425781 26.460937 25.425781zm0 0" fill="#e64c3c"/><path d="m388.414062 194.207031v52.964844c.011719 16.394531-6.496093 32.117187-18.085937 43.707031-11.589844 11.59375-27.316406 18.097656-43.707031 18.085938h-141.242188c-16.390625.011718-32.117187-6.492188-43.707031-18.085938-11.589844-11.589844-18.097656-27.3125-18.085937-43.707031v-52.964844c1.238281-9.289062 3.792968-18.355469 7.59375-26.925781 2.421874-5.601562 5.285156-11 8.5625-16.152344 16.507812-25.953125 49.785156-54.023437 116.257812-54.023437s99.75 28.070312 116.257812 54.023437c3.277344 5.152344 6.140626 10.550782 8.5625 16.152344 3.800782 8.570312 6.355469 17.636719 7.59375 26.925781zm0 0" fill="#f0c419"/><path d="m414.898438 512h97.101562v-7.855469c.015625-11.304687-1.347656-22.570312-4.0625-33.546875l-8.207031-33.277344c-9.523438-34.714843-41.429688-58.511718-77.417969-57.734374h-332.625c-35.988281-.777344-67.894531 23.019531-77.417969 57.734374l-8.207031 33.277344c-2.714844 10.976563-4.078125 22.242188-4.0625 33.546875v7.855469zm0 0" fill="#f0c419"/><path d="m441.378906 512h-370.757812l29.90625-144.746094c3.0625-9.140625 11.988281-14.992187 21.589844-14.148437h267.820312c9.601562-.84375 18.53125 5.007812 21.589844 14.148437zm0 0" fill="#f3d55b"/><path d="m273.65625 185.378906c-2.34375.003906-4.589844-.925781-6.242188-2.585937-3.085937-3.1875-7.066406-5.363281-11.414062-6.242188-4.359375.882813-8.351562 3.066407-11.441406 6.269531-3.46875 3.351563-8.984375 3.296876-12.386719-.121093s-3.433594-8.933594-.066406-12.386719c6.378906-6.488281 14.835937-10.53125 23.894531-11.414062 9.058594.882812 17.515625 4.925781 23.894531 11.414062 2.527344 2.523438 3.28125 6.320312 1.914063 9.617188-1.367188 3.296874-4.582032 5.449218-8.152344 5.449218zm0 0" fill="#7f8c8d"/><path d="m186.351562 167.8125c-.71875 4.269531-4.410156 7.402344-8.742187 7.414062-.472656.015626-.945313-.015624-1.410156-.085937l-42.636719-7.0625c-.835938-.117187-1.644531-.386719-2.382812-.796875 2.421874-5.601562 5.285156-11 8.5625-16.152344l39.28125 6.53125c4.824218.785156 8.101562 5.328125 7.328124 10.152344zm0 0" fill="#7f8c8d"/><path d="m380.820312 167.28125c-.738281.410156-1.546874.679688-2.382812.796875l-42.636719 7.0625c-.464843.070313-.9375.101563-1.410156.085937-4.613281.007813-8.457031-3.53125-8.828125-8.128906-.367188-4.597656 2.859375-8.707031 7.414062-9.4375l39.28125-6.53125c3.277344 5.152344 6.140626 10.550782 8.5625 16.152344zm0 0" fill="#7f8c8d"/><g fill="#f29c1f"><path d="m220.691406 485.515625h-79.449218c-14.621094-.015625-26.46875-11.863281-26.484376-26.480469 0-4.875 3.953126-8.828125 8.828126-8.828125s8.828124 3.953125 8.828124 8.828125c.007813 4.871094 3.953126 8.820313 8.828126 8.828125h79.449218c4.871094-.007812 8.820313-3.957031 8.824219-8.828125 0-4.875 3.953125-8.828125 8.828125-8.828125s8.828125 3.953125 8.828125 8.828125c-.015625 14.617188-11.863281 26.464844-26.480469 26.480469zm0 0"/><path d="m370.757812 485.515625h-79.449218c-14.617188-.015625-26.464844-11.863281-26.480469-26.480469 0-4.875 3.953125-8.828125 8.828125-8.828125s8.828125 3.953125 8.828125 8.828125c.003906 4.871094 3.953125 8.820313 8.824219 8.828125h79.449218c4.875-.007812 8.820313-3.957031 8.828126-8.828125 0-4.875 3.953124-8.828125 8.828124-8.828125s8.828126 3.953125 8.828126 8.828125c-.015626 14.617188-11.863282 26.464844-26.484376 26.480469zm0 0"/><path d="m185.378906 485.515625c-4.875 0-8.828125-3.949219-8.828125-8.824219v-8.828125c0-4.875 3.953125-8.828125 8.828125-8.828125s8.828125 3.953125 8.828125 8.828125v8.828125c0 4.875-3.953125 8.824219-8.828125 8.824219zm0 0"/><path d="m326.621094 485.515625c-4.875 0-8.828125-3.949219-8.828125-8.824219v-8.828125c0-4.875 3.953125-8.828125 8.828125-8.828125s8.828125 3.953125 8.828125 8.828125v8.828125c0 4.875-3.953125 8.824219-8.828125 8.824219zm0 0"/></g><path d="m238.34375 172.136719c0-12.1875-13.832031-22.066407-30.894531-22.066407-17.066407 0-30.898438 9.878907-30.898438 22.066407 0 12.191406 13.832031 22.070312 30.898438 22.070312 17.0625 0 30.894531-9.878906 30.894531-22.070312zm0 0" fill="#9fc9d3"/><path d="m335.449219 172.136719c0-12.1875-13.832031-22.066407-30.898438-22.066407-17.0625 0-30.894531 9.878907-30.894531 22.066407 0 12.191406 13.832031 22.070312 30.894531 22.070312 17.066407 0 30.898438-9.878906 30.898438-22.070312zm0 0" fill="#9fc9d3"/><path d="m207.449219 203.035156c-22.277344 0-39.726563-13.574218-39.726563-30.898437 0-17.320313 17.449219-30.894531 39.726563-30.894531 22.273437 0 39.722656 13.574218 39.722656 30.894531 0 17.324219-17.449219 30.898437-39.722656 30.898437zm0-44.136718c-13.003907 0-22.070313 6.976562-22.070313 13.238281 0 6.265625 9.066406 13.242187 22.070313 13.242187 13.003906 0 22.066406-6.972656 22.066406-13.242187 0-6.265625-9.0625-13.238281-22.066406-13.238281zm0 0" fill="#2c2f38"/><path d="m304.550781 203.035156c-22.273437 0-39.722656-13.574218-39.722656-30.898437 0-17.320313 17.449219-30.894531 39.722656-30.894531 22.277344 0 39.726563 13.574218 39.726563 30.894531 0 17.324219-17.449219 30.898437-39.726563 30.898437zm0-44.136718c-13.003906 0-22.066406 6.976562-22.066406 13.238281 0 6.265625 9.0625 13.242187 22.066406 13.242187 13.003907 0 22.070313-6.972656 22.070313-13.242187 0-6.265625-9.066406-13.238281-22.070313-13.238281zm0 0" fill="#2c2f38"/><path d="m297.734375 247.171875c-7.132813 13.957031-29.398437 15.933594-41.558594 15.933594-12.1875 0-34.421875-1.976563-41.554687-15.933594 13.601562 3.351563 27.546875 5.097656 41.554687 5.207031 14.007813-.105468 27.957031-1.855468 41.558594-5.207031zm0 0" fill="#2c2f38"/></svg>