<svg height="512pt" viewBox="0 0 512.00027 512" width="512pt" xmlns="http://www.w3.org/2000/svg"><path d="m185.378906 294.179688h141.242188v73.710937h-141.242188zm0 0" fill="#f29c1f"/><path d="m414.898438 512h97.101562v-7.855469c.015625-11.304687-1.347656-22.570312-4.0625-33.546875l-8.207031-33.277344c-9.523438-34.714843-41.429688-58.511718-77.417969-57.734374h-332.625c-35.988281-.777344-67.894531 23.019531-77.417969 57.734374l-8.207031 33.277344c-2.714844 10.976563-4.078125 22.242188-4.0625 33.546875v7.855469zm0 0" fill="#24ae5f"/><path d="m441.378906 512h-370.757812l29.90625-144.746094c3.0625-9.140625 11.988281-14.992187 21.589844-14.148437h267.820312c9.601562-.84375 18.53125 5.007812 21.589844 14.148437zm0 0" fill="#4fba6f"/><path d="m397.242188 512c-11.03125-22.65625-19.898438-46.300781-26.484376-70.621094v-88.273437h-35.308593v63.378906l-17.65625 24.894531h-123.585938l-17.65625-24.894531v-63.378906h-35.308593v88.273437c-6.585938 24.320313-15.453126 47.964844-26.484376 70.621094zm0 0" fill="#3b97d3"/><path d="m441.378906 176.550781s-8.828125 17.65625-52.964844 26.484375h-264.828124c-44.136719-8.828125-52.964844-26.484375-52.964844-26.484375s52.964844-61.792969 185.378906-61.792969 185.378906 61.792969 185.378906 61.792969zm0 0" fill="#805333"/><path d="m388.414062 119.4375v127.734375c.011719 16.394531-6.496093 32.117187-18.085937 43.707031-11.589844 11.59375-27.316406 18.097656-43.707031 18.085938h-141.242188c-16.390625.011718-32.117187-6.492188-43.707031-18.085938-11.589844-11.589844-18.097656-27.3125-18.085937-43.707031v-127.734375" fill="#f0c419"/><g fill="#805333"><path d="m167.722656 220.691406c0 4.875-3.949218 8.824219-8.824218 8.824219-4.878907 0-8.828126-3.949219-8.828126-8.824219 0-4.878906 3.949219-8.828125 8.828126-8.828125 4.875 0 8.824218 3.949219 8.824218 8.828125zm0 0"/><path d="m167.722656 247.171875c0 4.875-3.949218 8.828125-8.824218 8.828125-4.878907 0-8.828126-3.953125-8.828126-8.828125s3.949219-8.828125 8.828126-8.828125c4.875 0 8.824218 3.953125 8.824218 8.828125zm0 0"/><path d="m194.207031 247.171875c0 4.875-3.953125 8.828125-8.828125 8.828125s-8.828125-3.953125-8.828125-8.828125 3.953125-8.828125 8.828125-8.828125 8.828125 3.953125 8.828125 8.828125zm0 0"/><path d="m194.207031 273.65625c0 4.875-3.953125 8.828125-8.828125 8.828125s-8.828125-3.953125-8.828125-8.828125 3.953125-8.828125 8.828125-8.828125 8.828125 3.953125 8.828125 8.828125zm0 0"/><path d="m220.691406 273.65625c0 4.875-3.953125 8.828125-8.828125 8.828125s-8.828125-3.953125-8.828125-8.828125 3.953125-8.828125 8.828125-8.828125 8.828125 3.953125 8.828125 8.828125zm0 0"/><path d="m361.929688 220.691406c0 4.875-3.949219 8.824219-8.824219 8.824219-4.878907 0-8.828125-3.949219-8.828125-8.824219 0-4.878906 3.949218-8.828125 8.828125-8.828125 4.875 0 8.824219 3.949219 8.824219 8.828125zm0 0"/><path d="m361.929688 247.171875c0 4.875-3.949219 8.828125-8.824219 8.828125-4.878907 0-8.828125-3.953125-8.828125-8.828125s3.949218-8.828125 8.828125-8.828125c4.875 0 8.824219 3.953125 8.824219 8.828125zm0 0"/><path d="m335.449219 247.171875c0 4.875-3.953125 8.828125-8.828125 8.828125s-8.828125-3.953125-8.828125-8.828125 3.953125-8.828125 8.828125-8.828125 8.828125 3.953125 8.828125 8.828125zm0 0"/><path d="m335.449219 273.65625c0 4.875-3.953125 8.828125-8.828125 8.828125s-8.828125-3.953125-8.828125-8.828125 3.953125-8.828125 8.828125-8.828125 8.828125 3.953125 8.828125 8.828125zm0 0"/><path d="m308.964844 273.65625c0 4.875-3.953125 8.828125-8.828125 8.828125s-8.828125-3.953125-8.828125-8.828125 3.953125-8.828125 8.828125-8.828125 8.828125 3.953125 8.828125 8.828125zm0 0"/></g><path d="m194.207031 441.378906c0 14.625-11.855469 26.484375-26.484375 26.484375-14.625 0-26.480468-11.859375-26.480468-26.484375s11.855468-26.480468 26.480468-26.480468c14.628906 0 26.484375 11.855468 26.484375 26.480468zm0 0" fill="#fff"/><path d="m370.757812 441.378906c0 14.625-11.855468 26.484375-26.480468 26.484375-14.628906 0-26.484375-11.859375-26.484375-26.484375s11.855469-26.480468 26.484375-26.480468c14.625 0 26.480468 11.855468 26.480468 26.480468zm0 0" fill="#fff"/><path d="m388.414062 106.8125-10.328124-62.484375c-4.226563-25.574219-26.339844-44.328125-52.257813-44.328125h-139.652344c-25.921875 0-48.035156 18.753906-52.261719 44.328125l-10.328124 62.484375zm0 0" fill="#f18d46"/><path d="m441.378906 176.550781s-52.964844-52.964843-185.378906-52.964843-185.378906 52.964843-185.378906 52.964843 26.484375-105.929687 185.378906-105.929687c158.898438 0 185.378906 105.929687 185.378906 105.929687zm0 0" fill="#cb8252"/><path d="m297.734375 256c-7.132813 13.957031-29.398437 15.933594-41.558594 15.933594-12.1875 0-34.421875-1.976563-41.554687-15.933594 13.601562 3.351562 27.546875 5.097656 41.554687 5.207031 14.007813-.105469 27.957031-1.855469 41.558594-5.207031zm0 0" fill="#2c2f38"/><path d="m232.878906 164.09375c-8.390625-3.082031-17.199218-4.867188-26.128906-5.296875-12.003906-.90625-24.015625 1.65625-34.605469 7.378906 1.207031-15.445312 37.023438-18.5 54.53125-14.527343 2.777344.34375 5.191407 2.058593 6.441407 4.558593 1.246093 2.503907 1.15625 5.464844-.238282 7.886719zm0 0" fill="#2c2f38"/><path d="m229.515625 191.394531c0-10.453125-7.902344-18.925781-17.652344-18.925781s-17.65625 8.472656-17.65625 18.925781c0 10.449219 7.90625 18.921875 17.65625 18.921875s17.652344-8.472656 17.652344-18.921875zm0 0" fill="#2c2f38"/><path d="m216.8125 174.972656c-4.558594-1.734375-9.65625.554688-11.390625 5.113282-1.730469 4.554687.558594 9.65625 5.113281 11.386718 4.558594 1.734375 9.65625-.554687 11.390625-5.109375 1.730469-4.558593-.558593-9.65625-5.113281-11.390625zm0 0" fill="#fff"/><path d="m279.121094 164.09375c8.390625-3.082031 17.203125-4.867188 26.128906-5.296875 12.003906-.90625 24.015625 1.65625 34.605469 7.378906-1.207031-15.445312-37.023438-18.5-54.53125-14.527343-2.773438.34375-5.191407 2.058593-6.441407 4.558593-1.246093 2.503907-1.15625 5.464844.238282 7.886719zm0 0" fill="#2c2f38"/><path d="m317.792969 191.394531c0-10.453125-7.902344-18.925781-17.65625-18.925781-9.75 0-17.652344 8.472656-17.652344 18.925781 0 10.449219 7.902344 18.921875 17.652344 18.921875 9.753906 0 17.65625-8.472656 17.65625-18.921875zm0 0" fill="#2c2f38"/><path d="m306.578125 180.085938c-1.734375-4.558594-6.832031-6.847657-11.390625-5.113282-4.554688 1.734375-6.84375 6.832032-5.113281 11.390625 1.734375 4.554688 6.835937 6.84375 11.390625 5.113281 4.558594-1.734374 6.847656-6.835937 5.113281-11.390624zm0 0" fill="#fff"/></svg>