<svg height="512pt" viewBox="0 0 512.00027 512" width="512pt" xmlns="http://www.w3.org/2000/svg"><path d="m414.898438 512h97.101562v-7.855469c.015625-11.304687-1.347656-22.570312-4.0625-33.546875l-8.207031-33.277344c-9.523438-34.714843-41.429688-58.511718-77.417969-57.734374h-332.625c-35.988281-.777344-67.894531 23.019531-77.417969 57.734374l-8.207031 33.277344c-2.714844 10.976563-4.078125 22.242188-4.0625 33.546875v7.855469zm0 0" fill="#f0c419"/><path d="m185.378906 287.898438h141.242188v86.273437h-141.242188zm0 0" fill="#f29c1f"/><path d="m334.917969 48.816406c-14.925781-29.914062-45.484375-48.816406-78.917969-48.816406s-63.988281 18.902344-78.917969 48.816406zm0 0" fill="#805333"/><path d="m388.414062 220.6875c10.265626 0 19.101563-7.246094 21.117188-17.3125l4.109375-16.078125c8.769531-34.335937 1.183594-70.800781-20.558594-98.792969-21.738281-27.992187-55.191406-44.367187-90.632812-44.367187h-92.898438c-35.441406 0-68.894531 16.375-90.632812 44.367187-21.742188 27.992188-29.328125 64.457032-20.554688 98.792969l4.105469 16.078125c2.015625 10.066406 10.851562 17.3125 21.117188 17.3125" fill="#cb8252"/><path d="m434.050781 476.425781-1.5.261719s-39.988281-15.535156-79.445312-35.308594c-.089844 0-.089844-.089844-.179688-.089844-1.488281-.734374-3.023437-1.382812-4.589843-1.941406-2.214844-.832031-4.484376-1.511718-6.796876-2.027344-.285156-.09375-.582031-.152343-.882812-.179687-.085938 0-.175781-.085937-.265625-.085937-1.410156-.265626-2.824219-.53125-4.324219-.707032-.101562-.089844-.253906-.089844-.351562 0-1.402344-.234375-2.820313-.382812-4.238282-.441406-1.5-.089844-3-.175781-4.503906-.175781-22.097656.117187-43.320312 8.675781-59.320312 23.921875-1.28125 1.347656-2.488282 2.761718-3.617188 4.238281-1.121094 1.4375-2.152344 2.941406-3.089844 4.5-3.179687 5.152344-4.890624 11.074219-4.945312 17.125-.054688-6.050781-1.765625-11.972656-4.941406-17.125-.941406-1.558594-1.972656-3.0625-3.089844-4.5-1.128906-1.476563-2.339844-2.890625-3.621094-4.238281-16-15.246094-37.21875-23.804688-59.320312-23.921875-1.5 0-3.003906.085937-4.503906.175781-1.417969.058594-2.835938.207031-4.238282.441406-.097656-.089844-.25-.089844-.351562 0-.710938.074219-1.417969.191406-2.117188.351563-.832031.097656-1.660156.246093-2.472656.441406-.300781.027344-.597656.085937-.882812.179687-2.308594.515626-4.582032 1.195313-6.796876 2.027344-1.566406.558594-3.101562 1.207032-4.589843 1.941406-.089844 0-.089844.089844-.175781.089844-39.460938 19.773438-79.449219 35.308594-79.449219 35.308594l-1.5-.261719 22.597656-109.199219c3.046875-9.125 11.957031-14.964843 21.539063-14.125h267.828124c9.605469-.839843 18.539063 4.992188 21.628907 14.125zm0 0" fill="#f3d55b"/><path d="m388.414062 187.851562v59.320313c.011719 16.390625-6.496093 32.117187-18.085937 43.707031-11.589844 11.59375-27.316406 18.097656-43.707031 18.085938h-141.242188c-16.390625.011718-32.117187-6.492188-43.707031-18.085938-11.589844-11.589844-18.097656-27.316406-18.085937-43.707031v-59.320313s.882812-57.554687 52.964843-70.621093c35.3125-8.828125 44.140625 8.828125 79.449219 8.828125s44.136719-17.65625 79.449219-8.828125c52.082031 13.066406 52.964843 70.621093 52.964843 70.621093zm0 0" fill="#f0c419"/><path d="m176.023438 419.398438c.578124 4.824218-2.855469 9.210937-7.679688 9.796874-.351562.074219-.707031.105469-1.0625.089844-3.648438.015625-6.921875-2.234375-8.207031-5.648437-.261719-.683594-.4375-1.394531-.53125-2.121094l-8.386719-67.351563c-.074219-.347656-.105469-.707031-.085938-1.0625h17.652344l8.210938 65.589844zm0 0" fill="#804169"/><path d="m361.929688 353.101562c.019531.355469-.011719.714844-.085938 1.0625l-8.386719 67.351563c-.09375.726563-.269531 1.4375-.53125 2.121094-1.285156 3.414062-4.558593 5.664062-8.207031 5.648437-.355469.015625-.710938-.015625-1.0625-.089844-4.824219-.585937-8.257812-4.972656-7.679688-9.796874l.089844-.707032 8.210938-65.589844zm0 0" fill="#804169"/><path d="m441.378906 512h-370.757812l7.328125-35.574219 1.5.261719c24.710937-20.175781 51.316406-37.914062 79.449219-52.964844 35.308593-17.652344 97.101562 8.828125 97.101562 44.140625 0-35.3125 61.792969-61.792969 97.105469-44.140625 28.128906 15.050782 54.734375 32.789063 79.445312 52.964844l1.5-.261719zm0 0" fill="#cc66a1"/><g fill="#2c2f38"><path d="m297.734375 260.414062c-7.132813 13.957032-29.398437 15.929688-41.558594 15.929688-12.1875 0-34.421875-1.972656-41.554687-15.929688 13.601562 3.351563 27.546875 5.097657 41.554687 5.207032 14.007813-.109375 27.957031-1.855469 41.558594-5.207032zm0 0"/><path d="m232.878906 168.507812c-8.390625-3.082031-17.199218-4.871093-26.128906-5.296874-12.003906-.90625-24.015625 1.65625-34.605469 7.378906 1.207031-15.445313 37.023438-18.5 54.53125-14.527344 2.777344.34375 5.191407 2.058594 6.441407 4.558594 1.246093 2.503906 1.15625 5.464844-.238282 7.886718zm0 0"/><path d="m279.121094 168.507812c8.390625-3.082031 17.203125-4.871093 26.128906-5.296874 12.003906-.90625 24.015625 1.65625 34.605469 7.378906-1.207031-15.445313-37.023438-18.5-54.53125-14.527344-2.773438.34375-5.191407 2.058594-6.441407 4.558594-1.246093 2.503906-1.15625 5.464844.238282 7.886718zm0 0"/><path d="m184.136719 183.066406s2.515625 11.28125 12.238281 9.082032c9.726562-2.199219 11.582031 2.023437 19.960938 1.347656 2.863281-.195313 5.746093-.019532 8.566406.523437 2.003906.464844 4.082031.5 6.101562.097657 2.789063-.746094 2.550782-3.988282 1.570313-6.097657-3.875-8.359375-14.785157-8.96875-22.769531-8.042969-3.382813.921876-6.824219 1.613282-10.300782 2.078126-3.640625-1.007813-7.035156-2.753907-9.976562-5.128907.636718 2.269531.792968 4.644531.449218 6.976563-1.007812 1.917968-5.839843-.835938-5.839843-.835938zm0 0"/><path d="m229.515625 200.21875c0-10.449219-7.902344-18.921875-17.652344-18.921875s-17.65625 8.472656-17.65625 18.921875c0 10.453125 7.90625 18.925781 17.65625 18.925781s17.652344-8.472656 17.652344-18.925781zm0 0"/></g><path d="m216.8125 183.800781c-4.558594-1.734375-9.65625.554688-11.390625 5.113281-1.730469 4.554688.558594 9.65625 5.113281 11.386719 4.558594 1.734375 9.65625-.554687 11.390625-5.113281 1.730469-4.554688-.558593-9.65625-5.113281-11.386719zm0 0" fill="#fff"/><path d="m327.855469 183.066406s-2.511719 11.28125-12.238281 9.082032c-9.722657-2.199219-11.578126 2.023437-19.957032 1.347656-2.867187-.195313-5.746094-.019532-8.566406.523437-2.003906.464844-4.082031.5-6.101562.097657-2.792969-.746094-2.550782-3.988282-1.574219-6.097657 3.878906-8.359375 14.789062-8.96875 22.769531-8.042969 3.386719.921876 6.828125 1.613282 10.304688 2.078126 3.640624-1.007813 7.035156-2.753907 9.972656-5.128907-.636719 2.269531-.789063 4.644531-.445313 6.976563 1.011719 1.917968 5.835938-.835938 5.835938-.835938zm0 0" fill="#2c2f38"/><path d="m317.789062 200.21875c0-10.449219-7.902343-18.921875-17.652343-18.921875-9.753907 0-17.65625 8.472656-17.65625 18.921875 0 10.453125 7.902343 18.925781 17.65625 18.925781 9.75 0 17.652343-8.472656 17.652343-18.925781zm0 0" fill="#2c2f38"/><path d="m306.574219 188.914062c-1.734375-4.558593-6.832031-6.847656-11.390625-5.113281-4.554688 1.730469-6.84375 6.832031-5.109375 11.386719 1.730469 4.558594 6.832031 6.847656 11.386719 5.113281 4.558593-1.730469 6.847656-6.832031 5.113281-11.386719zm0 0" fill="#fff"/></svg>