<svg height="512pt" viewBox="0 0 512.00027 512" width="512pt" xmlns="http://www.w3.org/2000/svg"><path d="m414.898438 512h97.101562v-7.855469c.015625-11.304687-1.347656-22.570312-4.0625-33.546875l-8.207031-33.277344c-9.523438-34.714843-41.429688-58.511718-77.417969-57.734374h-332.625c-35.988281-.777344-67.894531 23.019531-77.417969 57.734374l-8.207031 33.277344c-2.714844 10.976563-4.078125 22.242188-4.0625 33.546875v7.855469zm0 0" fill="#4482c3"/><path d="m185.378906 297.199219h141.242188v67.667969h-141.242188zm0 0" fill="#f29c1f"/><path d="m335.449219 353.105469s-33.546875 20.125-65.5 42.8125c-4.769531 3.355469-9.445313 6.796875-13.949219 10.152343-4.5-3.355468-9.179688-6.796874-13.949219-10.152343-31.953125-22.6875-65.5-42.8125-65.5-42.8125zm0 0" fill="#f0c419"/><path d="m441.378906 512h-370.757812l29.925781-144.773438c3.046875-9.125 11.957031-14.964843 21.539063-14.121093h54.464843s33.546875 20.125 65.5 42.8125c1.765625 1.234375 3.445313 2.472656 5.121094 3.617187 3.003906 2.207032 5.914063 4.414063 8.828125 6.535156 2.914062-2.121093 5.828125-4.328124 8.828125-6.535156 1.675781-1.144531 3.355469-2.382812 5.121094-3.617187 31.953125-22.6875 65.5-42.8125 65.5-42.8125h54.464843c9.605469-.84375 18.539063 4.988281 21.628907 14.121093zm0 0" fill="#2fa8cc"/><path d="m388.414062 113.964844v133.207031c.011719 16.394531-6.496093 32.117187-18.085937 43.707031-11.589844 11.59375-27.316406 18.097656-43.707031 18.085938h-141.242188c-16.390625.011718-32.117187-6.492188-43.707031-18.085938-11.589844-11.589844-18.097656-27.3125-18.085937-43.707031v-133.207031zm0 0" fill="#f0c419"/><path d="m406.070312 132.414062v-35.308593c0-53.628907-43.476562-97.105469-97.105468-97.105469h-105.929688c-53.628906 0-97.105468 43.476562-97.105468 97.105469v35.308593l152.828124-13.242187zm0 0" fill="#285680"/><path d="m256 79.449219c158.898438 0 167.722656 79.449219 167.722656 79.449219-8.824218 8.824218-44.136718 0-70.617187-17.65625-26.484375-17.65625-70.621094-17.65625-97.105469-17.65625s-70.621094 0-97.101562 17.65625c-26.484376 17.65625-61.792969 26.480468-70.621094 17.65625 0 0 8.828125-79.449219 167.722656-79.449219zm0 0" fill="#4482c3"/><path d="m256 256c4.964844 10.261719 15.101562 17.019531 26.484375 17.65625v-17.65625c17.652344 17.65625 44.136719 8.828125 44.136719 8.828125-17.65625-44.136719-70.621094-44.136719-70.621094-44.136719s-52.964844 0-70.621094 44.136719c0 0 26.484375 8.828125 44.136719-8.828125v17.65625c11.382813-.636719 21.519531-7.394531 26.484375-17.65625zm0 0" fill="#805333"/><path d="m242.050781 395.917969c-30.277343-5.472657-100.808593 10.152343-100.808593 10.152343-8.828126-26.484374 17.65625-52.964843 17.65625-52.964843h17.652343s33.546875 20.125 65.5 42.8125zm0 0" fill="#4482c3"/><path d="m370.757812 406.070312s-70.53125-15.625-100.808593-10.152343c31.953125-22.6875 65.5-42.8125 65.5-42.8125h17.65625s26.480469 26.480469 17.652343 52.964843zm0 0" fill="#4482c3"/><path d="m379.585938 459.035156c0-9.75-15.808594-17.65625-35.308594-17.65625-19.503906 0-35.3125 7.90625-35.3125 17.65625s15.808594 17.65625 35.3125 17.65625c19.5 0 35.308594-7.90625 35.308594-17.65625zm0 0" fill="#e6e7e8"/><path d="m264.828125 399.535156v24.1875c0 4.878906-3.953125 8.828125-8.828125 8.828125s-8.828125-3.949219-8.828125-8.828125v-24.1875c3.003906 2.207032 5.914063 4.414063 8.828125 6.535156 2.914062-2.121093 5.828125-4.328124 8.828125-6.535156zm0 0" fill="#4482c3"/><path d="m232.878906 159.679688c-8.390625-3.082032-17.199218-4.867188-26.128906-5.292969-12.003906-.910157-24.015625 1.652343-34.605469 7.378906 1.207031-15.449219 37.023438-18.503906 54.53125-14.53125 2.777344.34375 5.191407 2.058594 6.441407 4.558594 1.246093 2.503906 1.15625 5.464843-.238282 7.886719zm0 0" fill="#2c2f38"/><path d="m229.515625 186.980469c0-10.453125-7.902344-18.925781-17.652344-18.925781s-17.65625 8.472656-17.65625 18.925781c0 10.449219 7.90625 18.921875 17.65625 18.921875s17.652344-8.472656 17.652344-18.921875zm0 0" fill="#2c2f38"/><path d="m216.8125 170.558594c-4.558594-1.730469-9.65625.558594-11.390625 5.113281-1.734375 4.558594.554687 9.65625 5.113281 11.390625 4.558594 1.730469 9.65625-.558594 11.390625-5.113281 1.730469-4.558594-.558593-9.65625-5.113281-11.390625zm0 0" fill="#fff"/><path d="m279.121094 159.679688c8.390625-3.082032 17.203125-4.867188 26.128906-5.292969 12.003906-.910157 24.015625 1.652343 34.605469 7.378906-1.207031-15.449219-37.023438-18.503906-54.53125-14.53125-2.773438.34375-5.191407 2.058594-6.441407 4.558594-1.246093 2.503906-1.15625 5.464843.238282 7.886719zm0 0" fill="#2c2f38"/><path d="m317.792969 186.980469c0-10.453125-7.902344-18.925781-17.65625-18.925781-9.75 0-17.652344 8.472656-17.652344 18.925781 0 10.449219 7.902344 18.921875 17.652344 18.921875 9.753906 0 17.65625-8.472656 17.65625-18.921875zm0 0" fill="#2c2f38"/><path d="m306.578125 175.671875c-1.734375-4.558594-6.832031-6.847656-11.390625-5.113281-4.554688 1.734375-6.84375 6.832031-5.113281 11.390625 1.734375 4.554687 6.832031 6.84375 11.390625 5.113281 4.558594-1.734375 6.847656-6.835938 5.113281-11.390625zm0 0" fill="#fff"/></svg>