<svg height="512pt" viewBox="0 0 512 512.00112" width="512pt" xmlns="http://www.w3.org/2000/svg"><path d="m185.378906 290.726562h141.242188v80.617188h-141.242188zm0 0" fill="#f29c1f"/><path d="m414.898438 512h97.101562v-7.855469c.015625-11.304687-1.347656-22.570312-4.058594-33.542969l-8.210937-33.28125c-9.523438-34.714843-41.429688-58.507812-77.417969-57.734374h-332.625c-35.988281-.773438-67.894531 23.019531-77.417969 57.734374l-8.207031 33.28125c-2.714844 10.972657-4.078125 22.238282-4.0625 33.542969v7.855469zm0 0" fill="#bdc3c7"/><path d="m332.09375 353.105469c-14.125 8.386719-45.019531 30.984375-79.535156 41.3125h-.089844c-34.515625-6.621094-64-32.132813-75.652344-41.3125zm0 0" fill="#f0c419"/><path d="m441.378906 512h-370.757812l29.925781-144.769531c3.046875-9.125 11.957031-14.96875 21.539063-14.125h59.144531c20.878906 16.25 45.277343 27.378906 71.238281 32.484375h.089844c26.246094-7.796875 51.464844-18.703125 75.121094-32.484375h62.234374c9.605469-.84375 18.539063 4.992187 21.628907 14.125zm0 0" fill="#e6e7e8"/><path d="m388.414062 111.140625v136.03125c.011719 16.394531-6.492187 32.117187-18.085937 43.710937-11.589844 11.589844-27.316406 18.097657-43.707031 18.082032h-141.242188c-16.390625.015625-32.117187-6.492188-43.707031-18.082032-11.589844-11.59375-18.097656-27.316406-18.085937-43.710937v-136.03125" fill="#f0c419"/><path d="m440.851562 73.210938c1.839844 10.292968-.976562 20.875-7.6875 28.894531-6.714843 8.019531-16.636718 12.65625-27.09375 12.652343v30.261719c.011719 2.96875-1.46875 5.742188-3.945312 7.378907-2.472656 1.636718-5.605469 1.914062-8.332031.742187-43.523438-18.871094-90.359375-28.917969-137.792969-29.554687-47.433594.636718-94.269531 10.683593-137.792969 29.554687-2.726562 1.175781-5.859375.894531-8.332031-.742187-2.472656-1.636719-3.957031-4.410157-3.941406-7.378907v-30.261719c-17.15625.019532-31.839844-12.292968-34.8125-29.1875-2.96875-16.894531 6.636718-33.480468 22.769531-39.3125 9.941406-3.636718 20.992187-2.5625 30.050781 2.914063l-.089844-.585937c-1.128906-9.421876 1.558594-18.90625 7.457032-26.339844 5.902344-7.433594 14.527344-12.199219 23.960937-13.242188 12.566407-1.335937 24.882813 4.195313 32.230469 14.480469 4.328125-12.230469 15.027344-21.089844 27.847656-23.070313 12.816406-1.980468 25.691406 3.242188 33.507813 13.589844 1.671875 2.273438 4.324219 3.617188 7.144531 3.617188s5.476562-1.34375 7.144531-3.617188c7.820313-10.347656 20.691407-15.570312 33.511719-13.589844 12.820312 1.980469 23.515625 10.839844 27.847656 23.070313 7.34375-10.285156 19.660156-15.816406 32.226563-14.480469 9.433593 1.042969 18.0625 5.808594 23.960937 13.242188 5.902344 7.433594 8.585938 16.917968 7.457032 26.339844l-.085938.585937c9.054688-5.476563 20.109375-6.550781 30.050781-2.914063 11.839844 4.289063 20.5 14.558594 22.738281 26.953126zm0 0" fill="#e6e7e8"/><path d="m361.933594 105.9375c-1.125-.003906-2.234375-.21875-3.277344-.632812-42.003906-16.804688-102.054688-17.027344-102.65625-17.027344-.597656 0-60.648438.222656-102.648438 17.027344-4.53125 1.808593-9.667968-.390626-11.480468-4.917969-1.8125-4.53125.390625-9.667969 4.917968-11.480469 45.199219-18.078125 106.621094-18.285156 109.210938-18.285156s64.015625.207031 109.210938 18.285156c3.9375 1.566406 6.207031 5.710938 5.40625 9.871094-.800782 4.164062-4.445313 7.167968-8.683594 7.160156zm0 0" fill="#bdc3c7"/><path d="m353.105469 353.105469c-.007813 2.839843-1.390625 5.503906-3.707031 7.148437-28.726563 18.980469-60.238282 33.367188-93.398438 42.636719-.441406.210937-.921875.332031-1.410156.355469-16.828125 4.988281-34.042969 8.558594-51.464844 10.679687l-.089844 98.074219h-17.65625v-98.074219c.050782-8.902343 6.699219-16.386719 15.539063-17.476562 5.824219-.707031 11.472656-1.589844 17.035156-2.648438h.089844c11.617187-2.105469 23.109375-4.847656 34.425781-8.210937h.089844c26.246094-7.796875 51.464844-18.703125 75.121094-32.484375zm0 0" fill="#7f8c8d"/><path d="m261.648438 396.183594c-.523438 3.097656-2.683594 5.664062-5.648438 6.707031-.441406.210937-.921875.332031-1.410156.355469-.519532.144531-1.054688.203125-1.589844.175781-.507812.035156-1.015625-.027344-1.5-.175781-11.4375-2.035156-22.644531-5.199219-33.457031-9.445313h-.089844c-20.886719-7.707031-40.074219-19.398437-56.496094-34.429687-1.648437-1.667969-2.566406-3.921875-2.558593-6.265625h22.332031c20.878906 16.25 45.277343 27.378906 71.238281 32.484375h.089844c.617187.089844 1.234375.265625 1.941406.351562 2.320312.382813 4.390625 1.683594 5.738281 3.613282 1.34375 1.925781 1.855469 4.320312 1.410157 6.628906zm0 0" fill="#7f8c8d"/><g fill="#2c2f38"><path d="m238.34375 441.378906c0 4.875-3.949219 8.828125-8.824219 8.828125s-8.828125-3.953125-8.828125-8.828125 3.953125-8.824218 8.828125-8.824218 8.824219 3.949218 8.824219 8.824218zm0 0"/><path d="m238.34375 476.691406c0 4.875-3.949219 8.828125-8.824219 8.828125s-8.828125-3.953125-8.828125-8.828125 3.953125-8.828125 8.828125-8.828125 8.824219 3.953125 8.824219 8.828125zm0 0"/><path d="m291.3125 441.378906c0 4.875-3.953125 8.828125-8.828125 8.828125s-8.828125-3.953125-8.828125-8.828125 3.953125-8.824218 8.828125-8.824218 8.828125 3.949218 8.828125 8.824218zm0 0"/><path d="m291.3125 476.691406c0 4.875-3.953125 8.828125-8.828125 8.828125s-8.828125-3.953125-8.828125-8.828125 3.953125-8.828125 8.828125-8.828125 8.828125 3.953125 8.828125 8.828125zm0 0"/><path d="m297.734375 260.414062c-7.132813 13.960938-29.398437 15.933594-41.558594 15.933594-12.1875 0-34.421875-1.972656-41.554687-15.933594 13.601562 3.351563 27.546875 5.097657 41.554687 5.210938 14.007813-.109375 27.957031-1.859375 41.558594-5.210938zm0 0"/><path d="m232.878906 168.511719c-8.390625-3.085938-17.199218-4.871094-26.128906-5.296875-12.003906-.910156-24.015625 1.652344-34.605469 7.378906 1.207031-15.449219 37.023438-18.503906 54.53125-14.53125 2.777344.347656 5.195313 2.058594 6.441407 4.5625 1.246093 2.5 1.15625 5.460938-.238282 7.886719zm0 0"/><path d="m229.519531 195.808594c0-10.453125-7.90625-18.925782-17.65625-18.925782s-17.65625 8.472657-17.65625 18.925782c0 10.449218 7.90625 18.921875 17.65625 18.921875s17.65625-8.472657 17.65625-18.921875zm0 0"/></g><path d="m216.8125 179.386719c-4.558594-1.730469-9.65625.558593-11.390625 5.113281-1.730469 4.558594.558594 9.65625 5.113281 11.390625 4.558594 1.730469 9.65625-.558594 11.390625-5.113281 1.730469-4.558594-.558593-9.65625-5.113281-11.390625zm0 0" fill="#fff"/><path d="m279.121094 168.511719c8.390625-3.085938 17.203125-4.871094 26.128906-5.296875 12.003906-.910156 24.015625 1.652344 34.605469 7.378906-1.207031-15.449219-37.023438-18.503906-54.53125-14.53125-2.773438.347656-5.191407 2.058594-6.4375 4.5625-1.25 2.5-1.160157 5.460938.234375 7.886719zm0 0" fill="#2c2f38"/><path d="m317.792969 195.808594c0-10.453125-7.902344-18.925782-17.65625-18.925782-9.75 0-17.652344 8.472657-17.652344 18.925782 0 10.449218 7.902344 18.921875 17.652344 18.921875 9.753906 0 17.65625-8.472657 17.65625-18.921875zm0 0" fill="#2c2f38"/><path d="m306.578125 184.5c-1.734375-4.554688-6.832031-6.84375-11.390625-5.113281-4.554688 1.734375-6.84375 6.832031-5.113281 11.390625 1.734375 4.558594 6.835937 6.847656 11.390625 5.113281 4.558594-1.734375 6.847656-6.832031 5.113281-11.390625zm0 0" fill="#fff"/></svg>