<svg height="512pt" viewBox="-4 0 511 512" width="512pt" xmlns="http://www.w3.org/2000/svg"><path d="m408.363281 503.320312h95.460938l-.003907-7.722656c.015626-11.113281-1.324218-22.1875-3.988281-32.976562l-8.070312-32.714844c-9.363281-34.125-40.730469-57.515625-76.109375-56.753906h-326.984375c-35.378907-.761719-66.746094 22.628906-76.105469 56.753906l-8.070312 32.714844c-2.667969 10.789062-4.007813 21.863281-3.992188 32.976562v7.722656zm0 0" fill="#af8066"/><path d="m182.738281 292.28125h138.847657v66.28125h-138.847657zm0 0" fill="#f29c1f"/><path d="m312.90625 347.117188s-5.554688 33.410156-34.539062 46.6875c-6.582032-7.605469-16.144532-11.972657-26.207032-11.972657-10.058594 0-19.621094 4.367188-26.207031 11.972657-28.984375-13.277344-34.539063-46.6875-34.539063-46.6875zm0 0" fill="#f0c419"/><path d="m174.144531 503.320312h-104.21875l16.3125-78.96875zm0 0" fill="#cbb292"/><path d="m418.082031 424.265625-87.820312 79.054687h-156.117188l-87.90625-78.96875 11.714844-56.839843 60.050781-20.394531h33.410156s5.554688 33.410156 34.539063 46.6875c6.585937-7.605469 16.148437-11.972657 26.207031-11.972657 10.0625 0 19.625 4.367188 26.207032 11.972657 28.984374-13.277344 34.539062-46.6875 34.539062-46.6875h33.496094l59.964844 20.394531 1.214843 5.640625zm0 0" fill="#cc6f56"/><path d="m434.398438 503.320312h-104.136719l87.820312-79.054687zm0 0" fill="#cbb292"/><path d="m269.515625 477.289062c0 14.378907-17.355469 26.03125-17.355469 26.03125s-17.355468-11.652343-17.355468-26.03125c0-14.378906 17.355468-26.035156 17.355468-26.035156s17.355469 11.65625 17.355469 26.035156zm0 0" fill="#2fa8cc"/><path d="m205.695312 459.347656c-12.84375 6.460938-31.054687-3.804687-31.054687-3.804687s2.609375-20.742188 15.453125-27.203125c12.847656-6.464844 31.058594 3.804687 31.058594 3.804687s-2.613282 20.742188-15.457032 27.203125zm0 0" fill="#2fa8cc"/><path d="m299.207031 459.347656c12.84375 6.460938 31.054688-3.804687 31.054688-3.804687s-2.609375-20.742188-15.457031-27.203125c-12.84375-6.464844-31.054688 3.804687-31.054688 3.804687s2.613281 20.742188 15.457031 27.203125zm0 0" fill="#2fa8cc"/><path d="m286.871094 416.542969c.019531 16.8125-12 31.230469-28.542969 34.234375-16.542969 3-32.867187-6.269532-38.757813-22.019532-5.890624-15.75.339844-33.457031 14.792969-42.046874 14.453125-8.59375 32.984375-5.605469 44.003907 7.09375 5.480468 6.308593 8.5 14.382812 8.503906 22.738281zm0 0" fill="#f0c419"/><path d="m382.332031 99.796875c.011719.753906-.015625 1.507813-.089843 2.257813 0 .953124 0 145.007812-.171876 145.960937.027344.5-.03125.996094-.171874 1.476563-.398438 4.59375-1.390626 9.113281-2.953126 13.449218-8.476562 24.429688-31.503906 40.800782-57.359374 40.789063h-138.847657c-25.859375.011719-48.886719-16.359375-57.363281-40.789063-1.5625-4.335937-2.554688-8.855468-2.949219-13.449218-.144531-.480469-.203125-.976563-.171875-1.476563-.175781-1.648437-.261718-146.484375-.261718-148.21875zm0 0" fill="#f0c419"/><path d="m252.160156 0c147.527344 0 182.238282 86.78125 182.238282 182.238281 0 147.78125-9.679688 172.140625-34.710938 190.914063-20.523438 15.152344-35.714844 36.417968-43.390625 60.746094-43.390625-78.101563 26.035156-147.527344 26.035156-190.914063 0-43.390625 0-95.457031-34.714843-121.492187-34.710938-26.035157-52.066407-8.679688-95.457032-8.679688s-60.746094-17.355469-95.457031 8.679688c-34.710937 26.035156-34.710937 78.101562-34.710937 121.492187 0 43.386719 69.421874 112.8125 26.035156 190.914063-7.679688-24.328126-22.871094-45.59375-43.390625-60.746094-25.03125-18.773438-34.710938-43.132813-34.710938-190.914063 0-95.457031 34.710938-182.238281 182.234375-182.238281zm0 0" fill="#2c2f38"/><g fill="#805333"><path d="m174.058594 234.304688h-17.355469c-4.792969 0-8.675781-3.886719-8.675781-8.675782 0-4.792968 3.882812-8.679687 8.675781-8.679687h17.355469c4.792968 0 8.679687 3.886719 8.679687 8.679687 0 4.789063-3.886719 8.675782-8.679687 8.675782zm0 0"/><path d="m347.617188 234.304688h-17.355469c-4.792969 0-8.675781-3.886719-8.675781-8.675782 0-4.792968 3.882812-8.679687 8.675781-8.679687h17.355469c4.792968 0 8.679687 3.886719 8.679687 8.679687 0 4.789063-3.886719 8.675782-8.679687 8.675782zm0 0"/><path d="m252.160156 512c-1.722656 0-3.40625-.511719-4.835937-1.476562-2.171875-1.457032-21.195313-14.765626-21.195313-33.234376 0-18.472656 19.023438-31.78125 21.195313-33.238281 2.925781-1.964843 6.75-1.964843 9.675781 0 2.167969 1.457031 21.195312 14.765625 21.195312 33.238281 0 18.46875-19.027343 31.777344-21.195312 33.234376-1.429688.964843-3.113281 1.476562-4.839844 1.476562zm0-49.558594c-4.632812 3.699219-7.726562 8.992188-8.675781 14.847656.949219 5.851563 4.042969 11.144532 8.675781 14.847657 4.636719-3.703125 7.726563-8.996094 8.679688-14.847657-.953125-5.855468-4.042969-11.148437-8.679688-14.847656zm0 0"/><path d="m195.832031 470.171875c-8.921875-.339844-17.636719-2.757813-25.453125-7.066406-3.070312-1.734375-4.789062-5.148438-4.347656-8.644531.324219-2.59375 3.664062-25.574219 20.167969-33.875 16.484375-8.300782 36.933593 2.71875 39.214843 4 3.070313 1.734374 4.789063 5.148437 4.347657 8.644531-.324219 2.59375-3.667969 25.574219-20.167969 33.871093-4.285156 2.089844-8.996094 3.140626-13.761719 3.070313zm-11.183593-19.65625c5.382812 2.472656 11.496093 2.859375 17.152343 1.082031 4.796875-3.484375 8.132813-8.625 9.359375-14.429687-5.390625-2.464844-11.503906-2.851563-17.160156-1.078125-4.796875 3.484375-8.128906 8.625-9.351562 14.425781zm0 0"/><path d="m309.070312 470.171875c-4.761718.070313-9.476562-.980469-13.761718-3.070313-16.503906-8.296874-19.84375-31.277343-20.167969-33.871093-.441406-3.496094 1.277344-6.910157 4.347656-8.644531 2.28125-1.277344 22.734375-12.28125 39.214844-3.996094 16.503906 8.296875 19.84375 31.277344 20.171875 33.871094.4375 3.496093-1.28125 6.910156-4.347656 8.644531-7.820313 4.308593-16.535156 6.726562-25.457032 7.066406zm-15.324218-33c1.222656 5.804687 4.558594 10.941406 9.359375 14.421875v.007812c5.65625 1.777344 11.773437 1.390626 17.160156-1.085937-1.21875-5.800781-4.554687-10.941406-9.355469-14.421875-5.65625-1.785156-11.773437-1.398438-17.164062 1.078125zm0 0"/><path d="m278.371094 402.484375c-4.085938.007813-7.625-2.835937-8.496094-6.828125s1.160156-8.050781 4.878906-9.746094c24.292969-11.128906 29.546875-39.957031 29.597656-40.25.855469-4.667968 5.296876-7.78125 9.976563-6.996094 4.675781.789063 7.855469 5.183594 7.136719 9.871094-.257813 1.550782-6.679688 38.132813-39.484375 53.152344-1.128907.523438-2.363281.796875-3.609375.796875zm0 0"/><path d="m225.953125 402.484375c-1.246094 0-2.476563-.269531-3.609375-.792969-32.796875-15.019531-39.222656-51.601562-39.484375-53.152344-.71875-4.6875 2.460937-9.085937 7.136719-9.871093 4.679687-.785157 9.121094 2.328125 9.976562 6.992187.050782.292969 5.304688 29.125 29.597656 40.25 3.71875 1.695313 5.753907 5.757813 4.878907 9.75-.871094 3.992188-4.410157 6.835938-8.496094 6.828125zm0 0"/></g><path d="m252.160156 459.933594c-23.949218-.011719-43.355468-19.429688-43.355468-43.378906.003906-23.949219 19.417968-43.363282 43.367187-43.367188s43.371094 19.40625 43.378906 43.355469c-.027343 23.953125-19.4375 43.359375-43.390625 43.390625zm0-69.425782c-12.273437-.015624-22.894531 8.527344-25.511718 20.519532-2.613282 11.992187 3.488281 24.183594 14.65625 29.273437 11.167968 5.09375 24.375 1.707031 31.714843-8.128906 7.339844-9.835937 6.824219-23.460937-1.234375-32.714844-4.921875-5.703125-12.089844-8.972656-19.625-8.949219zm0 0" fill="#cb8252"/><path d="m293.1875 251.660156c-7.011719 13.722656-28.898438 15.664063-40.851562 15.664063-11.980469 0-33.839844-1.941407-40.851563-15.664063 13.371094 3.292969 27.082031 5.011719 40.851563 5.121094 13.769531-.105469 27.480468-1.824219 40.851562-5.121094zm0 0" fill="#2c2f38"/><path d="m229.433594 156.976562c-8.25-3.035156-16.910156-4.789062-25.6875-5.207031-11.800782-.894531-23.609375 1.625-34.019532 7.253907 1.1875-15.1875 36.394532-18.191407 53.609376-14.285157 2.726562.339844 5.101562 2.023438 6.328124 4.484375 1.226563 2.460938 1.140626 5.371094-.230468 7.753906zm0 0" fill="#2c2f38"/><path d="m274.890625 156.976562c8.246094-3.035156 16.910156-4.789062 25.6875-5.207031 11.800781-.894531 23.605469 1.625 34.015625 7.253907-1.1875-15.1875-36.394531-18.191407-53.605469-14.285157-2.726562.339844-5.105469 2.023438-6.332031 4.484375-1.226562 2.460938-1.136719 5.371094.234375 7.753906zm0 0" fill="#2c2f38"/><path d="m181.515625 171.289062s2.472656 11.085938 12.03125 8.925782c9.5625-2.164063 11.382813 1.988281 19.621094 1.324218 2.816406-.191406 5.648437-.019531 8.421875.515626 1.96875.457031 4.015625.488281 5.996094.097656 2.746093-.734375 2.507812-3.921875 1.546874-5.996094-3.8125-8.21875-14.535156-8.820312-22.382812-7.90625-3.328125.902344-6.710938 1.585938-10.128906 2.042969-3.578125-.992188-6.914063-2.707031-9.804688-5.042969.625 2.230469.777344 4.566406.441406 6.855469-.992187 1.886719-5.742187-.816407-5.742187-.816407zm0 0" fill="#2c2f38"/><path d="m226.128906 188.148438c0-10.273438-7.773437-18.601563-17.359375-18.601563-9.582031 0-17.355469 8.328125-17.355469 18.601563 0 10.273437 7.773438 18.601562 17.355469 18.601562 9.585938 0 17.359375-8.328125 17.359375-18.601562zm0 0" fill="#2c2f38"/><path d="m213.636719 172.007812c-4.480469-1.703124-9.492188.546876-11.195313 5.023438-1.703125 4.480469.546875 9.492188 5.027344 11.199219 4.476562 1.703125 9.492188-.546875 11.195312-5.027344 1.703126-4.480469-.546874-9.492187-5.027343-11.195313zm0 0" fill="#fff"/><path d="m322.800781 171.289062s-2.472656 11.085938-12.03125 8.925782c-9.5625-2.164063-11.382812 1.988281-19.621093 1.324218-2.816407-.191406-5.648438-.019531-8.421876.515626-1.96875.457031-4.011718.488281-5.996093.097656-2.746094-.734375-2.507813-3.921875-1.546875-5.996094 3.8125-8.21875 14.535156-8.820312 22.382812-7.90625 3.328125.902344 6.710938 1.585938 10.128906 2.042969 3.578126-.992188 6.917969-2.707031 9.804688-5.042969-.625 2.230469-.773438 4.566406-.441406 6.855469.996094 1.886719 5.742187-.816407 5.742187-.816407zm0 0" fill="#2c2f38"/><path d="m312.90625 188.148438c0-10.273438-7.773438-18.601563-17.359375-18.601563-9.582031 0-17.355469 8.328125-17.355469 18.601563 0 10.273437 7.773438 18.601562 17.355469 18.601562 9.585937 0 17.359375-8.328125 17.359375-18.601562zm0 0" fill="#2c2f38"/><path d="m301.886719 177.035156c-1.703125-4.476562-6.71875-6.726562-11.195313-5.023437-4.480468 1.703125-6.730468 6.714843-5.027344 11.195312 1.703126 4.480469 6.714844 6.730469 11.195313 5.027344 4.480469-1.707031 6.730469-6.71875 5.027344-11.199219zm0 0" fill="#fff"/></svg>