<svg height="512pt" viewBox="0 0 512.00027 512" width="512pt" xmlns="http://www.w3.org/2000/svg"><path d="m421.164062 185.378906-167.371093 8.828125-162.957031-8.828125c.105468-2.496094.429687-4.976562.972656-7.414062l34.601562-150.15625c3.472656-16.238282 17.828125-27.8320315 34.429688-27.808594h190.320312c16.605469-.0234375 30.960938 11.570312 34.429688 27.808594l34.601562 150.15625c.542969 2.4375.867188 4.917968.972656 7.414062zm0 0" fill="#7f8c8d"/><path d="m185.378906 296.875h141.242188v68.320312h-141.242188zm0 0" fill="#f0c419"/><path d="m247.171875 216.277344-8.828125 92.6875h-88.273438c-10.699218-.019532-20.339843-6.457032-24.453124-16.332032l-26.660157-71.765624.351563-.175782 139.035156-13.242187c4.871094.011719 8.816406 3.957031 8.828125 8.828125zm0 0" fill="#bdc3c7"/><path d="m412.691406 220.691406.351563.175782-26.660157 71.765624c-4.113281 9.875-13.753906 16.3125-24.453124 16.332032h-88.273438l-13.242188-92.6875c.015626-4.871094 3.957032-8.816406 8.828126-8.828125zm0 0" fill="#bdc3c7"/><path d="m158.898438 97.105469h194.207031c9.75 0 17.652343 7.902343 17.652343 17.652343v52.964844c0 9.753906-7.902343 17.65625-17.652343 17.65625h-194.207031c-9.753907 0-17.65625-7.902344-17.65625-17.65625v-52.964844c0-9.75 7.902343-17.652343 17.65625-17.652343zm0 0" fill="#f0c419"/><path d="m414.898438 512h97.101562v-7.855469c.015625-11.304687-1.347656-22.570312-4.0625-33.546875l-8.207031-33.277344c-9.523438-34.714843-41.429688-58.511718-77.417969-57.734374h-332.625c-35.988281-.777344-67.894531 23.019531-77.417969 57.734374l-8.207031 33.277344c-2.714844 10.976563-4.078125 22.242188-4.0625 33.546875v7.855469zm0 0" fill="#d1d4d1"/><path d="m441.378906 512h-97.101562c-.011719-29.738281 3.996094-59.34375 11.914062-88.011719l62.5-21.890625zm0 0" fill="#95a5a5"/><path d="m356.191406 423.988281c-7.917968 28.667969-11.925781 58.273438-11.914062 88.011719h-176.554688c.011719-29.738281-3.996094-59.34375-11.914062-88.011719l88.539062 30.984375c7.542969 2.648438 15.761719 2.648438 23.304688 0zm0 0" fill="#7f8c8d"/><path d="m167.722656 512h-97.101562l22.6875-109.902344 62.5 21.890625c7.917968 28.667969 11.925781 58.273438 11.914062 88.011719zm0 0" fill="#95a5a5"/><path d="m418.691406 402.097656-62.5 21.890625-88.539062 30.984375c-7.542969 2.648438-15.761719 2.648438-23.304688 0l-88.539062-30.984375-62.5-21.890625 7.238281-34.871094c3.046875-9.125 11.957031-14.964843 21.539063-14.121093h267.828124c9.605469-.84375 18.539063 4.988281 21.628907 14.121093zm0 0" fill="#bdc3c7"/><path d="m273.65625 17.65625c0 9.75-7.90625 17.652344-17.65625 17.652344s-17.65625-7.902344-17.65625-17.652344 7.90625-17.65625 17.65625-17.65625 17.65625 7.90625 17.65625 17.65625zm0 0" fill="#95a5a5"/><g fill="#5e5f62"><path d="m211.863281 256c0 4.875-3.953125 8.828125-8.828125 8.828125s-8.828125-3.953125-8.828125-8.828125 3.953125-8.828125 8.828125-8.828125 8.828125 3.953125 8.828125 8.828125zm0 0"/><path d="m185.378906 273.65625c0 4.875-3.953125 8.828125-8.828125 8.828125s-8.828125-3.953125-8.828125-8.828125 3.953125-8.828125 8.828125-8.828125 8.828125 3.953125 8.828125 8.828125zm0 0"/><path d="m158.898438 256c0 4.875-3.953126 8.828125-8.828126 8.828125s-8.828124-3.953125-8.828124-8.828125 3.953124-8.828125 8.828124-8.828125 8.828126 3.953125 8.828126 8.828125zm0 0"/><path d="m370.757812 256c0 4.875-3.953124 8.828125-8.828124 8.828125s-8.824219-3.953125-8.824219-8.828125 3.949219-8.828125 8.824219-8.828125 8.828124 3.953125 8.828124 8.828125zm0 0"/><path d="m344.277344 273.65625c0 4.875-3.953125 8.828125-8.828125 8.828125s-8.828125-3.953125-8.828125-8.828125 3.953125-8.828125 8.828125-8.828125 8.828125 3.953125 8.828125 8.828125zm0 0"/><path d="m317.792969 256c0 4.875-3.953125 8.828125-8.828125 8.828125s-8.828125-3.953125-8.828125-8.828125 3.953125-8.828125 8.828125-8.828125 8.828125 3.953125 8.828125 8.828125zm0 0"/><path d="m256 432.550781c-4.875 0-8.828125-3.949219-8.828125-8.828125v-8.824218c0-4.878907 3.953125-8.828126 8.828125-8.828126s8.828125 3.949219 8.828125 8.828126v8.824218c0 4.878906-3.953125 8.828125-8.828125 8.828125zm0 0"/><path d="m220.691406 423.722656c-4.878906 0-8.828125-3.949218-8.828125-8.824218v-8.828126c0-4.875 3.949219-8.828124 8.828125-8.828124 4.875 0 8.824219 3.953124 8.824219 8.828124v8.828126c0 4.875-3.949219 8.824218-8.824219 8.824218zm0 0"/><path d="m185.378906 414.898438c-4.875 0-8.828125-3.953126-8.828125-8.828126v-8.828124c0-4.875 3.953125-8.828126 8.828125-8.828126s8.828125 3.953126 8.828125 8.828126v8.828124c0 4.875-3.953125 8.828126-8.828125 8.828126zm0 0"/><path d="m291.308594 423.722656c-4.875 0-8.824219-3.949218-8.824219-8.824218v-8.828126c0-4.875 3.949219-8.828124 8.824219-8.828124 4.878906 0 8.828125 3.953124 8.828125 8.828124v8.828126c0 4.875-3.949219 8.824218-8.828125 8.824218zm0 0"/><path d="m326.621094 414.898438c-4.875 0-8.828125-3.953126-8.828125-8.828126v-8.828124c0-4.875 3.953125-8.828126 8.828125-8.828126s8.828125 3.953126 8.828125 8.828126v8.828124c0 4.875-3.953125 8.828126-8.828125 8.828126zm0 0"/><path d="m220.691406 97.105469v-35.3125c0-4.875 3.949219-8.828125 8.824219-8.828125 4.878906 0 8.828125 3.953125 8.828125 8.828125v35.3125"/><path d="m273.65625 97.105469v-35.3125c0-4.875 3.953125-8.828125 8.828125-8.828125s8.824219 3.953125 8.824219 8.828125v35.3125"/></g><path d="m417.28125 209.566406-4.148438 11.300782h-.089843l-.351563-.175782h-130.207031c-4.871094.011719-8.816406 3.957032-8.828125 8.824219v79.449219h-35.3125v-79.449219c-.011719-4.867187-3.957031-8.8125-8.828125-8.824219h-130.207031l-.351563.175782h-.089843l-4.148438-11.300782c-3.25-7.621094-4.585938-15.929687-3.882812-24.1875h330.328124c.703126 8.257813-.632812 16.566406-3.882812 24.1875zm0 0" fill="#95a5a5"/><path d="m232.878906 124.371094c-8.390625-3.085938-17.199218-4.871094-26.128906-5.296875-12.003906-.90625-24.015625 1.65625-34.605469 7.378906 1.207031-15.449219 37.023438-18.5 54.53125-14.527344 2.777344.34375 5.191407 2.054688 6.441407 4.558594 1.246093 2.503906 1.15625 5.464844-.238282 7.886719zm0 0" fill="#2c2f38"/><path d="m229.515625 151.667969c0-10.449219-7.902344-18.921875-17.652344-18.921875s-17.65625 8.472656-17.65625 18.921875c0 10.453125 7.90625 18.921875 17.65625 18.921875s17.652344-8.46875 17.652344-18.921875zm0 0" fill="#2c2f38"/><path d="m216.8125 135.25c-4.558594-1.734375-9.65625.554688-11.390625 5.113281-1.734375 4.554688.554687 9.65625 5.113281 11.386719 4.558594 1.734375 9.65625-.554688 11.390625-5.113281 1.730469-4.554688-.558593-9.65625-5.113281-11.386719zm0 0" fill="#fff"/><path d="m279.121094 124.371094c8.390625-3.085938 17.203125-4.871094 26.128906-5.296875 12.003906-.90625 24.015625 1.65625 34.605469 7.378906-1.207031-15.449219-37.023438-18.5-54.53125-14.527344-2.773438.34375-5.191407 2.054688-6.441407 4.558594-1.246093 2.503906-1.15625 5.464844.238282 7.886719zm0 0" fill="#2c2f38"/><path d="m317.792969 151.667969c0-10.449219-7.902344-18.921875-17.65625-18.921875-9.75 0-17.652344 8.472656-17.652344 18.921875 0 10.453125 7.902344 18.921875 17.652344 18.921875 9.753906 0 17.65625-8.46875 17.65625-18.921875zm0 0" fill="#2c2f38"/><path d="m306.578125 140.359375c-1.734375-4.554687-6.832031-6.84375-11.390625-5.109375-4.554688 1.730469-6.84375 6.832031-5.113281 11.386719 1.734375 4.558593 6.832031 6.847656 11.390625 5.113281s6.847656-6.832031 5.113281-11.390625zm0 0" fill="#fff"/></svg>