<svg height="512pt" viewBox="0 0 512.01994 512" width="512pt" xmlns="http://www.w3.org/2000/svg"><path d="m326.628906 379.597656v-68.769531h-141.238281v68.769531" fill="#f29c1f"/><path d="m388.421875 149.285156v115.550782c.015625 16.394531-6.492187 32.117187-18.082031 43.710937-11.59375 11.589844-27.316406 18.097656-43.710938 18.082031h-141.238281c-16.394531.015625-32.117187-6.492187-43.707031-18.082031-11.59375-11.59375-18.097656-27.316406-18.085938-43.710937v-115.550782" fill="#f0c419"/><path d="m399.722656 98.703125 10.503906-68.148437c1.175782-7.648438-1.050781-15.425782-6.089843-21.296876-5.039063-5.871093-12.390625-9.2499995-20.125-9.2460932h-256c-7.738281-.0039063-15.089844 3.3750002-20.128907 9.2460932-5.039062 5.871094-7.265624 13.648438-6.089843 21.296876l10.503906 68.058593 72.722656 41.902344 156.324219-15.082031zm0 0" fill="#3b97d3"/><path d="m256.011719 128.539062c-4.878907 0-8.828125-3.953124-8.828125-8.828124v-40.253907c0-4.875 3.949218-8.828125 8.828125-8.828125 4.875 0 8.824219 3.953125 8.824219 8.828125v40.253907c0 4.875-3.949219 8.828124-8.824219 8.828124zm0 0" fill="#9fc9d3"/><path d="m220.699219 35.320312c0 19.5-15.808594 35.308594-35.308594 35.308594-19.503906 0-35.3125-15.808594-35.3125-35.308594s15.808594-35.3085932 35.3125-35.3085932c19.5 0 35.308594 15.8085932 35.308594 35.3085932zm0 0" fill="#f3d55b"/><path d="m344.285156 61.804688c0 14.625-11.855468 26.480468-26.480468 26.480468-14.628907 0-26.484376-11.855468-26.484376-26.480468 0-14.628907 11.855469-26.484376 26.484376-26.484376 14.625 0 26.480468 11.855469 26.480468 26.484376zm0 0" fill="#e64c3c"/><g fill="#e6e7e8"><path d="m238.355469 198.628906c0-17.0625-11.855469-30.894531-26.484375-30.894531-14.625 0-26.480469 13.832031-26.480469 30.894531 0 17.066406 11.855469 30.898438 26.480469 30.898438 14.628906 0 26.484375-13.832032 26.484375-30.898438zm0 0"/><path d="m326.628906 198.628906c0-17.0625-11.855468-30.894531-26.480468-30.894531s-26.484376 13.832031-26.484376 30.894531c0 17.066406 11.859376 30.898438 26.484376 30.898438s26.480468-13.832032 26.480468-30.898438zm0 0"/><path d="m256.011719 310.628906c-64.359375 0-65.105469-46.039062-65.105469-46.5-.023438-10.222656 8.207031-18.546875 18.425781-18.644531 10.222657-.097656 18.605469 8.070313 18.777344 18.289063.378906 3.070312 6.734375 9.65625 27.902344 9.65625 21.164062 0 27.523437-6.59375 27.921875-10.078126.660156-9.710937 8.558594-17.351562 18.289062-17.6875 4.960938-.082031 9.75 1.820313 13.296875 5.289063 3.550781 3.46875 5.5625 8.214844 5.59375 13.175781 0 .460938-.746093 46.5-65.101562 46.5zm0 0"/></g><path d="m256.011719 300.148438c-52.359375 0-52.96875-34.957032-52.96875-35.3125-.042969-4.875 3.871093-8.863282 8.746093-8.910157s8.863282 3.867188 8.910157 8.742188c.105469 1.957031 1.988281 17.824219 35.3125 17.824219 33.484375 0 35.21875-16.023438 35.3125-17.851563.40625-4.722656 4.292969-8.386719 9.03125-8.515625 4.769531.0625 8.609375 3.941406 8.621093 8.710938 0 .355468-.609374 35.3125-52.964843 35.3125zm0 0" fill="#e64c3c"/><path d="m282.492188 229.527344c0 14.625-11.855469 26.484375-26.480469 26.484375-14.628907 0-26.484375-11.859375-26.484375-26.484375s11.855468-26.484375 26.484375-26.484375c14.625 0 26.480469 11.859375 26.480469 26.484375zm0 0" fill="#e64c3c"/><path d="m256.839844 167.734375h-.828125c132.410156 0 203.03125-44.136719 203.03125-70.621094s-88.273438 22.597657-203.03125 22.597657c-114.761719 0-203.035157-49.082032-203.035157-22.597657s70.621094 70.621094 203.035157 70.621094zm0 0" fill="#2980ba"/><path d="m229.527344 215.742188c0 7.613281-6.171875 13.785156-13.785156 13.785156-7.609376 0-13.78125-6.171875-13.78125-13.785156 0-7.609376 6.171874-13.78125 13.78125-13.78125 7.613281 0 13.785156 6.171874 13.785156 13.78125zm0 0" fill="#2c2f38"/><path d="m308.976562 215.742188c0 7.613281-6.171874 13.785156-13.785156 13.785156-7.613281 0-13.78125-6.171875-13.78125-13.785156 0-7.609376 6.167969-13.78125 13.78125-13.78125 7.613282 0 13.785156 6.171874 13.785156 13.78125zm0 0" fill="#2c2f38"/><path d="m224.921875 210.988281c0 4.878907-3.953125 8.828125-8.828125 8.828125s-8.828125-3.949218-8.828125-8.828125c0-4.875 3.953125-8.824219 8.828125-8.824219s8.828125 3.949219 8.828125 8.824219zm0 0" fill="#e6e7e8"/><path d="m304.371094 210.988281c0 4.878907-3.953125 8.828125-8.828125 8.828125s-8.828125-3.949218-8.828125-8.828125c0-4.875 3.953125-8.824219 8.828125-8.824219s8.828125 3.949219 8.828125 8.824219zm0 0" fill="#e6e7e8"/><path d="m512.011719 504.152344v7.859375h-512.0000002v-7.859375c-.4101568-31.769532 11.7421872-62.414063 33.8085932-85.273438 15.273438-13.929687 35.207032-21.640625 55.878907-21.628906h332.621093c20.671876-.011719 40.605469 7.699219 55.878907 21.628906 22.070312 22.859375 34.21875 53.503906 33.8125 85.273438zm0 0" fill="#24ae5f"/><path d="m229.527344 512.011719h-158.898438l29.925782-127.117188c3.046874-9.125 11.957031-14.96875 21.539062-14.125h267.832031c9.601563-.84375 18.535157 4.992188 21.625 14.125l29.839844 127.117188h-158.898437" fill="#4fba6f"/><path d="m335.457031 432.207031v.355469s-44.136719 44.136719-52.964843 79.449219h-52.964844c-8.828125-35.3125-52.964844-79.449219-52.964844-79.449219v-.355469c23.128906-2.558593 52.964844-31.511719 52.964844-31.511719h52.964844s29.835937 28.953126 52.964843 31.511719zm0 0" fill="#ecf0f1"/><path d="m264.835938 432.5625v79.449219h-17.652344v-79.449219c0-4.875 3.949218-8.828125 8.828125-8.828125 4.875 0 8.824219 3.953125 8.824219 8.828125zm0 0" fill="#95a5a5"/><path d="m186.492188 370.492188h136.277343v32h-136.277343zm0 0" fill="#ecf0f1"/><path d="m361.941406 380.566406v33.367188c0 16.246094-11.917968 19.863281-26.484375 18.273437-18.472656-3.386719-36.328125-9.550781-52.964843-18.273437h-52.964844c-16.632813 8.722656-34.492188 14.886718-52.964844 18.273437-14.566406 1.589844-26.484375-2.027343-26.484375-18.273437v-33.367188c-.113281-3.378906.582031-6.738281 2.03125-9.796875 7.679687-15.097656 35.398437-7.859375 55.4375 0 7.496094 2.871094 14.835937 6.140625 21.980469 9.796875h52.964844c7.148437-3.65625 14.484374-6.925781 21.980468-9.796875 20.039063-7.859375 47.757813-15.097656 55.4375 0 1.449219 3.058594 2.144532 6.417969 2.03125 9.796875zm0 0" fill="#e64c3c"/><path d="m247.183594 361.941406h17.652344c9.753906 0 17.65625 7.902344 17.65625 17.65625v35.308594c0 9.75-7.902344 17.65625-17.65625 17.65625h-17.652344c-9.75 0-17.65625-7.90625-17.65625-17.65625v-35.308594c0-9.753906 7.90625-17.65625 17.65625-17.65625zm0 0" fill="#c03a2b"/></svg>