<svg height="512pt" viewBox="0 0 512.00027 512" width="512pt" xmlns="http://www.w3.org/2000/svg"><path d="m185.378906 295.089844h141.242188v71.890625h-141.242188zm0 0" fill="#f29c1f"/><path d="m414.898438 512h97.101562v-7.855469c.015625-11.304687-1.347656-22.570312-4.0625-33.546875l-8.207031-33.277344c-9.523438-34.714843-41.429688-58.511718-77.417969-57.734374h-332.625c-35.988281-.777344-67.894531 23.019531-77.417969 57.734374l-8.207031 33.277344c-2.714844 10.976563-4.078125 22.242188-4.0625 33.546875v7.855469zm0 0" fill="#e57e25"/><path d="m441.378906 512h-370.757812l29.90625-144.746094c3.0625-9.140625 11.988281-14.992187 21.589844-14.148437h267.820312c9.601562-.84375 18.53125 5.007812 21.589844 14.148437zm0 0" fill="#2c2f38"/><path d="m388.414062 114.757812v132.414063c.011719 16.394531-6.496093 32.117187-18.085937 43.707031-11.589844 11.59375-27.316406 18.097656-43.707031 18.085938h-141.242188c-16.390625.011718-32.117187-6.492188-43.707031-18.085938-11.589844-11.589844-18.097656-27.3125-18.085937-43.707031v-132.414063zm0 0" fill="#f0c419"/><path d="m391.945312 132.414062h-271.890624c-5.484376-.015624-10.652344-2.578124-13.988282-6.933593-3.335937-4.355469-4.464844-10.011719-3.046875-15.3125l20.65625-77.417969c5.148438-19.316406 22.644531-32.7578125 42.636719-32.75h179.375c19.992188-.0078125 37.488281 13.433594 42.636719 32.75l20.65625 77.417969c1.417969 5.300781.289062 10.957031-3.042969 15.3125-3.335938 4.355469-8.507812 6.917969-13.992188 6.933593zm0 0" fill="#e57e25"/><path d="m264.828125 61.792969v70.621093h-17.65625v-70.621093c0-4.875 3.953125-8.828125 8.828125-8.828125s8.828125 3.953125 8.828125 8.828125zm0 0" fill="#f29c1f"/><path d="m264.828125 0v17.65625c0 4.875-3.953125 8.828125-8.828125 8.828125s-8.828125-3.953125-8.828125-8.828125v-17.65625zm0 0" fill="#f29c1f"/><path d="m397.242188 512h-282.484376s35.3125-52.964844 35.3125-88.277344v-70.617187h35.308594v70.617187h141.242188v-70.617187h35.308594v70.617187c0 35.3125 35.3125 88.277344 35.3125 88.277344zm0 0" fill="#d25627"/><g fill="#2c2f38"><path d="m297.734375 247.171875c-7.132813 13.957031-29.398437 15.933594-41.558594 15.933594-12.1875 0-34.421875-1.976563-41.554687-15.933594 13.601562 3.351563 27.546875 5.097656 41.554687 5.207031 14.007813-.105468 27.957031-1.855468 41.558594-5.207031zm0 0"/><path d="m232.878906 155.269531c-8.390625-3.085937-17.199218-4.871093-26.128906-5.296875-12.003906-.910156-24.015625 1.652344-34.605469 7.378906 1.207031-15.449218 37.023438-18.503906 54.53125-14.53125 2.777344.347657 5.191407 2.058594 6.441407 4.558594 1.246093 2.503906 1.15625 5.464844-.238282 7.890625zm0 0"/><path d="m229.515625 182.566406c0-10.453125-7.902344-18.925781-17.652344-18.925781s-17.65625 8.472656-17.65625 18.925781c0 10.449219 7.90625 18.921875 17.65625 18.921875s17.652344-8.472656 17.652344-18.921875zm0 0"/></g><path d="m216.8125 166.144531c-4.558594-1.734375-9.65625.554688-11.390625 5.113281-1.734375 4.558594.554687 9.65625 5.113281 11.390626 4.558594 1.730468 9.65625-.558594 11.390625-5.113282 1.730469-4.558594-.558593-9.65625-5.113281-11.390625zm0 0" fill="#fff"/><path d="m279.121094 155.269531c8.390625-3.085937 17.203125-4.871093 26.128906-5.296875 12.003906-.910156 24.015625 1.652344 34.605469 7.378906-1.207031-15.449218-37.023438-18.503906-54.53125-14.53125-2.773438.347657-5.191407 2.058594-6.441407 4.558594-1.246093 2.503906-1.15625 5.464844.238282 7.890625zm0 0" fill="#2c2f38"/><path d="m317.792969 182.566406c0-10.453125-7.902344-18.925781-17.65625-18.925781-9.75 0-17.652344 8.472656-17.652344 18.925781 0 10.449219 7.902344 18.921875 17.652344 18.921875 9.753906 0 17.65625-8.472656 17.65625-18.921875zm0 0" fill="#2c2f38"/><path d="m306.578125 171.257812c-1.734375-4.554687-6.832031-6.84375-11.390625-5.113281-4.554688 1.734375-6.84375 6.832031-5.113281 11.390625 1.734375 4.554688 6.835937 6.84375 11.390625 5.113282 4.558594-1.734376 6.847656-6.832032 5.113281-11.390626zm0 0" fill="#fff"/></svg>