<svg height="512pt" viewBox="0 0 512.00027 512" width="512pt" xmlns="http://www.w3.org/2000/svg"><path d="m185.378906 291.308594h141.242188v79.449218h-141.242188zm0 0" fill="#f29c1f"/><path d="m414.898438 512h97.101562v-7.855469c.015625-11.304687-1.347656-22.570312-4.0625-33.546875l-8.207031-33.277344c-9.523438-34.714843-41.429688-58.511718-77.417969-57.734374h-332.625c-35.988281-.777344-67.894531 23.019531-77.417969 57.734374l-8.207031 33.277344c-2.714844 10.976563-4.078125 22.242188-4.0625 33.546875v7.855469zm0 0" fill="#2c3e50"/><path d="m441.378906 512h-370.757812l29.925781-144.773438c3.046875-9.125 11.957031-14.964843 21.539063-14.121093h267.828124c9.605469-.84375 18.539063 4.988281 21.628907 14.121093zm0 0" fill="#35495e"/><path d="m388.414062 247.171875c.011719 16.394531-6.496093 32.117187-18.085937 43.707031-11.589844 11.59375-27.316406 18.097656-43.707031 18.085938h-141.242188c-16.390625.011718-32.117187-6.492188-43.707031-18.085938-11.589844-11.589844-18.097656-27.3125-18.085937-43.707031v-52.964844h264.828124zm0 0" fill="#f0c419"/><path d="m417.632812 94.808594c-.75-2.242188-1.664062-4.425782-2.734374-6.53125-12.449219-24.984375-35.3125-35.3125-44.140626-61.792969-11.378906.632813-21.519531 7.394531-26.480468 17.652344 0 0 0-26.480469-35.3125-26.480469-19.238282.914062-38.125-5.378906-52.964844-17.65625-20.058594 5.925781-40.875 8.898438-61.792969 8.828125-35.308593 0-44.136719 26.480469-44.136719 26.480469-4.582031-5.035156-10.878906-8.183594-17.65625-8.824219 0 26.480469-22.863281 27.980469-35.308593 52.964844-3.492188 6.417969-6.273438 13.195312-8.300781 20.214843 0 0-.085938 0 0 .085938zm0 0" fill="#805333"/><path d="m114.757812 88.277344h282.484376c19.5 0 35.308593 15.808594 35.308593 35.308594v88.277343c0 19.5-15.808593 35.308594-35.308593 35.308594h-282.484376c-19.5 0-35.308593-15.808594-35.308593-35.308594v-88.277343c0-19.5 15.808593-35.308594 35.308593-35.308594zm0 0" fill="#2c3e50"/><path d="m158.898438 88.277344h194.207031c24.375 0 44.136719 19.761718 44.136719 44.136718v70.621094c0 24.375-19.761719 44.136719-44.136719 44.136719h-194.207031c-24.378907 0-44.140626-19.761719-44.140626-44.136719v-70.621094c0-24.375 19.761719-44.136718 44.140626-44.136718zm0 0" fill="#35495e"/><path d="m238.34375 167.722656c0 24.378906-19.761719 44.140625-44.136719 44.140625s-44.136719-19.761719-44.136719-44.140625c0-24.375 19.761719-44.136718 44.136719-44.136718s44.136719 19.761718 44.136719 44.136718zm0 0" fill="#2c3e50"/><path d="m220.691406 167.722656c0 14.628906-11.859375 26.484375-26.484375 26.484375s-26.484375-11.855469-26.484375-26.484375c0-14.625 11.859375-26.480468 26.484375-26.480468s26.484375 11.855468 26.484375 26.480468zm0 0" fill="#90bae1"/><path d="m361.929688 167.722656c0 24.378906-19.757813 44.140625-44.136719 44.140625-24.375 0-44.136719-19.761719-44.136719-44.140625 0-24.375 19.761719-44.136718 44.136719-44.136718 24.378906 0 44.136719 19.761718 44.136719 44.136718zm0 0" fill="#2c3e50"/><g fill="#bdc3c7"><path d="m215.480469 420.28125c-46.695313-24.453125-47.757813-65.324219-47.757813-67.175781h-17.652344c0 2.117187.617188 53.226562 57.203126 82.890625 2.855468 1.488281 4.628906 4.457031 4.589843 7.679687v68.324219h17.652344v-68.324219c.035156-9.800781-5.371094-18.8125-14.035156-23.394531zm0 0"/><path d="m361.929688 353.105469c0 2.117187-.617188 53.226562-57.203126 82.890625-2.855468 1.488281-4.628906 4.457031-4.589843 7.679687v68.324219h-17.652344v-68.324219c-.035156-9.800781 5.371094-18.8125 14.035156-23.394531 47.226563-24.71875 47.757813-66.734375 47.757813-67.175781zm0 0"/><path d="m194.207031 353.105469s8.828125 44.136719 61.792969 44.136719 61.792969-44.136719 61.792969-44.136719"/></g><path d="m264.828125 432.550781v79.449219h-17.65625v-79.449219c0-4.875 3.953125-8.828125 8.828125-8.828125s8.828125 3.953125 8.828125 8.828125zm0 0" fill="#fff"/><path d="m344.277344 167.722656c0 14.628906-11.859375 26.484375-26.484375 26.484375s-26.484375-11.855469-26.484375-26.484375c0-14.625 11.859375-26.480468 26.484375-26.480468s26.484375 11.855468 26.484375 26.480468zm0 0" fill="#90bae1"/></svg>