<svg height="512pt" viewBox="0 0 512.00027 512" width="512pt" xmlns="http://www.w3.org/2000/svg"><path d="m414.898438 512h97.101562v-7.855469c.015625-11.304687-1.347656-22.570312-4.0625-33.546875l-8.207031-33.277344c-9.523438-34.714843-41.429688-58.511718-77.417969-57.734374h-332.625c-35.988281-.777344-67.894531 23.019531-77.417969 57.734374l-8.207031 33.277344c-2.714844 10.976563-4.078125 22.242188-4.0625 33.546875v7.855469zm0 0" fill="#35495e"/><path d="m512 132.414062s-26.484375 44.136719-123.585938 61.792969h-264.828124c-97.101563-17.65625-123.585938-61.792969-123.585938-61.792969l58.113281-26.484374h383.265625zm0 0" fill="#2c3e50"/><path d="m185.378906 299.035156h141.242188v70.355469h-141.242188zm0 0" fill="#f29c1f"/><path d="m388.414062 146.625v100.546875c.046876 13.28125-4.265624 26.214844-12.269531 36.8125l-51.464843 29.394531h-142.125l-46.785157-29.484375c-7.941406-10.59375-12.21875-23.484375-12.183593-36.722656v-100.546875zm0 0" fill="#f0c419"/><path d="m128.53125 86.15625 32.132812-70.621094c4.3125-9.4375 13.71875-15.503906 24.097657-15.535156h142.476562c10.378907.03125 19.785157 6.097656 24.101563 15.535156l32.128906 70.621094-129.675781 48.554688zm0 0" fill="#2c3e50"/><path d="m441.378906 512h-370.757812l29.90625-144.746094c3.0625-9.140625 11.988281-14.992187 21.589844-14.148437h267.820312c9.601562-.84375 18.53125 5.007812 21.589844 14.148437zm0 0" fill="#2c3e50"/><path d="m255.648438 273.65625c26.480468 0 26.480468 44.136719 97.101562 44.136719s61.792969-35.308594 61.792969-35.308594c-26.480469 17.652344-61.792969-8.828125-88.273438-35.3125-26.484375-26.480469-61.792969-8.828125-70.621093-8.828125h.351562c-8.828125 0-44.136719-17.652344-70.621094 8.828125-26.480468 26.484375-61.792968 52.964844-88.273437 35.3125 0 0-8.828125 35.308594 61.792969 35.308594 70.617187 0 70.617187-44.136719 97.101562-44.136719zm0 0" fill="#2c2f38"/><path d="m150.070312 353.105469 33.015626 49.609375h145.828124l33.015626-49.609375zm0 0" fill="#e6e7e8"/><path d="m256 158.898438c62.820312 1.292968 125.433594-7.648438 185.378906-26.484376 23.074219-6.632812 47.546875-6.632812 70.621094 0 0-35.308593-44.136719-61.792968-88.277344-52.964843-55.363281 10.242187-111.441406 16.144531-167.722656 17.65625-56.28125-1.511719-112.359375-7.414063-167.722656-17.65625-44.140625-8.828125-88.277344 17.65625-88.277344 52.964843 23.074219-6.632812 47.546875-6.632812 70.621094 0 59.945312 18.835938 122.558594 27.777344 185.378906 26.484376zm0 0" fill="#35495e"/><path d="m291.308594 388.414062s64.082031 8.828126 79.449218 70.621094c0 0-52.964843 8.828125-52.964843 52.964844 0 0-61.792969-26.484375-61.792969-105.929688 0 79.445313-61.792969 105.929688-61.792969 105.929688 0-44.136719-52.964843-52.964844-52.964843-52.964844 15.367187-61.792968 79.449218-70.621094 79.449218-70.621094zm0 0" fill="#e64c3c"/><path d="m267.527344 406.070312h-23.054688c-8.628906 0-15.996094-6.242187-17.414062-14.753906l-2.941406-17.65625c-.855469-5.117187.585937-10.351562 3.941406-14.3125 3.355468-3.960937 8.28125-6.242187 13.472656-6.242187h28.9375c5.191406 0 10.117188 2.28125 13.472656 6.242187 3.355469 3.960938 4.796875 9.195313 3.941406 14.3125l-2.941406 17.65625c-1.417968 8.511719-8.785156 14.753906-17.414062 14.753906zm0 0" fill="#c03a2b"/><path d="m232.878906 172.921875c-8.390625-3.082031-17.199218-4.871094-26.128906-5.296875-12.003906-.90625-24.015625 1.65625-34.605469 7.378906 1.207031-15.445312 37.023438-18.5 54.53125-14.527344 2.777344.34375 5.191407 2.058594 6.441407 4.558594 1.246093 2.503906 1.15625 5.464844-.238282 7.886719zm0 0" fill="#2c2f38"/><path d="m229.515625 200.21875c0-10.449219-7.902344-18.921875-17.652344-18.921875s-17.65625 8.472656-17.65625 18.921875c0 10.453125 7.90625 18.925781 17.65625 18.925781s17.652344-8.472656 17.652344-18.925781zm0 0" fill="#2c2f38"/><path d="m216.8125 183.800781c-4.558594-1.734375-9.65625.554688-11.390625 5.113281-1.730469 4.554688.558594 9.65625 5.113281 11.386719 4.558594 1.734375 9.65625-.554687 11.390625-5.113281 1.730469-4.554688-.558593-9.652344-5.113281-11.386719zm0 0" fill="#fff"/><path d="m279.121094 172.921875c8.390625-3.082031 17.203125-4.871094 26.128906-5.296875 12.003906-.90625 24.015625 1.65625 34.605469 7.378906-1.207031-15.445312-37.023438-18.5-54.53125-14.527344-2.773438.34375-5.191407 2.058594-6.441407 4.558594-1.246093 2.503906-1.15625 5.464844.238282 7.886719zm0 0" fill="#2c2f38"/><path d="m317.792969 200.21875c0-10.449219-7.902344-18.921875-17.65625-18.921875-9.75 0-17.652344 8.472656-17.652344 18.921875 0 10.453125 7.902344 18.925781 17.652344 18.925781 9.753906 0 17.65625-8.472656 17.65625-18.925781zm0 0" fill="#2c2f38"/><path d="m306.578125 188.914062c-1.734375-4.558593-6.832031-6.847656-11.390625-5.113281-4.554688 1.734375-6.84375 6.832031-5.113281 11.386719 1.734375 4.558594 6.835937 6.847656 11.390625 5.113281 4.558594-1.730469 6.847656-6.832031 5.113281-11.386719zm0 0" fill="#fff"/></svg>