<svg height="512pt" viewBox="0 0 512.00027 512" width="512pt" xmlns="http://www.w3.org/2000/svg"><path d="m414.898438 512h97.101562v-7.855469c.015625-11.304687-1.347656-22.570312-4.0625-33.546875l-8.207031-33.277344c-9.523438-34.714843-41.429688-58.511718-77.417969-57.734374h-332.625c-35.988281-.777344-67.894531 23.019531-77.417969 57.734374l-8.207031 33.277344c-2.714844 10.976563-4.078125 22.242188-4.0625 33.546875v7.855469zm0 0" fill="#67b9cc"/><path d="m150.070312 459.035156c0 26.480469-26.484374 52.964844-26.484374 52.964844h-52.964844l29.925781-144.773438c1.441406-5.652343 5.667969-10.179687 11.210937-12.003906 2.53125 25.328125 12.828126 49.253906 29.484376 68.5zm0 0" fill="#2fa8cc"/><path d="m441.378906 512h-52.964844s-26.484374-26.484375-26.484374-52.964844l8.828124-35.3125c16.660157-19.277344 26.957032-43.234375 29.484376-68.589844 5.558593 1.882813 9.800781 6.421876 11.300781 12.09375zm0 0" fill="#2fa8cc"/><path d="m388.414062 512h-264.828124s26.484374-26.484375 26.484374-52.964844h93.925782c5.210937 4.960938 9.304687 10.980469 12.003906 17.65625 2.699219-6.675781 6.792969-12.695312 12.003906-17.65625h93.925782c0 26.480469 26.484374 52.964844 26.484374 52.964844zm0 0" fill="#e57e25"/><path d="m388.414062 123.585938v123.585937c.015626 2.808594-.191406 5.613281-.617187 8.386719h-263.59375c-.425781-2.773438-.632813-5.578125-.617187-8.386719v-123.585937zm0 0" fill="#f0c419"/><path d="m114.757812 70.621094h282.484376c9.75 0 17.65625 7.902344 17.65625 17.65625v17.652344c0 9.753906-7.90625 17.65625-17.65625 17.65625h-282.484376c-9.75 0-17.652343-7.902344-17.652343-17.65625v-17.652344c0-9.753906 7.902343-17.65625 17.652343-17.65625zm0 0" fill="#35495e"/><g fill="#2c3e50"><path d="m194.207031 0h123.585938c39.003906 0 70.621093 31.617188 70.621093 70.621094h-264.828124c0-39.003906 31.617187-70.621094 70.621093-70.621094zm0 0"/><path d="m141.242188 105.929688v17.65625h-17.65625v-17.65625c0-4.875 3.953124-8.824219 8.828124-8.824219s8.828126 3.949219 8.828126 8.824219zm0 0"/><path d="m176.550781 105.929688v17.65625h-17.652343v-17.65625c0-4.875 3.949218-8.824219 8.824218-8.824219 4.878906 0 8.828125 3.949219 8.828125 8.824219zm0 0"/><path d="m211.863281 105.929688v17.65625h-17.65625v-17.65625c0-4.875 3.953125-8.824219 8.828125-8.824219s8.828125 3.949219 8.828125 8.824219zm0 0"/><path d="m247.171875 105.929688v17.65625h-17.65625v-17.65625c0-4.875 3.953125-8.824219 8.828125-8.824219s8.828125 3.949219 8.828125 8.824219zm0 0"/><path d="m282.484375 105.929688v17.65625h-17.65625v-17.65625c0-4.875 3.953125-8.824219 8.828125-8.824219s8.828125 3.949219 8.828125 8.824219zm0 0"/><path d="m317.792969 105.929688v17.65625h-17.65625v-17.65625c0-4.875 3.953125-8.824219 8.828125-8.824219s8.828125 3.949219 8.828125 8.824219zm0 0"/><path d="m353.105469 105.929688v17.65625h-17.65625v-17.65625c0-4.875 3.953125-8.824219 8.828125-8.824219s8.828125 3.949219 8.828125 8.824219zm0 0"/><path d="m388.414062 105.929688v17.65625h-17.65625v-17.65625c0-4.875 3.953126-8.824219 8.828126-8.824219s8.828124 3.949219 8.828124 8.824219zm0 0"/></g><path d="m414.898438 326.621094c-4.761719-4.796875-10.964844-7.902344-17.65625-8.828125 3.339843 12.148437 4.359374 24.816406 3 37.339843-2.527344 25.355469-12.824219 49.3125-29.484376 68.589844-.640624-6.777344-3.789062-13.074218-8.828124-17.652344 0 0-9.707032 22.246094-61.792969 35.308594-12.140625 2.792969-23.265625 8.90625-32.132813 17.65625-5.210937 4.960938-9.304687 10.980469-12.003906 17.65625-2.699219-6.675781-6.792969-12.695312-12.003906-17.65625-8.867188-8.75-19.992188-14.863281-32.132813-17.65625-52.082031-13.0625-61.792969-35.308594-61.792969-35.308594-5.039062 4.578126-8.1875 10.875-8.828124 17.652344-16.65625-19.246094-26.953126-43.171875-29.484376-68.5-1.355468-12.554687-.335937-25.25 3-37.429687-6.691406.925781-12.894531 4.03125-17.652343 8.828125-8.828125-35.3125 17.652343-79.449219 52.964843-79.449219 35.308594 0 35.308594-26.480469 61.792969-26.480469 26.480469 0 35.308594 8.824219 44.136719 8.824219s17.65625-8.824219 44.136719-8.824219c26.484375 0 26.484375 26.480469 61.792969 26.480469 35.3125 0 61.792968 44.136719 52.96875 79.449219zm0 0" fill="#e6e7e8"/><path d="m243.996094 459.035156h-93.925782l-8.828124-35.3125c.640624-6.777344 3.789062-13.074218 8.828124-17.652344 0 0 9.710938 22.246094 61.792969 35.308594 12.140625 2.792969 23.265625 8.90625 32.132813 17.65625zm0 0" fill="#f29c1f"/><path d="m370.757812 423.722656-8.828124 35.3125h-93.925782c8.867188-8.75 19.992188-14.863281 32.132813-17.65625 52.085937-13.0625 61.792969-35.308594 61.792969-35.308594 5.039062 4.578126 8.1875 10.875 8.828124 17.652344zm0 0" fill="#f29c1f"/><path d="m297.734375 251.585938c-7.132813 13.957031-29.398437 15.933593-41.558594 15.933593-12.1875 0-34.421875-1.976562-41.554687-15.933593 13.601562 3.351562 27.546875 5.097656 41.554687 5.207031 14.007813-.105469 27.957031-1.855469 41.558594-5.207031zm0 0" fill="#2c2f38"/><path d="m232.878906 159.679688c-8.390625-3.082032-17.199218-4.867188-26.128906-5.292969-12.003906-.910157-24.015625 1.652343-34.605469 7.378906 1.207031-15.449219 37.023438-18.503906 54.53125-14.53125 2.777344.34375 5.191407 2.058594 6.441407 4.558594 1.246093 2.503906 1.15625 5.464843-.238282 7.886719zm0 0" fill="#2c2f38"/><path d="m229.515625 186.980469c0-10.453125-7.902344-18.925781-17.652344-18.925781s-17.65625 8.472656-17.65625 18.925781c0 10.449219 7.90625 18.921875 17.65625 18.921875s17.652344-8.472656 17.652344-18.921875zm0 0" fill="#2c2f38"/><path d="m216.8125 170.558594c-4.558594-1.730469-9.65625.558594-11.390625 5.113281-1.734375 4.558594.554687 9.65625 5.113281 11.390625 4.558594 1.730469 9.65625-.558594 11.390625-5.113281 1.730469-4.558594-.558593-9.65625-5.113281-11.390625zm0 0" fill="#fff"/><path d="m279.121094 159.679688c8.390625-3.082032 17.203125-4.867188 26.128906-5.292969 12.003906-.910157 24.015625 1.652343 34.605469 7.378906-1.207031-15.449219-37.023438-18.503906-54.53125-14.53125-2.773438.34375-5.191407 2.058594-6.441407 4.558594-1.246093 2.503906-1.15625 5.464843.238282 7.886719zm0 0" fill="#2c2f38"/><path d="m317.792969 186.980469c0-10.453125-7.902344-18.925781-17.65625-18.925781-9.75 0-17.652344 8.472656-17.652344 18.925781 0 10.449219 7.902344 18.921875 17.652344 18.921875 9.753906 0 17.65625-8.472656 17.65625-18.921875zm0 0" fill="#2c2f38"/><path d="m306.578125 175.671875c-1.734375-4.558594-6.832031-6.847656-11.390625-5.113281-4.554688 1.734375-6.84375 6.832031-5.113281 11.390625 1.734375 4.554687 6.832031 6.84375 11.390625 5.113281 4.558594-1.734375 6.847656-6.835938 5.113281-11.390625zm0 0" fill="#fff"/></svg>