<svg height="512pt" viewBox="0 0 512.00027 512" width="512pt" xmlns="http://www.w3.org/2000/svg"><path d="m414.898438 512h97.101562v-7.855469c.015625-11.304687-1.347656-22.570312-4.0625-33.546875l-8.207031-33.277344c-9.523438-34.714843-41.429688-58.511718-77.417969-57.734374h-332.625c-35.988281-.777344-67.894531 23.019531-77.417969 57.734374l-8.207031 33.277344c-2.714844 10.976563-4.078125 22.242188-4.0625 33.546875v7.855469zm0 0" fill="#35495e"/><path d="m441.378906 512h-370.757812l29.925781-144.773438c1.667969-6.210937 6.5625-11.039062 12.800781-12.621093v-.089844c2.816406-.933594 5.769532-1.410156 8.738282-1.410156h267.828124c9.605469-.84375 18.539063 4.988281 21.628907 14.121093zm0 0" fill="#2c3e50"/><path d="m185.378906 295.066406h141.242188v71.9375h-141.242188zm0 0" fill="#f29c1f"/><path d="m256.972656 112.285156-.972656 2.472656v194.207032h-70.621094c-16.390625.011718-32.117187-6.492188-43.707031-18.085938-11.589844-11.589844-18.097656-27.3125-18.085937-43.707031v-44.136719c26.484374-17.65625 35.3125-79.449218 61.792968-97.105468 16.949219-11.296876 44.578125-4.589844 71.59375 6.355468zm0 0" fill="#f0c419"/><path d="m388.414062 194.207031v52.964844c.011719 16.394531-6.496093 32.117187-18.085937 43.707031-11.589844 11.59375-27.316406 18.097656-43.707031 18.085938h-70.621094v-194.207032l.972656-2.472656c15.359375 6.179688 30.367188 13.683594 43.164063 20.128906 31.691406 17.15625 61.3125 37.886719 88.277343 61.792969zm0 0" fill="#bdc3c7"/><path d="m432.550781 141.242188c.074219 9.300781-.546875 18.597656-1.851562 27.804687-.980469 8.21875-3.625 16.148437-7.769531 23.304687-11.121094 17.480469-28.691407 7.683594-34.515626 1.855469-26.964843-23.90625-56.585937-44.636719-88.277343-61.792969-12.796875-6.445312-27.804688-13.949218-43.164063-20.128906-27.015625-10.945312-54.644531-17.652344-71.59375-6.355468-26.480468 17.65625-35.308594 79.449218-61.792968 97.105468v17.65625s-26.21875-24.628906-35.308594-88.277344c-7.59375-53.230468 10.945312-73.710937 33.191406-83.949218 3.5625-1.648438 7.21875-3.09375 10.945312-4.328125 3.382813-1.300781 6.496094-3.214844 9.179688-5.648438 14.832031-12.445312 33.898438-38.488281 114.40625-38.488281 97.105469 0 176.550781 61.792969 176.550781 141.242188zm0 0" fill="#67b9cc"/><path d="m147.863281 80.15625c-1.648437 1.6875-3.90625 2.644531-6.269531 2.648438-2.355469-.019532-4.609375-.972657-6.265625-2.648438-8.324219-8.527344-13.25-19.792969-13.859375-31.691406 3.5625-1.648438 7.21875-3.09375 10.945312-4.328125 3.382813-1.300781 6.496094-3.214844 9.179688-5.648438.015625 1.402344-.285156 2.789063-.882812 4.0625-5.824219 11.652344 6.976562 24.980469 7.152343 25.15625 1.652344 1.648438 2.582031 3.890625 2.582031 6.222657 0 2.335937-.929687 4.574218-2.582031 6.226562zm0 0" fill="#d1d4d1"/><path d="m282.484375 273.65625h-26.484375c-4.875 0-8.828125-3.953125-8.828125-8.828125s3.953125-8.828125 8.828125-8.828125h22.828125l15.070313-15.070312c1.652343-1.65625 3.898437-2.585938 6.238281-2.585938h17.65625c4.875 0 8.828125 3.953125 8.828125 8.828125s-3.953125 8.828125-8.828125 8.828125h-14l-15.070313 15.070312c-1.652344 1.65625-3.898437 2.585938-6.238281 2.585938zm0 0" fill="#67b9cc"/><path d="m317.792969 264.828125c-4.875 0-8.828125-3.953125-8.828125-8.828125v-17.65625c0-4.875 3.953125-8.828125 8.828125-8.828125s8.828125 3.953125 8.828125 8.828125v17.65625c0 4.875-3.953125 8.828125-8.828125 8.828125zm0 0" fill="#67b9cc"/><path d="m256 256v17.65625h-31.691406c-5.644532-.023438-11.054688 2.234375-15.007813 6.265625-3.480469 3.414063-9.050781 3.414063-12.535156 0-3.441406-3.46875-3.441406-9.066406 0-12.535156 7.304687-7.300781 17.214844-11.398438 27.542969-11.386719zm0 0" fill="#2c2f38"/><path d="m430.699219 169.046875c-.980469 8.21875-3.625 16.148437-7.769531 23.304687-.628907-.722656-1.164063-1.523437-1.589844-2.382812-49.257813-111.136719-196.765625-128.085938-198.265625-128.265625-3.148438-.300781-5.886719-2.269531-7.179688-5.152344-1.292969-2.886719-.9375-6.242187.933594-8.789062 1.867187-2.550781 4.960937-3.898438 8.097656-3.535157 6.179688.617188 147.332031 16.683594 205.773438 124.820313zm0 0" fill="#d1d4d1"/><path d="m361.929688 353.105469-27.683594 34.601562c-5.894532 6.398438-14.300782 9.886719-22.992188 9.535157h-110.503906c-8.695312.351562-17.101562-3.136719-22.996094-9.535157l-27.683594-34.601562zm0 0" fill="#2c2f38"/><g fill="#67b9cc"><path d="m353.105469 450.207031h-79.449219c-4.875 0-8.828125-3.953125-8.828125-8.828125s3.953125-8.828125 8.828125-8.828125h73.988281l6.390625-12.773437c1.496094-2.992188 4.550782-4.882813 7.894532-4.878906h26.484374c4.875 0 8.828126 3.949218 8.828126 8.824218 0 4.878906-3.953126 8.828125-8.828126 8.828125h-21.027343l-6.386719 12.777344c-1.496094 2.992187-4.550781 4.878906-7.894531 4.878906zm0 0"/><path d="m388.414062 441.378906c-4.875 0-8.828124-3.953125-8.828124-8.828125v-17.652343c0-4.878907 3.953124-8.828126 8.828124-8.828126s8.828126 3.949219 8.828126 8.828126v17.652343c0 4.875-3.953126 8.828125-8.828126 8.828125zm0 0"/><path d="m361.929688 512h-19.859376l-19.863281-26.484375h-48.550781c-4.875 0-8.828125-3.949219-8.828125-8.824219 0-4.878906 3.953125-8.828125 8.828125-8.828125h52.964844c2.773437.015625 5.382812 1.320313 7.0625 3.53125l26.480468 35.308594c1.132813 1.535156 1.75 3.390625 1.765626 5.296875zm0 0"/><path d="m264.828125 512h-18.449219l-31.425781-70.621094h-64.882813c-3.738281-.015625-7.0625-2.386718-8.300781-5.914062l-27.980469-79.449219c-.179687-.441406-.265624-.882813-.441406-1.410156v-.089844c2.816406-.933594 5.769532-1.410156 8.738282-1.410156h9.445312l24.804688 70.617187h64.355468c3.476563-.019531 6.632813 2.027344 8.03125 5.210938l35.3125 79.445312c.511719 1.140625.785156 2.371094.792969 3.621094zm0 0"/><path d="m231.214844 178.449219c-7.65625-4.613281-15.972656-8.03125-24.664063-10.132813-11.617187-3.160156-23.898437-2.910156-35.378906.710938 4.105469-14.941406 39.851563-11.179688 56.292969-3.972656 2.664062.863281 4.714844 3 5.46875 5.691406.753906 2.695312.109375 5.585937-1.71875 7.703125zm0 0"/></g><path d="m229.515625 195.804688c0-10.449219-7.902344-18.921876-17.652344-18.921876s-17.65625 8.472657-17.65625 18.921876c0 10.453124 7.90625 18.925781 17.65625 18.925781s17.652344-8.472657 17.652344-18.925781zm0 0" fill="#2c2f38"/><path d="m216.8125 179.386719c-4.558594-1.734375-9.65625.554687-11.390625 5.113281-1.734375 4.554688.554687 9.65625 5.113281 11.390625 4.558594 1.730469 9.65625-.558594 11.390625-5.113281 1.730469-4.558594-.558593-9.65625-5.113281-11.390625zm0 0" fill="#fff"/><path d="m279.839844 180.300781c6.261718-8.246093 14.957031-14.304687 24.859375-17.320312 13.3125-3.550781 27.476562.945312 36.304687 11.527343-.136718-.132812.136719-2.949218.085938-3.386718-.144532-1.144532-.453125-2.261719-.917969-3.316406-1.039063-2.253907-2.566406-4.25-4.46875-5.839844-4.738281-3.851563-10.378906-6.429688-16.390625-7.496094-7.988281-1.804688-16.316406-1.394531-24.082031 1.191406-4.679688 1.617188-8.984375 4.152344-12.664063 7.464844-3.242187 2.964844-8.042968 8.429688-5.957031 13.402344.964844 1.351562 2.046875 2.613281 3.230469 3.773437zm0 0" fill="#67b9cc"/><path d="m317.792969 195.804688c0-10.449219-7.902344-18.921876-17.65625-18.921876-9.75 0-17.652344 8.472657-17.652344 18.921876 0 10.453124 7.902344 18.925781 17.652344 18.925781 9.753906 0 17.65625-8.472657 17.65625-18.925781zm0 0" fill="#e64c3c"/><path d="m306.578125 184.5c-1.734375-4.558594-6.832031-6.847656-11.390625-5.113281-4.554688 1.734375-6.84375 6.832031-5.113281 11.390625 1.734375 4.554687 6.832031 6.84375 11.390625 5.113281 4.558594-1.734375 6.847656-6.832031 5.113281-11.390625zm0 0" fill="#fff"/></svg>