<svg height="512pt" viewBox="0 0 512.00027 512" width="512pt" xmlns="http://www.w3.org/2000/svg"><path d="m185.378906 291.308594h141.242188v79.449218h-141.242188zm0 0" fill="#f29c1f"/><path d="m388.414062 158.898438v88.273437c.011719 16.394531-6.496093 32.117187-18.085937 43.707031-11.589844 11.59375-27.316406 18.097656-43.707031 18.085938h-141.242188c-16.390625.011718-32.117187-6.492188-43.707031-18.085938-11.589844-11.589844-18.097656-27.3125-18.085937-43.707031v-88.273437s8.828124-44.140626 61.792968-44.140626 97.105469-17.652343 114.757813-35.308593c0 0 35.3125 17.65625 44.140625 44.136719 8.828125 26.484374 44.136718 35.3125 44.136718 35.3125zm0 0" fill="#f0c419"/><path d="m414.898438 512h97.101562v-7.855469c.015625-11.304687-1.347656-22.570312-4.0625-33.546875l-8.207031-33.277344c-9.523438-34.714843-41.429688-58.511718-77.417969-57.734374h-332.625c-35.988281-.777344-67.894531 23.019531-77.417969 57.734374l-8.207031 33.277344c-2.714844 10.976563-4.078125 22.242188-4.0625 33.546875v7.855469zm0 0" fill="#90bae1"/><path d="m335.449219 353.105469s-79.449219 88.273437-79.449219 158.894531c0-70.621094-79.449219-158.894531-79.449219-158.894531zm0 0" fill="#95a5a5"/><path d="m176.550781 353.105469s79.449219 88.273437 79.449219 158.894531h-185.378906l29.925781-144.773438c3.046875-9.125 11.957031-14.964843 21.539063-14.121093zm0 0" fill="#e6e7e8"/><path d="m441.378906 512h-185.378906c0-70.621094 79.449219-158.894531 79.449219-158.894531h54.464843c9.605469-.84375 18.539063 4.988281 21.628907 14.121093zm0 0" fill="#e6e7e8"/><path d="m273.664062 203.035156c-3.339843 0-6.394531-1.878906-7.898437-4.863281-2.261719-5.058594-5.753906-9.46875-10.15625-12.832031-3.875 3.679687-7.050781 8.023437-9.375 12.832031-2.183594 4.359375-7.488281 6.121094-11.847656 3.9375s-6.121094-7.488281-3.9375-11.847656c2.640625-5.289063 12.296875-22.539063 25.550781-22.539063s22.910156 17.25 25.550781 22.535156c1.367188 2.734376 1.222657 5.984376-.382812 8.585938s-4.445313 4.1875-7.503907 4.191406zm0 0" fill="#5e5f62"/><path d="m176.5625 203.035156c-.492188 0-.980469-.039062-1.464844-.121094l-52.964844-8.828124c-4.761718-.847657-7.953124-5.371094-7.160156-10.144532.796875-4.769531 5.285156-8.011718 10.066406-7.269531l52.964844 8.828125c4.527344.757812 7.71875 4.855469 7.34375 9.433594-.378906 4.574218-4.195312 8.09375-8.785156 8.101562zm0 0" fill="#5e5f62"/><path d="m335.441406 203.035156c-4.589844-.007812-8.410156-3.527344-8.789062-8.101562-.375-4.578125 2.816406-8.675782 7.34375-9.433594l52.964844-8.828125c3.128906-.554687 6.3125.609375 8.339843 3.054687 2.03125 2.445313 2.589844 5.792969 1.464844 8.761719-1.125 2.972657-3.757813 5.109375-6.898437 5.597657l-52.964844 8.828124c-.484375.082032-.972656.121094-1.460938.121094zm0 0" fill="#5e5f62"/><path d="m256 512c-26.484375-61.792969-105.929688-88.277344-105.929688-88.277344-4.585937-23.878906-1.496093-48.601562 8.828126-70.617187h17.652343s79.449219 88.273437 79.449219 158.894531zm0 0" fill="#bdc3c7"/><path d="m361.929688 423.722656s-79.445313 26.484375-105.929688 88.277344c0-70.621094 79.449219-158.894531 79.449219-158.894531h17.65625c10.320312 22.015625 13.410156 46.738281 8.824219 70.617187zm0 0" fill="#bdc3c7"/><path d="m158.898438 476.691406h-44.140626c-4.875 0-8.828124-3.953125-8.828124-8.828125s3.953124-8.828125 8.828124-8.828125h44.140626c4.875 0 8.824218 3.953125 8.824218 8.828125s-3.949218 8.828125-8.824218 8.828125zm0 0" fill="#e64c3c"/><path d="m397.242188 476.691406h-44.136719c-4.878907 0-8.828125-3.953125-8.828125-8.828125s3.949218-8.828125 8.828125-8.828125h44.136719c4.875 0 8.828124 3.953125 8.828124 8.828125s-3.953124 8.828125-8.828124 8.828125zm0 0" fill="#95a5a5"/><path d="m379.585938 87.746094v-8.296875c-.003907-43.878907-35.570313-79.44531275-79.449219-79.449219h-88.273438c-38.195312.03125-70.984375 27.1875-78.125 64.707031" fill="#7f8c8d"/><path d="m388.414062 247.171875v-70.621094s-35.308593-8.828125-44.136718-35.308593c-8.828125-26.484376-44.140625-44.136719-44.140625-44.136719-17.652344 17.652343-61.792969 35.308593-114.757813 35.308593s-61.792968 44.136719-61.792968 44.136719v61.792969c-19.179688-22.523438-31.445313-50.113281-35.308594-79.445312-5.210938-31.339844 11.121094-68.769532 45.460937-94.191407 27.921875-19.867187 61.519531-30.179687 95.777344-29.398437 97.105469 0 105.933594 35.3125 132.414063 44.140625 6.152343 2.160156 12.066406 4.9375 17.65625 8.296875 33.722656 20.039062 82.097656 71.503906 8.828124 159.425781zm0 0" fill="#95a5a5"/><g fill="#2c2f38"><path d="m297.734375 256c-7.132813 13.957031-29.398437 15.933594-41.558594 15.933594-12.1875 0-34.421875-1.976563-41.554687-15.933594 13.601562 3.351562 27.546875 5.097656 41.554687 5.207031 14.007813-.105469 27.957031-1.855469 41.558594-5.207031zm0 0"/><path d="m232.878906 155.269531c-8.390625-3.085937-17.199218-4.871093-26.128906-5.296875-12.003906-.910156-24.015625 1.652344-34.605469 7.378906 1.207031-15.449218 37.023438-18.503906 54.53125-14.53125 2.777344.347657 5.191407 2.058594 6.441407 4.558594 1.246093 2.503906 1.15625 5.464844-.238282 7.890625zm0 0"/><path d="m279.121094 155.269531c8.390625-3.085937 17.203125-4.871093 26.128906-5.296875 12.003906-.910156 24.015625 1.652344 34.605469 7.378906-1.207031-15.449218-37.023438-18.503906-54.53125-14.53125-2.773438.347657-5.191407 2.058594-6.441407 4.558594-1.246093 2.503906-1.15625 5.464844.238282 7.890625zm0 0"/><path d="m229.515625 195.089844c0-10.847656-7.902344-19.640625-17.652344-19.640625s-17.65625 8.792969-17.65625 19.640625 7.90625 19.640625 17.65625 19.640625 17.652344-8.792969 17.652344-19.640625zm0 0"/></g><path d="m218.230469 179.046875c-4.175781-2.515625-9.601563-1.167969-12.117188 3.007813-2.515625 4.175781-1.171875 9.601562 3.003907 12.117187 4.179687 2.515625 9.601562 1.167969 12.117187-3.007813 2.515625-4.175781 1.171875-9.601562-3.003906-12.117187zm0 0" fill="#fff"/><path d="m317.789062 195.089844c0-10.847656-7.902343-19.640625-17.652343-19.640625-9.753907 0-17.65625 8.792969-17.65625 19.640625s7.902343 19.640625 17.65625 19.640625c9.75 0 17.652343-8.792969 17.652343-19.640625zm0 0" fill="#2c2f38"/><path d="m305.886719 182.054688c-2.515625-4.175782-7.941407-5.523438-12.117188-3.007813s-5.523437 7.941406-3.007812 12.117187c2.515625 4.175782 7.941406 5.523438 12.117187 3.007813 4.175782-2.515625 5.523438-7.941406 3.007813-12.117187zm0 0" fill="#fff"/><path d="m211.863281 229.515625c-19.503906 0-35.3125-15.808594-35.3125-35.308594s15.808594-35.308593 35.3125-35.308593c19.5 0 35.308594 15.808593 35.308594 35.308593-.019531 19.492188-15.816406 35.289063-35.308594 35.308594zm0-52.964844c-9.75 0-17.65625 7.90625-17.65625 17.65625s7.90625 17.65625 17.65625 17.65625 17.652344-7.90625 17.652344-17.65625c-.007813-9.746093-7.90625-17.644531-17.652344-17.65625zm0 0" fill="#285680"/><path d="m300.136719 229.515625c-19.5 0-35.308594-15.808594-35.308594-35.308594s15.808594-35.308593 35.308594-35.308593c19.503906 0 35.3125 15.808593 35.3125 35.308593-.023438 19.492188-15.820313 35.289063-35.3125 35.308594zm0-52.964844c-9.75 0-17.652344 7.90625-17.652344 17.65625s7.902344 17.65625 17.652344 17.65625c9.753906 0 17.65625-7.90625 17.65625-17.65625-.007813-9.746093-7.910157-17.644531-17.65625-17.65625zm0 0" fill="#285680"/></svg>