<svg height="512pt" viewBox="0 0 512.00027 512" width="512pt" xmlns="http://www.w3.org/2000/svg"><path d="m414.898438 512h97.101562v-7.855469c.015625-11.304687-1.347656-22.570312-4.0625-33.546875l-8.207031-33.277344c-9.523438-34.714843-41.429688-58.511718-77.417969-57.734374h-332.625c-35.988281-.777344-67.894531 23.019531-77.417969 57.734374l-8.207031 33.277344c-2.714844 10.976563-4.078125 22.242188-4.0625 33.546875v7.855469zm0 0" fill="#35495e"/><path d="m185.378906 292.015625h141.242188v78.039063h-141.242188zm0 0" fill="#bdc3c7"/><path d="m344.277344 353.105469h45.636718c9.605469-.84375 18.539063 4.988281 21.628907 14.121093l29.835937 144.773438h-370.757812l29.925781-144.773438c3.046875-9.125 11.957031-14.964843 21.539063-14.121093zm0 0" fill="#2c3e50"/><path d="m388.414062 194.207031v52.964844c.011719 16.394531-6.496093 32.117187-18.085937 43.707031-11.589844 11.59375-27.316406 18.097656-43.707031 18.085938h-141.242188c-16.390625.011718-32.117187-6.492188-43.707031-18.085938-11.589844-11.589844-18.097656-27.3125-18.085937-43.707031v-44.136719c26.484374-17.65625 35.3125-97.105468 61.792968-114.757812 26.484375-17.65625 79.449219 8.828125 114.757813 26.480468 52.96875 26.484376 70.621093 70.621094 88.277343 79.449219zm0 0" fill="#e6e7e8"/><path d="m238.34375 282.484375c-4.875 0-8.828125-3.953125-8.828125-8.828125v-17.65625c0-4.875 3.953125-8.828125 8.828125-8.828125s8.828125 3.953125 8.828125 8.828125v17.65625c0 4.875-3.953125 8.828125-8.828125 8.828125zm0 0" fill="#bdc3c7"/><path d="m344.277344 353.105469s-17.65625 44.136719-88.277344 44.136719-88.277344-44.136719-88.277344-44.136719zm0 0" fill="#e6e7e8"/><path d="m247.171875 432.550781h17.65625c9.75 0 17.65625 7.90625 17.65625 17.65625v26.484375h-52.96875v-26.484375c0-9.75 7.90625-17.65625 17.65625-17.65625zm0 0" fill="#bdc3c7"/><path d="m229.515625 467.863281h52.96875c19.5 0 35.308594 15.808594 35.308594 35.308594v8.828125h-123.585938v-8.828125c0-19.5 15.808594-35.308594 35.308594-35.308594zm0 0" fill="#e6e7e8"/><path d="m432.550781 141.242188c0 79.449218-33.015625 58.527343-44.136719 52.964843-17.65625-8.828125-35.308593-35.308593-88.277343-61.792969-35.308594-17.65625-88.273438-44.136718-114.757813-26.484374-26.480468 17.65625-35.308594 79.449218-61.792968 97.105468v17.65625s-26.21875-24.628906-35.308594-88.277344c-7.59375-53.230468 10.945312-73.710937 33.191406-83.949218 3.5625-1.648438 7.21875-3.09375 10.945312-4.328125 3.292969-1.242188 6.316407-3.097657 8.914063-5.472657 14.832031-12.359374 33.722656-38.664062 114.671875-38.664062 97.105469 0 176.550781 61.792969 176.550781 141.242188zm0 0" fill="#35495e"/><path d="m147.773438 78.476562c-1.648438 1.691407-3.90625 2.648438-6.265626 2.648438-2.359374-.019531-4.613281-.96875-6.269531-2.648438-7.886719-8.132812-12.75-18.726562-13.769531-30.011718 3.5625-1.648438 7.21875-3.09375 10.945312-4.328125 3.292969-1.242188 6.316407-3.097657 8.914063-5.472657-.097656.773438-.335937 1.519532-.703125 2.207032-5.828125 11.652344 6.972656 25.070312 7.148438 25.160156 1.652343 1.648438 2.582031 3.886719 2.582031 6.222656 0 2.335938-.929688 4.574219-2.582031 6.222656zm0 0" fill="#e6e7e8"/><g fill="#2c2f38"><path d="m291.308594 282.484375c-4.710938 0-8.589844-3.699219-8.816406-8.40625-.507813-3.242187-6.65625-9.25-26.492188-9.25h-35.308594c-4.878906 0-8.828125-3.953125-8.828125-8.828125s3.949219-8.828125 8.828125-8.828125h35.308594c43.636719 0 44.136719 25.402344 44.136719 26.484375 0 4.875-3.949219 8.828125-8.828125 8.828125zm0 0"/><path d="m232.878906 164.09375c-8.390625-3.082031-17.199218-4.867188-26.128906-5.296875-12.003906-.90625-24.015625 1.65625-34.605469 7.378906 1.207031-15.445312 37.023438-18.5 54.53125-14.527343 2.777344.34375 5.191407 2.058593 6.441407 4.558593 1.246093 2.503907 1.15625 5.464844-.238282 7.886719zm0 0"/><path d="m229.515625 191.394531c0-10.453125-7.902344-18.925781-17.652344-18.925781s-17.65625 8.472656-17.65625 18.925781c0 10.449219 7.90625 18.921875 17.65625 18.921875s17.652344-8.472656 17.652344-18.921875zm0 0"/></g><path d="m216.8125 174.972656c-4.558594-1.734375-9.65625.554688-11.390625 5.113282-1.730469 4.554687.558594 9.65625 5.113281 11.386718 4.558594 1.734375 9.65625-.554687 11.390625-5.109375 1.730469-4.558593-.558593-9.65625-5.113281-11.390625zm0 0" fill="#fff"/><path d="m279.121094 164.09375c8.390625-3.082031 17.203125-4.867188 26.128906-5.296875 12.003906-.90625 24.015625 1.65625 34.605469 7.378906-1.207031-15.445312-37.023438-18.5-54.53125-14.527343-2.773438.34375-5.191407 2.058593-6.441407 4.558593-1.246093 2.503907-1.15625 5.464844.238282 7.886719zm0 0" fill="#2c2f38"/><path d="m317.792969 191.394531c0-10.453125-7.902344-18.925781-17.65625-18.925781-9.75 0-17.652344 8.472656-17.652344 18.925781 0 10.449219 7.902344 18.921875 17.652344 18.921875 9.753906 0 17.65625-8.472656 17.65625-18.921875zm0 0" fill="#2c2f38"/><path d="m306.578125 180.085938c-1.734375-4.558594-6.832031-6.847657-11.390625-5.113282-4.554688 1.734375-6.84375 6.832032-5.113281 11.390625 1.734375 4.554688 6.835937 6.84375 11.390625 5.113281 4.558594-1.734374 6.847656-6.835937 5.113281-11.390624zm0 0" fill="#fff"/></svg>