<svg height="512pt" viewBox="0 0 512.00027 512" width="512pt" xmlns="http://www.w3.org/2000/svg"><path d="m115.199219 88.097656c4.59375-49.941406 46.507812-88.144531 96.664062-88.097656h88.273438c50.15625-.046875 92.070312 38.15625 96.664062 88.097656zm0 0" fill="#35495e"/><path d="m397.242188 97.105469v44.488281c-31.160157-12.535156-73.179688-16.859375-141.242188-16.859375s-110.078125 4.324219-141.242188 16.859375v-44.488281c0-3.003907.175782-6.003907.441407-9.007813 4.238281-1.941406 41.492187-17.476562 140.800781-17.476562s136.5625 15.535156 140.800781 17.476562c.265625 3.003906.441407 6.003906.441407 9.007813zm0 0" fill="#7f8c8d"/><path d="m185.378906 284.472656h141.242188v93.125h-141.242188zm0 0" fill="#f29c1f"/><path d="m388.414062 135.945312v111.226563c.011719 16.394531-6.496093 32.117187-18.085937 43.707031-11.589844 11.59375-27.316406 18.097656-43.707031 18.085938h-141.242188c-16.390625.011718-32.117187-6.492188-43.707031-18.085938-11.589844-11.589844-18.097656-27.3125-18.085937-43.707031v-111.226563zm0 0" fill="#f0c419"/><path d="m414.898438 512h97.101562v-7.855469c.015625-11.304687-1.347656-22.570312-4.0625-33.546875l-8.207031-33.277344c-9.523438-34.714843-41.429688-58.511718-77.417969-57.734374h-332.625c-35.988281-.777344-67.894531 23.019531-77.417969 57.734374l-8.207031 33.277344c-2.714844 10.976563-4.078125 22.242188-4.0625 33.546875v7.855469zm0 0" fill="#2c3e50"/><path d="m256 353.105469c-24.628906 0-49.167969 30.011719-61.792969 48.195312-12.726562-13.59375-21.832031-30.164062-26.484375-48.195312zm0 0" fill="#e6e7e8"/><path d="m344.277344 353.105469c-4.652344 18.03125-13.757813 34.601562-26.484375 48.195312-12.625-18.183593-37.164063-48.195312-61.792969-48.195312zm0 0" fill="#e6e7e8"/><path d="m441.378906 512h-370.757812l29.925781-144.773438c3.046875-9.125 11.957031-14.964843 21.539063-14.121093h45.636718c4.652344 18.03125 13.757813 34.601562 26.484375 48.195312 13.347657 15.308594 28.875 28.574219 46.078125 39.371094 2.296875 1.589844 4.679688 3.003906 7.152344 4.503906h.089844c2.734375 1.675781 5.472656 3.355469 8.472656 5.03125 2.648438-1.414062 5.03125-2.914062 7.503906-4.324219.089844 0 .089844 0 .089844-.089843 20.375-11.769531 38.683594-26.800781 54.199219-44.492188 12.726562-13.59375 21.832031-30.164062 26.484375-48.195312h45.636718c9.605469-.84375 18.539063 4.988281 21.628907 14.121093zm0 0" fill="#35495e"/><path d="m397.242188 166.664062c-35.3125-19.859374-97.105469-19.859374-141.242188-19.859374s-105.929688 0-141.242188 19.859374c-32.660156 18.449219-69.558593 10.242188-35.308593-17.652343 10.636719-8.660157 22.546875-15.628907 35.308593-20.660157 31.164063-12.535156 73.179688-16.859374 141.242188-16.859374s110.082031 4.324218 141.242188 16.859374c12.761718 5.03125 24.671874 12 35.308593 20.660157 34.253907 27.894531-2.648437 36.101562-35.308593 17.652343zm0 0" fill="#2c3e50"/><path d="m203.035156 247.171875c-4.875 0-8.828125-3.953125-8.828125-8.828125s3.953125-8.828125 8.828125-8.828125c7.925782-1.253906 15.558594-3.929687 22.535156-7.894531 18.4375-9.199219 31.726563-3.300782 36.671876 1.65625 3.414062 3.398437 3.46875 8.914062.125 12.382812-3.347657 3.46875-8.859376 3.613282-12.378907.324219-.5-.398437-5.625-4.011719-16.523437 1.429687-9.320313 5.410157-19.699219 8.742188-30.429688 9.757813zm0 0" fill="#2c2f38"/><path d="m308.964844 247.171875c-10.726563-1.015625-21.109375-4.347656-30.429688-9.757813-11.253906-5.628906-16.339844-1.578124-16.558594-1.40625-3.652343 3.054688-9.046874 2.746094-12.328124-.699218-3.226563-3.378906-3.179688-8.710938.109374-12.03125 4.945313-4.957032 18.234376-10.855469 36.671876-1.65625 7.023437 4.015625 14.726562 6.691406 22.722656 7.894531 4.8125.195313 8.601562 4.1875 8.546875 9.007813-.054688 4.785156-3.945313 8.640624-8.734375 8.648437zm0 0" fill="#2c2f38"/><path d="m317.792969 401.300781c-17.5 19.875-38.429688 36.441407-61.792969 48.90625-23.363281-12.464843-44.292969-29.03125-61.792969-48.90625 12.625-18.183593 37.164063-48.195312 61.792969-48.195312s49.167969 30.011719 61.792969 48.195312zm0 0" fill="#955ba5"/><path d="m238.34375 353.105469h35.3125v26.480469c0 9.75-7.90625 17.65625-17.65625 17.65625s-17.65625-7.90625-17.65625-17.65625zm0 0" fill="#b49aca"/><g fill="#7f8c8d"><path d="m256 450.207031c-11.222656 8.140625-23.300781 15.039063-36.015625 20.566407-1.855469.796874-3.796875 1.589843-5.738281 2.386718-.796875.351563-1.589844.703125-2.382813.96875v37.871094h-17.65625v-44.226562c.015625-3.492188 2.09375-6.644532 5.296875-8.03125.230469-.105469.464844-.191407.707032-.265626 3.707031-1.238281 7.503906-2.648437 11.121093-4.148437 9.960938-4.253906 19.632813-9.148437 28.953125-14.65625 2.296875 1.589844 4.679688 3.003906 7.152344 4.503906h.089844c2.734375 1.675781 5.472656 3.355469 8.472656 5.03125zm0 0"/><path d="m388.414062 406.070312c-.015624 4.867188-3.957031 8.8125-8.828124 8.828126-6.703126.019531-13.28125 1.816406-19.066407 5.207031-2.324219 8.761719.675781 18.078125 7.679688 23.835937 2.089843 2.109375 2.984375 5.128906 2.382812 8.042969-.605469 2.910156-2.625 5.324219-5.382812 6.433594-1.765625.703125-44.667969 17.832031-71.0625 26.65625-11.789063 3.804687-19.960938 14.550781-20.480469 26.925781h-17.65625c.523438-19.960938 13.523438-37.445312 32.484375-43.695312 18.007813-6.003907 44.492187-16.242188 59.234375-21.980469-6.5625-10.6875-7.484375-23.90625-2.472656-35.398438.417968-.839843.953125-1.613281 1.589844-2.296875 6.667968-5.84375 14.945312-9.535156 23.746093-10.59375-.046875-14.042968-2.679687-27.957031-7.769531-41.046875-.59375-1.207031-.894531-2.539062-.882812-3.882812h18.363281c5.847656 17.027343 8.601562 34.964843 8.121093 52.964843zm0 0"/><path d="m219.984375 470.773438c-1.855469.796874-3.796875 1.589843-5.738281 2.386718-.796875.351563-1.589844.703125-2.382813.96875v8.210938h-.265625c-.996094-.003906-1.980468-.183594-2.914062-.53125-4.589844-1.585938-9.53125-3.351563-14.476563-5.207032-23.128906-8.472656-47.140625-18.097656-47.402343-18.183593-2.761719-1.109375-4.78125-3.523438-5.382813-6.433594-.605469-2.914063.289063-5.933594 2.378906-8.042969 7-5.761718 10-15.074218 7.679688-23.835937-5.78125-3.390625-12.363281-5.1875-19.066407-5.207031-4.871093-.015626-8.8125-3.960938-8.828124-8.828126-.480469-18 2.273437-35.9375 8.121093-52.964843h18.363281c.011719 1.34375-.289062 2.675781-.882812 3.882812-5.105469 13.085938-7.742188 27.003907-7.769531 41.046875 8.800781 1.058594 17.078125 4.75 23.746093 10.59375.636719.683594 1.171876 1.457032 1.589844 2.296875 5.011719 11.492188 4.089844 24.710938-2.472656 35.398438 8.917969 3.53125 22.15625 8.648437 35.222656 13.417969 4.058594 1.585937 8.03125 3 11.828125 4.414062l3.179688 1.058594c2.59375.894531 4.617187 2.953125 5.472656 5.558594zm0 0"/></g><path d="m297.734375 260.414062c-7.132813 13.957032-29.398437 15.933594-41.558594 15.933594-12.1875 0-34.421875-1.976562-41.554687-15.933594 13.601562 3.351563 27.546875 5.097657 41.554687 5.207032 14.007813-.105469 27.957031-1.855469 41.558594-5.207032zm0 0" fill="#2c2f38"/><path d="m232.878906 168.507812c-8.390625-3.082031-17.199218-4.871093-26.128906-5.296874-12.003906-.90625-24.015625 1.65625-34.605469 7.378906 1.207031-15.445313 37.023438-18.5 54.53125-14.527344 2.777344.34375 5.191407 2.058594 6.441407 4.558594 1.246093 2.503906 1.15625 5.464844-.238282 7.886718zm0 0" fill="#2c2f38"/><path d="m229.515625 195.804688c0-10.449219-7.902344-18.921876-17.652344-18.921876s-17.65625 8.472657-17.65625 18.921876c0 10.453124 7.90625 18.925781 17.65625 18.925781s17.652344-8.472657 17.652344-18.925781zm0 0" fill="#2c2f38"/><path d="m216.8125 179.386719c-4.558594-1.734375-9.65625.554687-11.390625 5.113281-1.734375 4.554688.554687 9.65625 5.113281 11.390625 4.558594 1.730469 9.65625-.558594 11.390625-5.113281 1.730469-4.558594-.558593-9.65625-5.113281-11.390625zm0 0" fill="#fff"/><path d="m279.121094 168.507812c8.390625-3.082031 17.203125-4.871093 26.128906-5.296874 12.003906-.90625 24.015625 1.65625 34.605469 7.378906-1.207031-15.445313-37.023438-18.5-54.53125-14.527344-2.773438.34375-5.191407 2.058594-6.441407 4.558594-1.246093 2.503906-1.15625 5.464844.238282 7.886718zm0 0" fill="#2c2f38"/><path d="m317.792969 195.804688c0-10.449219-7.902344-18.921876-17.65625-18.921876-9.75 0-17.652344 8.472657-17.652344 18.921876 0 10.453124 7.902344 18.925781 17.652344 18.925781 9.753906 0 17.65625-8.472657 17.65625-18.925781zm0 0" fill="#2c2f38"/><path d="m306.578125 184.5c-1.734375-4.558594-6.832031-6.847656-11.390625-5.113281-4.554688 1.734375-6.84375 6.832031-5.113281 11.390625 1.734375 4.554687 6.832031 6.84375 11.390625 5.113281 4.558594-1.734375 6.847656-6.832031 5.113281-11.390625zm0 0" fill="#fff"/></svg>