<svg height="512pt" viewBox="0 0 512.00027 512" width="512pt" xmlns="http://www.w3.org/2000/svg"><path d="m414.898438 512h97.101562v-7.855469c.015625-11.304687-1.347656-22.570312-4.0625-33.546875l-8.207031-33.277344c-9.523438-34.714843-41.429688-58.511718-77.417969-57.734374h-332.625c-35.988281-.777344-67.894531 23.019531-77.417969 57.734374l-8.207031 33.277344c-2.714844 10.976563-4.078125 22.242188-4.0625 33.546875v7.855469zm0 0" fill="#c03a2b"/><path d="m185.378906 303.027344h141.242188v56.015625h-141.242188zm0 0" fill="#f29c1f"/><path d="m414.898438 180.964844v-30.894532c-.015626-68.25-55.339844-123.574218-123.589844-123.585937h-70.617188c-68.25.011719-123.574218 55.335937-123.585937 123.585937v30.894532zm0 0" fill="#b19046"/><path d="m388.414062 154.484375c0 1.941406-.089843 96.574219-.351562 98.515625-2.90625 31.746094-29.5625 56.027344-61.441406 55.964844h-141.242188c-32.011718.03125-58.734375-24.425782-61.527344-56.320313-.175781-1.765625-.265624-96.308593-.265624-98.160156l131.3125-75.035156zm0 0" fill="#f0c419"/><path d="m291.308594 70.621094v-52.964844c0-9.75-7.902344-17.65625-17.652344-17.65625h-35.3125c-9.75 0-17.652344 7.90625-17.652344 17.65625v52.964844" fill="#f3d55b"/><path d="m388.0625 253c.246094-1.933594.367188-3.878906.351562-5.828125v-46.25c.011719-4.34375-1.570312-8.539063-4.445312-11.796875-51.375-57.480469-110.652344-82.59375-128.5-83.195312h-.617188c-18.351562 1.03125-75.941406 26.21875-126.804687 83.175781-2.882813 3.265625-4.46875 7.472656-4.460937 11.828125v46.238281c0 1.855469.089843 3.707031.265624 5.472656-33.367187 11.210938-70.179687-6.355469-62.058593-38.839843 4.0625-16.417969 19.6875-34.78125 37.78125-52.347657 7.769531-7.503906 16.066406-14.917969 24.011719-21.894531 13.507812-11.914062 26.394531-22.773438 35.3125-31.6875 17.664062-16.714844 38.75-29.394531 61.792968-37.164062 10.96875-4.039063 22.488282-6.390626 34.160156-6.976563h1.148438c12.015625.636719 23.863281 3.109375 35.132812 7.328125 22.683594 7.761719 43.425782 20.316406 60.824219 36.8125 9.179688 9.179688 22.507813 20.390625 36.457031 32.660156 7.503907 6.621094 15.09375 13.507813 22.421876 20.480469.34375.300781.667968.625.972656.972656 17.832031 17.476563 33.191406 35.484375 37.25 51.816407 8.035156 32.132812-27.894532 49.699218-60.996094 39.195312zm0 0" fill="#f3d55b"/><path d="m350.070312 353.105469v63.433593c-.890624-.019531-1.773437.113282-2.613281.398438-29.65625 9.203125-60.421875 14.363281-91.457031 15.339844-31.035156-.980469-61.796875-6.136719-91.453125-15.339844-.84375-.277344-1.726563-.410156-2.613281-.398438v-63.433593zm0 0" fill="#e6e7e8"/><path d="m441.378906 512h-370.757812l2.914062-14.125 4.855469-23.304688 22.15625-107.34375c3.046875-9.125 11.957031-14.964843 21.539063-14.121093h54.464843v56.582031c.75-.011719 1.5.109375 2.207031.355469 24.96875 8.191406 50.976563 12.800781 77.242188 13.679687 26.265625-.878906 52.273438-5.488281 77.242188-13.679687.707031-.253907 1.457031-.375 2.207031-.355469v-56.582031h54.464843c9.605469-.84375 18.539063 4.988281 21.628907 14.121093l22.15625 107.433594 4.765625 23.214844zm0 0" fill="#e4c05c"/><g fill="#805333"><path d="m158.898438 308.964844c-4.878907 0-8.828126-3.953125-8.828126-8.828125v-70.621094c0-4.875 3.949219-8.824219 8.828126-8.824219 4.875 0 8.824218 3.949219 8.824218 8.824219v70.621094c0 4.875-3.949218 8.828125-8.824218 8.828125zm0 0"/><path d="m194.207031 317.792969c-4.875 0-8.828125-3.953125-8.828125-8.828125v-35.308594c0-4.875 3.953125-8.828125 8.828125-8.828125s8.828125 3.953125 8.828125 8.828125v35.308594c0 4.875-3.953125 8.828125-8.828125 8.828125zm0 0"/><path d="m229.515625 317.792969c-4.875 0-8.824219-3.953125-8.824219-8.828125v-17.65625c0-4.875 3.949219-8.824219 8.824219-8.824219 4.878906 0 8.828125 3.949219 8.828125 8.824219v17.65625c0 4.875-3.949219 8.828125-8.828125 8.828125zm0 0"/><path d="m353.105469 308.964844c-4.878907 0-8.828125-3.953125-8.828125-8.828125v-70.621094c0-4.875 3.949218-8.824219 8.828125-8.824219 4.875 0 8.824219 3.949219 8.824219 8.824219v70.621094c0 4.875-3.949219 8.828125-8.824219 8.828125zm0 0"/><path d="m317.792969 317.792969c-4.875 0-8.828125-3.953125-8.828125-8.828125v-35.308594c0-4.875 3.953125-8.828125 8.828125-8.828125s8.828125 3.953125 8.828125 8.828125v35.308594c0 4.875-3.953125 8.828125-8.828125 8.828125zm0 0"/><path d="m282.484375 317.792969c-4.875 0-8.828125-3.953125-8.828125-8.828125v-17.65625c0-4.875 3.953125-8.824219 8.828125-8.824219s8.824219 3.949219 8.824219 8.824219v17.65625c0 4.875-3.949219 8.828125-8.824219 8.828125zm0 0"/></g><path d="m339.773438 426.371094c-.445313.261718-.917969.46875-1.410157.621094-26.640625 8.644531-54.371093 13.488281-82.363281 14.386718-27.992188-.898437-55.71875-5.742187-82.359375-14.386718-.496094-.152344-.96875-.359376-1.414063-.621094-3.722656-1.859375-5.636718-6.066406-4.589843-10.089844 1.042969-4.027344 4.761719-6.777344 8.914062-6.59375.75-.011719 1.5.109375 2.207031.355469 24.96875 8.191406 50.976563 12.800781 77.242188 13.679687 26.265625-.878906 52.273438-5.488281 77.242188-13.679687.707031-.253907 1.457031-.375 2.207031-.355469 4.15625-.183594 7.871093 2.566406 8.914062 6.59375 1.046875 4.023438-.867187 8.230469-4.589843 10.089844zm0 0" fill="#b19046"/><path d="m148.921875 429.992188v.089843c-.261719 1.375-.835937 2.675781-1.675781 3.792969-20.105469 23.617188-43.125 44.585938-68.503906 62.410156-1.519532 1.078125-3.347657 1.636719-5.207032 1.589844l4.855469-23.304688c20.148437-14.808593 38.464844-31.964843 54.554687-51.109374 2.347657-3.4375 6.773438-4.765626 10.625-3.191407 3.851563 1.574219 6.082032 5.625 5.351563 9.722657zm0 0" fill="#b19046"/><path d="m438.464844 497.875c-1.859375.046875-3.6875-.511719-5.207032-1.589844-25.378906-17.824218-48.398437-38.792968-68.5-62.410156-2.953124-3.898438-2.179687-9.453125 1.71875-12.402344 3.902344-2.949218 9.453126-2.179687 12.402344 1.722656 16.15625 19.277344 34.558594 36.558594 54.820313 51.464844zm0 0" fill="#b19046"/><path d="m176.550781 353.105469v61.792969c.023438 4.226562-1.515625 8.3125-4.324219 11.472656-3.3125 3.925781-8.191406 6.1875-13.328124 6.179687h-8.828126c-9.738281-.027343-17.628906-7.914062-17.65625-17.652343v-61.792969zm0 0" fill="#f3d55b"/><path d="m379.585938 353.105469v61.792969c-.027344 9.738281-7.914063 17.625-17.65625 17.652343h-8.824219c-5.140625.007813-10.019531-2.253906-13.332031-6.179687-2.808594-3.160156-4.347657-7.246094-4.324219-11.472656v-61.792969zm0 0" fill="#f3d55b"/><path d="m264.828125 388.414062c0 4.875-3.953125 8.828126-8.828125 8.828126s-8.828125-3.953126-8.828125-8.828126 3.953125-8.828124 8.828125-8.828124 8.828125 3.953124 8.828125 8.828124zm0 0" fill="#95a5a5"/><path d="m238.34375 397.242188c0 4.875-3.949219 8.828124-8.828125 8.828124-4.875 0-8.824219-3.953124-8.824219-8.828124s3.949219-8.828126 8.824219-8.828126c4.878906 0 8.828125 3.953126 8.828125 8.828126zm0 0" fill="#95a5a5"/><path d="m291.308594 397.242188c0 4.875-3.949219 8.828124-8.824219 8.828124s-8.828125-3.953124-8.828125-8.828124 3.953125-8.828126 8.828125-8.828126 8.824219 3.953126 8.824219 8.828126zm0 0" fill="#95a5a5"/><path d="m264.828125 476.691406v35.308594h-17.65625v-35.308594c0-4.878906 3.953125-8.828125 8.828125-8.828125s8.828125 3.949219 8.828125 8.828125zm0 0" fill="#b19046"/><path d="m297.734375 247.171875c-7.132813 13.957031-29.398437 15.933594-41.558594 15.933594-12.1875 0-34.421875-1.976563-41.554687-15.933594 13.601562 3.351563 27.546875 5.097656 41.554687 5.207031 14.007813-.105468 27.957031-1.855468 41.558594-5.207031zm0 0" fill="#2c2f38"/><path d="m232.878906 155.269531c-8.390625-3.085937-17.199218-4.871093-26.128906-5.296875-12.003906-.910156-24.015625 1.652344-34.605469 7.378906 1.207031-15.449218 37.023438-18.503906 54.53125-14.53125 2.777344.347657 5.191407 2.058594 6.441407 4.558594 1.246093 2.503906 1.15625 5.464844-.238282 7.890625zm0 0" fill="#805333"/><path d="m229.515625 182.566406c0-10.453125-7.902344-18.925781-17.652344-18.925781s-17.65625 8.472656-17.65625 18.925781c0 10.449219 7.90625 18.921875 17.65625 18.921875s17.652344-8.472656 17.652344-18.921875zm0 0" fill="#2c2f38"/><path d="m216.8125 166.144531c-4.558594-1.734375-9.65625.554688-11.390625 5.113281-1.734375 4.558594.554687 9.65625 5.113281 11.390626 4.558594 1.730468 9.65625-.558594 11.390625-5.113282 1.730469-4.558594-.558593-9.65625-5.113281-11.390625zm0 0" fill="#fff"/><path d="m279.121094 155.269531c8.390625-3.085937 17.203125-4.871093 26.128906-5.296875 12.003906-.910156 24.015625 1.652344 34.605469 7.378906-1.207031-15.449218-37.023438-18.503906-54.53125-14.53125-2.773438.347657-5.191407 2.058594-6.441407 4.558594-1.246093 2.503906-1.15625 5.464844.238282 7.890625zm0 0" fill="#805333"/><path d="m317.792969 182.566406c0-10.453125-7.902344-18.925781-17.65625-18.925781-9.75 0-17.652344 8.472656-17.652344 18.925781 0 10.449219 7.902344 18.921875 17.652344 18.921875 9.753906 0 17.65625-8.472656 17.65625-18.921875zm0 0" fill="#2c2f38"/><path d="m306.578125 171.257812c-1.734375-4.554687-6.832031-6.84375-11.390625-5.113281-4.554688 1.734375-6.84375 6.832031-5.113281 11.390625 1.734375 4.554688 6.835937 6.84375 11.390625 5.113282 4.558594-1.734376 6.847656-6.832032 5.113281-11.390626zm0 0" fill="#fff"/></svg>