<svg height="512pt" viewBox="0 0 512.00027 512" width="512pt" xmlns="http://www.w3.org/2000/svg"><path d="m423.722656 229.515625v-82.800781c-.125-6.0625-.65625-12.105469-1.585937-18.097656.085937-.085938.085937-.175782 0-.175782-10.703125-73.761718-73.949219-128.472656-148.480469-128.441406h-35.3125c-74.53125-.03125-137.777344 54.679688-148.480469 128.441406-.085937 0-.085937.089844 0 .175782-1.0625 7.101562-1.59375 14.273437-1.585937 21.453124v79.445313zm0 0" fill="#3b97d3"/><path d="m106.484375 117.515625h292.414063v158.898437h-292.414063zm0 0" fill="#f0c419"/><path d="m414.898438 512h97.101562v-7.855469c.015625-11.304687-1.347656-22.570312-4.0625-33.546875l-8.207031-33.277344c-9.523438-34.714843-41.429688-58.511718-77.417969-57.734374h-332.625c-35.988281-.777344-67.894531 23.019531-77.417969 57.734374l-8.207031 33.277344c-2.714844 10.976563-4.078125 22.242188-4.0625 33.546875v7.855469zm0 0" fill="#bdc3c7"/><path d="m185.378906 294.5625h141.242188v72.945312h-141.242188zm0 0" fill="#f29c1f"/><path d="m441.378906 512h-370.757812l11.917968-57.554688 6.089844-29.398437 11.917969-57.820313c3.046875-9.125 11.957031-14.964843 21.539063-14.121093h267.828124c9.605469-.84375 18.539063 4.988281 21.628907 14.121093l11.917969 57.820313 6.089843 29.398437zm0 0" fill="#e6e7e8"/><g fill="#ecf0f1"><path d="m185.378906 203.035156h-17.65625c-4.875 0-8.824218-3.953125-8.824218-8.828125s3.949218-8.828125 8.824218-8.828125h17.65625c4.875 0 8.828125 3.953125 8.828125 8.828125s-3.953125 8.828125-8.828125 8.828125zm0 0"/><path d="m185.378906 238.34375h-61.792968c-4.875 0-8.828126-3.949219-8.828126-8.828125 0-4.875 3.953126-8.824219 8.828126-8.824219h61.792968c4.875 0 8.828125 3.949219 8.828125 8.824219 0 4.878906-3.953125 8.828125-8.828125 8.828125zm0 0"/><path d="m344.277344 203.035156h-17.65625c-4.875 0-8.828125-3.953125-8.828125-8.828125s3.953125-8.828125 8.828125-8.828125h17.65625c4.875 0 8.828125 3.953125 8.828125 8.828125s-3.953125 8.828125-8.828125 8.828125zm0 0"/><path d="m388.414062 238.34375h-61.792968c-4.875 0-8.828125-3.949219-8.828125-8.828125 0-4.875 3.953125-8.824219 8.828125-8.824219h61.792968c4.875 0 8.828126 3.949219 8.828126 8.824219 0 4.878906-3.953126 8.828125-8.828126 8.828125zm0 0"/></g><path d="m194.117188 401.65625c.636718 4.574219-1.855469 9.011719-6.089844 10.855469-.816406.449219-1.71875.71875-2.648438.796875-.707031.085937-69.121094 10.238281-97.191406 38.3125-1.511719 1.550781-3.503906 2.542968-5.648438 2.824218l6.089844-29.398437c24.246094-14.148437 50.722656-24.058594 78.300782-29.304687 8.828124-1.855469 14.742187-2.648438 15.535156-2.828126 2.707031-.390624 5.457031.3125 7.644531 1.953126 2.183594 1.636718 3.628906 4.082031 4.007813 6.789062zm0 0" fill="#3b97d3"/><path d="m429.550781 454.445312c-2.179687-.257812-4.203125-1.253906-5.738281-2.824218-28.160156-28.160156-96.484375-38.226563-97.191406-38.3125-.929688-.078125-1.832032-.347656-2.648438-.796875-4.726562-2.046875-7.207031-7.277344-5.800781-12.230469 1.40625-4.957031 6.265625-8.105469 11.363281-7.367188.792969.179688 6.707032.972657 15.535156 2.828126 27.605469 5.246093 54.113282 15.15625 78.390626 29.304687zm0 0" fill="#3b97d3"/><path d="m132.414062 353.105469c7.066407 12.992187 15.988282 24.886719 26.484376 35.308593 0 0 53.945312 52.964844 97.101562 52.964844s97.105469-52.964844 97.105469-52.964844c10.492187-10.421874 19.414062-22.316406 26.480469-35.308593h-44.136719s-44.140625 52.964843-79.449219 52.964843-79.449219-52.964843-79.449219-52.964843zm0 0" fill="#2980ba"/><path d="m297.734375 229.515625c-7.132813 13.960937-29.398437 15.933594-41.558594 15.933594-12.1875 0-34.421875-1.972657-41.554687-15.933594 13.601562 3.351563 27.546875 5.101563 41.554687 5.210937 14.007813-.109374 27.957031-1.855468 41.558594-5.210937zm0 0" fill="#2c2f38"/><path d="m232.878906 142.027344c-8.390625-3.085938-17.199218-4.871094-26.128906-5.296875-12.003906-.90625-24.015625 1.652343-34.605469 7.378906 1.207031-15.449219 37.023438-18.503906 54.53125-14.53125 2.777344.347656 5.191407 2.058594 6.441407 4.5625 1.246093 2.5 1.15625 5.460937-.238282 7.886719zm0 0" fill="#2c2f38"/><path d="m229.515625 169.324219c0-10.449219-7.902344-18.921875-17.652344-18.921875s-17.65625 8.472656-17.65625 18.921875 7.90625 18.921875 17.65625 18.921875 17.652344-8.472656 17.652344-18.921875zm0 0" fill="#2c2f38"/><path d="m216.8125 152.902344c-4.558594-1.730469-9.65625.558594-11.390625 5.113281-1.730469 4.558594.558594 9.65625 5.113281 11.390625 4.558594 1.734375 9.65625-.554688 11.390625-5.113281 1.730469-4.554688-.558593-9.65625-5.113281-11.390625zm0 0" fill="#fff"/><path d="m279.121094 142.027344c8.390625-3.085938 17.203125-4.871094 26.128906-5.296875 12.003906-.90625 24.015625 1.652343 34.605469 7.378906-1.207031-15.449219-37.023438-18.503906-54.53125-14.53125-2.773438.347656-5.191407 2.058594-6.441407 4.5625-1.246093 2.5-1.15625 5.460937.238282 7.886719zm0 0" fill="#2c2f38"/><path d="m317.792969 169.324219c0-10.449219-7.902344-18.921875-17.65625-18.921875-9.75 0-17.652344 8.472656-17.652344 18.921875s7.902344 18.921875 17.652344 18.921875c9.753906 0 17.65625-8.472656 17.65625-18.921875zm0 0" fill="#2c2f38"/><path d="m306.578125 158.015625c-1.734375-4.554687-6.832031-6.84375-11.390625-5.113281-4.554688 1.734375-6.84375 6.832031-5.113281 11.390625 1.734375 4.558593 6.832031 6.847656 11.390625 5.113281s6.847656-6.832031 5.113281-11.390625zm0 0" fill="#fff"/><path d="m167.722656 203.035156h-44.136718c-4.875 0-8.828126-3.953125-8.828126-8.828125s3.953126-8.828125 8.828126-8.828125h35.3125v-61.792968c0-4.875 3.949218-8.828126 8.824218-8.828126 4.878906 0 8.828125 3.953126 8.828125 8.828126v70.621093c0 4.875-3.949219 8.828125-8.828125 8.828125zm0 0" fill="#ecf0f1"/><path d="m388.414062 203.035156h-44.136718c-4.875 0-8.828125-3.953125-8.828125-8.828125v-70.621093c0-4.875 3.953125-8.828126 8.828125-8.828126s8.828125 3.953126 8.828125 8.828126v61.792968h35.308593c4.875 0 8.828126 3.953125 8.828126 8.828125s-3.953126 8.828125-8.828126 8.828125zm0 0" fill="#ecf0f1"/><path d="m370.757812 88.277344h-229.515624c-29.242188.023437-52.941407 23.722656-52.964844 52.964844v88.273437c.003906 43.878906 35.570312 79.445313 79.445312 79.449219h176.554688c43.875-.003906 79.445312-35.570313 79.445312-79.449219v-88.273437c-.023437-29.242188-23.722656-52.941407-52.964844-52.964844zm17.65625 150.066406c.003907 9.367188-3.71875 18.351562-10.339843 24.972656-6.621094 6.621094-15.605469 10.339844-24.96875 10.339844h-194.207031c-9.367188 0-18.351563-3.71875-24.972657-10.339844-6.621093-6.621094-10.34375-15.605468-10.339843-24.972656v-88.273438c-.007813-7.027343 2.777343-13.769531 7.746093-18.738281s11.710938-7.753906 18.738281-7.746093h211.859376c7.027343-.007813 13.769531 2.777343 18.738281 7.746093s7.753906 11.710938 7.746093 18.738281zm0 0" fill="#e6e7e8"/></svg>