<svg height="512pt" viewBox="-4 0 512 512.21148" width="512pt" xmlns="http://www.w3.org/2000/svg"><path d="m407.96875 503.320312h95.460938v-7.722656c.015624-11.113281-1.328126-22.1875-3.992188-32.976562l-8.070312-32.714844c-9.363282-34.125-40.730469-57.515625-76.105469-56.753906h-326.988281c-35.378907-.761719-66.746094 22.628906-76.105469 56.753906l-8.070313 32.714844c-2.667968 10.789062-4.0078122 21.863281-3.992187 32.976562v7.722656zm0 0" fill="#f0c419"/><path d="m312.511719 0c-78.101563 0-69.421875 26.035156-86.777344 26.035156 0 0-27.597656-12.671875-78.101563 0-34.714843 8.675782-69.425781 34.710938-60.746093 95.457032 0 0-26.988281 33.667968-15.535157 89.207031 2.289063 8.292969 5.160157 16.414062 8.589844 24.300781-11.105468 26.726562-27.769531 60.050781-27.769531 60.050781 15.414063-1.492187 30.082031-7.363281 42.261719-16.921875-.453125 6.097656-.398438 12.222656.175781 18.308594 1.191406 18.285156 7.539063 35.859375 18.308594 50.679688l.175781.957031c2.289062-.632813 4.652344-.953125 7.027344-.957031h263.289062s50.59375-52.066407 50.59375-156.203126c0-104.132812-43.390625-190.914062-121.492187-190.914062zm65.953125 263.117188c-8.488282 24.355468-31.480469 40.660156-57.273438 40.613281h-138.847656c-24.269531.035156-46.222656-14.40625-55.800781-36.710938v-.085937c-2.914063-6.695313-4.5625-13.875-4.859375-21.171875-.070313-.722657-.101563-1.445313-.085938-2.171875v-.085938c16.488282-32.28125 21.261719-72.027344 26.035156-95.976562 8.675782-43.390625 34.710938-60.746094 52.066407-60.746094s60.746093 26.03125 104.136719 34.710938c41.738281 8.332031 75.496093 72.980468 77.925781 124.269531-.242188 5.914062-1.351563 11.761719-3.296875 17.355469zm0 0" fill="#f3d55b"/><path d="m338.546875 347.117188h44.863281c9.441406-.828126 18.226563 4.910156 21.261719 13.886718l29.332031 142.316406h-364.472656l29.417969-142.316406c1.855469-6.660156 7.34375-11.679687 14.144531-12.929687 2.289062-.632813 4.652344-.953125 7.027344-.957031zm0 0" fill="#4482c3"/><path d="m182.34375 295.050781h138.847656v60.746094h-138.847656zm0 0" fill="#f29c1f"/><path d="m88.621094 214c-1.734375 5.207031-4.164063 11.453125-7.203125 18.65625-.355469.859375-.855469 1.652344-1.476563 2.34375-3.429687-7.886719-6.300781-16.007812-8.589844-24.300781.261719-.777344.519532-1.558594.78125-2.253907 1.535157-4.554687 6.46875-7 11.019532-5.46875 4.554687 1.535157 7.003906 6.46875 5.46875 11.023438zm0 0" fill="#b19046"/><path d="m131.664062 258.34375c-1.648437 2.949219-3.296874 5.898438-5.121093 8.589844v.085937c-6.730469 10.765625-15.34375 20.230469-25.425781 27.945313-1.578126 1.164062-3.507813 1.746094-5.46875 1.648437-.355469.027344-.710938-.03125-1.039063-.175781-.574219-6.085938-.628906-12.210938-.175781-18.308594 8.953125-7.976562 16.390625-17.5 21.957031-28.117187 1.15625-2.042969 3.050781-3.5625 5.292969-4.25 2.164062-.5625 4.457031-.285157 6.421875.78125 2.039062 1.089843 3.554687 2.949219 4.222656 5.164062.667969 2.210938.429687 4.597657-.664063 6.636719zm0 0" fill="#b19046"/><path d="m338.546875 347.117188v8.679687c.085937 10.878906-6.386719 20.742187-16.402344 24.992187l-60.746093 25.167969c-6.175782 2.515625-13.089844 2.515625-19.265626 0l-60.746093-25.167969c-10.011719-4.25-16.484375-14.113281-16.398438-24.992187v-8.679687zm0 0" fill="#f0c419"/><path d="m295.160156 512c-3.472656.003906-6.613281-2.066406-7.976562-5.261719l-23.78125-55.484375h-23.269532l-23.777343 55.484375c-1.167969 2.929688-3.832031 5-6.960938 5.402344-3.128906.402344-6.230469-.925781-8.097656-3.46875-1.871094-2.542969-2.210937-5.898437-.890625-8.765625l26.03125-60.746094c1.367188-3.191406 4.503906-5.261718 7.972656-5.261718h34.710938c3.472656 0 6.613281 2.070312 7.976562 5.261718l26.035156 60.746094c1.882813 4.402344-.15625 9.5-4.558593 11.390625-1.078125.464844-2.238281.707031-3.414063.703125zm0 0" fill="#fff"/><path d="m147.632812 503.320312h-34.714843c-5.664063-7.492187-8.714844-16.636718-8.675781-26.03125 0-4.792968 3.882812-8.679687 8.675781-8.679687s8.679687 3.886719 8.679687 8.679687c.042969 14.359376 11.671875 25.992188 26.035156 26.03125zm0 0" fill="#285680"/><path d="m399.292969 477.289062c.035156 9.394532-3.011719 18.539063-8.679688 26.03125h-34.710937c14.359375-.039062 25.992187-11.671874 26.035156-26.03125 0-4.792968 3.882812-8.679687 8.675781-8.679687s8.679688 3.886719 8.679688 8.679687zm0 0" fill="#285680"/><path d="m381.761719 245.761719c-1.335938 32.457031-28.085938 58.058593-60.570313 57.96875h-138.847656c-33.328125.03125-60.445312-26.816407-60.746094-60.140625v-.085938c16.488282-32.28125 21.261719-72.027344 26.035156-95.976562 8.675782-43.390625 34.710938-60.746094 52.066407-60.746094s60.746093 26.03125 104.136719 34.710938c41.738281 8.332031 75.496093 72.980468 77.925781 124.269531zm0 0" fill="#f0c419"/><g fill="#2c2f38"><path d="m292.792969 251.660156c-7.011719 13.722656-28.898438 15.664063-40.851563 15.664063-11.980468 0-33.839844-1.941407-40.851562-15.664063 13.371094 3.292969 27.082031 5.011719 40.851562 5.121094 13.769532-.105469 27.480469-1.824219 40.851563-5.121094zm0 0"/><path d="m229.039062 156.976562c-8.25-3.035156-16.910156-4.789062-25.6875-5.207031-11.800781-.894531-23.609374 1.625-34.019531 7.253907 1.1875-15.1875 36.398438-18.191407 53.609375-14.285157 2.726563.339844 5.101563 2.023438 6.328125 4.484375 1.226563 2.460938 1.140625 5.371094-.230469 7.753906zm0 0"/><path d="m274.496094 156.976562c8.246094-3.035156 16.910156-4.789062 25.6875-5.207031 11.800781-.894531 23.605468 1.625 34.015625 7.253907-1.1875-15.1875-36.394531-18.191407-53.605469-14.285157-2.726562.339844-5.105469 2.023438-6.332031 4.484375-1.222657 2.460938-1.136719 5.371094.234375 7.753906zm0 0"/><path d="m181.121094 171.289062s2.472656 11.085938 12.03125 8.925782c9.5625-2.164063 11.382812 1.988281 19.621094 1.324218 2.816406-.191406 5.648437-.019531 8.421874.515626 1.96875.457031 4.015626.488281 5.996094.097656 2.746094-.734375 2.511719-3.921875 1.546875-5.996094-3.8125-8.21875-14.535156-8.820312-22.382812-7.90625-3.328125.902344-6.710938 1.585938-10.128907 2.042969-3.578124-.992188-6.914062-2.707031-9.804687-5.042969.625 2.230469.777344 4.566406.441406 6.855469-.992187 1.886719-5.742187-.816407-5.742187-.816407zm0 0"/><path d="m225.734375 188.148438c0-10.273438-7.773437-18.601563-17.355469-18.601563-9.585937 0-17.359375 8.328125-17.359375 18.601563 0 10.273437 7.773438 18.601562 17.359375 18.601562 9.582032 0 17.355469-8.328125 17.355469-18.601562zm0 0"/></g><path d="m213.242188 172.007812c-4.480469-1.703124-9.492188.546876-11.195313 5.023438-1.703125 4.480469.546875 9.492188 5.027344 11.199219 4.476562 1.703125 9.492187-.546875 11.195312-5.027344s-.546875-9.492187-5.027343-11.195313zm0 0" fill="#fff"/><path d="m322.40625 171.289062s-2.472656 11.085938-12.03125 8.925782c-9.5625-2.164063-11.382812 1.988281-19.621094 1.324218-2.816406-.191406-5.648437-.019531-8.421875.515626-1.96875.457031-4.011719.488281-5.996093.097656-2.746094-.734375-2.507813-3.921875-1.546876-5.996094 3.8125-8.21875 14.535157-8.820312 22.382813-7.90625 3.328125.902344 6.710937 1.585938 10.128906 2.042969 3.578125-.992188 6.917969-2.707031 9.804688-5.042969-.625 2.230469-.773438 4.566406-.441407 6.855469.996094 1.886719 5.742188-.816407 5.742188-.816407zm0 0" fill="#2c2f38"/><path d="m312.511719 188.148438c0-10.273438-7.773438-18.601563-17.359375-18.601563-9.582032 0-17.355469 8.328125-17.355469 18.601563 0 10.273437 7.773437 18.601562 17.355469 18.601562 9.585937 0 17.359375-8.328125 17.359375-18.601562zm0 0" fill="#2c2f38"/><path d="m301.484375 177.035156c-1.703125-4.480468-6.714844-6.730468-11.195313-5.027344-4.480468 1.703126-6.730468 6.714844-5.027343 11.195313s6.714843 6.730469 11.195312 5.027344 6.730469-6.71875 5.027344-11.195313zm0 0" fill="#fff"/></svg>