<svg height="512pt" viewBox="0 0 512.00027 512" width="512pt" xmlns="http://www.w3.org/2000/svg"><path d="m414.898438 512h97.101562v-7.855469c.015625-11.304687-1.347656-22.570312-4.0625-33.546875l-8.207031-33.277344c-9.523438-34.714843-41.429688-58.511718-77.417969-57.734374h-332.625c-35.988281-.777344-67.894531 23.019531-77.417969 57.734374l-8.207031 33.277344c-2.714844 10.976563-4.078125 22.242188-4.0625 33.546875v7.855469zm0 0" fill="#e64c3c"/><path d="m105.929688 132.414062c-4.960938 10.261719-15.101563 17.019532-26.480469 17.65625l-44.582031-16.683593c-1.554688-40.019531 18.949218-77.671875 53.410156-98.078125 61.792968-35.308594 167.722656-35.308594 167.722656-35.308594zm0 0" fill="#c03a2b"/><path d="m88.277344 176.550781c0 24.378907-19.761719 44.140625-44.140625 44.140625-24.375 0-44.136719-19.761718-44.136719-44.140625 0-24.375 19.761719-44.136719 44.136719-44.136719 24.378906 0 44.140625 19.761719 44.140625 44.136719zm0 0" fill="#f5efca"/><path d="m387.179688 102.578125c-6.976563-18.007813-44.40625-102.578125-131.179688-102.578125 0 0-3.265625 0-8.914062.265625-80.421876 5.5625-115.554688 84.921875-122.265626 102.3125zm0 0" fill="#e64c3c"/><path d="m111.667969 355.222656c-5.5 1.855469-9.6875 6.375-11.121094 12.003906l-2.558594 12.359376-27.367187 132.414062h370.757812l-27.277344-132.414062-2.558593-12.359376c-1.492188-5.644531-5.695313-10.179687-11.210938-12.09375" fill="#c03a2b"/><path d="m388.414062 120.230469v126.941406c.007813 8.089844-1.582031 16.097656-4.679687 23.570313h-255.46875c-3.097656-7.472657-4.6875-15.480469-4.679687-23.570313v-126.941406zm0 0" fill="#f0c419"/><path d="m385.34375 155.238281-32.695312-5.769531c-63.9375-11.28125-129.359376-11.28125-193.296876 0l-32.695312 5.769531c-5.140625.910157-10.417969-.503906-14.417969-3.859375-3.996093-3.355468-6.308593-8.304687-6.308593-13.527344v-17.109374c0-8.566407 6.148437-15.898438 14.589843-17.390626l38.832031-6.851562c63.9375-11.28125 129.359376-11.28125 193.296876 0l38.832031 6.851562c8.441406 1.492188 14.589843 8.824219 14.589843 17.390626v17.109374c0 5.222657-2.3125 10.171876-6.308593 13.527344-4 3.355469-9.277344 4.769532-14.417969 3.859375zm0 0" fill="#f9eab0"/><path d="m256 512c6.085938-21.355469 22.78125-38.050781 44.136719-44.136719 52.09375-13.023437 61.792969-35.3125 61.792969-35.3125 5.039062 4.582031 8.1875 10.878907 8.828124 17.65625 26.109376-32.09375 35.890626-74.46875 26.484376-114.757812 6.691406.925781 12.894531 4.027343 17.65625 8.828125 8.824218-35.3125-17.65625-79.449219-52.96875-79.449219-35.308594 0-35.308594-26.484375-61.792969-26.484375-26.480469 0-35.308594 8.828125-44.136719 8.828125s-17.65625-8.828125-44.136719-8.828125c-26.484375 0-26.484375 26.484375-61.792969 26.484375-35.3125 0-61.792968 44.136719-52.964843 79.449219 4.757812-4.800782 10.960937-7.902344 17.652343-8.828125-9.40625 40.289062.375 82.664062 26.484376 114.757812.640624-6.777343 3.789062-13.074219 8.828124-17.65625 0 0 9.699219 22.289063 61.792969 35.3125 21.355469 6.085938 38.050781 22.78125 44.136719 44.136719zm0 0" fill="#e6e7e8"/><path d="m311.957031 318.835938c-14.660156-.707032-28.90625-5.085938-41.429687-12.730469-4.457032-2.820313-9.375-4.839844-14.527344-5.96875-5.152344 1.128906-10.070312 3.148437-14.527344 5.96875-17.210937 9.023437-43.222656 22.652343-78.292968 1.601562-4.140626-2.527343-5.464844-7.921875-2.96875-12.078125 2.496093-4.160156 7.878906-5.527344 12.054687-3.058594 26.574219 15.921876 44.863281 6.355469 61.011719-2.105468 6.828125-4.429688 14.621094-7.167969 22.722656-7.980469 8.101562.8125 15.894531 3.550781 22.722656 7.980469 16.15625 8.464844 34.449219 18.050781 61.011719 2.105468 4.175781-2.46875 9.558594-1.101562 12.054687 3.058594 2.496094 4.15625 1.171876 9.550782-2.96875 12.078125-11.023437 7.046875-23.785156 10.898438-36.863281 11.128907zm0 0" fill="#bdc3c7"/><path d="m232.878906 168.507812c-8.390625-3.082031-17.199218-4.871093-26.128906-5.296874-12.003906-.90625-24.015625 1.65625-34.605469 7.378906 1.207031-15.445313 37.023438-18.5 54.53125-14.527344 2.777344.34375 5.191407 2.058594 6.441407 4.558594 1.246093 2.503906 1.15625 5.464844-.238282 7.886718zm0 0" fill="#2c2f38"/><path d="m229.515625 195.804688c0-10.449219-7.902344-18.921876-17.652344-18.921876s-17.65625 8.472657-17.65625 18.921876c0 10.453124 7.90625 18.925781 17.65625 18.925781s17.652344-8.472657 17.652344-18.925781zm0 0" fill="#2c2f38"/><path d="m216.8125 179.386719c-4.558594-1.734375-9.65625.554687-11.390625 5.113281-1.734375 4.554688.554687 9.65625 5.113281 11.390625 4.558594 1.730469 9.65625-.558594 11.390625-5.113281 1.730469-4.558594-.558593-9.65625-5.113281-11.390625zm0 0" fill="#fff"/><path d="m279.121094 168.507812c8.390625-3.082031 17.203125-4.871093 26.128906-5.296874 12.003906-.90625 24.015625 1.65625 34.605469 7.378906-1.207031-15.445313-37.023438-18.5-54.53125-14.527344-2.773438.34375-5.191407 2.058594-6.441407 4.558594-1.246093 2.503906-1.15625 5.464844.238282 7.886718zm0 0" fill="#2c2f38"/><path d="m317.792969 195.804688c0-10.449219-7.902344-18.921876-17.65625-18.921876-9.75 0-17.652344 8.472657-17.652344 18.921876 0 10.453124 7.902344 18.925781 17.652344 18.925781 9.753906 0 17.65625-8.472657 17.65625-18.925781zm0 0" fill="#2c2f38"/><path d="m306.578125 184.5c-1.734375-4.558594-6.832031-6.847656-11.390625-5.113281-4.554688 1.734375-6.84375 6.832031-5.113281 11.390625 1.734375 4.554687 6.832031 6.84375 11.390625 5.113281 4.558594-1.734375 6.847656-6.832031 5.113281-11.390625zm0 0" fill="#fff"/></svg>