<svg height="512pt" viewBox="0 0 512.00027 512" width="512pt" xmlns="http://www.w3.org/2000/svg"><path d="m97.632812 380.996094-9.355468 130.734375h-88.277344v-7.855469c-.015625-11.304688 1.347656-22.570312 4.0625-33.542969l8.207031-33.28125c9.523438-34.714843 41.429688-58.507812 77.417969-57.734375zm0 0" fill="#e57e25"/><path d="m512 503.875v7.855469h-88.277344l-9.53125-131.882813 1.765625-.53125h6.355469c35.988281-.773437 67.894531 23.019532 77.417969 57.734375l8.207031 33.28125c2.714844 10.972657 4.078125 22.238281 4.0625 33.542969zm0 0" fill="#e57e25"/><path d="m441.378906 511.730469h-370.757812l27.011718-130.734375.265626-1.148438c25.832031 7.421875 52.371093 12.125 79.183593 14.035156 5.648438.441407 11.5625.882813 17.742188 1.238282 18.007812 1.234375 38.3125 1.851562 61.175781 1.851562 22.953125 0 43.253906-.617187 61.175781-1.851562 6.179688-.355469 12.09375-.796875 17.742188-1.238282 26.839843-1.910156 53.40625-6.617187 79.273437-14.035156zm0 0" fill="#f29c1f"/><path d="m433.699219 132.144531h34.164062c4.875 0 8.828125 3.953125 8.828125 8.828125v88.277344c0 4.875-3.953125 8.828125-8.828125 8.828125h-423.726562c-4.875 0-8.828125-3.953125-8.828125-8.828125v-88.277344c0-4.875 3.953125-8.828125 8.828125-8.828125zm0 0" fill="#7f6e5d"/><path d="m430.707031 357.503906c3.285157 1.421875 5.398438 4.667969 5.367188 8.246094-.027344 3.578125-2.199219 6.789062-5.503907 8.152344-4.054687 1.753906-8.882812 3.585937-14.613281 5.414062l-1.765625.53125c-27.808594 8.652344-76.09375 17.125-158.191406 17.125-82.007812 0-130.296875-8.472656-158.101562-17.125-.707032-.175781-1.324219-.351562-1.855469-.53125-5.730469-1.828125-10.558594-3.660156-14.613281-5.414062-3.304688-1.363282-5.476563-4.574219-5.503907-8.152344-.03125-3.578125 2.082031-6.824219 5.367188-8.246094 12.382812-5.40625 23.714843-12.964844 33.464843-22.324218v-37.429688c-28.917968-30.082031-44.785156-70.375-44.136718-112.101562-.148438-102.382813 82.730468-185.5 185.109375-185.648438 102.382812-.148438 185.5 82.730469 185.648437 185.109375.78125 41.910156-15.09375 82.417969-44.136718 112.640625v37.429688c9.75 9.359374 21.082031 16.917968 33.464843 22.324218zm0 0" fill="#b19046"/><path d="m344.277344 185.109375c0 48.753906-39.523438 88.277344-88.277344 88.277344s-88.277344-39.523438-88.277344-88.277344c0-48.75 39.523438-88.273437 88.277344-88.273437s88.277344 39.523437 88.277344 88.273437zm0 0" fill="#f0c419"/><path d="m256 361.664062c-2.9375 0-72.371094-.105468-99.894531-9.285156-4.488281-1.640625-6.855469-6.554687-5.34375-11.085937s6.355469-7.039063 10.929687-5.65625c24.835938 8.277343 93.621094 8.371093 94.308594 8.371093.691406 0 69.492188-.101562 94.308594-8.371093 3.019531-1.101563 6.398437-.480469 8.824218 1.628906 2.425782 2.109375 3.511719 5.371094 2.839844 8.511719s-3 5.671875-6.074218 6.601562c-27.527344 9.179688-96.957032 9.285156-99.898438 9.285156zm0 0" fill="#b19046"/><path d="m220.691406 511.730469h-52.96875l52.96875-70.621094h52.964844zm0 0" fill="#805333"/><path d="m238.34375 441.109375h52.964844l52.96875 70.621094h-52.96875l-35.308594-47.050781zm0 0" fill="#805333"/><path d="m334.917969 393.882812c.089843.585938.089843 1.179688 0 1.765626-2.6875 23-18.132813 42.507812-39.898438 50.40625-6.824219 2.59375-14.066406 3.910156-21.363281 3.882812h-35.3125c-7.296875.027344-14.539062-1.289062-21.363281-3.882812-21.765625-7.898438-37.210938-27.40625-39.898438-50.40625-.089843-.585938-.089843-1.179688 0-1.765626 5.648438.441407 11.5625.882813 17.742188 1.238282 3.363281 21.421875 21.835937 37.199218 43.519531 37.164062h35.3125c21.683594.035156 40.15625-15.742187 43.519531-37.164062 6.179688-.355469 12.09375-.796875 17.742188-1.238282zm0 0" fill="#7f6e5d"/><g fill="#2c2f38"><path d="m297.734375 229.25c-7.132813 13.957031-29.398437 15.929688-41.558594 15.929688-12.1875 0-34.421875-1.972657-41.554687-15.929688 13.601562 3.351562 27.546875 5.097656 41.554687 5.207031 14.007813-.109375 27.957031-1.855469 41.558594-5.207031zm0 0"/><path d="m232.878906 137.34375c-8.390625-3.082031-17.199218-4.871094-26.128906-5.296875-12.003906-.90625-24.015625 1.65625-34.605469 7.378906 1.207031-15.449219 37.023438-18.5 54.53125-14.527343 2.777344.34375 5.191407 2.054687 6.441407 4.558593 1.246093 2.503907 1.15625 5.464844-.238282 7.886719zm0 0"/><path d="m229.515625 164.640625c0-10.449219-7.902344-18.921875-17.652344-18.921875s-17.65625 8.472656-17.65625 18.921875c0 10.453125 7.90625 18.925781 17.65625 18.925781s17.652344-8.472656 17.652344-18.925781zm0 0"/></g><path d="m216.8125 148.222656c-4.558594-1.734375-9.65625.554688-11.390625 5.113282-1.730469 4.554687.558594 9.65625 5.113281 11.386718 4.558594 1.734375 9.65625-.554687 11.390625-5.113281 1.730469-4.554687-.558593-9.65625-5.113281-11.386719zm0 0" fill="#fff"/><path d="m279.121094 137.34375c8.390625-3.082031 17.203125-4.871094 26.128906-5.296875 12.003906-.90625 24.015625 1.65625 34.605469 7.378906-1.207031-15.449219-37.023438-18.5-54.53125-14.527343-2.773438.34375-5.191407 2.054687-6.441407 4.558593-1.246093 2.503907-1.15625 5.464844.238282 7.886719zm0 0" fill="#2c2f38"/><path d="m317.792969 164.640625c0-10.449219-7.902344-18.921875-17.65625-18.921875-9.75 0-17.652344 8.472656-17.652344 18.921875 0 10.453125 7.902344 18.925781 17.652344 18.925781 9.753906 0 17.65625-8.472656 17.65625-18.925781zm0 0" fill="#2c2f38"/><path d="m306.578125 153.335938c-1.734375-4.558594-6.832031-6.847657-11.390625-5.113282-4.554688 1.730469-6.84375 6.832032-5.113281 11.386719 1.734375 4.558594 6.832031 6.847656 11.390625 5.113281 4.554687-1.730468 6.84375-6.832031 5.113281-11.386718zm0 0" fill="#fff"/><path d="m256 61.523438c-68.253906 0-123.585938 55.332031-123.585938 123.585937 0 68.257813 55.332032 123.589844 123.585938 123.589844s123.585938-55.332031 123.585938-123.589844c-.011719-68.246094-55.335938-123.570313-123.585938-123.585937zm0 211.863281c-48.753906 0-88.277344-39.523438-88.277344-88.277344 0-48.75 39.523438-88.273437 88.277344-88.273437s88.277344 39.523437 88.277344 88.273437c-.019532 48.75-39.53125 88.261719-88.277344 88.277344zm0 0" fill="#805333"/></svg>