<svg height="512pt" viewBox="0 0 512.00027 512" width="512pt" xmlns="http://www.w3.org/2000/svg"><path d="m414.898438 512h97.101562v-7.855469c.015625-11.304687-1.347656-22.570312-4.0625-33.546875l-8.207031-33.277344c-9.523438-34.714843-41.429688-58.511718-77.417969-57.734374h-332.625c-35.988281-.777344-67.894531 23.019531-77.417969 57.734374l-8.207031 33.277344c-2.714844 10.976563-4.078125 22.242188-4.0625 33.546875v7.855469zm0 0" fill="#4fba6f"/><path d="m441.378906 512h-370.757812l11.828125-57.289062 5.03125-24.101563 10.507812-51.023437 1.761719-8.386719 10.59375-26.480469h136.828125l17.65625-.089844h136.296875l11.210938 26.484375 1.765624 8.472657 10.503907 51.023437 4.945312 24.1875zm0 0" fill="#4c8056"/><path d="m326.621094 336.550781v175.449219h-141.242188v-175.449219zm0 0" fill="#2c2f38"/><path d="m238.34375 372.789062h35.3125v139.210938h-35.3125zm0 0" fill="#2c2f38"/><g fill="#f0c419"><path d="m189.792969 459.121094c-.050781 4.839844-3.988281 8.738281-8.828125 8.742187h-.085938c-14.695312 1.078125-29.222656-3.679687-40.433594-13.242187-1.058593-1.148438-2.117187-2.296875-3.089843-3.441406-1.5-1.589844-3-3.269532-4.675781-4.769532-5.953126-4.402344-13.46875-6.128906-20.746094-4.765625-9.6875.832031-18.851563 4.761719-26.128906 11.210938-.9375.898437-2.09375 1.539062-3.355469 1.855469l5.03125-24.101563c7.089843-3.574219 14.785156-5.789063 22.6875-6.53125 12.082031-1.984375 24.433593 1.257813 33.988281 8.914063 2.226562 2.039062 4.347656 4.1875 6.355469 6.445312.792969.882812 1.675781 1.855469 2.558593 2.738281 7.996094 6.078125 17.980469 8.945313 27.984376 8.03125 2.34375.015625 4.585937.964844 6.226562 2.636719 1.640625 1.675781 2.542969 3.933594 2.511719 6.277344zm0 0"/><path d="m429.550781 454.796875c-1.25-.382813-2.398437-1.046875-3.355469-1.941406-7.277343-6.449219-16.441406-10.378907-26.128906-11.210938-7.277344-1.375-14.796875.351563-20.746094 4.765625-1.675781 1.5-3.175781 3.179688-4.675781 4.769532-.972656 1.144531-2.03125 2.292968-3.003906 3.351562-11.214844 9.617188-25.78125 14.410156-40.519531 13.332031h-.085938c-4.875.023438-8.847656-3.910156-8.871094-8.785156-.027343-4.875 3.90625-8.847656 8.78125-8.871094 10.046876.914063 20.066407-1.984375 28.074219-8.121093.792969-.792969 1.675781-1.765626 2.46875-2.648438 2.007813-2.257812 4.128907-4.40625 6.355469-6.445312 9.578125-7.605469 21.910156-10.84375 33.988281-8.914063 7.933594.730469 15.660157 2.945313 22.773438 6.53125zm0 0"/><path d="m194.207031 337.480469v174.519531h-17.65625v-174.519531c0-4.878907 3.953125-8.828125 8.828125-8.828125s8.828125 3.949218 8.828125 8.828125zm0 0"/><path d="m335.449219 337.480469v174.519531h-17.65625v-174.519531c0-4.878907 3.953125-8.828125 8.828125-8.828125s8.828125 3.949218 8.828125 8.828125zm0 0"/><path d="m247.171875 337.480469v174.519531h-17.65625v-174.519531c0-4.878907 3.953125-8.828125 8.828125-8.828125s8.828125 3.949218 8.828125 8.828125zm0 0"/><path d="m282.484375 337.480469v174.519531h-17.65625v-174.519531c0-4.878907 3.953125-8.828125 8.828125-8.828125s8.828125 3.949218 8.828125 8.828125zm0 0"/></g><path d="m97.105469 291.308594c-35.3125-70.617188-8.828125-70.617188-8.828125-167.722656 0-52.964844 26.480468-123.585938 167.722656-123.585938s167.722656 70.621094 167.722656 123.585938c0 97.105468 26.484375 105.929687-8.824218 167.722656l-10.667969 43.773437-284.324219 4.042969zm0 0" fill="#2c2f38"/><path d="m356.28125 301.460938h.089844c19.757812-10.921876 32.03125-31.710938 32.042968-54.289063v-61.792969c0-20.65625-19.226562-24.847656-35.359374-27.828125-7.261719-.789062-14.0625-3.9375-19.367188-8.964843-4.652344-6.585938-7.46875-14.296876-8.164062-22.332032-7.832032-39.300781-56.53125-45.519531-86.382813-30.410156-38.105469 19.292969-59.3125 70.222656-102.070313 79.3125-7.957031 1.824219-13.566406 8.945312-13.484374 17.109375v54.90625c-.011719 22.609375 12.304687 43.425781 32.132812 54.289063l66.074219 30.898437h81.289062zm0 0" fill="#f0c419"/><path d="m291.308594 264.828125c-3.457032 0-6.597656-2.023437-8.03125-5.171875-8.707032-3.234375-18.027344-4.484375-27.277344-3.65625h-35.308594c-4.878906 0-8.828125-3.953125-8.828125-8.828125s3.949219-8.828125 8.828125-8.828125h35.308594c36.484375 0 44.136719 9.605469 44.136719 17.65625 0 4.875-3.949219 8.828125-8.828125 8.828125zm0 0" fill="#2c2f38"/><path d="m432.550781 308.964844c-2.84375 4.699218-5.410156 9.5625-7.679687 14.566406l-.085938.089844c-5.671875 12.035156-9.023437 25.03125-9.886718 38.308594 0 9.753906-7.90625 17.65625-17.65625 17.65625s-17.65625-7.902344-17.65625-17.65625c-.027344-.710938.03125-1.421876.175781-2.117188h-.261719c-1.234375 11.679688-11.386719 20.351562-23.113281 19.738281-11.730469-.609375-20.925781-10.289062-20.9375-22.035156v-4.410156c0 14.625-11.859375 26.480469-26.484375 26.480469s-26.480469-11.855469-26.480469-26.480469c0 14.625-11.859375 26.480469-26.484375 26.480469s-26.484375-11.855469-26.484375-26.480469c0 14.625-11.855469 26.480469-26.480469 26.480469s-26.484375-11.855469-26.484375-26.480469v4.410156c-.011719 11.746094-9.207031 21.425781-20.933593 22.035156-11.730469.613281-21.882813-8.058593-23.113282-19.738281h-.265625c.101563.703125.160157 1.410156.175781 2.117188 0 9.753906-7.90625 17.65625-17.65625 17.65625s-17.652343-7.902344-17.652343-17.65625c-.511719-13.28125-3.820313-26.304688-9.710938-38.222657-2.289062-5.097656-4.945312-10.027343-7.945312-14.742187 0-9.75 7.902343-17.65625 17.65625-17.65625 9.75 0 17.652343 7.90625 17.652343 17.65625 0-9.75 7.90625-17.65625 17.65625-17.65625s17.65625 7.90625 17.65625 17.65625c.015626 1.128906-.101562 2.253906-.355468 3.355468l.882812.089844c2.769532-13.296875 15.140625-22.347656 28.648438-20.960937 13.507812 1.390625 23.78125 12.765625 23.789062 26.34375 0-14.625 11.855469-26.484375 26.480469-26.484375 14.628906 0 26.484375 11.859375 26.484375 26.484375 0-14.625 11.855469-26.484375 26.484375-26.484375 14.625 0 26.480469 11.859375 26.480469 26.484375.007812-13.578125 10.28125-24.953125 23.789062-26.34375 13.507813-1.386719 25.878906 7.664062 28.648438 20.960937l.882812-.089844c-.253906-1.101562-.371094-2.226562-.355468-3.355468 0-9.75 7.90625-17.65625 17.65625-17.65625s17.65625 7.90625 17.65625 17.65625c0-9.75 7.902343-17.65625 17.65625-17.65625 9.75 0 17.652343 7.90625 17.652343 17.65625zm0 0" fill="#f9eab0"/><path d="m232.878906 159.679688c-8.390625-3.082032-17.199218-4.867188-26.128906-5.292969-12.003906-.910157-24.015625 1.652343-34.605469 7.378906 1.207031-15.449219 37.023438-18.503906 54.53125-14.53125 2.777344.34375 5.191407 2.058594 6.441407 4.558594 1.246093 2.503906 1.15625 5.464843-.238282 7.886719zm0 0" fill="#2c2f38"/><path d="m229.515625 186.980469c0-10.453125-7.902344-18.925781-17.652344-18.925781s-17.65625 8.472656-17.65625 18.925781c0 10.449219 7.90625 18.921875 17.65625 18.921875s17.652344-8.472656 17.652344-18.921875zm0 0" fill="#2c2f38"/><path d="m216.8125 170.558594c-4.558594-1.730469-9.65625.558594-11.390625 5.113281-1.734375 4.558594.554687 9.65625 5.113281 11.390625 4.558594 1.730469 9.65625-.558594 11.390625-5.113281 1.730469-4.558594-.558593-9.65625-5.113281-11.390625zm0 0" fill="#fff"/><path d="m279.121094 159.679688c8.390625-3.082032 17.203125-4.867188 26.128906-5.292969 12.003906-.910157 24.015625 1.652343 34.605469 7.378906-1.207031-15.449219-37.023438-18.503906-54.53125-14.53125-2.773438.34375-5.191407 2.058594-6.441407 4.558594-1.246093 2.503906-1.15625 5.464843.238282 7.886719zm0 0" fill="#2c2f38"/><path d="m317.792969 186.980469c0-10.453125-7.902344-18.925781-17.65625-18.925781-9.75 0-17.652344 8.472656-17.652344 18.925781 0 10.449219 7.902344 18.921875 17.652344 18.921875 9.753906 0 17.65625-8.472656 17.65625-18.921875zm0 0" fill="#2c2f38"/><path d="m306.578125 175.671875c-1.734375-4.558594-6.832031-6.847656-11.390625-5.113281-4.554688 1.734375-6.84375 6.832031-5.113281 11.390625 1.734375 4.554687 6.832031 6.84375 11.390625 5.113281 4.558594-1.734375 6.847656-6.835938 5.113281-11.390625zm0 0" fill="#fff"/></svg>