<svg height="512pt" viewBox="0 0 512.00027 512" width="512pt" xmlns="http://www.w3.org/2000/svg"><path d="m414.898438 512h97.101562v-7.855469c.015625-11.304687-1.347656-22.570312-4.0625-33.546875l-8.207031-33.277344c-9.523438-34.714843-41.429688-58.511718-77.417969-57.734374h-332.625c-35.988281-.777344-67.894531 23.019531-77.417969 57.734374l-8.207031 33.277344c-2.714844 10.976563-4.078125 22.242188-4.0625 33.546875v7.855469zm0 0" fill="#c03a2b"/><path d="m330.59375 61.792969c-7.855469-24.605469-27.453125-61.792969-74.59375-61.792969s-66.738281 37.1875-74.59375 61.792969zm0 0" fill="#4c8056"/><path d="m388.414062 211.863281s26.484376-8.828125 26.484376-35.3125c0-16.566406-10.363282-50.40625-39.734376-82.066406-31.011718-32.589844-74.175781-50.828125-119.164062-50.347656-44.988281-.480469-88.152344 17.757812-119.164062 50.347656-29.371094 31.660156-39.730469 65.5-39.730469 82.066406 0 26.484375 26.480469 35.3125 26.480469 35.3125" fill="#24ae5f"/><path d="m111.316406 355.398438c-5.367187 1.859374-9.421875 6.3125-10.769531 11.828124l-2.558594 12.359376-27.367187 132.414062h370.757812l-27.277344-132.414062-2.558593-12.359376c-1.421875-5.515624-5.4375-9.996093-10.769531-12.003906" fill="#e64c3c"/><path d="m125.792969 263.414062c-1.496094-5.28125-2.242188-10.75-2.207031-16.242187v-52.964844c35.3125-44.136719 88.277343-70.621093 132.414062-70.621093s97.105469 26.484374 132.414062 70.621093v52.964844c.035157 5.492187-.707031 10.960937-2.207031 16.242187zm0 0" fill="#f0c419"/><path d="m256 476.691406s8.828125-17.65625 44.136719-26.484375c52.09375-13.023437 61.792969-35.308593 61.792969-35.308593 5.039062 4.578124 8.1875 10.875 8.828124 17.652343 44.140626-52.964843 26.484376-105.929687 26.484376-105.929687 6.691406.925781 12.894531 4.027344 17.65625 8.828125 8.824218-35.3125-17.65625-79.449219-52.96875-79.449219-35.308594 0-35.308594-26.484375-61.792969-26.484375-26.480469 0-35.308594 8.828125-44.136719 8.828125s-17.65625-8.828125-44.136719-8.828125c-26.484375 0-26.484375 26.484375-61.792969 26.484375-35.3125 0-61.792968 44.136719-52.964843 79.449219 4.757812-4.800781 10.960937-7.902344 17.652343-8.828125 0 0-17.652343 52.964844 26.484376 105.929687.640624-6.777343 3.789062-13.074219 8.828124-17.652343 0 0 9.699219 22.285156 61.792969 35.308593 35.308594 8.828125 44.136719 26.484375 44.136719 26.484375zm0 0" fill="#e6e7e8"/><path d="m317.792969 291.308594c-17.503907.050781-34.9375-2.234375-51.835938-6.796875-3.253906-.964844-6.585937-1.644531-9.957031-2.027344-3.371094.382813-6.703125 1.0625-9.957031 2.027344-16.898438 4.5625-34.332031 6.847656-51.835938 6.796875-4.875 0-8.828125-3.949219-8.828125-8.824219s3.953125-8.828125 8.828125-8.828125c16.058594.027344 32.050781-2.082031 47.550781-6.277344 4.632813-1.394531 9.414063-2.253906 14.242188-2.550781 4.828125.296875 9.609375 1.15625 14.242188 2.550781 15.5 4.195313 31.492187 6.304688 47.550781 6.277344 4.875 0 8.828125 3.953125 8.828125 8.828125s-3.953125 8.824219-8.828125 8.824219zm0 0" fill="#bdc3c7"/><path d="m232.878906 159.679688c-8.390625-3.082032-17.199218-4.867188-26.128906-5.292969-12.003906-.910157-24.015625 1.652343-34.605469 7.378906 1.207031-15.449219 37.023438-18.503906 54.53125-14.53125 2.777344.34375 5.191407 2.058594 6.441407 4.558594 1.246093 2.503906 1.15625 5.464843-.238282 7.886719zm0 0" fill="#2c2f38"/><path d="m229.515625 186.980469c0-10.453125-7.902344-18.925781-17.652344-18.925781s-17.65625 8.472656-17.65625 18.925781c0 10.449219 7.90625 18.921875 17.65625 18.921875s17.652344-8.472656 17.652344-18.921875zm0 0" fill="#2c2f38"/><path d="m216.8125 170.558594c-4.558594-1.730469-9.65625.558594-11.390625 5.113281-1.734375 4.558594.554687 9.65625 5.113281 11.390625 4.558594 1.730469 9.65625-.558594 11.390625-5.113281 1.730469-4.558594-.558593-9.65625-5.113281-11.390625zm0 0" fill="#fff"/><path d="m279.121094 159.679688c8.390625-3.082032 17.203125-4.867188 26.128906-5.292969 12.003906-.910157 24.015625 1.652343 34.605469 7.378906-1.207031-15.449219-37.023438-18.503906-54.53125-14.53125-2.773438.34375-5.191407 2.058594-6.441407 4.558594-1.246093 2.503906-1.15625 5.464843.238282 7.886719zm0 0" fill="#2c2f38"/><path d="m317.792969 186.980469c0-10.453125-7.902344-18.925781-17.65625-18.925781-9.75 0-17.652344 8.472656-17.652344 18.925781 0 10.449219 7.902344 18.921875 17.652344 18.921875 9.753906 0 17.65625-8.472656 17.65625-18.921875zm0 0" fill="#2c2f38"/><path d="m306.578125 175.671875c-1.734375-4.558594-6.832031-6.847656-11.390625-5.113281-4.554688 1.734375-6.84375 6.832031-5.113281 11.390625 1.734375 4.554687 6.832031 6.84375 11.390625 5.113281 4.558594-1.734375 6.847656-6.835938 5.113281-11.390625zm0 0" fill="#fff"/></svg>