<svg height="512pt" viewBox="0 0 512.00027 512" width="512pt" xmlns="http://www.w3.org/2000/svg"><path d="m44.136719 393.09375v-75.300781c-.007813-7.027344 2.777343-13.769531 7.746093-18.734375 4.96875-4.96875 11.710938-7.757813 18.738282-7.75h370.757812c7.027344-.007813 13.769532 2.78125 18.738282 7.75 4.96875 4.964844 7.753906 11.707031 7.746093 18.734375v75.300781zm0 0" fill="#3b97d3"/><path d="m185.378906 291.308594h141.242188v79.449218h-141.242188zm0 0" fill="#f29c1f"/><path d="m512 504.144531v7.855469h-512v-7.855469c-.015625-11.304687 1.347656-22.570312 4.0625-33.546875l8.207031-33.277344c9.523438-34.714843 41.429688-58.511718 77.417969-57.734374h332.625c35.988281-.777344 67.894531 23.019531 77.417969 57.734374l8.207031 33.277344c2.714844 10.976563 4.078125 22.242188 4.0625 33.546875zm0 0" fill="#4c8056"/><path d="m441.378906 512h-370.757812l27.367187-132.414062 2.558594-12.359376c3.046875-9.125 11.957031-14.964843 21.539063-14.121093h267.828124c9.605469-.84375 18.539063 4.988281 21.628907 14.121093l2.558593 12.359376zm0 0" fill="#4fba6f"/><path d="m388.414062 185.378906v61.792969c.011719 16.394531-6.496093 32.117187-18.085937 43.707031-11.589844 11.59375-27.316406 18.097656-43.707031 18.085938h-141.242188c-16.390625.011718-32.117187-6.492188-43.707031-18.085938-11.589844-11.589844-18.097656-27.3125-18.085937-43.707031v-61.792969c17.65625-8.828125 35.3125-35.308594 35.3125-70.621094 0-35.308593 70.617187-35.308593 97.101562-35.308593s97.105469 0 97.105469 35.308593c0 35.3125 17.652343 61.792969 35.308593 70.621094zm0 0" fill="#f0c419"/><g fill="#805333"><path d="m425.046875 132.414062c16.863281 26.484376-8.472656 61.792969-8.472656 61.792969-4.429688 18.492188-14.226563 35.257813-28.160157 48.199219v-30.542969c-17.65625-8.828125-35.308593-35.3125-35.308593-70.621093 0-35.3125-70.621094-35.3125-97.105469-35.3125s-97.101562 0-97.101562 35.3125c0 35.308593-17.65625 61.792968-35.3125 70.621093v30.542969c-13.933594-12.941406-23.730469-29.707031-28.160157-48.199219 0 0-25.335937-35.308593-8.472656-61.792969 0 0-25.335937-70.621093 16.949219-79.449218 0 0 0-17.65625 33.808594-35.308594 0 0 16.859374 8.828125 16.859374 17.652344 9.304688-11.082032 20.820313-20.105469 33.808594-26.480469l16.949219 17.65625s33.8125-26.484375 50.671875-26.484375 50.671875 26.484375 50.671875 26.484375l16.949219-17.65625c12.988281 6.375 24.503906 15.398437 33.808594 26.480469 0-8.824219 16.859374-17.652344 16.859374-17.652344 33.808594 17.652344 33.808594 35.308594 33.808594 35.308594 42.285156 8.828125 16.949219 79.449218 16.949219 79.449218zm0 0"/><path d="m167.722656 220.691406c0 4.875-3.949218 8.824219-8.824218 8.824219-4.878907 0-8.828126-3.949219-8.828126-8.824219 0-4.878906 3.949219-8.828125 8.828126-8.828125 4.875 0 8.824218 3.949219 8.824218 8.828125zm0 0"/><path d="m167.722656 247.171875c0 4.875-3.949218 8.828125-8.824218 8.828125-4.878907 0-8.828126-3.953125-8.828126-8.828125s3.949219-8.828125 8.828126-8.828125c4.875 0 8.824218 3.953125 8.824218 8.828125zm0 0"/><path d="m194.207031 247.171875c0 4.875-3.953125 8.828125-8.828125 8.828125s-8.828125-3.953125-8.828125-8.828125 3.953125-8.828125 8.828125-8.828125 8.828125 3.953125 8.828125 8.828125zm0 0"/><path d="m194.207031 273.65625c0 4.875-3.953125 8.828125-8.828125 8.828125s-8.828125-3.953125-8.828125-8.828125 3.953125-8.828125 8.828125-8.828125 8.828125 3.953125 8.828125 8.828125zm0 0"/><path d="m220.691406 273.65625c0 4.875-3.953125 8.828125-8.828125 8.828125s-8.828125-3.953125-8.828125-8.828125 3.953125-8.828125 8.828125-8.828125 8.828125 3.953125 8.828125 8.828125zm0 0"/><path d="m361.929688 220.691406c0 4.875-3.949219 8.824219-8.824219 8.824219-4.878907 0-8.828125-3.949219-8.828125-8.824219 0-4.878906 3.949218-8.828125 8.828125-8.828125 4.875 0 8.824219 3.949219 8.824219 8.828125zm0 0"/><path d="m361.929688 247.171875c0 4.875-3.949219 8.828125-8.824219 8.828125-4.878907 0-8.828125-3.953125-8.828125-8.828125s3.949218-8.828125 8.828125-8.828125c4.875 0 8.824219 3.953125 8.824219 8.828125zm0 0"/><path d="m335.449219 247.171875c0 4.875-3.953125 8.828125-8.828125 8.828125s-8.828125-3.953125-8.828125-8.828125 3.953125-8.828125 8.828125-8.828125 8.828125 3.953125 8.828125 8.828125zm0 0"/><path d="m335.449219 273.65625c0 4.875-3.953125 8.828125-8.828125 8.828125s-8.828125-3.953125-8.828125-8.828125 3.953125-8.828125 8.828125-8.828125 8.828125 3.953125 8.828125 8.828125zm0 0"/><path d="m308.964844 273.65625c0 4.875-3.953125 8.828125-8.828125 8.828125s-8.828125-3.953125-8.828125-8.828125 3.953125-8.828125 8.828125-8.828125 8.828125 3.953125 8.828125 8.828125zm0 0"/></g><path d="m141.242188 414.898438h35.308593c4.875 0 8.828125 3.949218 8.828125 8.824218v35.3125c0 4.875-3.953125 8.828125-8.828125 8.828125h-35.308593c-4.875 0-8.828126-3.953125-8.828126-8.828125v-35.3125c0-4.875 3.953126-8.824218 8.828126-8.824218zm0 0" fill="#3b97d3"/><path d="m335.449219 414.898438h35.308593c4.875 0 8.828126 3.949218 8.828126 8.824218v35.3125c0 4.875-3.953126 8.828125-8.828126 8.828125h-35.308593c-4.875 0-8.828125-3.953125-8.828125-8.828125v-35.3125c0-4.875 3.953125-8.824218 8.828125-8.824218zm0 0" fill="#3b97d3"/><path d="m264.828125 406.070312v105.929688h-17.65625v-105.929688c0-4.875 3.953125-8.828124 8.828125-8.828124s8.828125 3.953124 8.828125 8.828124zm0 0" fill="#2980ba"/><path d="m141.242188 414.898438v-61.792969h35.308593v61.792969" fill="#2980ba"/><path d="m141.242188 467.863281h35.308593v44.136719h-35.308593zm0 0" fill="#2980ba"/><path d="m335.449219 414.898438v-61.792969h35.308593v61.792969" fill="#2980ba"/><path d="m335.449219 467.863281h35.308593v44.136719h-35.308593zm0 0" fill="#2980ba"/><path d="m176.550781 406.070312h-35.308593c-9.738282.027344-17.628907 7.914063-17.65625 17.652344v35.3125c.023437 9.742188 7.914062 17.628906 17.65625 17.65625h35.308593c9.742188-.027344 17.632813-7.914062 17.65625-17.65625v-35.3125c-.027343-9.738281-7.917969-17.625-17.65625-17.652344zm-35.308593 52.964844v-35.3125h35.308593v35.3125zm0 0" fill="#35495e"/><path d="m370.757812 406.070312h-35.308593c-9.738281.027344-17.628907 7.914063-17.65625 17.652344v35.3125c.023437 9.742188 7.914062 17.628906 17.65625 17.65625h35.308593c9.742188-.027344 17.632813-7.914062 17.65625-17.65625v-35.3125c-.027343-9.738281-7.917968-17.625-17.65625-17.652344zm-35.308593 52.964844v-35.3125h35.308593v35.3125zm0 0" fill="#35495e"/><path d="m132.414062 353.105469h17.65625v61.792969c0 4.875-3.953124 8.824218-8.828124 8.824218s-8.828126-3.949218-8.828126-8.824218zm0 0" fill="#35495e"/><path d="m185.378906 353.105469v61.792969c0 4.875-3.953125 8.824218-8.828125 8.824218s-8.828125-3.949218-8.828125-8.824218v-61.792969zm0 0" fill="#35495e"/><path d="m150.070312 467.863281v44.136719h-17.65625v-44.136719c0-1.558593.429688-3.082031 1.234376-4.414062 1.546874-2.738281 4.449218-4.425781 7.59375-4.414063 4.867187.011719 8.8125 3.957032 8.828124 8.828125zm0 0" fill="#35495e"/><path d="m185.378906 467.863281v44.136719h-17.65625v-44.136719c.015625-4.871093 3.960938-8.816406 8.828125-8.828125 3.144531-.011718 6.046875 1.675782 7.59375 4.414063.804688 1.332031 1.234375 2.855469 1.234375 4.414062zm0 0" fill="#35495e"/><path d="m326.621094 353.105469h17.65625v61.792969c0 4.875-3.953125 8.824218-8.828125 8.824218s-8.828125-3.949218-8.828125-8.824218zm0 0" fill="#35495e"/><path d="m379.585938 353.105469v61.792969c0 4.875-3.953126 8.824218-8.828126 8.824218s-8.828124-3.949218-8.828124-8.824218v-61.792969zm0 0" fill="#35495e"/><path d="m344.277344 467.863281v44.136719h-17.65625v-44.136719c0-1.558593.429687-3.082031 1.234375-4.414062 1.546875-2.738281 4.449219-4.425781 7.59375-4.414063 4.867187.011719 8.8125 3.957032 8.828125 8.828125zm0 0" fill="#35495e"/><path d="m379.585938 467.863281v44.136719h-17.65625v-44.136719c.015624-4.871093 3.960937-8.816406 8.828124-8.828125 3.144532-.011718 6.046876 1.675782 7.59375 4.414063.804688 1.332031 1.234376 2.855469 1.234376 4.414062zm0 0" fill="#35495e"/><path d="m297.734375 247.171875c-7.132813 13.957031-29.398437 15.933594-41.558594 15.933594-12.1875 0-34.421875-1.976563-41.554687-15.933594 13.601562 3.351563 27.546875 5.097656 41.554687 5.207031 14.007813-.105468 27.957031-1.855468 41.558594-5.207031zm0 0" fill="#2c2f38"/><path d="m232.878906 155.269531c-8.390625-3.085937-17.199218-4.871093-26.128906-5.296875-12.003906-.910156-24.015625 1.652344-34.605469 7.378906 1.207031-15.449218 37.023438-18.503906 54.53125-14.53125 2.777344.347657 5.191407 2.058594 6.441407 4.558594 1.246093 2.503906 1.15625 5.464844-.238282 7.890625zm0 0" fill="#2c2f38"/><path d="m229.515625 182.566406c0-10.453125-7.902344-18.925781-17.652344-18.925781s-17.65625 8.472656-17.65625 18.925781c0 10.449219 7.90625 18.921875 17.65625 18.921875s17.652344-8.472656 17.652344-18.921875zm0 0" fill="#2c2f38"/><path d="m216.8125 166.144531c-4.558594-1.734375-9.65625.554688-11.390625 5.113281-1.734375 4.558594.554687 9.65625 5.113281 11.390626 4.558594 1.730468 9.65625-.558594 11.390625-5.113282 1.730469-4.558594-.558593-9.65625-5.113281-11.390625zm0 0" fill="#fff"/><path d="m279.121094 155.269531c8.390625-3.085937 17.203125-4.871093 26.128906-5.296875 12.003906-.910156 24.015625 1.652344 34.605469 7.378906-1.207031-15.449218-37.023438-18.503906-54.53125-14.53125-2.773438.347657-5.191407 2.058594-6.441407 4.558594-1.246093 2.503906-1.15625 5.464844.238282 7.890625zm0 0" fill="#2c2f38"/><path d="m317.792969 182.566406c0-10.453125-7.902344-18.925781-17.65625-18.925781-9.75 0-17.652344 8.472656-17.652344 18.925781 0 10.449219 7.902344 18.921875 17.652344 18.921875 9.753906 0 17.65625-8.472656 17.65625-18.921875zm0 0" fill="#2c2f38"/><path d="m306.578125 171.257812c-1.734375-4.554687-6.832031-6.84375-11.390625-5.113281-4.554688 1.734375-6.84375 6.832031-5.113281 11.390625 1.734375 4.554688 6.835937 6.84375 11.390625 5.113282 4.558594-1.734376 6.847656-6.832032 5.113281-11.390626zm0 0" fill="#fff"/></svg>