<svg height="512pt" viewBox="-4 0 512 512.16532" width="512pt" xmlns="http://www.w3.org/2000/svg"><path d="m182.320312 286.371094h138.847657v78.101562h-138.847657zm0 0" fill="#f29c1f"/><path d="m380.957031 34.191406c.628907 3.027344.949219 6.109375.957031 9.199219v95.457031h-260.339843v-95.457031c.007812-23.960937 19.429687-43.3828125 43.390625-43.390625h130.167968zm0 0" fill="#e64c3c"/><path d="m121.574219 197.476562s-69.421875-17.359374-69.421875-69.425781c0-52.066406 52.066406-43.390625 95.457031-34.710937 34.421875 5.679687 69.246094 8.582031 104.132813 8.675781 34.890624-.09375 69.714843-2.996094 104.136718-8.675781 43.390625-8.679688 95.457032-17.355469 95.457032 34.710937 0 52.066407-69.421876 69.425781-69.421876 69.425781zm0 0" fill="#c03a2b"/><path d="m486.308594 416.109375c2.179687 4.398437 3.867187 9.027344 5.035156 13.796875l8.070312 32.714844c2.664063 10.789062 4.007813 21.863281 3.992188 32.976562v7.722656h-503.3242188v-7.722656c-.015625-11.113281 1.3242188-22.1875 3.9921878-32.976562l8.070312-32.714844c1.167969-4.769531 2.855469-9.398438 5.035157-13.796875zm0 0" fill="#c03a2b"/><path d="m494.726562 373.152344c-.710937 17.921875-4.683593 35.566406-11.714843 52.066406-2.082031 5.46875-4.597657 11.28125-7.636719 17.359375-9.246094 18.632813-20.664062 36.113281-34.019531 52.066406-2.339844 2.863281-4.769531 5.726563-7.375 8.675781h-364.472657c-2.605468-2.949218-5.035156-5.8125-7.378906-8.675781-13.351562-15.953125-24.769531-33.433593-34.015625-52.066406-3.039062-6.078125-5.554687-11.890625-7.636719-17.359375-7.03125-16.5-11.003906-34.144531-11.714843-52.066406 7.96875-5.648438 16.746093-10.066406 26.03125-13.105469 4.949219-1.734375 10.589843-3.554687 17.011719-5.203125 5.378906-1.304688 11.28125-2.605469 17.703124-3.734375 5.378907-.867187 11.105469-1.734375 17.269532-2.34375 5.464844-.519531 11.28125-1.039063 17.441406-1.300781 5.03125-.257813 10.328125-.347656 15.878906-.347656h263.289063c5.554687 0 10.847656.089843 15.882812.347656 6.160157.261718 11.976563.78125 17.441407 1.300781 6.164062.609375 11.890624 1.476563 17.269531 2.34375 6.421875 1.128906 12.324219 2.429687 17.703125 3.734375 6.421875 1.648438 12.0625 3.46875 17.007812 5.203125 9.289063 3.039063 18.066406 7.457031 26.035156 13.105469zm0 0" fill="#24ae5f"/><path d="m78.183594 503.320312 43.390625-69.421874 43.390625 69.421874zm0 0" fill="#e64c3c"/><path d="m164.964844 503.320312 43.390625-69.421874 43.386719 69.421874zm0 0" fill="#e64c3c"/><path d="m251.742188 503.320312 43.390624-69.421874 43.390626 69.421874zm0 0" fill="#e64c3c"/><path d="m338.523438 503.320312 43.390624-69.421874 43.390626 69.421874zm0 0" fill="#e64c3c"/><path d="m425.304688 512h-347.425782l-8.371094-8.679688-7.378906-8.675781h379.226563c-2.339844 2.863281-4.769531 5.726563-7.375 8.675781zm0 0" fill="#f0c419"/><path d="m483.011719 425.21875c-2.082031 5.46875-4.597657 11.28125-7.636719 17.359375h-447.261719c-3.039062-6.078125-5.554687-11.890625-7.636719-17.359375zm0 0" fill="#f0c419"/><path d="m173.640625 503.320312c.015625 1.457032-.339844 2.890626-1.039063 4.167969l-.261718.433594c-.144532.25-.320313.484375-.519532.695313-.636718.894531-1.46875 1.636718-2.429687 2.167968-.628906.429688-1.335937.722656-2.082031.867188-1.527344.464844-3.160156.464844-4.6875 0-.734375-.175782-1.4375-.46875-2.082032-.867188-.085937 0-.085937-.085937-.175781-.085937-.867187-.554688-1.632812-1.261719-2.253906-2.082031-.203125-.210938-.375-.445313-.523437-.695313-.085938-.175781-.171876-.261719-.257813-.433594l-2.605469-4.167969-5.378906-8.675781h-.085938l-27.683593-44.34375-27.683594 44.34375-5.464844 8.675781-2.863281 4.601563c-1.59375 2.539063-4.378906 4.082031-7.378906 4.078125l-7.984375-8.679688h-.691407c-.015624-.203124.015626-.410156.085938-.605468.027344-1.417969.449219-2.800782 1.214844-3.992188l2.515625-4.078125 32.542969-52.066406 8.332031-13.277344c1.722656-2.347656 4.460937-3.734375 7.375-3.734375 2.914062 0 5.652343 1.386719 7.375 3.734375l8.332031 13.277344 27.683594 44.34375 4.859375 7.722656.261719.519531 2.253906 3.558594c.839844 1.386719 1.289062 2.976563 1.300781 4.597656zm0 0" fill="#f0c419"/><path d="m251.753906 512c-2.996094.003906-5.78125-1.539062-7.367187-4.078125l-36.03125-57.652344-36.035157 57.652344c-1.609374 2.703125-4.554687 4.328125-7.699218 4.238281-3.144532-.085937-5.996094-1.867187-7.453125-4.65625-1.457031-2.792968-1.289063-6.152344.441406-8.78125l43.386719-69.421875c1.691406-2.390625 4.433594-3.808593 7.359375-3.808593 2.921875 0 5.664062 1.417968 7.355469 3.808593l43.390624 69.421875c1.671876 2.671875 1.765626 6.042969.238282 8.804688-1.527344 2.757812-4.433594 4.472656-7.585938 4.472656zm0 0" fill="#f0c419"/><path d="m338.53125 512c-2.992188.003906-5.777344-1.539062-7.363281-4.078125l-36.035157-57.652344-36.03125 57.652344c-1.609374 2.703125-4.554687 4.328125-7.703124 4.238281-3.144532-.085937-5.996094-1.867187-7.453126-4.65625-1.453124-2.792968-1.285156-6.152344.441407-8.78125l43.390625-69.421875c1.6875-2.390625 4.433594-3.808593 7.355468-3.808593 2.925782 0 5.667969 1.417968 7.355469 3.808593l43.390625 69.421875c1.675782 2.671875 1.765625 6.042969.238282 8.804688-1.527344 2.757812-4.429688 4.472656-7.585938 4.472656zm0 0" fill="#f0c419"/><path d="m425.304688 503.320312c0 2.953126 2.601562-1.648437 0 0-1.390626.871094 1.558593 8.679688 0 8.679688-2.992188-.015625-5.773438-1.554688-7.378907-4.078125l-2.863281-4.601563-5.464844-8.675781-27.683594-44.34375-27.683593 44.34375-5.46875 8.675781-2.601563 4.167969-.261718.433594c-.144532.25-.320313.484375-.519532.695313-.636718.894531-1.46875 1.636718-2.429687 2.167968-.628907.429688-1.335938.722656-2.082031.867188-1.527344.464844-3.160157.464844-4.6875 0-.734376-.175782-1.4375-.46875-2.082032-.867188-.085937 0-.085937-.085937-.171875-.085937-.871093-.554688-1.636719-1.261719-2.257812-2.082031-.199219-.210938-.375-.445313-.519531-.695313-.089844-.175781-.175782-.261719-.261719-.433594-.6875-1.28125-1.046875-2.710937-1.042969-4.167969.015625-1.621093.464844-3.210937 1.304688-4.597656l2.253906-3.558594.261718-.519531 4.859376-7.722656 27.683593-44.34375 8.328125-13.277344c1.726563-2.347656 4.464844-3.734375 7.378906-3.734375 2.910157 0 5.648438 1.386719 7.375 3.734375l8.332032 13.277344 32.542968 52.066406 2.515626 4.078125c.867187 1.476563-7.375 3.039063-7.375 4.597656zm0 0" fill="#f0c419"/><path d="m381.914062 130.167969v112.816406c.011719 16.113281-6.386718 31.570313-17.78125 42.964844-11.394531 11.394531-26.851562 17.792969-42.964843 17.78125h-138.847657c-16.113281.011719-31.574218-6.386719-42.96875-17.78125-11.394531-11.394531-17.789062-26.851563-17.777343-42.964844v-112.816406l56.925781 7.550781c.347656.085938.609375.085938.957031.175781 23.761719 5.339844 47.953125 8.5625 72.285157 9.632813 24.335937-1.070313 48.527343-4.292969 72.289062-9.632813.347656-.089843.609375-.089843.953125-.175781zm0 0" fill="#f0c419"/><path d="m164.964844 0h86.777344v26.035156c0 19.167969-15.539063 34.710938-34.710938 34.710938h-17.355469c-19.171875 0-34.710937-15.542969-34.710937-34.710938zm0 0" fill="#c03a2b"/><path d="m380.957031 34.105469v.085937c-3.765625 15.585938-17.71875 26.5625-33.753906 26.554688h-17.359375c-9.207031.003906-18.035156-3.652344-24.546875-10.164063-6.507813-6.511719-10.164063-15.339843-10.164063-24.546875v-26.035156h43.390626c20.394531.00390625 38.046874 14.1875 42.433593 34.105469zm0 0" fill="#c03a2b"/><path d="m323.355469 260.332031c-14.671875-.527343-28.046875-8.535156-35.441407-21.214843-3.878906-7.207032-11.78125-11.300782-19.90625-10.304688-4.046874.574219-7.9375 1.945312-11.449218 4.035156-2.917969 1.941406-6.714844 1.941406-9.628906 0-4.890626-3.640625-11.09375-5.035156-17.074219-3.839844-5.976563 1.199219-11.167969 4.871094-14.28125 10.109376-13.6875 20.527343-32.660157 23.53125-44.796875 19.875-7.839844-1.546876-13.730469-8.054688-14.492188-16.007813-.011718-4.484375 3.390625-8.238281 7.851563-8.667969 4.460937-.425781 8.515625 2.613282 9.351562 7.019532 2.371094 1.34375 5.101563 1.90625 7.8125 1.609374 8.386719-1.039062 15.765625-6.042968 19.828125-13.453124 7.53125-12.6875 21.859375-19.714844 36.5-17.898438 4.894532.644531 9.652344 2.050781 14.113282 4.167969 4.457031-2.117188 9.214843-3.523438 14.109374-4.167969 14.644532-1.832031 28.980469 5.199219 36.5 17.898438 4.0625 7.410156 11.441407 12.414062 19.828126 13.453124 2.710937.292969 5.441406-.269531 7.8125-1.609374.820312-4.421876 4.882812-7.488282 9.359374-7.058594 4.476563.429687 7.882813 4.207031 7.851563 8.707031-.761719 7.953125-6.65625 14.460937-14.492187 16.007813-3.039063.898437-6.191407 1.351562-9.355469 1.339843zm0 0" fill="#2c2f38"/><path d="m191 347.117188h121.488281c0 23.964843-19.425781 43.390624-43.386719 43.390624h-34.714843c-23.960938 0-43.386719-19.425781-43.386719-43.390624zm0 0" fill="#f0c419"/><g fill="#e64c3c"><path d="m156.285156 347.117188v34.714843c0 4.792969-3.882812 8.675781-8.675781 8.675781s-8.679687-3.882812-8.679687-8.675781v-34.714843zm0 0"/><path d="m121.574219 347.117188v34.714843c0 4.792969-3.886719 8.675781-8.679688 8.675781-4.789062 0-8.675781-3.882812-8.675781-8.675781v-34.367187c5.03125-.257813 10.328125-.347656 15.878906-.347656zm0 0"/><path d="m86.863281 349.808594v32.023437c0 4.792969-3.886719 8.675781-8.679687 8.675781-4.792969 0-8.675782-3.882812-8.675782-8.675781v-30.722656c5.378907-.867187 11.105469-1.734375 17.269532-2.34375.070312.34375.097656.695313.085937 1.042969zm0 0"/><path d="m52.152344 357.183594v24.648437c0 4.792969-3.886719 8.675781-8.679688 8.675781-4.792968 0-8.679687-3.882812-8.679687-8.675781v-21.785156c4.949219-1.734375 10.589843-3.554687 17.011719-5.203125.246093.753906.363281 1.546875.347656 2.339844zm0 0"/><path d="m468.691406 360.046875v21.785156c0 4.792969-3.882812 8.675781-8.675781 8.675781s-8.679687-3.882812-8.679687-8.675781v-24.648437c-.019532-.792969.101562-1.585938.347656-2.339844 6.421875 1.648438 12.0625 3.46875 17.007812 5.203125zm0 0"/><path d="m433.980469 351.109375v30.722656c0 4.792969-3.882813 8.675781-8.675781 8.675781-4.792969 0-8.679688-3.882812-8.679688-8.675781v-32.023437c-.015625-.347656.015625-.699219.085938-1.042969 6.164062.609375 11.890624 1.476563 17.269531 2.34375zm0 0"/><path d="m399.269531 347.464844v34.367187c0 4.792969-3.886719 8.675781-8.679687 8.675781-4.792969 0-8.675782-3.882812-8.675782-8.675781v-34.714843h1.472657c5.554687 0 10.847656.089843 15.882812.347656zm0 0"/><path d="m364.558594 347.117188v34.714843c0 4.792969-3.886719 8.675781-8.679688 8.675781-4.792968 0-8.675781-3.882812-8.675781-8.675781v-34.714843zm0 0"/></g><path d="m292.769531 251.660156c-7.011719 13.722656-28.898437 15.664063-40.851562 15.664063-11.980469 0-33.839844-1.941407-40.851563-15.664063 13.371094 3.292969 27.082032 5.011719 40.851563 5.121094 13.769531-.105469 27.480469-1.824219 40.851562-5.121094zm0 0" fill="#2c2f38"/><path d="m229.015625 161.3125c-8.25-3.03125-16.910156-4.785156-25.6875-5.207031-11.800781-.890625-23.609375 1.628906-34.019531 7.253906 1.1875-15.183594 36.398437-18.1875 53.609375-14.28125 2.726562.339844 5.105469 2.023437 6.328125 4.484375 1.226562 2.457031 1.140625 5.367188-.230469 7.75zm0 0" fill="#2c2f38"/><path d="m225.710938 188.148438c0-10.273438-7.773438-18.601563-17.355469-18.601563-9.585938 0-17.355469 8.328125-17.355469 18.601563 0 10.273437 7.769531 18.601562 17.355469 18.601562 9.582031 0 17.355469-8.328125 17.355469-18.601562zm0 0" fill="#2c2f38"/><path d="m213.21875 172.007812c-4.476562-1.703124-9.492188.546876-11.195312 5.023438-1.703126 4.480469.546874 9.492188 5.027343 11.199219 4.480469 1.703125 9.492188-.546875 11.195313-5.027344s-.546875-9.492187-5.027344-11.195313zm0 0" fill="#fff"/><path d="m274.472656 161.3125c8.246094-3.03125 16.910156-4.785156 25.6875-5.207031 11.800782-.890625 23.609375 1.628906 34.015625 7.253906-1.183593-15.183594-36.394531-18.1875-53.605469-14.28125-2.726562.339844-5.105468 2.023437-6.332031 4.484375-1.222656 2.457031-1.136719 5.367188.234375 7.75zm0 0" fill="#2c2f38"/><path d="m312.488281 188.148438c0-10.273438-7.769531-18.601563-17.355469-18.601563-9.585937 0-17.355468 8.328125-17.355468 18.601563 0 10.273437 7.769531 18.601562 17.355468 18.601562 9.585938 0 17.355469-8.328125 17.355469-18.601562zm0 0" fill="#2c2f38"/><path d="m301.464844 177.035156c-1.703125-4.480468-6.71875-6.730468-11.195313-5.027344-4.480469 1.703126-6.730469 6.714844-5.027343 11.195313 1.703124 4.480469 6.714843 6.730469 11.195312 5.027344s6.730469-6.71875 5.027344-11.195313zm0 0" fill="#fff"/><path d="m425.128906 129.734375c-.984375 4.6875-5.53125 7.730469-10.238281 6.855469-10.902344-1.800782-21.996094-2.09375-32.976563-.867188-17.097656 1.390625-36.015624 5.035156-54.671874 8.503906-24.820313 5.539063-50.089844 8.847657-75.5 9.894532-4.792969 0-8.675782-3.886719-8.675782-8.679688 0-4.792968 3.882813-8.675781 8.675782-8.675781 24.335937-1.066406 48.527343-4.289063 72.289062-9.632813.347656-.085937.609375-.085937.953125-.175781 34.625-6.507812 67.34375-12.582031 93.375-7.375 2.253906.433594 4.238281 1.75 5.511719 3.660157 1.273437 1.910156 1.726562 4.246093 1.257812 6.492187zm0 0" fill="#e64c3c"/><path d="m260.421875 145.441406c-.015625 4.789063-3.890625 8.664063-8.679687 8.679688-25.410157-1.046875-50.675782-4.355469-75.496094-9.894532-18.660156-3.46875-37.578125-7.113281-54.671875-8.503906-10.980469-1.226562-22.074219-.933594-32.976563.867188-2.265625.453125-4.621094-.019532-6.539062-1.304688-1.921875-1.285156-3.253906-3.28125-3.699219-5.550781-.46875-2.246094-.015625-4.582031 1.257813-6.492187 1.273437-1.910157 3.257812-3.226563 5.507812-3.660157 26.035156-5.207031 58.75.867188 93.375 7.375.347656.089844.609375.089844.957031.175781 23.761719 5.34375 47.953125 8.566407 72.285157 9.632813 2.304687-.007813 4.519531.902344 6.148437 2.53125s2.539063 3.84375 2.53125 6.144531zm0 0" fill="#e64c3c"/></svg>