<svg height="512pt" viewBox="0 0 512.00027 512" width="512pt" xmlns="http://www.w3.org/2000/svg"><path d="m512 504.144531v7.855469h-512v-7.855469c-.015625-11.304687 1.347656-22.570312 4.0625-33.546875l8.207031-33.277344c9.523438-34.714843 41.429688-58.511718 77.417969-57.734374h332.625c35.988281-.777344 67.894531 23.019531 77.417969 57.734374l8.207031 33.277344c2.714844 10.976563 4.078125 22.242188 4.0625 33.546875zm0 0" fill="#4482c3"/><path d="m441.378906 512h-370.757812l27.367187-132.414062 2.558594-12.359376c3.046875-9.125 11.957031-14.964843 21.539063-14.121093h267.828124c9.605469-.84375 18.539063 4.988281 21.628907 14.121093l2.558593 12.359376zm0 0" fill="#3b97d3"/><path d="m361.929688 467.863281-26.480469 44.136719h-158.898438l-26.480469-44.136719 35.308594-35.3125h141.242188zm0 0" fill="#f0c419"/><path d="m388.414062 247.171875v-79.449219c.042969-6.296875-.667968-12.582031-2.117187-18.710937-6.09375-24.277344-28.160156-39.636719-51.203125-46.347657-15.855469-4.359374-32.292969-6.234374-48.726562-5.558593-11.695313-.390625-22.539063 6.097656-27.71875 16.59375-2.648438 5.738281-2.648438 27.542969-20.304688 36.371093-23.214844 11.652344-35.308594 0-35.308594 0s16.152344-23.042968 1.589844-42.109374v-.085938c-.53125-.707031-1.0625-1.324219-1.589844-1.945312-6.878906-7.957032-17.46875-11.65625-27.808594-9.707032-13.367187 2.511719-25.324218 9.902344-33.542968 20.742188-11.34375 14.527344-17.691406 32.332031-18.097656 50.757812v79.449219c-35.308594-8.828125-35.308594-88.273437-35.308594-150.066406 0-61.796875 70.621094-97.105469 167.722656-97.105469 97.105469 0 99.929688 36.28125 123.585938 44.136719 52.964843 17.65625 61.792968 123.585937 8.828124 203.035156zm0 0" fill="#2c2f38"/><path d="m222.898438 40.519531c.007812 2.34375-.921876 4.59375-2.578126 6.25s-3.90625 2.585938-6.25 2.578125c-10.386718-.792968-20.144531 5.042969-24.367187 14.5625-3.96875 9.625-2.644531 25.425782 12.976563 41.050782.855468.816406 1.519531 1.808593 1.945312 2.914062-.53125-.707031-1.0625-1.324219-1.589844-1.945312-6.878906-7.957032-17.46875-11.65625-27.808594-9.707032-6.117187-12.1875-6.792968-26.398437-1.851562-39.109375 6.941406-16.125 23.15625-26.253906 40.695312-25.421875 4.867188.015625 8.8125 3.957032 8.828126 8.828125zm0 0" fill="#5e5f62"/><path d="m185.378906 308.964844h141.242188v44.140625h-141.242188zm0 0" fill="#f9c795"/><path d="m388.414062 167.722656v79.449219c.011719 16.394531-6.496093 32.117187-18.085937 43.707031-11.589844 11.59375-27.316406 18.097656-43.707031 18.085938h-141.242188c-16.390625.011718-32.117187-6.492188-43.707031-18.085938-11.589844-11.589844-18.097656-27.3125-18.085937-43.707031v-79.449219c.40625-18.425781 6.753906-36.230468 18.097656-50.757812 14.210937-18.449219 43.519531-31.074219 61.351562-11.035156 17.300782 19.421874 0 44.140624 0 44.140624s12.09375 11.652344 35.308594 0c17.65625-8.828124 17.65625-30.632812 20.304688-36.371093 5.179687-10.496094 16.023437-16.984375 27.71875-16.59375 16.433593-.675781 32.871093 1.199219 48.726562 5.558593 23.042969 6.710938 45.109375 22.070313 51.203125 46.347657 1.449219 6.128906 2.160156 12.414062 2.117187 18.710937zm0 0" fill="#fdd7ad"/><path d="m255.902344 405.957031c-2.296875.027344-4.507813-.863281-6.144532-2.472656-8.8125-5.03125-18.964843-7.210937-29.066406-6.242187h-61.792968c-4.878907 0-8.828126-3.953126-8.828126-8.828126s3.949219-8.828124 8.828126-8.828124h61.792968c12.167969-.554688 24.289063 1.871093 35.308594 7.0625 11.019531-5.191407 23.140625-7.617188 35.308594-7.0625h61.796875c4.875 0 8.824219 3.953124 8.824219 8.828124s-3.949219 8.828126-8.824219 8.828126h-61.796875c-21.578125 0-29.21875 6.386718-29.292969 6.457031-1.703125 1.457031-3.871094 2.261719-6.113281 2.257812zm0 0" fill="#285680"/><path d="m369.523438 472.363281-23.746094 39.636719h-19.15625c.011718-1.582031.4375-3.132812 1.234375-4.5l22.953125-38.226562-27.808594-27.894532h-134l-27.808594 27.894532 22.953125 38.226562c.796875 1.367188 1.222657 2.917969 1.234375 4.5h-19.15625l-23.746094-39.636719c-2.03125-3.476562-1.488281-7.886719 1.324219-10.769531l35.3125-35.308594c1.683594-1.628906 3.925781-2.542968 6.265625-2.5625h141.242188c2.339844.019532 4.585937.933594 6.265625 2.5625l35.3125 35.308594c2.8125 2.882812 3.355469 7.292969 1.324219 10.769531zm0 0" fill="#e64c3c"/><path d="m319.117188 432.550781v28.125c.011718 1.511719-.753907 2.921875-2.027344 3.734375-1.273438.8125-2.875.914063-4.238282.265625-16.820312-8.042969-63.59375-27.066406-92.160156-5.640625-27.71875 20.785156 33.632813 44.402344 77.152344 52.964844h-112.464844c-13.457031-25.820312-9.96875-57.210938 8.828125-79.449219 2.648438-3.265625 5.5625 2.648438 8.472657 0 3.527343-3.199219 7.273437-6.152343 11.210937-8.828125h60.472656zm0 0" fill="#e64c3c"/><g fill="#2c2f38"><path d="m301.242188 237.792969c-4.867188 15.023437-27.769532 22.40625-40.171876 24.578125-12.425781 2.175781-35.441406 4.199218-45.121093-8.277344 14.464843.871094 28.980469.101562 43.273437-2.289062 14.480469-3.109376 28.570313-7.808594 42.019532-14.011719zm0 0"/><path d="m231.214844 165.207031c-7.65625-4.613281-15.972656-8.03125-24.664063-10.132812-11.617187-3.160157-23.898437-2.910157-35.378906.710937 4.105469-14.941406 39.851563-11.179687 56.292969-3.972656 2.664062.863281 4.714844 3 5.46875 5.691406.753906 2.695313.109375 5.585938-1.71875 7.703125zm0 0"/><path d="m229.515625 182.566406c0-10.453125-7.902344-18.925781-17.652344-18.925781s-17.65625 8.472656-17.65625 18.925781c0 10.449219 7.90625 18.921875 17.65625 18.921875s17.652344-8.472656 17.652344-18.921875zm0 0"/></g><path d="m216.8125 166.144531c-4.558594-1.734375-9.65625.554688-11.390625 5.113281-1.734375 4.558594.554687 9.65625 5.113281 11.390626 4.558594 1.730468 9.65625-.558594 11.390625-5.113282 1.730469-4.558594-.558593-9.65625-5.113281-11.390625zm0 0" fill="#fff"/><path d="m279.839844 167.058594c6.261718-8.242188 14.957031-14.304688 24.859375-17.320313 13.3125-3.550781 27.476562.945313 36.304687 11.527344-.136718-.132813.136719-2.945313.085938-3.386719-.144532-1.144531-.453125-2.261718-.917969-3.316406-1.039063-2.253906-2.566406-4.25-4.46875-5.839844-4.738281-3.847656-10.378906-6.429687-16.390625-7.496094-7.988281-1.804687-16.316406-1.394531-24.082031 1.195313-4.679688 1.613281-8.984375 4.152344-12.664063 7.460937-3.242187 2.96875-8.042968 8.429688-5.957031 13.40625.964844 1.347657 2.046875 2.609376 3.230469 3.769532zm0 0" fill="#2c2f38"/><path d="m317.792969 182.566406c0-10.453125-7.902344-18.925781-17.65625-18.925781-9.75 0-17.652344 8.472656-17.652344 18.925781 0 10.449219 7.902344 18.921875 17.652344 18.921875 9.753906 0 17.65625-8.472656 17.65625-18.921875zm0 0" fill="#2c2f38"/><path d="m306.578125 171.257812c-1.734375-4.554687-6.832031-6.84375-11.390625-5.113281-4.554688 1.734375-6.84375 6.832031-5.113281 11.390625 1.734375 4.554688 6.835937 6.84375 11.390625 5.113282 4.558594-1.734376 6.847656-6.832032 5.113281-11.390626zm0 0" fill="#fff"/></svg>