<svg height="512pt" viewBox="0 0 512.00027 512" width="512pt" xmlns="http://www.w3.org/2000/svg"><path d="m185.378906 256h141.242188v97.105469h-141.242188zm0 0" fill="#c03a2b"/><path d="m220.691406 0h70.617188c4.878906 0 8.828125 3.953125 8.828125 8.828125v44.136719h-88.273438v-44.136719c0-4.875 3.949219-8.828125 8.828125-8.828125zm0 0" fill="#c03a2b"/><path d="m388.414062 97.105469v123.585937c.039063 20.261719-9.898437 39.246094-26.570312 50.757813-4.753906 3.367187-9.992188 5.988281-15.539062 7.765625-6.335938 2.171875-12.988282 3.273437-19.683594 3.269531h-141.242188c-6.695312.003906-13.347656-1.097656-19.683594-3.269531-5.546874-1.777344-10.785156-4.398438-15.539062-7.765625-16.671875-11.511719-26.609375-30.496094-26.570312-50.757813v-123.585937c-.015626-20.347657 9.988281-39.398438 26.746093-50.9375 4.777344-3.253907 9.972657-5.839844 15.449219-7.679688 6.320312-2.105469 12.9375-3.175781 19.597656-3.179687h141.242188c6.660156.003906 13.277344 1.074218 19.597656 3.179687 5.476562 1.839844 10.675781 4.425781 15.449219 7.679688 16.757812 11.539062 26.761719 30.589843 26.746093 50.9375zm0 0" fill="#e64c3c"/><path d="m273.65625 150.070312s17.652344-52.964843 61.792969-70.621093c0 0 17.65625 17.65625 17.65625 70.621093 0 52.964844-70.621094 61.792969-79.449219 0zm0 0" fill="#e6e7e8"/><path d="m238.34375 150.070312s-17.652344-52.964843-61.792969-70.621093c0 0-17.652343 17.65625-17.652343 70.621093 0 52.964844 70.617187 61.792969 79.445312 0zm0 0" fill="#e6e7e8"/><path d="m414.898438 512h97.101562v-7.855469c.015625-11.304687-1.347656-22.570312-4.0625-33.546875l-8.207031-59.761718c-9.523438-34.714844-41.429688-58.507813-77.417969-57.730469h-332.625c-35.988281-.777344-67.894531 23.015625-77.417969 57.730469l-8.207031 59.761718c-2.714844 10.976563-4.078125 22.242188-4.0625 33.546875v7.855469zm0 0" fill="#2980ba"/><path d="m441.378906 512h-370.757812l6.265625-35.839844 3.355469-19.332031 4.589843-26.128906 3.179688-18.363281 4.414062-25.335938 3.089844-17.300781v-.089844l5.03125-28.863281c3.046875-9.125 11.957031-14.96875 21.539063-14.125h267.828124c9.605469-.84375 18.539063 4.992187 21.628907 14.125l5.03125 28.953125 3 17.390625 4.414062 25.246094 3.265625 18.363281 4.503906 26.128906 3.355469 19.421875zm0 0" fill="#e64c3c"/><g fill="#bdc3c7"><path d="m273.65625 211.863281h-35.3125c-2.957031 0-5.714844-1.476562-7.351562-3.941406l-14.207032-21.363281c-1.746094-2.621094-1.960937-5.980469-.5625-8.804688 1.402344-2.824218 4.199219-4.6875 7.347656-4.886718 3.144532-.199219 6.15625 1.292968 7.902344 3.917968l11.605469 17.421875h25.84375l11.605469-17.421875c1.746094-2.625 4.757812-4.117187 7.902344-3.917968 3.148437.199218 5.945312 2.0625 7.347656 4.886718 1.398437 2.824219 1.183594 6.183594-.5625 8.808594l-14.207032 21.359375c-1.636718 2.464844-4.394531 3.941406-7.351562 3.941406zm0 0"/><path d="m202.59375 249.996094c-1.207031 3.601562-4.589844 6.023437-8.386719 6.003906-.957031-.023438-1.90625-.171875-2.824219-.441406l-26.484374-8.828125c-1.289063-.445313-2.460938-1.167969-3.441407-2.117188l-37.871093-37.871093v-21.363282c2.34375-.007812 4.597656.914063 6.269531 2.558594l34.601562 34.695312 8.035157 8.03125 6.882812 2.296876 17.65625 5.824218c4.601562 1.59375 7.078125 6.582032 5.5625 11.210938zm0 0"/><path d="m388.414062 185.378906v21.363282l-37.871093 37.871093c-.980469.949219-2.152344 1.671875-3.441407 2.117188l-8.738281 2.914062-17.746093 5.914063c-.917969.269531-1.867188.417968-2.824219.441406-3.796875.019531-7.179688-2.402344-8.386719-6.003906-1.515625-4.628906.960938-9.617188 5.5625-11.210938l17.65625-5.824218 6.882812-2.296876 8.035157-8.03125 34.601562-34.695312c1.671875-1.644531 3.925781-2.566406 6.269531-2.558594zm0 0"/><path d="m211.863281 114.757812c-4.234375.007813-7.878906-2.996093-8.679687-7.15625-.800782-4.15625 1.460937-8.296874 5.394531-9.867187 20.199219-8.097656 38.59375-21.023437 38.59375-27.113281 0-4.875 3.953125-8.828125 8.828125-8.828125s8.828125 3.953125 8.828125 8.828125c0 21.929687-38.035156 38.839844-49.691406 43.507812-1.039063.417969-2.152344.632813-3.273438.628906zm0 0"/><path d="m300.136719 114.757812c-1.121094.003907-2.234375-.210937-3.273438-.628906-11.65625-4.667968-49.691406-21.578125-49.691406-43.507812 0-4.875 3.953125-8.828125 8.828125-8.828125s8.828125 3.953125 8.828125 8.828125c0 6.089844 18.394531 19.015625 38.59375 27.113281 3.933594 1.570313 6.199219 5.710937 5.394531 9.867187-.800781 4.160157-4.445312 7.164063-8.679687 7.15625zm0 0"/><path d="m246.996094 204.976562-1.5 6.886719-15.714844 70.621094h-17.917969c-.03125-.652344.027344-1.308594.175781-1.945313l16.859376-75.828124.796874-3.617188c1.089844-4.757812 5.820313-7.742188 10.582032-6.671875 4.765625 1.070313 7.765625 5.785156 6.71875 10.554687zm0 0"/><path d="m300.136719 282.484375h-17.917969l-15.714844-70.621094-1.5-6.886719c-1.046875-4.769531 1.953125-9.484374 6.71875-10.554687 4.761719-1.070313 9.492188 1.914063 10.582032 6.671875l.796874 3.617188 16.859376 75.828124c.148437.636719.207031 1.292969.175781 1.945313zm0 0"/><path d="m193.5 197.648438c-4.238281 9.800781-9.445312 22.777343-14.125 35.3125-2.027344 5.824218-4.058594 11.476562-5.734375 16.683593-2.964844 7.726563-4.953125 15.792969-5.917969 24.011719.03125 2.039062-.691406 4.019531-2.027344 5.558594-5.546874-1.777344-10.785156-4.398438-15.539062-7.765625 1.515625-10.386719 4.089844-20.59375 7.679688-30.457031 2.121093-6.089844 4.414062-12.445313 6.621093-18.359376 5.914063-15.539062 11.566407-28.957031 12.800781-31.867187 1.902344-4.488281 7.078126-6.582031 11.5625-4.679687 4.488282 1.902343 6.582032 7.078124 4.679688 11.5625zm0 0"/><path d="m361.84375 271.449219c-4.753906 3.367187-9.992188 5.988281-15.539062 7.765625-1.335938-1.539063-2.058594-3.519532-2.027344-5.558594-.964844-8.21875-2.953125-16.285156-5.914063-24.011719-1.679687-5.207031-3.710937-10.859375-5.738281-16.683593-4.679688-12.535157-9.886719-25.511719-14.125-35.3125-1.230469-2.898438-.820312-6.238282 1.078125-8.753907s4.992187-3.828125 8.121094-3.441406c3.128906.382813 5.8125 2.410156 7.042969 5.3125 1.234374 2.910156 6.886718 16.328125 12.800781 31.867187 2.207031 5.914063 4.5 12.269532 6.621093 18.359376 3.589844 9.863281 6.164063 20.070312 7.679688 30.457031zm0 0"/><path d="m264.828125 35.308594v79.449218c0 4.875-3.953125 8.828126-8.828125 8.828126s-8.828125-3.953126-8.828125-8.828126v-79.449218zm0 0"/><path d="m185.378906 79.449219c.015625 3.152343-1.652344 6.074219-4.375 7.667969-2.722656 1.589843-6.089844 1.605468-8.828125.042968s-4.4375-4.46875-4.453125-7.625c-1.3125-11.222656-6.679687-21.582031-15.09375-29.128906-1.148437-1.167969-1.945312-2.636719-2.296875-4.238281 4.777344-3.253907 9.972657-5.839844 15.449219-7.679688 11.347656 10.777344 18.324219 25.359375 19.597656 40.960938zm0 0"/><path d="m361.667969 46.167969c-.335938 1.605469-1.132813 3.082031-2.296875 4.238281-8.414063 7.546875-13.78125 17.90625-15.09375 29.128906-.121094 4.796875-4.03125 8.628906-8.828125 8.652344h-.089844c-2.320313.011719-4.546875-.90625-6.191406-2.546875-1.640625-1.644531-2.558594-3.871094-2.546875-6.191406 1.273437-15.601563 8.25-30.183594 19.597656-40.960938 5.476562 1.839844 10.675781 4.425781 15.449219 7.679688zm0 0"/><path d="m419.574219 387.089844c-1.402344.875-3.023438 1.335937-4.675781 1.324218-2.304688.007813-4.519532-.878906-6.179688-2.472656-5.777344-4.507812-12.992188-6.765625-20.304688-6.355468-6.191406-.183594-12.308593 1.375-17.65625 4.503906-.945312.519531-1.832031 1.144531-2.648437 1.851562-3.511719 3.285156-8.980469 3.25-12.445313-.085937-.84375-.78125-1.792968-1.4375-2.824218-1.945313v-.085937c-5.335938-2.890625-11.324219-4.347657-17.390625-4.238281-6.53125-.199219-12.976563 1.519531-18.539063 4.945312-.628906.417969-1.21875.890625-1.765625 1.410156-3.511719 3.285156-8.980469 3.25-12.445312-.085937-1.074219-.9375-2.261719-1.738281-3.53125-2.386719-10.867188-5.359375-23.644531-5.160156-34.339844.53125-.9375.570312-1.824219 1.21875-2.648437 1.941406-3.511719 3.285156-8.980469 3.25-12.445313-.085937-.800781-.691407-1.65625-1.3125-2.5625-1.855469-5.367187-3.0625-11.476563-4.589844-17.65625-4.414062-5.796875-.113282-11.53125 1.222656-16.683594 3.882812-1.300781.671875-2.519531 1.503906-3.617187 2.472656-3.511719 3.285156-8.984375 3.25-12.449219-.085937-.085937-.089844-.617187-.53125-1.675781-1.324219-5.570313-3.414062-12.011719-5.128906-18.539063-4.945312-6.078125-.136719-12.082031 1.359374-17.390625 4.324218-1.039062.570313-2.019531 1.25-2.910156 2.03125-3.511719 3.285156-8.984375 3.25-12.449219-.085937-.789062-.675781-1.648437-1.269531-2.558593-1.765625-5.339844-3.140625-11.464844-4.703125-17.65625-4.503906-7.3125-.410157-14.527344 1.847656-20.304688 6.355468-2.996094 2.691406-7.394531 3.121094-10.855469 1.058594l3.089844-17.300781v-.089844c8.425781-5.195313 18.171875-7.863281 28.070313-7.679687 6.953124-.078126 13.851562 1.210937 20.304687 3.796874 2.125.859376 4.1875 1.863282 6.179687 3 3.753907-2.191406 7.792969-3.851562 12.003907-4.941406 11.574219-3.039062 23.8125-2.328125 34.957031 2.03125 2.082031.792969 4.089844 1.769532 6.003906 2.910156 3.714844-2.207031 7.730469-3.871093 11.917969-4.941406 4.75-1.269531 9.648437-1.894531 14.5625-1.855468 6.003906-.058594 11.972656.894531 17.65625 2.828124 3.078125.996094 6.039063 2.328126 8.828125 3.96875 2.789062-1.640624 5.75-2.972656 8.828125-3.96875 5.683594-1.933593 11.652344-2.886718 17.65625-2.828124 4.914063-.039063 9.816406.585937 14.5625 1.855468 4.191406 1.070313 8.203125 2.734375 11.917969 4.941406 1.914062-1.140624 3.921875-2.117187 6.003906-2.910156 11.144531-4.359375 23.382812-5.070312 34.957031-2.03125 4.210938 1.089844 8.25 2.75 12.003907 4.941406 1.992187-1.136718 4.054687-2.140624 6.179687-3 6.453125-2.585937 13.351563-3.875 20.304687-3.796874 9.9375-.171876 19.714844 2.523437 28.160157 7.769531zm0 0"/><path d="m427.253906 430.699219c-1.121094.453125-2.320312.691406-3.53125.703125-2.019531.019531-3.988281-.667969-5.558594-1.941406-6.691406-4.21875-14.527343-6.253907-22.421874-5.824219-6.5-.148438-12.953126 1.148437-18.890626 3.796875-1.222656.546875-2.375 1.226562-3.445312 2.027344-3.335938 2.578124-8.003906 2.542968-11.296875-.085938-.945313-.683594-1.949219-1.273438-3.003906-1.765625-6.027344-2.769531-12.609375-4.128906-19.242188-3.972656-6.566406-.136719-13.078125 1.191406-19.070312 3.882812-1.175781.539063-2.300781 1.1875-3.351563 1.941407-3.304687 2.578124-7.949218 2.542968-11.210937-.085938-.984375-.71875-2.050781-1.3125-3.179688-1.765625-5.957031-2.796875-12.488281-4.15625-19.066406-3.972656-6.59375-.132813-13.136719 1.191406-19.15625 3.882812-1.15625.523438-2.253906 1.175781-3.265625 1.941407-3.304688 2.578124-7.949219 2.542968-11.210938-.085938-.980468-.71875-2.050781-1.3125-3.179687-1.765625v-.089844c-6.011719-2.722656-12.558594-4.050781-19.15625-3.882812-6.5625-.136719-13.078125 1.191406-19.066406 3.882812-1.15625.523438-2.253907 1.175781-3.265625 1.941407-3.335938 2.578124-8.003906 2.542968-11.300782-.085938-.980468-.71875-2.046874-1.3125-3.175781-1.765625-5.960937-2.796875-12.488281-4.15625-19.070312-3.972656-6.632813-.144531-13.210938 1.210937-19.242188 3.972656-1.125.5-2.1875 1.121094-3.179687 1.851563-3.300782 2.578124-7.945313 2.542968-11.210938-.085938-1.042968-.765625-2.167968-1.417969-3.351562-1.941406-5.941406-2.648438-12.390625-3.945313-18.894532-3.796875-7.898437-.464844-15.746093 1.574219-22.421874 5.824219-2.542969 2.046874-6.003907 2.519531-9.003907 1.238281l3.179688-18.363281c8.761719-4.371094 18.457031-6.550782 28.246093-6.355469 7.265626-.046875 14.484376 1.117187 21.363282 3.441406 2.238281.796875 4.421875 1.742187 6.535156 2.828125 3.65625-1.855469 7.503906-3.308594 11.472656-4.328125 5.402344-1.320313 10.949219-1.972656 16.507813-1.941406 7.011719-.058594 13.988281 1.011719 20.65625 3.179687 2.515625.851563 4.964843 1.882813 7.328125 3.089844 3.324218-1.707031 6.816406-3.070312 10.417968-4.0625 5.707032-1.476562 11.582032-2.21875 17.476563-2.207031 6.488281-.070313 12.949219.851562 19.15625 2.738281 3.042969.90625 6 2.085938 8.828125 3.53125 2.828125-1.445312 5.785156-2.625 8.828125-3.53125 6.207031-1.886719 12.667969-2.808594 19.15625-2.738281 5.894531-.011719 11.769531.730469 17.476563 2.207031 3.601562.992188 7.09375 2.355469 10.417968 4.0625 2.363282-1.207031 4.8125-2.238281 7.328125-3.089844 6.667969-2.167968 13.644531-3.238281 20.65625-3.179687 5.558594-.03125 11.105469.621093 16.507813 1.941406 3.96875 1.019531 7.816406 2.472656 11.472656 4.328125 2.113281-1.085938 4.296875-2.03125 6.535156-2.828125 6.878906-2.324219 14.097656-3.488281 21.363282-3.441406 9.789062-.195313 19.484374 1.984375 28.246093 6.355469zm0 0"/><path d="m435.113281 476.25c-.816406.324219-1.6875.472656-2.5625.441406-2.144531.003906-4.21875-.78125-5.824219-2.207031-6.917968-4.738281-15.199218-7.066406-23.570312-6.621094-6.9375-.171875-13.8125 1.34375-20.039062 4.414063-1.265626.628906-2.476563 1.367187-3.617188 2.207031-3.378906 2.929687-8.410156 2.894531-11.742188-.089844-.753906-.589843-1.550781-1.121093-2.382812-1.589843-6.492188-3.4375-13.757812-5.140626-21.097656-4.941407-7.003906-.160156-13.941406 1.386719-20.214844 4.5-1.203125.570313-2.328125 1.28125-3.355469 2.121094-3.378906 2.929687-8.410156 2.894531-11.742187-.089844-.804688-.628906-1.660156-1.1875-2.558594-1.675781-6.464844-3.414062-13.703125-5.089844-21.011719-4.855469-7.136719-.171875-14.203125 1.4375-20.566406 4.675781-1.0625.546876-2.066406 1.199219-3 1.945313-3.378906 2.929687-8.410156 2.894531-11.742187-.089844-.882813-.746093-1.863282-1.371093-2.914063-1.855469-6.363281-3.238281-13.429687-4.847656-20.566406-4.675781-7.316407-.234375-14.566407 1.472657-21.011719 4.941407-.9375.464843-1.824219 1.027343-2.648438 1.679687-3.375 2.929687-8.40625 2.894531-11.738281-.089844-1.015625-.816406-2.109375-1.527343-3.269531-2.117187-6.289062-3.058594-13.21875-4.570313-20.214844-4.414063-7.339844-.199219-14.605468 1.503907-21.097656 4.941407-.882812.464843-1.710938 1.027343-2.46875 1.679687-3.378906 2.929687-8.410156 2.894531-11.742188-.089844-1.082031-.875-2.269531-1.617187-3.53125-2.207031-6.25-2.988281-13.113281-4.46875-20.039062-4.324219-8.375-.484375-16.671875 1.847657-23.570312 6.621094-2.324219 1.957031-5.488282 2.589844-8.386719 1.675781l3.355469-19.332031c8.847656-4.519531 18.667968-6.792969 28.601562-6.621094 7.707031-.078125 15.363281 1.238281 22.597656 3.882813 2.371094.890625 4.671875 1.953125 6.886719 3.179687 3.519531-1.949219 7.253906-3.488281 11.121094-4.589843 5.949219-1.671876 12.097656-2.503907 18.273437-2.472657 7.300782-.058593 14.558594 1.136719 21.453125 3.53125 2.753907.921875 5.414063 2.105469 7.945313 3.53125 3.132812-1.742187 6.449218-3.132812 9.886718-4.148437 6.339844-1.988282 12.953126-2.96875 19.597657-2.914063 6.988281-.058593 13.9375 1.046875 20.566406 3.265625 3.058594.984375 6.011719 2.253906 8.828125 3.796875 2.816406-1.542969 5.773438-2.8125 8.828125-3.796875 6.628906-2.21875 13.578125-3.324218 20.566406-3.265625 6.644531-.054687 13.257813.925781 19.597657 2.914063 3.4375 1.015625 6.753906 2.40625 9.886718 4.148437 2.53125-1.425781 5.191406-2.609375 7.945313-3.53125 6.894531-2.394531 14.152343-3.589843 21.453125-3.53125 6.175781-.03125 12.324218.800781 18.273437 2.472657 3.867188 1.101562 7.601563 2.640624 11.121094 4.589843 2.214844-1.226562 4.515625-2.289062 6.886719-3.179687 7.234375-2.644532 14.890625-3.960938 22.597656-3.882813 9.933594-.171875 19.753906 2.101563 28.601562 6.621094zm0 0"/><path d="m167.722656 326.621094c.015625.472656-.011718.945312-.085937 1.414062-1.589844 9.621094-3.53125 21.980469-5.5625 35.75-.96875 6.445313-1.941407 13.152344-2.914063 20.125-1.234375 7.859375-2.382812 15.890625-3.53125 24.011719-.882812 6.621094-1.851562 13.152344-2.734375 19.6875-1.238281 8.648437-2.382812 17.035156-3.445312 25.070313-1.058594 7.148437-1.941407 13.859374-2.824219 20.125-2.734375 20.039062-4.765625 34.957031-5.296875 39.195312h-17.742187c-.015626-.382812.015624-.769531.089843-1.148438.085938-.441406 2.117188-16.152343 5.207031-38.664062.792969-5.648438 1.589844-11.742188 2.558594-18.097656 1.0625-8.472656 2.296875-17.476563 3.710938-26.65625.792968-5.917969 1.585937-12.007813 2.46875-18.011719 1.148437-8.5625 2.382812-17.035156 3.621094-25.332031.882812-6.269532 1.765624-12.449219 2.648437-18.363282 2.207031-15.007812 4.324219-28.601562 6.089844-39.105468zm0 0"/><path d="m220.691406 326.621094c-.003906.714844-.089844 1.425781-.265625 2.117187-2.484375 11.570313-4.3125 23.269531-5.472656 35.046875-.707031 6.179688-1.414063 12.710938-2.121094 19.683594-.703125 7.945312-1.5 16.246094-2.292969 24.71875l-1.589843 19.332031c-.707031 8.738281-1.324219 17.390625-1.941407 25.601563-.53125 6.882812-.972656 13.503906-1.414062 19.683594-1.410156 20.746093-2.382812 36.105468-2.558594 39.195312h-17.65625v-.53125c.089844-1.941406 1.058594-17.566406 2.558594-39.191406.355469-5.828125.796875-12.007813 1.238281-18.539063.707031-8.296875 1.324219-17.125 2.03125-26.128906.527344-6.09375 1.058594-12.269531 1.585938-18.449219.707031-8.300781 1.503906-16.597656 2.296875-24.628906.617187-6.445312 1.234375-12.800781 1.941406-18.714844 1.855469-16.421875 3.796875-30.367187 5.738281-39.195312zm0 0"/><path d="m388.414062 512h-17.742187c-.53125-4.238281-2.5625-19.15625-5.296875-39.195312-.882812-6.265626-1.765625-12.976563-2.824219-20.125-1.0625-8.035157-2.207031-16.421876-3.445312-25.070313-.882813-6.535156-1.851563-13.066406-2.734375-19.6875-1.148438-8.121094-2.296875-16.152344-3.53125-24.011719v-.085937c-.972656-6.886719-1.941406-13.59375-2.914063-20.039063-2.03125-13.769531-3.972656-26.128906-5.5625-35.75-.074219-.46875-.101562-.941406-.085937-1.414062h17.742187c1.765625 10.503906 3.882813 24.097656 6.089844 39.105468.882813 5.914063 1.765625 12.09375 2.648437 18.363282 1.238282 8.296875 2.472657 16.769531 3.621094 25.332031.882813 6.003906 1.675782 12.09375 2.472656 18.011719 1.410157 9.179687 2.648438 18.183594 3.707032 26.65625.96875 6.445312 1.765625 12.535156 2.558594 18.1875 3.089843 22.507812 5.121093 38.132812 5.207031 38.574218.074219.378907.105469.765626.089843 1.148438zm0 0"/><path d="m326.621094 511.46875v.53125h-17.65625c-.265625-3.179688-1.148438-18.539062-2.558594-39.28125-.441406-6.09375-.882812-12.714844-1.414062-19.597656-.617188-8.210938-1.234376-16.773438-1.941407-25.511719-.527343-6.445313-1.058593-12.976563-1.589843-19.421875-.792969-8.472656-1.585938-16.773438-2.292969-24.71875-.707031-6.972656-1.414063-13.503906-2.121094-19.683594-1.160156-11.777344-2.988281-23.476562-5.472656-35.046875-.171875-.691406-.261719-1.402343-.265625-2.117187h17.921875c1.941406 8.828125 3.882812 22.773437 5.738281 39.195312.707031 5.914063 1.324219 12.269532 1.941406 18.714844.792969 8.03125 1.589844 16.328125 2.296875 24.628906.527344 6.179688 1.058594 12.269532 1.585938 18.359375.707031 9.003907 1.324219 17.832031 2.03125 26.21875.441406 6.53125.882812 12.800781 1.238281 18.625 1.5 21.628907 2.46875 37.164063 2.558594 39.105469zm0 0"/><path d="m247.171875 326.621094h17.65625v185.378906h-17.65625zm0 0"/></g><path d="m314.535156 201.992188c-21.605468 0-44.5625-15.300782-49.621094-50.671876-.191406-1.359374-.066406-2.742187.371094-4.042968.765625-2.320313 19.492188-57.066406 66.886719-76.023438 3.28125-1.300781 7.019531-.535156 9.519531 1.957032 2.066406 2.066406 20.238282 21.824218 20.238282 76.859374 1.664062 26.355469-17.875 49.277344-44.160157 51.808594-1.078125.078125-2.15625.113282-3.234375.113282zm-31.800781-51.039063c4.5 26.015625 21.03125 34.179687 33.773437 33.316406 17.0625-1.871093 29.441407-17.117187 27.769532-34.199219 0-33.433593-7.390625-51.613281-11.855469-59.542968-31.101563 16.050781-46.371094 51.773437-49.6875 60.425781zm0 0" fill="#2c2f38"/><path d="m197.464844 201.992188c-1.078125 0-2.15625-.035157-3.230469-.113282-26.289063-2.53125-45.828125-25.453125-44.164063-51.808594 0-55.035156 18.171876-74.792968 20.242188-76.863281 2.5-2.488281 6.234375-3.257812 9.515625-1.957031 47.394531 18.957031 66.117187 73.710938 66.886719 76.027344.4375 1.300781.5625 2.683594.371094 4.042968-5.050782 35.371094-28.027344 50.671876-49.621094 50.671876zm-17.894532-111.464844c-4.429687 7.871094-11.847656 26.050781-11.847656 59.542968-1.671875 17.078126 10.710938 32.324219 27.769532 34.195313 12.671874.871094 29.265624-7.300781 33.773437-33.300781-3.34375-8.65625-18.722656-44.429688-49.695313-60.4375zm0 0" fill="#2c2f38"/></svg>