<svg height="503pt" viewBox="0 0 503 503.6139" width="503pt" xmlns="http://www.w3.org/2000/svg"><path d="m182.726562 312.40625h138.847657v95.457031h-138.847657zm0 0" fill="#f29c1f"/><path d="m382.316406 130.167969v147.527343c.011719 16.113282-6.382812 31.570313-17.777344 42.964844-11.394531 11.394532-26.851562 17.792969-42.964843 17.78125h-138.847657c-16.117187.011719-31.574218-6.386718-42.96875-17.78125-11.394531-11.394531-17.789062-26.851562-17.777343-42.964844v-147.527343zm0 0" fill="#f0c419"/><path d="m156.691406 0h190.914063c19.171875 0 34.710937 15.542969 34.710937 34.710938v121.492187h-260.335937v-121.492187c0-19.167969 15.539062-34.710938 34.710937-34.710938zm0 0" fill="#2c3e50"/><path d="m408.171875 503.320312h82.265625c6.683594 0 13.625 2.34375 13.363281-6.246093-.691406-20.828125-15.53125-45.125-28.808593-60.226563-14.734376-17.792968-36.4375-28.359375-59.53125-28.984375h-326.804688c-23.09375.625-44.796875 11.191407-59.53125 28.984375-13.277344 15.101563-28.117188 39.398438-28.8125 60.226563-.2578125 8.589843 6.683594 6.246093 13.367188 6.246093zm0 0" fill="#35495e"/><path d="m434.386719 503.320312h-364.476563l29.402344-107.578124c3.007812-8.988282 11.785156-14.738282 21.222656-13.910157h263.28125c9.4375-.828125 18.214844 4.921875 21.226563 13.910157zm0 0" fill="#2c3e50"/><path d="m338.929688 381.832031s-5.382813 14.316407-11.28125 34.882813l-11.457032 50.332031c-2.050781 11.988281-3.15625 24.117187-3.296875 36.273437h-121.492187c-.140625-12.15625-1.246094-24.285156-3.296875-36.273437l-11.457031-50.332031c-5.898438-20.566406-11.28125-34.882813-11.28125-34.882813zm0 0" fill="#e6e7e8"/><path d="m95.945312 138.847656h312.40625c4.792969 0 8.679688 3.886719 8.679688 8.679688v17.355468c0 4.792969-3.886719 8.675782-8.679688 8.675782h-312.40625c-4.792968 0-8.679687-3.882813-8.679687-8.675782v-17.355468c0-4.792969 3.886719-8.679688 8.679687-8.679688zm0 0" fill="#35495e"/><path d="m278.183594 425.21875c17.773437-4.152344 35.816406-7.050781 53.996094-8.675781 15.425781 0 15.425781 26.035156 15.425781 26.035156s0 26.03125-15.425781 26.03125c-18.179688-1.625-36.222657-4.523437-53.996094-8.675781h-52.070313c-17.773437 4.152344-35.816406 7.050781-53.996093 8.675781-15.425782 0-15.425782-26.03125-15.425782-26.03125s0-26.035156 15.425782-26.035156c18.179687 1.625 36.222656 4.523437 53.996093 8.675781zm0 0" fill="#e64c3c"/><path d="m234.792969 416.542969h34.710937c4.792969 0 8.679688 3.882812 8.679688 8.675781v34.714844c0 4.792968-3.886719 8.675781-8.679688 8.675781h-34.710937c-4.792969 0-8.679688-3.882813-8.679688-8.675781v-34.714844c0-4.792969 3.886719-8.675781 8.679688-8.675781zm0 0" fill="#c03a2b"/><g fill="#2c2f38"><path d="m293.171875 286.371094c-7.011719 13.722656-28.894531 15.664062-40.851563 15.664062-11.980468 0-33.835937-1.941406-40.851562-15.664062 13.371094 3.296875 27.082031 5.015625 40.851562 5.121094 13.773438-.105469 27.484376-1.824219 40.851563-5.121094zm0 0"/><path d="m229.417969 196.027344c-8.246094-3.035156-16.90625-4.789063-25.683594-5.207032-11.800781-.894531-23.609375 1.625-34.019531 7.253907 1.1875-15.1875 36.394531-18.191407 53.605468-14.285157 2.730469.339844 5.105469 2.023438 6.332032 4.484376 1.226562 2.460937 1.136718 5.371093-.234375 7.753906zm0 0"/><path d="m226.113281 222.859375c0-10.273437-7.769531-18.601563-17.355469-18.601563-9.585937 0-17.355468 8.328126-17.355468 18.601563s7.769531 18.601563 17.355468 18.601563c9.585938 0 17.355469-8.328126 17.355469-18.601563zm0 0"/></g><path d="m213.625 206.71875c-4.480469-1.703125-9.492188.546875-11.195312 5.027344-1.707032 4.476562.542968 9.492187 5.023437 11.195312s9.492187-.546875 11.195313-5.027344c1.707031-4.480468-.542969-9.492187-5.023438-11.195312zm0 0" fill="#fff"/><path d="m274.878906 196.027344c8.246094-3.035156 16.910156-4.789063 25.6875-5.207032 11.796875-.894531 23.605469 1.625 34.015625 7.253907-1.1875-15.1875-36.394531-18.191407-53.605469-14.285157-2.730468.339844-5.105468 2.023438-6.332031 4.484376-1.226562 2.460937-1.136719 5.371093.234375 7.753906zm0 0" fill="#2c2f38"/><path d="m312.894531 222.859375c0-10.273437-7.769531-18.601563-17.355469-18.601563-9.585937 0-17.355468 8.328126-17.355468 18.601563s7.769531 18.601563 17.355468 18.601563c9.585938 0 17.355469-8.328126 17.355469-18.601563zm0 0" fill="#2c2f38"/><path d="m301.867188 211.746094c-1.703126-4.480469-6.714844-6.730469-11.195313-5.027344s-6.730469 6.714844-5.023437 11.195312c1.703124 4.480469 6.714843 6.730469 11.195312 5.027344s6.730469-6.714844 5.023438-11.195312zm0 0" fill="#fff"/></svg>