<svg height="512pt" viewBox="0 -13 512.00027 512" width="512pt" xmlns="http://www.w3.org/2000/svg"><path d="m185.378906 264.828125h141.242188v79.449219h-141.242188zm0 0" fill="#c03a2b"/><path d="m414.898438 485.515625h97.101562v-7.855469c.015625-11.304687-1.347656-22.570312-4.0625-33.542968l-8.207031-33.28125c-9.523438-34.714844-41.429688-58.507813-77.417969-57.730469h-332.625c-35.988281-.777344-67.894531 23.015625-77.417969 57.730469l-8.207031 33.28125c-2.714844 10.972656-4.078125 22.238281-4.0625 33.542968v7.855469zm0 0" fill="#2c2f38"/><path d="m441.378906 485.515625h-370.757812l29.925781-144.769531c3.046875-9.125 11.957031-14.96875 21.539063-14.125h267.828124c9.605469-.84375 18.539063 4.992187 21.628907 14.125zm0 0" fill="#e64c3c"/><path d="m220.691406 0h70.617188c4.878906 0 8.828125 3.953125 8.828125 8.828125v44.136719h-88.273438v-44.136719c0-4.875 3.949219-8.828125 8.828125-8.828125zm0 0" fill="#c03a2b"/><path d="m208.078125 430.589844s-15.972656 15.695312-23.960937 54.925781h-95.839844l27.074218-128.683594c2.835938-8.167969 10.878907-13.351562 19.488282-12.554687h41.292968s-31.949218 31.386718-23.960937 70.621094c7.984375 39.230468 31.945313-7.847657 31.945313-7.847657zm0 0" fill="#2c2f38"/><path d="m423.722656 485.515625h-95.839844c-7.988281-39.230469-23.960937-54.925781-23.960937-54.925781l23.960937-23.539063s23.960938 47.078125 31.945313 7.847657c7.988281-39.234376-23.960937-70.621094-23.960937-70.621094h41.292968c8.628906-.796875 16.695313 4.378906 19.570313 12.554687zm0 0" fill="#2c2f38"/><path d="m359.828125 414.898438c-7.984375 39.230468-31.945313-7.847657-31.945313-7.847657l-23.960937 23.539063s15.976563 15.695312 23.960937 54.925781h-143.765624c7.988281-39.230469 23.960937-54.925781 23.960937-54.925781l-23.960937-23.539063s-23.960938 47.078125-31.945313 7.847657c-7.988281-39.234376 23.960937-70.621094 23.960937-70.621094h159.734376s31.949218 31.386718 23.960937 70.621094zm0 0" fill="#e64c3c"/><path d="m185.378906 35.308594h141.242188c34.128906 0 61.792968 27.667968 61.792968 61.796875v123.585937c0 34.125-27.664062 61.792969-61.792968 61.792969h-141.242188c-34.125 0-61.792968-27.667969-61.792968-61.792969v-123.585937c0-34.128907 27.667968-61.796875 61.792968-61.796875zm0 0" fill="#e64c3c"/><path d="m353.105469 167.722656c0 35.3125-8.828125 70.621094-44.140625 70.621094-27.71875 0-33.632813-48.902344-34.957032-70-.351562-5.738281-.351562-9.445312-.351562-9.445312s1.058594-3.179688 3-8.300782c7.59375-20.300781 28.777344-71.148437 49.964844-71.148437 19.773437 0 26.484375 52.964843 26.484375 88.273437zm0 0" fill="#2c2f38"/><path d="m238.34375 158.898438s0 3.707031-.351562 9.445312c-1.324219 21.097656-7.238282 70-34.957032 70-35.3125 0-44.136718-35.308594-44.136718-70.621094 0-35.308594 6.707031-88.273437 26.480468-88.273437 21.1875 0 42.460938 50.933593 49.964844 71.238281 1.941406 5.03125 3 8.210938 3 8.210938zm0 0" fill="#2c2f38"/><g fill="#e6e7e8"><path d="m238.34375 158.898438s0 3.707031-.351562 9.445312c-3.523438 1.046875-7.179688 1.582031-10.859376 1.585938-11.558593-.171876-22.539062-5.085938-30.367187-13.59375-3.4375-3.464844-3.425781-9.058594.027344-12.507813 3.449219-3.453125 9.042969-3.464844 12.507812-.027344 5.949219 7.527344 16.027344 10.433594 25.070313 7.238281.308594-.15625.636718-.273437.972656-.351562 1.941406 5.03125 3 8.210938 3 8.210938zm0 0"/><path d="m315.234375 156.335938c-7.855469 8.472656-18.820313 13.378906-30.367187 13.59375-3.675782-.003907-7.335938-.539063-10.859376-1.585938-.351562-5.738281-.351562-9.445312-.351562-9.445312s1.058594-3.179688 3-8.300782c.3125.0625.613281.183594.882812.355469 9.050782 3.277344 19.1875.398437 25.160157-7.152344 3.464843-3.4375 9.058593-3.425781 12.507812.027344 3.453125 3.449219 3.464844 9.042969.027344 12.507813zm0 0"/></g></svg>