<svg height="512pt" viewBox="0 0 512 512" width="512pt" xmlns="http://www.w3.org/2000/svg"><path d="m185.378906 317.792969h141.242188v79.449219h-141.242188zm0 0" fill="#f29c1f"/><path d="m512 504.144531v7.855469h-512v-7.855469c2.441406-13.894531 6.5625-27.441406 12.269531-40.34375 9.523438-34.714843 41.429688-58.507812 77.417969-57.730469h332.625c35.988281-.777343 67.894531 23.015626 77.417969 57.730469 5.707031 12.902344 9.828125 26.449219 12.269531 40.34375zm0 0" fill="#f0c419"/><path d="m344.277344 379.585938-19.863282 26.484374-9.269531 12.355469-5.296875 7.0625c-.085937 0-.175781.089844-.265625.089844-1.941406.53125-3.972656 1.148437-6.179687 1.589844-2.207032.617187-4.589844 1.148437-7.058594 1.589843-3.445312.703126-7.152344 1.320313-11.035156 1.851563-1.589844.175781-3.265625.441406-4.945313.617187-2.472656.265626-4.941406.53125-7.589843.707032-.972657.089844-2.03125.175781-3.089844.175781-1.761719.183594-3.527344.269531-5.296875.265625-.851563.074219-1.707031.105469-2.558594.089844-1.945313.085937-3.886719.085937-5.828125.085937s-3.882812 0-5.828125-.085937c-.851563.015625-1.707031-.015625-2.558594-.089844-1.769531.003906-3.535156-.082031-5.296875-.265625-1.058594 0-2.117187-.085937-3.089844-.175781-2.648437-.175782-5.117187-.441406-7.589843-.707032-1.679688-.175781-3.355469-.441406-4.945313-.617187-3.882812-.53125-7.589844-1.148437-11.035156-1.851563-2.46875-.441406-4.851562-.972656-7.058594-1.589843h-.179687c-2.117188-.53125-4.148438-1.058594-6-1.589844h-.179688l-.085937-.089844-5.296875-7.0625-9.269531-12.355469-19.863282-26.484374zm0 0" fill="#f0c419"/><path d="m220.691406 450.207031v61.792969h-150.070312l26.835937-105.929688 3.089844-12.359374c3.046875-9.125 11.957031-14.96875 21.539063-14.125h19.15625c0 1.941406 0 3.796874.085937 5.648437 0 1.324219.089844 2.648437.089844 3.886719.175781 2.824218.351562 5.472656.53125 8.121094.175781 1.324218.261719 2.648437.441406 3.882812.175781 1.679688.351563 3.355469.617187 4.945312.441407 3.175782.882813 6.179688 1.5 9.089844.882813 4.328125 1.855469 8.476563 2.914063 12.273438.351563 1.234375.703125 2.46875 1.058594 3.707031l.792969 2.382813c.066406.394531.183593.78125.355468 1.148437.527344 1.675781 1.144532 3.265625 1.765625 4.765625 1.582031 4.265625 3.441407 8.421875 5.558594 12.445312.265625.53125.53125.972657.796875 1.503907 2.03125 3.796875 4.363281 7.425781 6.972656 10.855469.089844.175781.265625.355468.351563.53125.320312.328124.617187.683593.882812 1.058593 1.0625 1.324219 1.765625 2.03125 1.765625 2.03125.125-.144531.273438-.265625.441406-.355469.582032-.65625 1.234376-1.246093 1.945313-1.765624 2.832031-2.417969 5.945313-4.492188 9.265625-6.179688 1.148438-.527344 2.296875-1.144531 3.445312-1.675781 3.070313-1.328125 6.226563-2.449219 9.445313-3.355469 1.410156-.441406 2.914063-.792969 4.324219-1.144531 1.238281-.355469 2.472656-.621094 3.621094-.882813.882812-.179687 1.765624-.355468 2.648437-.441406 1.324219-.265625 2.558594-.441406 3.792969-.707031.59375-.011719 1.183594-.070313 1.765625-.175781.621093-.089844 1.148437-.179688 1.765625-.265626 3.488281-.414062 6.996094-.648437 10.507812-.707031zm0 0" fill="#2c2f38"/><path d="m220.691406 450.207031c-3.511718.058594-7.019531.292969-10.507812.707031-.527344.085938-1.144532.175782-1.765625.265626-.582031.105468-1.171875.164062-1.765625.175781-1.234375.175781-2.46875.441406-3.792969.707031-.882813.085938-1.765625.261719-2.648437.441406-1.238282.261719-2.382813.527344-3.621094.882813-1.410156.261719-2.824219.703125-4.324219 1.144531-3.21875.90625-6.375 2.027344-9.445313 3.355469-1.148437.53125-2.296874 1.058593-3.445312 1.675781-3.320312 1.6875-6.433594 3.761719-9.265625 6.179688-.710937.519531-1.363281 1.109374-1.945313 1.765624-.167968.089844-.316406.210938-.441406.355469 0 0-.703125-.707031-1.765625-2.03125-.308593-.339843-.605469-.691406-.882812-1.058593-.085938-.175782-.261719-.355469-.351563-.53125-2.609375-3.429688-4.941406-7.058594-6.972656-10.855469-.265625-.441407-.53125-.972657-.796875-1.503907-2.117187-4.023437-3.976563-8.179687-5.558594-12.445312-.621093-1.5-1.148437-3.089844-1.765625-4.765625-.171875-.367187-.289062-.753906-.355468-1.148437l-.792969-2.382813c-.355469-1.238281-.707031-2.472656-1.058594-3.707031-.21875-.667969-.394531-1.34375-.53125-2.03125-.882813-3.265625-1.675781-6.710938-2.382813-10.242188-.617187-2.910156-1.058593-5.914062-1.5-9.089844-.265624-1.589843-.441406-3.265624-.617187-4.945312-.179687-1.234375-.265625-2.558594-.441406-3.882812-.179688-2.648438-.355469-5.296876-.53125-8.121094 0-1.238282-.089844-2.5625-.089844-3.886719-.085937-1.851563-.085937-3.707031-.085937-5.648437h26.480468l19.863282 26.484374 9.269531 12.355469 5.296875 7.0625.085937.089844 7.945313 10.59375.441406.527344v.089843l3.621094 4.855469zm0 0" fill="#2c2f38"/><path d="m441.378906 512h-150.070312v-61.792969c3.511718.058594 7.019531.292969 10.507812.707031 15.574219 1.070313 30.425782 7 42.460938 16.949219 0 0 18.800781-18.804687 24.714844-61.792969 1.21875-8.777343 1.808593-17.625 1.765624-26.484374h19.15625c9.605469-.84375 18.539063 4.992187 21.628907 14.125l3.089843 12.359374zm0 0" fill="#2c2f38"/><path d="m370.757812 379.585938c0 1.941406 0 3.796874-.085937 5.648437 0 1.324219-.089844 2.648437-.089844 3.886719-.175781 2.824218-.351562 5.472656-.53125 8.121094-.175781 1.324218-.261719 2.648437-.441406 3.882812-.175781 1.679688-.351563 3.355469-.617187 4.945312-.441407 3.175782-.882813 6.179688-1.5 9.089844-.734376 4.144532-1.707032 8.242188-2.914063 12.273438-.351563 1.234375-.703125 2.46875-1.058594 3.707031-.007812.066406-.039062.128906-.085937.175781-.355469 1.148438-.707032 2.292969-1.0625 3.355469-.617188 1.675781-1.144532 3.265625-1.765625 4.765625-1.582031 4.265625-3.441407 8.421875-5.558594 12.445312-.375.757813-.789063 1.496094-1.238281 2.207032-1.855469 3.4375-3.949219 6.742187-6.265625 9.886718l-.265625.265626c-.089844.175781-.265625.355468-.351563.53125-.277343.367187-.574219.71875-.882812 1.058593-1.0625 1.324219-1.765625 2.03125-1.765625 2.03125-1.066406-1.09375-2.21875-2.097656-3.445313-3.003906-2.542969-2.046875-5.292969-3.824219-8.207031-5.296875-1.148438-.617188-2.296875-1.144531-3.445312-1.675781-3.070313-1.328125-6.226563-2.449219-9.445313-3.355469-1.5-.441406-2.914063-.882812-4.324219-1.144531-1.238281-.355469-2.382812-.621094-3.621094-.882813-.882812-.179687-1.765624-.355468-2.648437-.441406-.957031-.25-1.929687-.425781-2.910156-.53125-.355469-.089844-.796875-.089844-1.148438-.175781-1.148437-.175781-2.207031-.355469-3.265625-.441407-3.488281-.414062-6.996094-.648437-10.507812-.707031l6.445312-8.5625 3.621094-4.855469v-.089843l8.472656-11.210938 5.296875-7.0625 9.269531-12.355469 19.863282-26.484374zm0 0" fill="#2c2f38"/><path d="m305.789062 88.277344h20.832032c16.390625-.011719 32.117187 6.492187 43.707031 18.085937 11.589844 11.589844 18.097656 27.3125 18.085937 43.707031v123.585938c.011719 16.390625-6.496093 32.117188-18.085937 43.707031-11.589844 11.589844-27.316406 18.097657-43.707031 18.085938h-141.242188c-16.390625.011719-32.117187-6.496094-43.707031-18.085938-11.589844-11.589843-18.097656-27.316406-18.085937-43.707031v-123.585938c-.011719-16.394531 6.496093-32.117187 18.085937-43.707031 11.589844-11.59375 27.316406-18.097656 43.707031-18.085937zm0 0" fill="#f0c419"/><path d="m256 0c24.878906 0 62.867188 74.320312 49.753906 88.277344-16.582031 17.652344-41.460937 52.964844-49.753906 52.964844s-33.171875-35.3125-49.753906-52.964844c-13.113282-13.957032 24.875-88.277344 49.753906-88.277344zm0 0" fill="#e64c3c"/><path d="m309.847656 425.488281-8.472656 11.210938v.089843l-3.621094 4.855469-6.445312 8.5625v61.792969h-70.617188v-61.792969l-6.445312-8.5625-3.621094-4.855469v-.089843l-8.472656-11.210938c.085937 0 .175781.089844.265625.089844 1.851562.53125 3.882812 1.058594 6 1.589844h.179687c2.207032.617187 4.589844 1.148437 7.058594 1.589843 3.445312.703126 7.152344 1.320313 11.035156 1.851563 1.589844.175781 3.265625.441406 4.945313.617187 2.472656.265626 4.941406.53125 7.589843.707032.972657.089844 2.03125.175781 3.089844.175781 1.761719.183594 3.527344.269531 5.296875.265625.851563.074219 1.707031.105469 2.558594.089844 1.945313.085937 3.886719.085937 5.828125.085937s3.882812 0 5.828125-.085937c.851563.015625 1.707031-.015625 2.558594-.089844 1.769531.003906 3.535156-.082031 5.296875-.265625 1.058594 0 2.117187-.085937 3.089844-.175781 2.648437-.175782 5.117187-.441406 7.589843-.707032 1.679688-.175781 3.355469-.441406 4.945313-.617187 3.882812-.53125 7.589844-1.148437 11.035156-1.851563 2.46875-.441406 4.851562-.972656 7.058594-1.589843 2.207031-.441407 4.238281-1.058594 6.179687-1.589844.089844 0 .179688-.089844.265625-.089844zm0 0" fill="#5e5f62"/><g fill="#95a5a5"><path d="m229.515625 450.207031v61.792969h-17.652344v-58.878906l-1.679687-2.207032-6.089844-8.121093-9.003906-12.09375c-.316406-.347657-.582032-.734375-.792969-1.148438l-17.746094-23.480469-15.890625-21.1875c-1.128906-1.535156-1.746094-3.390624-1.761718-5.296874h19.859374l19.863282 26.484374 8.652344 11.652344.085937.085938 8.296875 10.949218 7.683594 10.328126 3.617187 4.851562c1.640625 1.675781 2.558594 3.925781 2.558594 6.269531zm0 0"/><path d="m229.515625 450.207031c-.011719 4.871094-3.957031 8.8125-8.824219 8.828125-2.953125.046875-5.898437.25-8.828125.617188-13.824219.757812-27.066406 5.820312-37.871093 14.476562-3.480469 3.414063-9.054688 3.414063-12.535157 0-.972656-1.058594-21.363281-21.890625-27.367187-68.058594-1.136719-8.78125-1.695313-17.628906-1.675782-26.484374h17.65625c-.019531 8.859374.597657 17.710937 1.851563 26.484374 2.171875 17.46875 8.074219 34.265626 17.304687 49.257813 10.628907-6.542969 22.503907-10.8125 34.867188-12.535156 3.972656-.53125 7.414062-.882813 10.152344-1.148438 3.707031-.265625 6.089844-.265625 6.445312-.265625 2.347656-.023437 4.605469.898438 6.265625 2.558594 1.660157 1.660156 2.585938 3.921875 2.558594 6.269531zm0 0"/><path d="m353.101562 379.585938c-.015624 1.90625-.632812 3.761718-1.761718 5.296874l-15.890625 21.1875-17.746094 23.480469c-.210937.414063-.476563.800781-.792969 1.148438l-9.003906 12.09375-6.089844 8.121093-1.679687 2.207032v58.878906h-17.652344v-61.792969c0-2.34375.917969-4.59375 2.558594-6.269531l3.617187-4.851562 7.683594-10.328126 8.296875-10.949218.085937-.085938 8.652344-11.652344 19.863282-26.484374zm0 0"/><path d="m379.585938 379.585938c.019531 8.855468-.539063 17.703124-1.675782 26.484374-6.003906 46.167969-26.394531 67-27.367187 68.058594-3.480469 3.414063-9.054688 3.414063-12.535157 0-10.832031-8.605468-24.058593-13.664062-37.871093-14.476562-2.925781-.375-5.875-.582032-8.828125-.617188-4.867188-.015625-8.8125-3.957031-8.824219-8.828125-.027344-2.347656.898437-4.609375 2.558594-6.269531 1.660156-1.660156 3.917969-2.582031 6.265625-2.558594.355468 0 2.738281 0 6.445312.265625 2.738282.175781 6.179688.527344 10.152344 1.148438 12.363281 1.722656 24.238281 5.992187 34.867188 12.535156 9.261718-14.976563 15.167968-31.78125 17.304687-49.257813 1.25-8.773437 1.871094-17.625 1.851563-26.484374zm0 0"/><path d="m256 441.378906c-19.03125.203125-37.996094-2.292968-56.328125-7.414062-3.027344-.886719-5.351563-3.320313-6.097656-6.382813-.75-3.066406.195312-6.296875 2.476562-8.476562 2.28125-2.179688 5.550781-2.976563 8.578125-2.089844 16.722656 4.648437 34.015625 6.910156 51.371094 6.707031 17.355469.203125 34.648438-2.058594 51.371094-6.707031 4.679687-1.371094 9.582031 1.316406 10.953125 5.996094 1.367187 4.679687-1.316407 9.582031-5.996094 10.953125-18.332031 5.121094-37.296875 7.617187-56.328125 7.414062zm0 0"/></g><path d="m301.242188 251.035156c-4.867188 15.023438-27.769532 22.402344-40.171876 24.574219-12.425781 2.175781-35.441406 4.203125-45.121093-8.273437 14.464843.871093 28.980469.101562 43.273437-2.289063 14.480469-3.109375 28.570313-7.808594 42.019532-14.011719zm0 0" fill="#2c2f38"/><path d="m231.214844 178.449219c-7.65625-4.613281-15.972656-8.03125-24.664063-10.132813-11.617187-3.160156-23.898437-2.910156-35.378906.710938 4.101563-14.941406 39.851563-11.179688 56.292969-3.972656 2.664062.863281 4.714844 3 5.46875 5.691406.753906 2.695312.109375 5.585937-1.71875 7.703125zm0 0" fill="#2c2f38"/><path d="m229.515625 195.804688c0-10.449219-7.902344-18.921876-17.652344-18.921876s-17.65625 8.472657-17.65625 18.921876c0 10.453124 7.90625 18.925781 17.65625 18.925781s17.652344-8.472657 17.652344-18.925781zm0 0" fill="#2c2f38"/><path d="m216.8125 179.386719c-4.558594-1.734375-9.65625.554687-11.390625 5.113281-1.734375 4.554688.554687 9.65625 5.113281 11.386719 4.558594 1.734375 9.65625-.554688 11.390625-5.109375 1.730469-4.558594-.558593-9.65625-5.113281-11.390625zm0 0" fill="#fff"/><path d="m279.839844 180.300781c6.261718-8.246093 14.957031-14.304687 24.859375-17.320312 13.3125-3.550781 27.476562.945312 36.304687 11.527343-.136718-.132812.136719-2.949218.085938-3.386718-.144532-1.144532-.453125-2.261719-.917969-3.316406-1.039063-2.253907-2.566406-4.25-4.46875-5.839844-4.738281-3.851563-10.378906-6.429688-16.390625-7.496094-7.988281-1.804688-16.316406-1.394531-24.082031 1.191406-4.679688 1.617188-8.984375 4.152344-12.664063 7.464844-3.242187 2.964844-8.042968 8.429688-5.957031 13.402344.964844 1.351562 2.046875 2.613281 3.230469 3.773437zm0 0" fill="#2c2f38"/><path d="m317.792969 195.804688c0-10.449219-7.90625-18.921876-17.65625-18.921876s-17.652344 8.472657-17.652344 18.921876c0 10.453124 7.902344 18.925781 17.652344 18.925781s17.65625-8.472657 17.65625-18.925781zm0 0" fill="#2c2f38"/><path d="m306.578125 184.5c-1.734375-4.558594-6.832031-6.847656-11.390625-5.113281-4.554688 1.734375-6.84375 6.832031-5.113281 11.390625 1.734375 4.554687 6.832031 6.84375 11.390625 5.113281 4.554687-1.734375 6.84375-6.835937 5.113281-11.390625zm0 0" fill="#fff"/></svg>