<svg height="512pt" viewBox="0 0 512.00027 512" width="512pt" xmlns="http://www.w3.org/2000/svg"><path d="m512 504.144531v7.855469h-512v-7.855469c-.015625-11.304687 1.347656-22.570312 4.0625-33.546875l8.207031-24.453125c9.523438-34.710937 41.429688-58.507812 77.417969-57.730469h332.625c35.988281-.777343 67.894531 23.019532 77.417969 57.730469l8.207031 24.453125c2.714844 10.976563 4.078125 22.242188 4.0625 33.546875zm0 0" fill="#46b29d"/><path d="m185.378906 300.136719h141.242188v79.449219h-141.242188zm0 0" fill="#f29c1f"/><path d="m388.414062 211.863281s11.449219-7.867187 26.484376-52.964843c8.824218-26.484376 8.824218-52.96875 0-70.621094-12.484376-24.96875-35.3125-35.3125-44.140626-61.792969-11.378906.632813-21.519531 7.394531-26.480468 17.652344 0 0 0-26.480469-35.3125-26.480469-19.238282.914062-38.125-5.378906-52.964844-17.65625-20.058594 5.925781-40.875 8.898438-61.792969 8.828125-35.308593 0-44.136719 26.480469-44.136719 26.480469-4.582031-5.035156-10.878906-8.183594-17.65625-8.824219 0 26.480469-22.828124 27.996094-35.308593 52.964844-8.828125 17.65625-17.65625 35.308593 0 79.449219 17.652343 44.136718 26.480469 52.964843 26.480469 52.964843zm0 0" fill="#805333"/><path d="m135.152344 138.769531c-.621094 1.058594-1.0625 2.117188-1.589844 3.089844-6.679688 14.03125-10.089844 29.394531-9.976562 44.933594v69.207031c-.011719 16.390625 6.496093 32.117188 18.085937 43.707031 11.589844 11.589844 27.316406 18.097657 43.707031 18.085938h141.242188c16.390625.011719 32.117187-6.496094 43.707031-18.085938 11.589844-11.589843 18.097656-27.316406 18.085937-43.707031v-69.207031c.113282-15.539063-3.296874-30.902344-9.976562-44.933594-.527344-.972656-.96875-2.03125-1.585938-3.089844zm0 0" fill="#f0c419"/><path d="m441.378906 512h-370.757812l27.1875-123.585938 2.738281-12.359374c3.046875-9.125 11.957031-14.964844 21.539063-14.125h267.828124c9.605469-.84375 18.539063 4.992187 21.628907 14.125l2.734375 12.359374zm0 0" fill="#9bc8c2"/><path d="m301.816406 88.277344h68.941406c4.871094.011718 8.816407 3.957031 8.828126 8.828125v35.308593c-.03125 4.863282-3.964844 8.796876-8.828126 8.828126h-229.515624c-4.863282-.03125-8.796876-3.964844-8.828126-8.828126v-35.308593c.015626-4.871094 3.957032-8.816407 8.828126-8.828125zm0 0" fill="#9bc8c2"/><path d="m308.964844 114.757812c0 29.253907-23.710938 52.964844-52.964844 52.964844-29.25 0-52.964844-23.710937-52.964844-52.964844 0-29.25 23.714844-52.964843 52.964844-52.964843 29.253906 0 52.964844 23.714843 52.964844 52.964843zm0 0" fill="#95a5a5"/><path d="m273.65625 114.757812c0 9.75-7.90625 17.65625-17.65625 17.65625s-17.65625-7.90625-17.65625-17.65625 7.90625-17.652343 17.65625-17.652343 17.65625 7.902343 17.65625 17.652343zm0 0" fill="#fff"/><path d="m308.964844 361.929688-18.714844 26.484374-29.128906 41.3125-5.121094 7.238282-5.121094-7.238282-29.128906-41.3125-18.714844-26.484374zm0 0" fill="#f0c419"/><g fill="#e6e7e8"><path d="m264.828125 436.964844v75.035156h-17.65625v-75.035156c0-4.875 3.953125-8.828125 8.828125-8.828125s8.828125 3.953125 8.828125 8.828125zm0 0"/><path d="m273.65625 479.136719h-17.65625c-4.875 0-8.828125-3.953125-8.828125-8.828125s3.953125-8.824219 8.828125-8.824219h17.65625c4.875 0 8.828125 3.949219 8.828125 8.824219s-3.953125 8.828125-8.828125 8.828125zm0 0"/><path d="m317.792969 361.929688c-.007813 1.828124-.5625 3.609374-1.589844 5.121093l-15.09375 21.363281-36.28125 51.464844-1.589844 2.207032c-1.675781 2.328124-4.367187 3.710937-7.238281 3.710937s-5.5625-1.382813-7.238281-3.710937l-1.589844-2.207032-36.28125-51.464844-15.09375-21.363281c-1.027344-1.511719-1.582031-3.292969-1.589844-5.121093h19.683594l18.628906 26.484374 23.480469 33.28125 23.480469-33.28125 18.628906-26.484374zm0 0"/></g><path d="m297.734375 264.828125c-7.132813 13.957031-29.398437 15.929687-41.558594 15.929687-12.1875 0-34.421875-1.972656-41.554687-15.929687 13.601562 3.351563 27.546875 5.097656 41.554687 5.207031 14.007813-.109375 27.957031-1.855468 41.558594-5.207031zm0 0" fill="#2c2f38"/><path d="m232.878906 172.921875c-8.390625-3.082031-17.199218-4.871094-26.128906-5.296875-12.003906-.90625-24.015625 1.65625-34.605469 7.378906 1.207031-15.445312 37.023438-18.5 54.53125-14.527344 2.777344.34375 5.191407 2.058594 6.441407 4.558594 1.246093 2.503906 1.15625 5.464844-.238282 7.886719zm0 0" fill="#2c2f38"/><path d="m229.515625 200.21875c0-10.449219-7.902344-18.921875-17.652344-18.921875s-17.65625 8.472656-17.65625 18.921875c0 10.453125 7.90625 18.925781 17.65625 18.925781s17.652344-8.472656 17.652344-18.925781zm0 0" fill="#2c2f38"/><path d="m216.816406 183.796875c-4.554687-1.734375-9.65625.554687-11.386718 5.113281-1.734376 4.554688.554687 9.65625 5.109374 11.386719 4.558594 1.734375 9.65625-.554687 11.390626-5.113281 1.734374-4.554688-.554688-9.65625-5.113282-11.386719zm0 0" fill="#fff"/><path d="m279.121094 172.921875c8.390625-3.082031 17.203125-4.871094 26.128906-5.296875 12.003906-.90625 24.015625 1.65625 34.605469 7.378906-1.207031-15.445312-37.023438-18.5-54.53125-14.527344-2.773438.34375-5.191407 2.058594-6.441407 4.558594-1.246093 2.503906-1.15625 5.464844.238282 7.886719zm0 0" fill="#2c2f38"/><path d="m317.792969 200.21875c0-10.449219-7.902344-18.921875-17.65625-18.921875-9.75 0-17.652344 8.472656-17.652344 18.921875 0 10.453125 7.902344 18.925781 17.652344 18.925781 9.753906 0 17.65625-8.472656 17.65625-18.925781zm0 0" fill="#2c2f38"/><path d="m306.578125 188.914062c-1.734375-4.558593-6.832031-6.847656-11.390625-5.113281-4.554688 1.734375-6.84375 6.832031-5.113281 11.386719 1.734375 4.558594 6.835937 6.847656 11.390625 5.113281 4.558594-1.730469 6.847656-6.832031 5.113281-11.386719zm0 0" fill="#fff"/></svg>