<svg height="512pt" viewBox="0 0 512.00027 512" width="512pt" xmlns="http://www.w3.org/2000/svg"><path d="m185.378906 291.308594h141.242188v105.933594h-141.242188zm0 0" fill="#f29c1f"/><path d="m388.414062 211.863281s11.449219-7.867187 26.484376-52.964843c8.824218-26.484376 8.824218-52.96875 0-70.621094-12.484376-24.96875-35.3125-35.3125-44.140626-61.792969-11.378906.632813-21.519531 7.394531-26.480468 17.652344 0 0 0-26.480469-35.3125-26.480469-19.238282.914062-38.125-5.378906-52.964844-17.65625-20.058594 5.925781-40.875 8.898438-61.792969 8.828125-35.308593 0-44.136719 26.480469-44.136719 26.480469-4.582031-5.035156-10.878906-8.183594-17.65625-8.824219 0 26.480469-22.828124 27.996094-35.308593 52.964844-8.828125 17.65625-17.65625 35.308593 0 79.449219 17.652343 44.136718 26.480469 52.964843 26.480469 52.964843zm0 0" fill="#805333"/><path d="m388.414062 186.792969c.113282-15.539063-3.296874-30.902344-9.976562-44.933594-8.386719-17.214844-22.421875-37.871094-42.988281-44.753906-26.484375-8.828125-44.140625 8.824219-79.449219 8.824219s-52.964844-17.652344-79.449219-8.824219c-20.566406 6.882812-34.601562 27.539062-42.988281 44.753906-6.679688 14.03125-10.089844 29.394531-9.976562 44.933594v60.378906c-.011719 16.394531 6.496093 32.117187 18.085937 43.707031 11.589844 11.59375 27.316406 18.097656 43.707031 18.085938h141.242188c16.390625.011718 32.117187-6.492188 43.707031-18.085938 11.589844-11.589844 18.097656-27.3125 18.085937-43.707031zm0 0" fill="#f0c419"/><path d="m512 504.144531v7.855469h-512v-7.855469c-.015625-11.304687 1.347656-22.570312 4.0625-33.546875l8.207031-33.277344c9.523438-34.714843 41.429688-58.511718 77.417969-57.734374h332.625c35.988281-.777344 67.894531 23.019531 77.417969 57.734374l8.207031 33.277344c2.714844 10.976563 4.078125 22.242188 4.0625 33.546875zm0 0" fill="#46b29d"/><path d="m441.378906 512h-370.757812l26.746094-132.414062.621093-3.265626 2.558594-12.625c.992187-4.460937 3.808594-8.304687 7.769531-10.589843h295.371094c3.957031 2.304687 6.792969 6.132812 7.855469 10.589843l2.558593 12.625.617188 3.265626zm0 0" fill="#9bc8c2"/><path d="m203.035156 353.105469 52.964844 79.445312 52.964844-79.445312" fill="#f0c419"/><path d="m167.722656 353.105469v61.792969c0 4.875-3.949218 8.824218-8.824218 8.824218-4.878907 0-8.828126-3.949218-8.828126-8.824218v-61.792969zm0 0" fill="#67b9cc"/><path d="m176.550781 485.515625c-4.875 0-8.828125-3.949219-8.828125-8.824219 0-4.878906 3.953125-8.828125 8.828125-8.828125 4.875-.003906 8.824219-3.957031 8.828125-8.828125v-17.65625c-.011718-9.746094-7.910156-17.644531-17.65625-17.65625h-17.652344c-9.746093.011719-17.644531 7.910156-17.65625 17.65625v17.65625c.003907 4.871094 3.953126 8.824219 8.828126 8.828125 4.875 0 8.828124 3.949219 8.828124 8.828125 0 4.875-3.953124 8.824219-8.828124 8.824219-14.621094-.015625-26.46875-11.863281-26.484376-26.480469v-17.65625c.019532-19.492187 15.820313-35.289062 35.3125-35.308594h17.652344c19.496094.019532 35.292969 15.816407 35.3125 35.308594v17.65625c-.015625 14.617188-11.863281 26.464844-26.484375 26.480469zm0 0" fill="#e6e7e8"/><path d="m361.929688 353.105469v70.617187c0 4.878906-3.949219 8.828125-8.824219 8.828125-4.878907 0-8.828125-3.949219-8.828125-8.828125v-70.617187zm0 0" fill="#67b9cc"/><path d="m379.585938 450.207031c0 14.625-11.855469 26.484375-26.480469 26.484375-14.628907 0-26.484375-11.859375-26.484375-26.484375s11.855468-26.484375 26.484375-26.484375c14.625 0 26.480469 11.859375 26.480469 26.484375zm0 0" fill="#bdc3c7"/><g fill="#e6e7e8"><path d="m353.105469 485.515625c-19.503907 0-35.3125-15.808594-35.3125-35.308594s15.808593-35.308593 35.3125-35.308593c19.5 0 35.308593 15.808593 35.308593 35.308593-.019531 19.492188-15.816406 35.289063-35.308593 35.308594zm0-52.964844c-9.753907 0-17.65625 7.90625-17.65625 17.65625s7.902343 17.65625 17.65625 17.65625c9.75 0 17.652343-7.90625 17.652343-17.65625-.011718-9.746093-7.90625-17.644531-17.652343-17.65625zm0 0"/><path d="m313.734375 353.105469-50.40625 75.5625c-1.648437 2.429687-4.394531 3.882812-7.328125 3.882812s-5.679688-1.453125-7.328125-3.882812l-50.402344-75.5625h21.183594l36.546875 54.730469 36.546875-54.730469zm0 0"/><path d="m264.828125 423.722656v88.277344h-17.65625v-88.277344c0-4.875 3.953125-8.824218 8.828125-8.824218s8.828125 3.949218 8.828125 8.824218zm0 0"/><path d="m273.65625 476.691406h-17.65625c-4.875 0-8.828125-3.953125-8.828125-8.828125s3.953125-8.828125 8.828125-8.828125h17.65625c4.875 0 8.828125 3.953125 8.828125 8.828125s-3.953125 8.828125-8.828125 8.828125zm0 0"/><path d="m194.207031 282.484375c-1.195312 0-2.378906-.242187-3.472656-.71875l-61.796875-26.480469c-3.246094-1.390625-5.351562-4.582031-5.351562-8.113281s2.105468-6.722656 5.351562-8.109375l61.796875-26.484375c2.914063-1.34375 6.332031-1 8.917969.902344 2.589844 1.902343 3.941406 5.058593 3.53125 8.242187s-2.519532 5.894532-5.503906 7.078125l-42.851563 18.371094 42.851563 18.371094c3.847656 1.652343 6.007812 5.78125 5.164062 9.886719-.839844 4.101562-4.449219 7.046874-8.636719 7.054687zm0 0"/><path d="m317.792969 282.484375c-4.1875-.003906-7.796875-2.953125-8.636719-7.054687-.84375-4.105469 1.316406-8.234376 5.164062-9.886719l42.855469-18.371094-42.855469-18.371094c-2.984374-1.183593-5.09375-3.894531-5.503906-7.078125-.40625-3.183594.945313-6.339844 3.53125-8.242187 2.589844-1.902344 6.003906-2.246094 8.921875-.902344l61.792969 26.484375c3.246094 1.386719 5.351562 4.578125 5.351562 8.109375s-2.105468 6.722656-5.351562 8.113281l-61.792969 26.480469c-1.097656.476563-2.28125.71875-3.476562.71875zm0 0"/></g><path d="m185.378906 211.863281h141.242188v52.964844c0 19.5-15.808594 35.308594-35.3125 35.308594h-70.617188c-19.503906 0-35.3125-15.808594-35.3125-35.308594zm0 0" fill="#46b29d"/><path d="m232.878906 150.855469c-8.390625-3.085938-17.199218-4.871094-26.128906-5.296875-12.003906-.910156-24.015625 1.652344-34.605469 7.378906 1.207031-15.449219 37.023438-18.503906 54.53125-14.53125 2.777344.347656 5.191407 2.058594 6.441407 4.5625 1.246093 2.5 1.15625 5.460938-.238282 7.886719zm0 0" fill="#2c2f38"/><path d="m229.515625 178.152344c0-10.453125-7.902344-18.921875-17.652344-18.921875s-17.65625 8.46875-17.65625 18.921875c0 10.449218 7.90625 18.921875 17.65625 18.921875s17.652344-8.472657 17.652344-18.921875zm0 0" fill="#2c2f38"/><path d="m216.8125 161.730469c-4.558594-1.730469-9.65625.558593-11.390625 5.113281-1.730469 4.558594.558594 9.65625 5.113281 11.390625 4.558594 1.734375 9.65625-.554687 11.390625-5.113281 1.730469-4.558594-.558593-9.65625-5.113281-11.390625zm0 0" fill="#fff"/><path d="m279.121094 150.855469c8.390625-3.085938 17.203125-4.871094 26.128906-5.296875 12.003906-.910156 24.015625 1.652344 34.605469 7.378906-1.207031-15.449219-37.023438-18.503906-54.53125-14.53125-2.773438.347656-5.191407 2.058594-6.441407 4.5625-1.246093 2.5-1.15625 5.460938.238282 7.886719zm0 0" fill="#2c2f38"/><path d="m317.792969 178.152344c0-10.453125-7.902344-18.921875-17.65625-18.921875-9.75 0-17.652344 8.46875-17.652344 18.921875 0 10.449218 7.902344 18.921875 17.652344 18.921875 9.753906 0 17.65625-8.472657 17.65625-18.921875zm0 0" fill="#2c2f38"/><path d="m306.578125 166.84375c-1.734375-4.554688-6.832031-6.84375-11.390625-5.113281-4.554688 1.734375-6.84375 6.832031-5.113281 11.390625 1.734375 4.554687 6.832031 6.84375 11.390625 5.113281 4.558594-1.734375 6.847656-6.832031 5.113281-11.390625zm0 0" fill="#fff"/></svg>