<svg height="512pt" viewBox="0 0 512.00027 512" width="512pt" xmlns="http://www.w3.org/2000/svg"><path d="m185.378906 291.308594h141.242188v79.449218h-141.242188zm0 0" fill="#f29c1f"/><path d="m414.898438 512h97.101562v-7.855469c.015625-11.304687-1.347656-22.570312-4.0625-33.546875l-8.207031-33.277344c-9.523438-34.714843-41.429688-58.511718-77.417969-57.734374h-332.625c-35.988281-.777344-67.894531 23.019531-77.417969 57.734374l-8.207031 33.277344c-2.714844 10.976563-4.078125 22.242188-4.0625 33.546875v7.855469zm0 0" fill="#35495e"/><path d="m388.414062 132.414062v114.757813c0 34.128906-27.664062 61.792969-61.792968 61.792969h-141.242188c-34.125 0-61.792968-27.664063-61.792968-61.792969v-114.757813zm0 0" fill="#f0c419"/><path d="m301.242188 246.621094c-4.867188 15.023437-27.769532 22.402344-40.171876 24.574218-12.425781 2.175782-35.441406 4.203126-45.121093-8.273437 14.464843.871094 28.980469.101563 43.273437-2.289063 14.480469-3.109374 28.570313-7.808593 42.019532-14.011718zm0 0" fill="#2c2f38"/><path d="m231.214844 178.449219c-7.65625-4.613281-15.972656-8.03125-24.664063-10.132813-11.617187-3.160156-23.898437-2.910156-35.378906.710938 4.105469-14.941406 39.851563-11.179688 56.292969-3.972656 2.664062.863281 4.714844 3 5.46875 5.691406.753906 2.695312.109375 5.585937-1.71875 7.703125zm0 0" fill="#2c2f38"/><path d="m229.515625 195.804688c0-10.449219-7.902344-18.921876-17.652344-18.921876s-17.65625 8.472657-17.65625 18.921876c0 10.453124 7.90625 18.925781 17.65625 18.925781s17.652344-8.472657 17.652344-18.925781zm0 0" fill="#2c2f38"/><path d="m216.8125 179.386719c-4.558594-1.734375-9.65625.554687-11.390625 5.113281-1.734375 4.554688.554687 9.65625 5.113281 11.390625 4.558594 1.730469 9.65625-.558594 11.390625-5.113281 1.730469-4.558594-.558593-9.65625-5.113281-11.390625zm0 0" fill="#fff"/><path d="m279.839844 180.300781c6.261718-8.246093 14.957031-14.304687 24.859375-17.320312 13.3125-3.550781 27.476562.945312 36.304687 11.527343-.136718-.132812.136719-2.949218.085938-3.386718-.144532-1.144532-.453125-2.261719-.917969-3.316406-1.039063-2.253907-2.566406-4.25-4.46875-5.839844-4.738281-3.851563-10.378906-6.429688-16.390625-7.496094-7.988281-1.804688-16.316406-1.394531-24.082031 1.191406-4.679688 1.617188-8.984375 4.152344-12.664063 7.464844-3.242187 2.964844-8.042968 8.429688-5.957031 13.402344.964844 1.351562 2.046875 2.613281 3.230469 3.773437zm0 0" fill="#2c2f38"/><path d="m317.792969 195.804688c0-10.449219-7.902344-18.921876-17.65625-18.921876-9.75 0-17.652344 8.472657-17.652344 18.921876 0 10.453124 7.902344 18.925781 17.652344 18.925781 9.753906 0 17.65625-8.472657 17.65625-18.925781zm0 0" fill="#2c2f38"/><path d="m306.578125 184.5c-1.734375-4.558594-6.832031-6.847656-11.390625-5.113281-4.554688 1.734375-6.84375 6.832031-5.113281 11.390625 1.734375 4.554687 6.832031 6.84375 11.390625 5.113281 4.558594-1.734375 6.847656-6.832031 5.113281-11.390625zm0 0" fill="#fff"/><path d="m335.449219 353.105469s-5.652344 18.710937-11.652344 45.8125c-18.242187 9.566406-38.386719 14.9375-58.96875 15.714843-2.824219.175782-5.828125.265626-8.828125.265626s-6.003906-.089844-8.828125-.265626c-20.582031-.777343-40.726563-6.148437-58.96875-15.714843-6-27.101563-11.652344-45.8125-11.652344-45.8125zm0 0" fill="#e6e7e8"/><path d="m323.796875 398.917969c-8.859375 37.078125-13.832031 74.976562-14.832031 113.082031h-105.929688c-1-38.105469-5.972656-76.003906-14.832031-113.082031 20.917969 10.890625 44.21875 16.382812 67.796875 15.980469 23.578125.402343 46.878906-5.089844 67.796875-15.980469zm0 0" fill="#e64c3c"/><path d="m176.550781 353.105469s26.484375 88.273437 26.484375 158.894531h-132.414062l29.925781-144.773438c3.046875-9.125 11.957031-14.964843 21.539063-14.121093zm0 0" fill="#2c3e50"/><path d="m441.378906 512h-132.414062c0-70.621094 26.484375-158.894531 26.484375-158.894531h54.464843c9.605469-.84375 18.539063 4.988281 21.628907 14.121093zm0 0" fill="#2c3e50"/><path d="m256 0c70.621094 0 114.757812 35.308594 132.414062 88.277344 10.179688 29.484375 34.265626 52.042968 64.351563 60.273437 3.738281 1.105469 6.292969 4.550781 6.269531 8.445313v10.609375c.011719 2.375-.9375 4.652343-2.628906 6.3125-1.695312 1.664062-3.988281 2.570312-6.363281 2.515625-35.910157-.757813-71.53125-6.664063-105.765625-17.535156-28.40625-10.164063-58.148438-16.113282-88.277344-17.65625-30.128906 1.542968-59.871094 7.492187-88.277344 17.65625-34.234375 10.875-69.851562 16.78125-105.765625 17.539062-2.375.054688-4.667969-.851562-6.363281-2.515625-1.691406-1.660156-2.640625-3.9375-2.628906-6.3125v-10.613281c-.023438-3.894532 2.53125-7.339844 6.269531-8.445313 30.089844-8.230469 54.171875-30.789062 64.351563-60.273437 17.65625-52.96875 61.792968-88.277344 132.414062-88.277344zm0 0" fill="#2c2f38"/><g fill="#d25627"><path d="m158.898438 311.789062c-4.878907 0-8.828126-3.949218-8.828126-8.824218v-64.621094c0-4.875 3.949219-8.828125 8.828126-8.828125 4.875 0 8.824218 3.953125 8.824218 8.828125v64.621094c0 4.875-3.949218 8.824218-8.824218 8.824218zm0 0"/><path d="m194.207031 317.792969c-4.875 0-8.828125-3.953125-8.828125-8.828125v-26.480469c0-4.875 3.953125-8.828125 8.828125-8.828125s8.828125 3.953125 8.828125 8.828125v26.480469c0 4.875-3.953125 8.828125-8.828125 8.828125zm0 0"/><path d="m229.515625 317.792969c-4.875 0-8.824219-3.953125-8.824219-8.828125v-17.65625c0-4.875 3.949219-8.824219 8.824219-8.824219 4.878906 0 8.828125 3.949219 8.828125 8.824219v17.65625c0 4.875-3.949219 8.828125-8.828125 8.828125zm0 0"/><path d="m353.105469 311.789062c-4.878907 0-8.828125-3.949218-8.828125-8.824218v-64.621094c0-4.875 3.949218-8.828125 8.828125-8.828125 4.875 0 8.824219 3.953125 8.824219 8.828125v64.621094c0 4.875-3.949219 8.824218-8.824219 8.824218zm0 0"/><path d="m317.792969 317.792969c-4.875 0-8.828125-3.953125-8.828125-8.828125v-26.480469c0-4.875 3.953125-8.828125 8.828125-8.828125s8.828125 3.953125 8.828125 8.828125v26.480469c0 4.875-3.953125 8.828125-8.828125 8.828125zm0 0"/><path d="m282.484375 317.792969c-4.875 0-8.828125-3.953125-8.828125-8.828125v-17.65625c0-4.875 3.953125-8.824219 8.828125-8.824219s8.824219 3.949219 8.824219 8.824219v17.65625c0 4.875-3.949219 8.828125-8.824219 8.828125zm0 0"/></g><path d="m203.035156 512h-26.484375c-10.632812-20.6875-25.707031-38.773438-44.136719-52.964844 0 0 26.484376-8.828125 35.308594-17.65625 0 0-35.308594-17.65625-44.136718-17.65625 0 0 8.828124-44.136718 35.3125-70.617187h17.652343s26.484375 88.273437 26.484375 158.894531zm0 0" fill="#35495e"/><path d="m344.277344 441.378906c8.828125 8.828125 35.308594 17.65625 35.308594 17.65625-18.429688 14.191406-33.503907 32.277344-44.136719 52.964844h-26.484375c0-70.621094 26.484375-158.894531 26.484375-158.894531h17.65625c26.480469 26.480469 35.308593 70.617187 35.308593 70.617187-8.828124 0-44.136718 17.65625-44.136718 17.65625zm0 0" fill="#35495e"/><path d="m264.828125 388.414062v26.21875c-2.824219.175782-5.828125.265626-8.828125.265626s-6.003906-.089844-8.828125-.265626v-26.21875c0-4.875 3.953125-8.828124 8.828125-8.828124s8.828125 3.953124 8.828125 8.828124zm0 0" fill="#bdc3c7"/><path d="m264.828125 450.207031c0 4.875-3.953125 8.828125-8.828125 8.828125s-8.828125-3.953125-8.828125-8.828125 3.953125-8.828125 8.828125-8.828125 8.828125 3.953125 8.828125 8.828125zm0 0" fill="#e4c05c"/><path d="m264.828125 485.515625c0 4.878906-3.953125 8.828125-8.828125 8.828125s-8.828125-3.949219-8.828125-8.828125c0-4.875 3.953125-8.824219 8.828125-8.824219s8.828125 3.949219 8.828125 8.824219zm0 0" fill="#e4c05c"/><path d="m211.863281 123.589844c-4.238281.007812-7.882812-2.996094-8.683593-7.160156-.800782-4.160157 1.46875-8.304688 5.40625-9.867188l88.277343-35.3125c2.929688-1.171875 6.257813-.6875 8.738281 1.261719 2.476563 1.953125 3.726563 5.078125 3.273438 8.199219-.449219 3.121093-2.53125 5.765624-5.460938 6.9375l-88.277343 35.308593c-1.039063.417969-2.152344.632813-3.273438.632813zm0 0" fill="#e6e7e8"/><path d="m300.136719 123.589844c-1.121094 0-2.234375-.214844-3.273438-.632813l-88.277343-35.308593c-2.929688-1.171876-5.011719-3.816407-5.460938-6.9375-.453125-3.121094.796875-6.246094 3.273438-8.199219 2.480468-1.949219 5.8125-2.433594 8.738281-1.261719l88.277343 35.3125c3.9375 1.5625 6.207032 5.707031 5.40625 9.867188-.800781 4.164062-4.445312 7.167968-8.683593 7.160156zm0 0" fill="#e6e7e8"/><path d="m185.378906 512h-18.800781c-9.664063-17.78125-22.957031-33.328125-39.019531-45.636719-2.820313-1.839843-4.332032-5.140625-3.882813-8.476562.425781-3.34375 2.722657-6.152344 5.914063-7.238281 6.847656-2.273438 13.539062-4.984376 20.039062-8.121094-8.339844-4.226563-17.097656-7.570313-26.128906-9.976563-2.621094-.164062-5.050781-1.414062-6.710938-3.441406-1.605468-2.011719-2.28125-4.613281-1.855468-7.152344 5.429687-25.046875 16.375-48.570312 32.046875-68.851562h20.742187c.007813 2.34375-.910156 4.597656-2.558594 6.265625-14.753906 16.527344-25.320312 36.355468-30.808593 57.820312 12.765625 4.6875 25.234375 10.140625 37.339843 16.332032 2.535157 1.257812 4.308594 3.652343 4.769532 6.445312.414062 2.804688-.5 5.644531-2.472656 7.679688-7.1875 5.976562-15.296876 10.746093-24.011719 14.121093 13.886719 13.46875 25.511719 29.089844 34.429687 46.257813.609375 1.238281.941406 2.59375.96875 3.972656zm0 0" fill="#e4c05c"/><path d="m397.066406 421.957031c.523438 2.597657-.160156 5.292969-1.855468 7.328125-1.640626 2.082032-4.148438 3.285156-6.796876 3.265625-9.003906 2.414063-17.730468 5.757813-26.042968 9.976563 6.5 3.136718 13.191406 5.847656 20.039062 8.121094 3.191406 1.085937 5.488282 3.894531 5.914063 7.238281.449219 3.335937-1.0625 6.636719-3.882813 8.476562-16.085937 12.28125-29.382812 27.835938-39.019531 45.636719h-18.800781c.027344-1.378906.359375-2.734375.972656-3.972656 8.914062-17.167969 20.539062-32.789063 34.425781-46.257813-8.714843-3.375-16.824219-8.144531-24.011719-14.121093-1.972656-2.035157-2.886718-4.875-2.472656-7.679688.460938-2.792969 2.234375-5.1875 4.769532-6.445312 12.105468-6.191407 24.574218-11.644532 37.339843-16.332032-5.542969-21.441406-16.105469-41.257812-30.808593-57.820312-1.648438-1.667969-2.566407-3.921875-2.558594-6.265625h20.742187c15.671875 20.28125 26.617188 43.804687 32.046875 68.851562zm0 0" fill="#e4c05c"/><path d="m286.898438 66.207031c0 17.0625-13.835938 30.898438-30.898438 30.898438s-30.894531-13.835938-30.894531-30.898438 13.832031-30.898437 30.894531-30.898437 30.898438 13.835937 30.898438 30.898437zm0 0" fill="#fff"/></svg>