<svg height="504pt" viewBox="0 0 504.18983 504" width="504pt" xmlns="http://www.w3.org/2000/svg"><path d="m408.730469 503.410156h95.460937v-7.722656c0-32.042969-12.109375-67.617188-37.929687-87.945312-14.367188-11.15625-32.050781-17.191407-50.238281-17.144532h-327.855469c-18.1875-.046875-35.871094 5.988282-50.238281 17.144532-25.820313 20.328124-37.929688 55.902343-37.929688 87.945312v7.722656zm0 0" fill="#35495e"/><path d="m416.542969 191.003906c-7.925781 12.699219-20.304688 21.980469-34.710938 26.035156h-260.339843c-14.410157-4.054687-26.789063-13.335937-34.710938-26.035156 0 0 64.128906-43.390625 164.878906-43.390625 100.753906 0 164.882813 43.390625 164.882813 43.390625zm0 0" fill="#2c2f38"/><path d="m433.898438 503.410156h-364.476563l29.421875-124.960937c2.992188-8.972657 11.753906-14.714844 21.171875-13.886719h263.289063c9.441406-.828125 18.226562 4.90625 21.261718 13.886719zm0 0" fill="#2c3e50"/><path d="m182.238281 321.171875h138.847657v43.390625h-138.847657zm0 0" fill="#f29c1f"/><path d="m381.832031 147.613281v112.8125c.011719 16.117188-6.386719 31.574219-17.78125 42.96875s-26.851562 17.789063-42.964843 17.777344h-138.847657c-16.117187.011719-31.574219-6.382813-42.96875-17.777344s-17.789062-26.851562-17.777343-42.96875v-112.8125zm0 0" fill="#f0c419"/><path d="m251.660156 251.75c0-9.585938-7.769531-17.355469-17.355468-17.355469h-34.710938c-9.585938 0-17.355469 7.769531-17.355469 17.355469v34.710938l4.527344-2.265626c8.4375-4.214843 17.738281-6.414062 27.167969-6.414062h37.726562" fill="#805333"/><path d="m251.660156 277.78125h37.726563c9.433593 0 18.734375 2.199219 27.167969 6.414062l4.53125 2.265626v-34.710938c0-9.585938-7.773438-17.355469-17.355469-17.355469h-34.714844c-9.585937 0-17.355469 7.769531-17.355469 17.355469zm0 0" fill="#805333"/><path d="m338.441406 364.5625c-.039062 33.535156-27.210937 60.710938-60.746094 60.746094h-52.066406c-2.910156.03125-5.8125-.203125-8.679687-.695313-29.871094-4.292969-52.050781-29.875-52.066407-60.050781h17.355469c.007813 23.960938 19.429688 43.382812 43.390625 43.390625h52.066406c23.960938-.007813 43.378907-19.429687 43.390626-43.390625zm0 0" fill="#7f8c8d"/><path d="m234.304688 416.628906v86.78125h-17.355469v-86.78125c0-4.792968 3.886719-8.675781 8.679687-8.675781 4.789063 0 8.675782 3.882813 8.675782 8.675781zm0 0" fill="#7f8c8d"/><path d="m269.015625 460.019531c0 4.792969-3.882813 8.679688-8.675781 8.679688-4.792969 0-8.679688-3.886719-8.679688-8.679688s3.886719-8.675781 8.679688-8.675781c4.792968 0 8.675781 3.882812 8.675781 8.675781zm0 0" fill="#bdc3c7"/><path d="m373.152344 503.410156c5.648437-13.773437 8.59375-28.503906 8.679687-43.390625-13.894531 1.09375-27.253906-5.585937-34.714843-17.355469-7.457032 11.769532-20.816407 18.449219-34.710938 17.355469.085938 14.886719 3.03125 29.617188 8.679688 43.390625zm0 0" fill="#a5a5a4"/><path d="m416.542969 191.003906s-64.128907-43.390625-164.882813-43.390625c-100.75 0-164.878906 43.390625-164.878906 43.390625 7.308594-18.320312 19.273438-34.410156 34.710938-46.6875 24.558593-20.566406 64.996093-40.09375 130.167968-40.09375s105.613282 19.527344 130.171875 40.09375c15.433594 12.277344 27.398438 28.367188 34.710938 46.6875zm0 0" fill="#35495e"/><path d="m381.832031 130.257812v14.058594c-24.558593-20.566406-65-40.09375-130.171875-40.09375s-105.609375 19.527344-130.167968 40.09375v-14.058594c.003906-6.621093.496093-13.234374 1.472656-19.785156 0-.085937.089844-.175781.089844-.261718 9.875-63.382813 64.460937-110.117188 128.605468-110.117188 64.148438 0 118.730469 46.734375 128.609375 110.117188 0 .085937.085938.175781.085938.261718.976562 6.550782 1.46875 13.164063 1.476562 19.785156zm0 0" fill="#2c3e50"/><path d="m269.015625 52.15625c0 9.585938-7.769531 17.355469-17.355469 17.355469-9.585937 0-17.355468-7.769531-17.355468-17.355469s7.769531-17.355469 17.355468-17.355469c9.585938 0 17.355469 7.769531 17.355469 17.355469zm0 0" fill="#bdc3c7"/><path d="m182.238281 295.140625c-4.792969-.003906-8.675781-3.886719-8.679687-8.679687v-34.710938c0-4.792969 3.886718-8.679688 8.679687-8.679688s8.675781 3.886719 8.675781 8.679688v21.289062c7.398438-2.59375 15.179688-3.925781 23.019532-3.933593h37.726562c4.792969 0 8.679688 3.886719 8.679688 8.675781 0 4.792969-3.886719 8.679688-8.679688 8.679688h-37.726562c-8.082032.007812-16.050782 1.890624-23.28125 5.496093l-4.535156 2.265625c-1.203126.601563-2.53125.914063-3.878907.917969zm0 0" fill="#804537"/><path d="m321.085938 295.140625c-1.347657-.003906-2.675782-.316406-3.882813-.917969l-4.535156-2.265625c-7.230469-3.605469-15.199219-5.488281-23.277344-5.496093h-37.730469c-4.792968 0-8.675781-3.886719-8.675781-8.679688 0-4.789062 3.882813-8.675781 8.675781-8.675781h37.730469c7.839844.007812 15.617187 1.339843 23.015625 3.933593v-21.289062c0-4.792969 3.886719-8.679688 8.679688-8.679688 4.792968 0 8.675781 3.886719 8.675781 8.679688v34.710938c0 4.792968-3.886719 8.675781-8.675781 8.679687zm0 0" fill="#804537"/><path d="m228.933594 170.078125c-8.25-3.03125-16.910156-4.785156-25.6875-5.203125-11.800782-.894531-23.609375 1.625-34.019532 7.253906 1.1875-15.1875 36.394532-18.191406 53.609376-14.285156 2.726562.339844 5.101562 2.023438 6.328124 4.484375 1.226563 2.457031 1.140626 5.371094-.230468 7.75zm0 0" fill="#2c2f38"/><path d="m225.628906 196.914062c0-10.273437-7.773437-18.601562-17.359375-18.601562-9.582031 0-17.355469 8.328125-17.355469 18.601562 0 10.273438 7.773438 18.601563 17.355469 18.601563 9.585938 0 17.359375-8.328125 17.359375-18.601563zm0 0" fill="#2c2f38"/><path d="m213.136719 180.773438c-4.480469-1.703126-9.492188.546874-11.195313 5.027343-1.703125 4.476563.546875 9.492188 5.027344 11.195313 4.476562 1.703125 9.492188-.546875 11.195312-5.027344 1.703126-4.480469-.546874-9.492188-5.027343-11.195312zm0 0" fill="#fff"/><path d="m274.390625 170.078125c8.246094-3.03125 16.910156-4.785156 25.6875-5.203125 11.800781-.894531 23.605469 1.625 34.015625 7.253906-1.1875-15.1875-36.394531-18.191406-53.605469-14.285156-2.730469.339844-5.105469 2.023438-6.332031 4.484375-1.226562 2.457031-1.136719 5.371094.234375 7.75zm0 0" fill="#2c2f38"/><path d="m312.40625 196.914062c0-10.273437-7.769531-18.601562-17.355469-18.601562-9.585937 0-17.355469 8.328125-17.355469 18.601562 0 10.273438 7.769532 18.601563 17.355469 18.601563 9.585938 0 17.355469-8.328125 17.355469-18.601563zm0 0" fill="#2c2f38"/><path d="m301.382812 185.800781c-1.707031-4.480469-6.71875-6.730469-11.199218-5.027343-4.476563 1.703124-6.726563 6.714843-5.023438 11.195312s6.714844 6.730469 11.195313 5.027344 6.730469-6.71875 5.027343-11.195313zm0 0" fill="#fff"/></svg>