<?xml version="1.0" encoding="utf-8"?>
<!-- Generator: Adobe Illustrator 17.0.0, SVG Export Plug-In . SVG Version: 6.00 Build 0)  -->
<!DOCTYPE svg PUBLIC "-//W3C//DTD SVG 1.1//EN" "http://www.w3.org/Graphics/SVG/1.1/DTD/svg11.dtd">
<svg version="1.1" xmlns="http://www.w3.org/2000/svg" xmlns:xlink="http://www.w3.org/1999/xlink" x="0px" y="0px" viewBox="0 0 1000 1000" enable-background="new 0 0 1000 1000" xml:space="preserve">
<g id="Layer_1">
	<g>
		<rect fill="#2E2051" width="1000" height="1000"/>
	</g>
</g>
<g id="logo">
	<g>
		<g opacity="0.5">
			<path d="M180,210c-11,0-20,9-20,20v100c0,11,9,20,20,20h520c11,0,20,9,20,20v200c0,11-9,20-20,20H560c-11,0-29,0-40,0H320
				c-11,0-20,9-20,20v60c0,11,0,29,0,40v160c0,11,5.622,12.972,12.494,4.383l135.012-168.765C454.378,697.028,469,690,480,690h340
				c11,0,20-8.775,20-19.5s0-28.5,0-39.5v-21c0-11,0-29,0-40V370c0-11,0-29,0-40v-39c0-11,0-29,0-40v-21c0-11-9-20-20-20H180z"/>
		</g>
		<g>
			<path fill="#7949BF" d="M180,200c-11,0-20,9-20,20v100c0,11,9,20,20,20h520c11,0,20,9,20,20v200c0,11-9,20-20,20H560
				c-11,0-29,0-40,0H320c-11,0-20,9-20,20v60c0,11,0,29,0,40v160c0,11,5.622,12.972,12.494,4.383l135.012-168.765
				C454.378,687.028,469,680,480,680h340c11,0,20-8.775,20-19.5s0-28.5,0-39.5v-21c0-11,0-29,0-40V360c0-11,0-29,0-40v-39
				c0-11,0-29,0-40v-21c0-11-9-20-20-20H180z"/>
		</g>
	</g>
</g>
</svg>
